<?xml version="1.0"?>
<svg xmlns="http://www.w3.org/2000/svg" id="Layer_1" data-name="Layer 1" viewBox="0 0 512 512" width="512" height="512"><title>Auto Suspension</title><path d="M296.325,257.45a7,7,0,0,0-.063-9.9,6.888,6.888,0,0,0-9.805,0L278,256.1V239h10.75a7.218,7.218,0,0,0,7.25-7V82a7.218,7.218,0,0,0-7.25-7H280.1A25,25,0,1,0,237.4,75H228.75A6.791,6.791,0,0,0,222,82V232a6.791,6.791,0,0,0,6.75,7H240v11.1L215.925,274.05a7,7,0,0,0-.062,9.9,6.909,6.909,0,0,0,4.918,2.05,7.231,7.231,0,0,0,5.059-2.05L240,269.9v24.2L217.925,316.05a7,7,0,0,0-.062,9.9,6.909,6.909,0,0,0,4.918,2.05,7.231,7.231,0,0,0,5.059-2.05L240,313.9v24.2L217.925,360.05a7,7,0,0,0-.062,9.9,6.909,6.909,0,0,0,4.918,2.05,7.231,7.231,0,0,0,5.059-2.05L240,357.9v24.2L217.925,404.05a7,7,0,0,0-.062,9.9,6.909,6.909,0,0,0,4.918,2.05,7.231,7.231,0,0,0,5.059-2.05L240,401.9V434a6.873,6.873,0,0,0,1.945,4.968,21.888,21.888,0,1,0,33.868,0A7.082,7.082,0,0,0,278,434V363.9l18.325-18.449a7,7,0,0,0-.063-9.9,6.888,6.888,0,0,0-9.805,0L278,344.1V319.9l18.325-18.449a7,7,0,0,0-.063-9.9,6.888,6.888,0,0,0-9.805,0L278,300.1V275.9ZM258.75,51a11,11,0,1,1-11,11A11.013,11.013,0,0,1,258.75,51Zm0,410a8,8,0,1,1,8-8A8.009,8.009,0,0,1,258.75,461ZM264,289.9v24.2l-10,10V299.9Zm-10-9.8V255.9l10-10v24.2Zm10,53.8v24.2l-10,10V343.9Zm0,44V427H254V387.9ZM236,225V89h46V225Z"/></svg>
