<?xml version="1.0"?>
<svg xmlns="http://www.w3.org/2000/svg" id="Layer_1" data-name="Layer 1" viewBox="0 0 512 512" width="512" height="512"><title>axle </title><path d="M445,46H385a7,7,0,0,0-7,7v53H313V78a7,7,0,0,0-7-7H206a7,7,0,0,0-7,7v28H134V53a7,7,0,0,0-7-7H67a7,7,0,0,0-7,7V173a7,7,0,0,0,7,7h60a7,7,0,0,0,7-7V120h65v28a7,7,0,0,0,7,7h23v22a7,7,0,0,0,7,7h13V342.445A57.1,57.1,0,0,0,199.445,392H134V339a7,7,0,0,0-7-7H67a7,7,0,0,0-7,7V459a7,7,0,0,0,7,7h60a7,7,0,0,0,7-7V406h65.445a56.985,56.985,0,0,0,113.11,0H378v53a7,7,0,0,0,7,7h60a7,7,0,0,0,7-7V339a7,7,0,0,0-7-7H385a7,7,0,0,0-7,7v53H312.555A57.1,57.1,0,0,0,263,342.445V184h13a7,7,0,0,0,7-7V155h23a7,7,0,0,0,7-7V120h65v53a7,7,0,0,0,7,7h60a7,7,0,0,0,7-7V53A7,7,0,0,0,445,46ZM120,166H74V60h46Zm0,286H74V346h46ZM392,346h46V452H392Zm-93,53a43,43,0,1,1-43-43A43.049,43.049,0,0,1,299,399ZM269,170H243V155h26Zm30-29H213V85h86Zm139,25H392V60h46Z"/></svg>
