<?xml version="1.0"?>
<svg xmlns="http://www.w3.org/2000/svg" id="Layer_1" data-name="Layer 1" viewBox="0 0 512 512" width="512" height="512"><title>Battery </title><path d="M76.5,425h359A16.386,16.386,0,0,0,452,408.25v-249c0-9.374-7.126-17.25-16.5-17.25H422V120.75c0-3.866-2.634-6.75-6.5-6.75H397V93.75a7,7,0,0,0-14,0V114H365.5c-3.866,0-7.5,2.884-7.5,6.75V142h-8.67c-1.654,0-3.33-1.1-3.33-2.75v-20c0-9.374-7.3-17.25-16.67-17.25H182.67C173.3,102,166,109.876,166,119.25v20c0,1.654-1.676,2.75-3.33,2.75H153V120.75c0-3.866-2.634-6.75-6.5-6.75H128V93.75a7,7,0,0,0-14,0V114H96.5c-3.866,0-7.5,2.884-7.5,6.75V142H76.5c-9.374,0-17.5,7.876-17.5,17.25v249C59,417.624,67.126,425,76.5,425ZM372,128h36v14H372Zm-269,0h36v14H103ZM73,159.25A3.691,3.691,0,0,1,76.5,156h86.17c9.374,0,17.33-7.376,17.33-16.75v-20c0-1.654,1.016-3.25,2.67-3.25H329.33c1.654,0,2.67,1.6,2.67,3.25v20c0,9.374,7.956,16.75,17.33,16.75H435.5c1.654,0,2.5,1.6,2.5,3.25v249c0,1.654-.846,2.75-2.5,2.75H76.5c-1.654,0-3.5-1.1-3.5-2.75Z"/><path d="M365.5,216h50a7,7,0,0,0,0-14h-50a7,7,0,0,0,0,14Z"/><path d="M96.5,216H114v17.75a7,7,0,0,0,14,0V216h18.5a7,7,0,0,0,0-14H128V183.75a7,7,0,0,0-14,0V202H96.5a7,7,0,0,0,0,14Z"/></svg>
