<?xml version="1.0"?>
<svg xmlns="http://www.w3.org/2000/svg" id="Layer_1" data-name="Layer 1" viewBox="0 0 512 512" width="512" height="512"><title>Canister </title><path d="M280.219,131H333.7a46.154,46.154,0,0,0,46.178-46.089,6.924,6.924,0,0,0-7-6.911h-80.1A19.9,19.9,0,0,0,273,97.712v26.617C273,128.2,276.353,131,280.219,131ZM287,97.712A5.889,5.889,0,0,1,292.781,92h72.33c-3.2,15-16.072,25-31.412,25H287Z"/><path d="M109.048,162.877a7,7,0,0,0,9.836.062l2.514-2.45,8,8.566L111.831,186.1A32.322,32.322,0,0,0,102,209.2V406.75A57.37,57.37,0,0,0,159.315,464H372.877A57.206,57.206,0,0,0,430,406.75V80.125A32.053,32.053,0,0,0,398,48H267.656A31.764,31.764,0,0,0,236,80.125V106H207.5a31.875,31.875,0,0,0-22.341,8.935l-13.9,13.46-8.05-8.652,5.277-5.159a7.011,7.011,0,0,0,.063-9.971L143.429,79.486a7,7,0,0,0-9.837-.063L83.986,127.791a7,7,0,0,0-.063,9.962Zm85.859-37.89A17.934,17.934,0,0,1,207.5,120h35.027A7.6,7.6,0,0,0,250,112.788V80.125C250,70.131,257.662,62,267.656,62H398a18.037,18.037,0,0,1,18,18.125V406.75A43.19,43.19,0,0,1,372.877,450H159.315A43.355,43.355,0,0,1,116,406.75V209.2a18.142,18.142,0,0,1,5.576-12.994Zm-55.474,34.306-8.009-8.581,21.763-21.219,8.038,8.611Zm-1.016-65.022L153.642,109.5,114.06,148.09,98.835,132.866Z"/><path d="M162.05,391.05a7,7,0,0,0,9.9,9.9L208.9,364H323.127l37.455,36.981a7,7,0,1,0,9.836-9.962L333,354.074V239.9l37.45-37.449a7,7,0,0,0-9.9-9.9L323.1,230H208.926l-36.945-37.418a7,7,0,1,0-9.962,9.836L199,239.873V354.1ZM213,244H319V350H213Z"/><path d="M290,266H242a7,7,0,0,0-7,7v48a7,7,0,0,0,7,7h48a7,7,0,0,0,7-7V273A7,7,0,0,0,290,266Zm-7,48H249V280h34Z"/></svg>
