<?xml version="1.0"?>
<svg xmlns="http://www.w3.org/2000/svg" id="Layer_1" data-name="Layer 1" viewBox="0 0 512 512" width="512" height="512"><title>Car Battery </title><path d="M435.5,129H422V114h3.5a7,7,0,0,0,0-14h-70a7,7,0,0,0,0,14H358v15H153V114h3.5a7,7,0,0,0,0-14h-70a7,7,0,0,0,0,14H89v15H76.5c-9.374,0-17.5,7.376-17.5,16.75v249C59,404.124,67.126,412,76.5,412h359c9.374,0,16.5-7.876,16.5-17.25v-249A16.386,16.386,0,0,0,435.5,129ZM372,114h36v15H372Zm-269,0h36v15H103ZM438,395a3,3,0,0,1-3,3H76a3,3,0,0,1-3-3V146a3,3,0,0,1,3-3H435a3,3,0,0,1,3,3Z"/><path d="M300.567,217.694a7,7,0,0,0-7.6-1l-27.357,13.142,17.081-55.782A7,7,0,0,0,276,165H236a7,7,0,0,0-6.909,5.877l-20,123a7,7,0,0,0,10.039,7.384L249,286.326V353a7,7,0,0,0,13.69,2.059l40-130A7,7,0,0,0,300.567,217.694ZM263,306.447V275a7,7,0,0,0-10.13-6.261l-27.765,13.882L241.954,179h24.582l-18.989,62.011a7,7,0,0,0,9.724,8.359L284.6,236.241Z"/></svg>
