<?xml version="1.0"?>
<svg xmlns="http://www.w3.org/2000/svg" id="Layer_1" data-name="Layer 1" viewBox="0 0 512 512" width="512" height="512"><title>Car bill</title><path d="M120.342,357h-.182a24.5,24.5,0,0,0,.173,49h.186A24.666,24.666,0,0,0,145,381.413v-.1C145,367.923,133.708,357,120.342,357Zm.074,34.963a10.388,10.388,0,0,1-10.465-10.314,10.537,10.537,0,0,1,2.988-7.46A10.33,10.33,0,0,1,120.263,371h.078a10.482,10.482,0,0,1,.075,20.963Z"/><path d="M392.669,355h-.182a24.5,24.5,0,0,0,.174,49h.186a24.054,24.054,0,0,0,17.193-7.292A24.531,24.531,0,0,0,392.669,355ZM403,379.49a10.433,10.433,0,0,1-2.96,7.391,10.192,10.192,0,0,1-7.3,3.119h-.079a10.338,10.338,0,0,1-7.289-3.011A10.531,10.531,0,0,1,392.59,369h.078A10.4,10.4,0,0,1,403,379.4Z"/><path d="M459.841,295.014C456.1,284.061,444.625,277,430.557,277h-.31c-8.089,0-22.59.137-29.681.162l-13.5-24.432C377.342,235.6,363.2,216,339.822,216h-.308l-167.026,1.213c-19.173.142-36.057,13.452-47.562,37.506L111.213,279.44c-7.083.038-21.761.117-29.958.177-14.209.1-25.721,7.336-29.327,18.426a63.1,63.1,0,0,0-2.922,15.32,7.409,7.409,0,0,0,1.965,5.331A7.179,7.179,0,0,0,56,321h.061l18.542-.336c-8.208,7.341-13.335,18.5-13.242,31.307a6.316,6.316,0,0,0,.063.835l10.37,77.315a23.848,23.848,0,0,0,19.173,22.663l.177,24.039A15.3,15.3,0,0,0,106.529,492h.117l25.475-.14A15.386,15.386,0,0,0,147.4,476.381l-.173-23.55,219.614-1.612.174,23.565A15.34,15.34,0,0,0,382.4,490h.117l25.475-.157a15.392,15.392,0,0,0,15.276-15.486l-.179-24.134a23.835,23.835,0,0,0,18.4-22.829l9.66-77.467a6.87,6.87,0,0,0,.054-.917,41.813,41.813,0,0,0-10.326-27.477,37.927,37.927,0,0,0-3.758-3.685l18.938-.147a7,7,0,0,0,6.935-7.4A63.11,63.11,0,0,0,459.841,295.014Zm-322.569-33.7c.072-.126.138-.256.2-.387,5.257-11.046,16.809-29.578,35.12-29.713L339.617,230h.2c12.776,0,23.275,8.87,35.026,29.578l27.551,49.9-27.654.2a41.775,41.775,0,0,0-82.728.606l-182.647,1.345Zm223.266,48.461-54.316.4a27.781,27.781,0,0,1,54.316-.4Zm-296.445-3.2c.3-1.322.674-2.747,1.149-4.207,1.684-5.179,8.16-8.7,16.115-8.756,5.779-.043,14.78-.1,22.067-.136L96.312,306.3ZM132.018,477.86l-25.475.14h-.011a1.352,1.352,0,0,1-.974-.353,1.3,1.3,0,0,1-.414-.954l-.174-23.55,28.253-.2.173,23.569A1.35,1.35,0,0,1,132.018,477.86Zm275.867-2.017L382.409,476H382.4a1.35,1.35,0,0,1-.972-.369,1.318,1.318,0,0,1-.415-.963l-.174-23.554,28.253-.2.174,23.549A1.378,1.378,0,0,1,407.885,475.843Zm29.309-127.262-9.652,77.5a7.046,7.046,0,0,0-.054.918,9.827,9.827,0,0,1-9.706,9.85L95.635,439.223a9.815,9.815,0,0,1-6.921-2.827,9.7,9.7,0,0,1-2.929-6.878,7.009,7.009,0,0,0-.062-.88L75.361,351.361c.083-12.283,7.86-24.746,21-25.6a7.22,7.22,0,0,0,1.076.235h.051l316.532-2.67c.046,0,.091-.33.138-.33h.209a21.449,21.449,0,0,1,16.03,7.621A28.435,28.435,0,0,1,437.194,348.581ZM415.38,304.015l-7.1-12.881c7.283-.029,16.3-.134,22.071-.134h.2c7.864,0,14.3,3.43,16.043,8.54.5,1.459.9,2.893,1.214,4.214Z"/><path d="M306.038,411h-.053l-98.5.961A7.02,7.02,0,0,0,207.533,426h.053l98.5-.627A7.19,7.19,0,0,0,306.038,411Z"/><path d="M212.079,389h.053a6.915,6.915,0,0,0,6.948-6.974l-.118-16.051a7.022,7.022,0,0,0-7-6.975h-.053a7.039,7.039,0,0,0-6.948,7.117l.118,15.98A6.961,6.961,0,0,0,212.079,389Z"/><path d="M182.282,359h-.053a7.134,7.134,0,0,0-6.948,7.227l.118,15.924a6.916,6.916,0,0,0,7,6.849h.053a6.824,6.824,0,0,0,6.948-6.865l-.118-16.105A7.07,7.07,0,0,0,182.282,359Z"/><path d="M330.687,358h-.053a7.092,7.092,0,0,0-6.948,7.18l.118,15.948a6.935,6.935,0,0,0,7,6.872h.052a6.863,6.863,0,0,0,6.949-6.911l-.118-16.083A7.05,7.05,0,0,0,330.687,358Z"/><path d="M241.76,389h.052a7.009,7.009,0,0,0,6.949-7.083l-.118-16.041a7,7,0,1,0-14,.092l.118,16.054A7.025,7.025,0,0,0,241.76,389Z"/><path d="M271.44,389h.053a7.1,7.1,0,0,0,6.948-7.192l-.118-15.943a6.929,6.929,0,0,0-7-6.865h-.053a6.852,6.852,0,0,0-6.948,6.9l.118,16.09A7.056,7.056,0,0,0,271.44,389Z"/><path d="M301.122,389h.053c3.866-1,6.976-3.436,6.948-7.3l-.118-16.15a7.047,7.047,0,0,0-7.052-7.011,6.973,6.973,0,0,0-6.948,7.021l.118,16.259A7.2,7.2,0,0,0,301.122,389Z"/><path d="M256,198.883a89.446,89.446,0,1,0-78.373-46.26A89.59,89.59,0,0,0,256,198.883ZM256,33.9a75.515,75.515,0,1,1-75.489,75.49A75.575,75.575,0,0,1,256,33.9Z"/><path d="M256.174,152.851c-.059,0-.115-.009-.174-.009s-.115.007-.174.009a16.9,16.9,0,0,1-16.714-16.879,7,7,0,0,0-14,0A30.936,30.936,0,0,0,249,166.05v8.021a7,7,0,1,0,14,0V166.05a30.884,30.884,0,0,0-7-60.966A16.888,16.888,0,1,1,272.888,88.2a7,7,0,0,0,14,0A30.937,30.937,0,0,0,263,58.117V51.183a7,7,0,1,0-14,0v6.934a30.885,30.885,0,0,0,7,60.967,16.884,16.884,0,0,1,.174,33.767Z"/></svg>
