<?xml version="1.0"?>
<svg xmlns="http://www.w3.org/2000/svg" id="Layer_1" data-name="Layer 1" viewBox="0 0 512 512" width="512" height="512"><title>Car Cleaning</title><path d="M99.411,333.288a27,27,0,1,0,27,27A27.028,27.028,0,0,0,99.411,333.288Zm0,40a13,13,0,1,1,13-13A13.013,13.013,0,0,1,99.411,373.284Z"/><path d="M412.588,333.288a27,27,0,1,0,27,27A27.028,27.028,0,0,0,412.588,333.288Zm0,40a13,13,0,1,1,13-13A13.012,13.012,0,0,1,412.588,373.284Z"/><path d="M491.068,286.459a7,7,0,0,0,1.924-5.165,71.4,71.4,0,0,0-3.438-17.313c-4.095-12.285-17-20.223-32.883-20.223-9.548,0-26.859-.062-34.758-.092L406.3,215.01C395.359,195.393,379.4,173,352.851,173H160.771c-21.633,0-40.833,14.853-54.081,42.052l-16.3,28.817c-7.879-.016-25.393-.08-35.064-.08-15.881,0-28.788,7.923-32.883,20.207A71.374,71.374,0,0,0,19.008,281.3a7.418,7.418,0,0,0,1.928,5.35A7.181,7.181,0,0,0,26,289h.009l24.272-.215C39.7,296.837,32.892,310.2,32.892,325.735a6.266,6.266,0,0,0,.055.833l11.236,89.054A26.508,26.508,0,0,0,66,441.038v28.528A16.554,16.554,0,0,0,82.728,486h29.3C121.2,486,129,478.745,129,469.566V441H383v28.566c0,9.179,7.8,16.434,16.975,16.434h29.3A16.556,16.556,0,0,0,446,469.566V440.949a26.29,26.29,0,0,0,21.315-25.329l11.751-89.059a6.872,6.872,0,0,0,.051-.918c0-15.351-7.15-28.92-18.014-37l24.9-.009A6.988,6.988,0,0,0,491.068,286.459Zm-372.08-64.74c.071-.127.139-.181.2-.311C125.435,208.529,139.142,187,160.771,187h192.08c15.23,0,27.558,10.426,41.183,34.854L426.134,281H391.645a46.988,46.988,0,0,0-93.29,0H85.589ZM377.5,281h-65a32.992,32.992,0,0,1,65,0ZM34.058,274.621a56.5,56.5,0,0,1,1.67-6.213c2.123-6.37,10-10.65,19.6-10.65,7.128,0,18.523.018,27.172.034l-9.468,16.779ZM115,469.566c0,1.46-1.517,2.434-2.977,2.434H82.728A2.547,2.547,0,0,1,80,469.566V441h35Zm317,0A2.548,2.548,0,0,1,429.271,472h-29.3c-1.46,0-2.975-.974-2.975-2.434V441h35Zm33.1-144.314-11.765,88.955a4.1,4.1,0,0,0-.061.708A12.131,12.131,0,0,1,440.983,427H70.514a12.131,12.131,0,0,1-12.295-12.085,5.415,5.415,0,0,0-.056-.774L46.894,325.17c.178-14.688,9.658-29.6,25.5-30.411A7.186,7.186,0,0,0,73.6,295H437.64c.065,0,.128-.087.193-.087C452.742,294.913,464.894,308.456,465.1,325.252Zm-26.383-50.6-9.2-16.954c8.635.03,20.037.064,27.148.064,9.6,0,17.478,4.28,19.6,10.651a56.093,56.093,0,0,1,1.672,6.225Z"/><path d="M163.383,375H348.617a6.95,6.95,0,0,0,6.628-9.2l-6.387-18.783c-4.39-12.9-18.5-23.018-32.136-23.018H194.775c-13.667,0-27.7,10.19-31.939,23.182L156.729,365.9A6.946,6.946,0,0,0,163.383,375Zm12.762-23.509C178.5,344.292,187.2,338,194.775,338H316.722c7.608,0,16.431,6.3,18.881,13.5l3.24,9.5H173.032Z"/><path d="M373.063,386H144.607a7,7,0,1,0,0,14H373.063a7,7,0,0,0,0-14Z"/><path d="M266,102.127a7,7,0,0,0-6.04,3.462l-13.469,22.994a22.61,22.61,0,1,0,39.018,0L272.04,105.589A7,7,0,0,0,266,102.127Zm6.088,43.972a8.61,8.61,0,0,1-13.517-10.44L266,122.977l7.429,12.682A8.614,8.614,0,0,1,272.088,146.1Z"/><path d="M191.61,102.127a7,7,0,0,0-6.04,3.462L172.1,128.583a22.61,22.61,0,1,0,39.019,0l-13.47-22.994A7,7,0,0,0,191.61,102.127ZM197.7,146.1a8.61,8.61,0,0,1-13.518-10.44l7.429-12.682,7.43,12.682A8.614,8.614,0,0,1,197.7,146.1Z"/><path d="M324.4,156a22.61,22.61,0,0,0,35.5-27.416L346.43,105.589a7,7,0,0,0-12.08,0l-13.47,22.994A22.619,22.619,0,0,0,324.4,156Zm8.558-20.34,7.43-12.682,7.429,12.682a8.61,8.61,0,1,1-14.859,0Z"/><path d="M231.4,29.249a7,7,0,0,0-12.08,0L205.851,52.242a22.61,22.61,0,1,0,39.019,0Zm.049,40.509a8.61,8.61,0,0,1-13.518-10.44l7.429-12.682,7.43,12.682A8.614,8.614,0,0,1,231.449,69.758Z"/><path d="M312.68,29.249a7,7,0,0,0-12.08,0L287.13,52.242a22.61,22.61,0,1,0,39.019,0Zm.048,40.509a8.61,8.61,0,0,1-13.518-10.44l7.43-12.682,7.429,12.682A8.614,8.614,0,0,1,312.728,69.758Z"/></svg>
