<?xml version="1.0"?>
<svg xmlns="http://www.w3.org/2000/svg" id="Layer_1" data-name="Layer 1" viewBox="0 0 512 512" width="512" height="512"><title>Car Documents dollar</title><path d="M362,291a99.7,99.7,0,0,0-17,1.466V142a7,7,0,0,0-2.05-4.95l-112-112A7,7,0,0,0,226,23H86A35.04,35.04,0,0,0,51,58V394a35.04,35.04,0,0,0,35,35H271.012A99,99,0,1,0,362,291ZM233,46.9,321.1,135H254a21.024,21.024,0,0,1-21-21ZM266.2,415H86a21.024,21.024,0,0,1-21-21V58A21.024,21.024,0,0,1,86,37H219v77a35.04,35.04,0,0,0,35,35h77V295.97A99.049,99.049,0,0,0,266.2,415ZM362,475a85,85,0,1,1,85-85A85.1,85.1,0,0,1,362,475Z"/><path d="M362,346.717a19.664,19.664,0,0,1,19.642,19.641,7,7,0,0,0,14,0A33.7,33.7,0,0,0,369,333.454v-8.376a7,7,0,0,0-14,0v8.376A33.642,33.642,0,0,0,362,400a19.637,19.637,0,0,1,.184,39.274c-.062,0-.122-.009-.184-.009s-.122.007-.184.009a19.659,19.659,0,0,1-19.458-19.632,7,7,0,0,0-14,0A33.7,33.7,0,0,0,355,452.547v9.588a7,7,0,0,0,14,0v-9.588A33.641,33.641,0,0,0,362,386a19.642,19.642,0,1,1,0-39.284Z"/><path d="M247,327H103a7,7,0,0,0,0,14H247a7,7,0,0,0,0-14Z"/><path d="M210,361H103a7,7,0,0,0,0,14H210a7,7,0,0,0,0-14Z"/><path d="M300.02,225.145a7.012,7.012,0,0,0,.02-.917c0-11.854-7.929-21.763-18.387-23.989l-15.726-28.914C260.375,161.371,252.169,150,237.954,150H158.795c-11.478,0-21.521,7.571-28.3,21.426l-16.232,28.735C103.733,202.31,96,212.107,96,224.242a6.864,6.864,0,0,0,.056.872l5.02,40.923c.2,6.5,4.924,12.018,9.924,14.287v10.335c0,6.316,5.457,11.341,11.772,11.341h13.522A11.59,11.59,0,0,0,148,290.659V281H248v9.659A11.59,11.59,0,0,0,259.706,302h13.522c6.315,0,11.772-5.025,11.772-11.341V280.242c5-2.322,9.482-7.78,9.691-14.186Zm-157.228-46.96c.071-.127.139-.259.2-.39,2.5-5.15,7.871-13.795,15.8-13.795h79.159c5.479,0,10.185,4.31,15.7,14.191L265.448,200h-6.467a25.465,25.465,0,0,0-49.3,0H130.548ZM243.843,200H224.819a11.454,11.454,0,0,1,19.024,0ZM134,288h-9v-7h9Zm137,0h-9v-7h9Zm9.6-23.357a3.927,3.927,0,0,0-.061.684A1.742,1.742,0,0,1,278.635,267h-161.5a1.754,1.754,0,0,1-1.906-1.688,5.359,5.359,0,0,0-.056-.77l-5.167-40.7c.152-4.855,3.116-9.617,8.016-9.994.179.014.357.154.538.154H277.084c.032,0,.064-.114.1-.114,5.3,0,8.636,5.083,8.812,10Z"/><path d="M224.743,242H171.258a7,7,0,0,0,0,14h53.485a7,7,0,0,0,0-14Z"/><path d="M134.275,225.37a18.678,18.678,0,1,0,18.678,18.678A18.7,18.7,0,0,0,134.275,225.37Zm0,23.356a4.678,4.678,0,1,1,4.678-4.678A4.683,4.683,0,0,1,134.275,248.726Z"/><path d="M261.726,225.37A18.678,18.678,0,1,0,280.4,244.048,18.7,18.7,0,0,0,261.726,225.37Zm0,23.356a4.678,4.678,0,1,1,4.677-4.678A4.683,4.683,0,0,1,261.726,248.726Z"/></svg>
