<?xml version="1.0"?>
<svg xmlns="http://www.w3.org/2000/svg" id="Layer_1" data-name="Layer 1" viewBox="0 0 512 512" width="512" height="512"><title>Car Door</title><path d="M408,446V66a7,7,0,0,0-7-7H229.7a7,7,0,0,0-5.833,3.13l-118.7,178.918A7,7,0,0,0,104,244.917V346a7,7,0,0,0,7,7,93.106,93.106,0,0,1,93,93,7,7,0,0,0,7,7H401A7,7,0,0,0,408,446Zm-14-7H217.773A107.16,107.16,0,0,0,118,339.227v-92.2L233.455,73H394Z"/><path d="M144,261.571v27.506A6.935,6.935,0,0,0,151,296H361a6.935,6.935,0,0,0,7-6.923V106a7,7,0,0,0-7-7H254.915a7,7,0,0,0-5.821,3.112L145.179,257.683A7,7,0,0,0,144,261.571Zm14,2.123L258.657,113H354V282H158Z"/><path d="M361,333H288a7,7,0,0,0,0,14h73a7,7,0,0,0,0-14Z"/></svg>
