<?xml version="1.0"?>
<svg xmlns="http://www.w3.org/2000/svg" id="Layer_1" data-name="Layer 1" viewBox="0 0 512 512" width="512" height="512"><title>Car engine </title><path d="M56,249a7,7,0,0,0-7,7v69.164a7,7,0,0,0,14,0V315h40v27.455c0,3.866,3.312,6.545,7.179,6.545H132v39.564c0,3.867,3.131,7.436,7,7.436H381.072c3.866,0,6.928-3.569,6.928-7.436V349h21.891c3.866,0,7.109-2.679,7.109-6.545V315h32v10.164a7,7,0,0,0,14,0V256a7,7,0,0,0-14,0v10H417V238.709A6.852,6.852,0,0,0,409.891,232H388V192.6a6.608,6.608,0,0,0-6.928-6.6H314V130h10.012a7,7,0,0,0,0-14H197.21a7,7,0,0,0,0,14H207v56H139c-3.866,0-7,2.733-7,6.6V232H110.179A6.913,6.913,0,0,0,103,238.709V266H63V256A7,7,0,0,0,56,249Zm361,31h32v21H417ZM221,130h79v10H221Zm0,24h79v32H221ZM117,246h22a7.257,7.257,0,0,0,7-7.291V200H374v38.709A7.316,7.316,0,0,0,381.072,246H403v89H381.072c-3.866,0-7.072,3.589-7.072,7.455V382H146V342.455c0-3.866-3.137-7.455-7-7.455H117ZM90,280h13v21H90Zm-14,0v21H63V280Z"/><path d="M230.05,340.95a7,7,0,0,0,9.9,0l40-40A7,7,0,0,0,275,289H252.5l29.327-27.931a7,7,0,0,0-9.654-10.138l-42,40A7,7,0,0,0,235,303h23.1L230.05,331.05A7,7,0,0,0,230.05,340.95Z"/></svg>
