<?xml version="1.0"?>
<svg xmlns="http://www.w3.org/2000/svg" id="Layer_1" data-name="Layer 1" viewBox="0 0 512 512" width="512" height="512"><title>Car lift 2</title><path d="M363,318V288a7,7,0,0,0-7-7H156a7,7,0,0,0-7,7v30a7,7,0,0,0,7,7H356A7,7,0,0,0,363,318Zm-14-7H163V295H349Z"/><path d="M306,369H206a7,7,0,0,0,0,14H306a7,7,0,0,0,0-14Z"/><path d="M306,453H206a7,7,0,0,0,0,14H306a7,7,0,0,0,0-14Z"/><path d="M306,397H206a7,7,0,0,0,0,14H306a7,7,0,0,0,0-14Z"/><path d="M306,425H206a7,7,0,0,0,0,14H306a7,7,0,0,0,0-14Z"/><path d="M306,341H206a7,7,0,0,0,0,14H306a7,7,0,0,0,0-14Z"/><path d="M306,481H206a7,7,0,0,0,0,14H306a7,7,0,0,0,0-14Z"/><path d="M113.37,165.472A25.264,25.264,0,0,0,113.552,216h.191a25.268,25.268,0,0,0,25.072-25.453A25.3,25.3,0,0,0,113.37,165.472ZM125,190.648A11.423,11.423,0,0,1,113.64,202h-.085a11.193,11.193,0,0,1-7.9-3.243,11.744,11.744,0,0,1-3.355-8.177c-.046-6.208,4.967-10.58,11.175-11.58h.084A11.606,11.606,0,0,1,125,190.412Z"/><path d="M399.5,163h-.19a25.577,25.577,0,0,0-25.072,25.718A25.439,25.439,0,0,0,399.5,214h.193c13.926,0,25.174-11.758,25.072-25.686A25.5,25.5,0,0,0,399.5,163Zm.08,37H399.5a11.36,11.36,0,0,1-11.256-11.264,11.647,11.647,0,0,1,3.239-8.183A11.293,11.293,0,0,1,399.418,177h.084a11.5,11.5,0,0,1,.082,23Z"/><path d="M469.7,99.817C465.823,88.46,453.906,81,439.287,81h-.325c-8.572,0-24,.284-31.373.31L393.311,55.433C383.151,37.53,368.376,17,344.012,17h-.321L168.315,18.388c-19.994.147-37.614,14.114-49.631,39.249l-14.5,26.174c-7.357.04-22.975.137-31.66.2-14.767.109-26.724,7.615-30.461,19.112a65.859,65.859,0,0,0-3.053,16,6.544,6.544,0,0,0,1.966,4.951A6.815,6.815,0,0,0,46,126h.061l20.417.028c-8.961,7.621-14.6,19.721-14.5,33.422a7.81,7.81,0,0,0,.063.93l10.89,81.249A24.705,24.705,0,0,0,83.062,265.2l.189,25.538a15.216,15.216,0,0,0,4.714,10.932A15.506,15.506,0,0,0,99.055,306h.121l26.748.018A15.735,15.735,0,0,0,141.616,290.2l-.184-25.037,231.294-1.677.185,25.1a15.381,15.381,0,0,0,4.714,11A15.576,15.576,0,0,0,388.717,304h.119l26.749-.05a15.684,15.684,0,0,0,15.691-15.815l-.188-25.61a24.647,24.647,0,0,0,19.323-23.714l10.146-81.356a7,7,0,0,0,.053-.915,43.546,43.546,0,0,0-10.755-28.62,39.305,39.305,0,0,0-4.635-4.444l20.834-.161a7,7,0,0,0,5.05-2.21,7.184,7.184,0,0,0,1.885-5.26A66.14,66.14,0,0,0,469.7,99.817ZM131.03,64.288c.072-.127.138-.257.2-.388C136.784,52.229,149,32.531,168.419,32.388L343.8,31h.217c13.555,0,24.671,9.481,37.083,31.352l29.213,52.964-29.926.244A43.633,43.633,0,0,0,337.3,78h-.331a43.664,43.664,0,0,0-42.853,38.177l-192.681,1.441Zm235.178,51.4-57.915.426a29.569,29.569,0,0,1,7.972-15.229A29.172,29.172,0,0,1,337.076,92h.224a29.671,29.671,0,0,1,28.908,23.689ZM54.061,112.34a50.277,50.277,0,0,1,1.311-4.881c1.815-5.581,8.747-9.372,17.251-9.435,6.227-.046,16.017-.1,23.769-.146l-7.857,14.164ZM125.82,292.232l-26.748.2a1.856,1.856,0,0,1-1.282-.52,1.777,1.777,0,0,1-.539-1.275l-.186-25.09,30.367-.224.184,25.091A1.81,1.81,0,0,1,125.82,292.232Zm290.936-2.674a1.775,1.775,0,0,1-1.275.54l-26.749.2a1.924,1.924,0,0,1-1.282-.521,1.774,1.774,0,0,1-.539-1.274l-.185-25.091,30.366-.223.184,25.09A1.774,1.774,0,0,1,416.756,289.558ZM446.6,156.137l-10.137,81.37a7.046,7.046,0,0,0-.054.918,10.8,10.8,0,0,1-10.539,10.889L87.619,252H87.54a10.8,10.8,0,0,1-10.616-10.733,8.6,8.6,0,0,0-.063-.975L65.979,159.08c.08-13.085,8.385-26.411,22.421-27.289a7.14,7.14,0,0,0,1.1.209h.052l332.36-2.728c.049,0,.1-.272.146-.272h.22a22.8,22.8,0,0,1,17.092,8.059A30.132,30.132,0,0,1,446.6,156.137Zm-23.461-46.491-7.841-14.2c7.744-.031,17.547-.074,23.763-.12,8.459-.041,15.492,3.626,17.389,9.18a50.4,50.4,0,0,1,1.385,4.874Z"/><path d="M308.54,222h-.053L205.06,223a7,7,0,0,0,.05,14h.053l103.428-.645A7.181,7.181,0,0,0,308.54,222Z"/><path d="M209.883,198h.053a6.838,6.838,0,0,0,6.948-6.881l-.124-16.74a7,7,0,0,0-14,.168l.124,16.665A6.865,6.865,0,0,0,209.883,198Z"/><path d="M178.6,168h-.053a6.875,6.875,0,0,0-6.948,6.925l.124,16.976a7.131,7.131,0,0,0,7,7.1h.053a7.17,7.17,0,0,0,6.948-7.266l-.124-16.806A6.983,6.983,0,0,0,178.6,168Z"/><path d="M334.421,167h-.053a6.813,6.813,0,0,0-6.948,6.851l.124,16.513a6.74,6.74,0,0,0,7,6.636h.053a6.8,6.8,0,0,0,6.948-6.84l-.124-16.519A6.744,6.744,0,0,0,334.421,167Z"/><path d="M241.048,198h.053a6.934,6.934,0,0,0,6.948-7l-.124-16.942a7.1,7.1,0,0,0-7-7.063h-.053a7.107,7.107,0,0,0-6.948,7.195l.124,16.841A7.013,7.013,0,0,0,241.048,198Z"/><path d="M272.213,198h.053a7.033,7.033,0,0,0,6.948-7.11l-.124-16.884a7.05,7.05,0,0,0-7-7.006h-.053a7.007,7.007,0,0,0-6.948,7.08l.124,16.9A7.063,7.063,0,0,0,272.213,198Z"/><path d="M303.378,198h.053a7.134,7.134,0,0,0,6.948-7.225l-.124-16.826a7,7,0,0,0-7-6.949H303.2a6.909,6.909,0,0,0-6.948,6.966l.124,16.956A7.112,7.112,0,0,0,303.378,198Z"/></svg>
