<?xml version="1.0"?>
<svg xmlns="http://www.w3.org/2000/svg" id="Layer_1" data-name="Layer 1" viewBox="0 0 512 512" width="512" height="512"><title>Car Maintenance_1</title><path d="M465.014,224.41a7.226,7.226,0,0,0-5.868-3.41h0a7.219,7.219,0,0,0-5.87,3.417l-36.8,56.845A6.946,6.946,0,0,0,422.341,292h0l27.692.076a206.159,206.159,0,0,1-69.853,127.848C344.085,450.915,298.729,469,255.748,469h-.1c-28,0-57.281-7.763-84.679-22.028a211.013,211.013,0,0,1-72.258-62.016,6.975,6.975,0,1,0-11.289,8.2A225.375,225.375,0,0,0,164.508,459.4c29.388,15.3,60.9,23.6,91.144,23.6h.1c46.274,0,94.95-19.272,133.547-52.408a219.74,219.74,0,0,0,74.864-138.32l31.854-.075a7.029,7.029,0,0,0,6.151-3.692,7.237,7.237,0,0,0-.286-7.281Zm-29.783,53.767L459.153,241.3l23.966,36.844Z"/><path d="M52.854,291h0a7.219,7.219,0,0,0,5.87-3.417l36.8-56.845A6.946,6.946,0,0,0,89.659,220h0l-27.692-.076A206.159,206.159,0,0,1,131.816,92.076C167.915,61.085,213.271,43,256.252,43h.1c28,0,57.281,7.763,84.678,22.028a211.007,211.007,0,0,1,72.259,62.016,6.975,6.975,0,1,0,11.289-8.2A224.759,224.759,0,0,0,347.492,52.82C318.071,37.5,286.551,29.4,256.244,29.441c-46.274.028-94.95,19.052-133.547,52.187a219.479,219.479,0,0,0-74.864,138.21l-31.854.02a7,7,0,0,0-5.865,10.818L46.986,287.59A7.226,7.226,0,0,0,52.854,291Zm23.915-57.177L52.847,270.7,28.881,233.852Z"/><path d="M154.27,257h-.163a19.583,19.583,0,0,0-14.125,5.823A20.1,20.1,0,0,0,154.266,297h.161a20,20,0,0,0-.157-40Zm.045,26h-.048a6.152,6.152,0,0,1-6.041-6.114,5.767,5.767,0,0,1,1.735-4.184,5.852,5.852,0,0,1,4.258-1.7h.05a6,6,0,1,1,.046,12Z"/><path d="M358.518,255h-.165a20,20,0,0,0,.154,40h.165a19.929,19.929,0,0,0,19.882-20.1A20.055,20.055,0,0,0,358.518,255ZM365,275.043a6.128,6.128,0,0,1-1.959,4.22,6.4,6.4,0,0,1-4.48,1.737h-.05a5.927,5.927,0,0,1-6.04-5.895,6.02,6.02,0,0,1,1.735-4.294A5.957,5.957,0,0,1,358.464,269h.05a6.562,6.562,0,0,1,4.461,1.76A6.218,6.218,0,0,1,365,275.03Z"/><path d="M411.087,228.2a7.005,7.005,0,0,0,1.883-5.181,48.387,48.387,0,0,0-2.46-11.924c-3.078-9-12.453-14.723-23.873-14.665-5.73.046-15.634.091-21.217.115L355.771,179.1c-7.53-13.251-18.526-28.433-36.944-28.433l-.268,0-125.269,1c-15.073.12-28.276,10.455-37.2,29.106l-9.752,17.608c-5.6.034-15.671.1-21.448.142-11.425.092-20.7,6-23.637,15.043a48.4,48.4,0,0,0-2.27,11.961,7.228,7.228,0,0,0,1.968,5.253A7.1,7.1,0,0,0,105.981,233h.065l9.731-.188a33.268,33.268,0,0,0-7.506,21.729,6.6,6.6,0,0,0,.062.854l7.8,57.9a19.6,19.6,0,0,0,14.4,18.22l.133,16.49a13.15,13.15,0,0,0,13.289,13h.109l19.1.031a13.139,13.139,0,0,0,13.187-13.26l-.127-15.9,161.21-1.274.126,15.927a13.54,13.54,0,0,0,3.97,9.512A13.344,13.344,0,0,0,350.851,360h.109l19.106-.293a13.416,13.416,0,0,0,13.186-13.5l-.134-16.771A19.684,19.684,0,0,0,396.9,311.066l7.2-58.014a7.035,7.035,0,0,0,.053-.918,33.12,33.12,0,0,0-8.1-21.637l9.993-.084A7,7,0,0,0,411.087,228.2ZM168.444,187.364c.071-.127.137-.256.2-.387,3.761-7.917,11.979-21.045,24.758-21.147L318.67,165h.148c8.864,0,16.285,6.228,24.742,21.109l19.263,34.76-16.307.087a33.088,33.088,0,0,0-65.031.479L148.99,222.491Zm163.619,33.665-36.125.289a19.069,19.069,0,0,1,36.125-.289Zm-217.751-2.3c.082-.279.169-.562.261-.847,1.012-3.116,5.3-5.322,10.432-5.363,3.568-.028,8.776-.063,13.556-.093l-3.384,6.11Zm30.345,128.634-.121-15.214,17.69-.141.121,15.214Zm206.9-1.65-.121-15.213,17.689-.141.121,15.213Zm31.4-35.966a7.036,7.036,0,0,0-.054.918,5.54,5.54,0,0,1-1.614,3.95,5.443,5.443,0,0,1-3.925,1.569L135.751,318h-.045a5.435,5.435,0,0,1-5.583-5.375,6.727,6.727,0,0,0-.062-.852l-7.79-57.819c.1-10.446,7.028-16.665,14.06-17.216.241.025.482.262.728.262h.055l237.38-1.949c.035,0,.069-.051.1-.051h.176a14.027,14.027,0,0,1,10.7,4.822,19.145,19.145,0,0,1,4.666,12.072Zm-6.414-93.088-3.4-6.147c4.784-.023,10.014-.051,13.607-.08,5.115-.067,9.455,2.095,10.516,5.2q.147.431.279.854Z"/><path d="M293.559,297H293.5l-73.877.743A7.13,7.13,0,0,0,219.68,312h.056l73.877-.64a7.183,7.183,0,0,0-.054-14.36Z"/><path d="M223.072,284h.058a6.932,6.932,0,0,0,6.943-7l-.1-12.038a7.018,7.018,0,0,0-7-6.963h-.058a7.022,7.022,0,0,0-6.943,7.1l.1,11.985A6.972,6.972,0,0,0,223.072,284Z"/><path d="M200.718,258h-.057a7.1,7.1,0,0,0-6.944,7.192l.095,11.941a6.936,6.936,0,0,0,7,6.867h.056a6.857,6.857,0,0,0,6.944-6.91l-.095-12.082A7.055,7.055,0,0,0,200.718,258Z"/><path d="M312.021,257h-.057a7.149,7.149,0,0,0-6.944,7.249l.1,11.912a6.911,6.911,0,0,0,7,6.839h.057a6.81,6.81,0,0,0,6.944-6.854l-.1-12.11A7.081,7.081,0,0,0,312.021,257Z"/><path d="M245.332,284h.057a7.008,7.008,0,0,0,6.944-7.087l-.1-11.994a6.979,6.979,0,0,0-7-6.919h-.056a6.946,6.946,0,0,0-6.945,7.015l.1,12.03A7.01,7.01,0,0,0,245.332,284Z"/><path d="M267.593,284h.056a7.085,7.085,0,0,0,6.945-7.176l-.1-11.949a6.942,6.942,0,0,0-7-6.875h-.057a6.871,6.871,0,0,0-6.944,6.926l.1,12.074A7.048,7.048,0,0,0,267.593,284Z"/><path d="M289.854,284h.056a7.163,7.163,0,0,0,6.944-7.265l-.095-12.123a7,7,0,1,0-14,.033l.095,12.215A7.172,7.172,0,0,0,289.854,284Z"/></svg>
