<?xml version="1.0"?>
<svg xmlns="http://www.w3.org/2000/svg" id="Layer_1" data-name="Layer 1" viewBox="0 0 512 512" width="512" height="512"><title>Car Maintenance 2</title><path d="M114.9,259.376a28.493,28.493,0,1,0,28.493,28.493A28.525,28.525,0,0,0,114.9,259.376Zm0,42.986a14.493,14.493,0,1,1,14.493-14.493A14.509,14.509,0,0,1,114.9,302.362Z"/><path d="M36,210h.009l27.762.132a44.3,44.3,0,0,0-8.011,7.426A50.878,50.878,0,0,0,43.93,250.6a7.309,7.309,0,0,0,.055.9l12.323,95.774A27.2,27.2,0,0,0,80,374.219v31.1C80,414.9,87.391,423,96.968,423h31.485A17.812,17.812,0,0,0,146,405.317V375H283.189c2.154,0,3.811-1.43,5.811-2.959v64.643c0,3.866,2.685,7.316,6.551,7.316H321.8a7.14,7.14,0,0,0,6.968-6.487l3.3-34.34a152.751,152.751,0,0,0,41.189-17.437l26.381,21.827a7,7,0,0,0,9.415-.452l37.363-37.368a7,7,0,0,0,.441-9.417L425.051,333.99a149.752,149.752,0,0,0,17.359-41.234l34.262-3.3A7,7,0,0,0,483,282.486V229.514a7,7,0,0,0-6.328-6.968l-34.265-3.3a153.2,153.2,0,0,0-17.4-41.185l21.848-26.384a7,7,0,0,0-.441-9.414L409.055,104.9a7,7,0,0,0-9.415-.441l-26.333,21.807A149.225,149.225,0,0,0,332.07,108.9l-3.3-34.416A7.14,7.14,0,0,0,321.8,68H295.551C291.685,68,289,71.45,289,75.316V87.471A9.53,9.53,0,0,0,285.663,87H180.842c-23.034,0-43.5,15.918-57.654,44.974l-17.674,31.274c-8.31-.017-27.47-.073-37.993-.073-16.837,0-30.515,8.381-34.844,21.367A76.154,76.154,0,0,0,29.008,203a6.616,6.616,0,0,0,1.928,5A6.842,6.842,0,0,0,36,210Zm267-49.868c49,3.713,88.9,45.33,88.9,95.868S352,348.154,303,351.868ZM303,365.9c57-3.741,102.9-51.644,102.9-109.9S360,149.844,303,146.1V82h12.444l3.172,33.083a7.091,7.091,0,0,0,5.489,6.25A134.653,134.653,0,0,1,369.951,140.7a7,7,0,0,0,8.35-.412l25.36-20.991,28.351,28.356-21,25.363a7,7,0,0,0-.492,8.258,139.331,139.331,0,0,1,19.386,45.943,7,7,0,0,0,6.169,5.485L469,235.872v40.256L436.074,279.3a7,7,0,0,0-6.169,5.484,135.038,135.038,0,0,1-19.328,45.853,7,7,0,0,0,.434,8.347l21,25.36L403.661,392.7l-25.36-21a7,7,0,0,0-8.261-.49,138.78,138.78,0,0,1-45.935,19.383,7.184,7.184,0,0,0-5.489,6.329L315.444,430H303Zm-171,39.42A3.81,3.81,0,0,1,128.453,409H96.968C95.11,409,94,407.175,94,405.317V375h38ZM289,289.871a10.112,10.112,0,0,0-3.337-.871H193.3l3.567-11.02c2.6-7.933,12.189-14.98,20.527-14.98h68.274a9.364,9.364,0,0,0,3.337-.208Zm0-39.822A10.5,10.5,0,0,0,285.663,249H217.389c-14.468,0-29.328,10.988-33.833,24.752l-6.563,20.214a6.861,6.861,0,0,0,.988,6.214,6.938,6.938,0,0,0,5.666,2.82H285.663a9.457,9.457,0,0,0,3.337-.386v13.8a9.477,9.477,0,0,0-3.337-.411H163.473a7,7,0,0,0,0,14h122.19a10.064,10.064,0,0,0,3.337-.846v33.893A8.737,8.737,0,0,0,283.189,361H83.841A13.949,13.949,0,0,1,70.1,347.035a8.892,8.892,0,0,0-.056-.993L57.932,250.269c.192-20.233,14.076-32.59,27.968-33.382a6.9,6.9,0,0,0,1.256.113H285.663a9.748,9.748,0,0,0,3.337-.655ZM135.484,138.6c.072-.126.139-.183.2-.313C142.455,124.336,157.322,101,180.842,101H285.663a9.955,9.955,0,0,0,3.337-.786V203.6a9.676,9.676,0,0,0-3.337-.6H99.146ZM45.958,188.959c2.354-7.06,11.02-11.8,21.563-11.8,7.912,0,20.707.021,30.1.038L86.853,196.271l-42.833.055A61.583,61.583,0,0,1,45.958,188.959Z"/></svg>
