<?xml version="1.0"?>
<svg xmlns="http://www.w3.org/2000/svg" id="Layer_1" data-name="Layer 1" viewBox="0 0 512 512" width="512" height="512"><title>Car  Maintenance</title><path d="M59.686,459.055A6.82,6.82,0,0,0,66.634,465h90a6.712,6.712,0,0,0,6.7-8.729l-11.514-37.713L187.69,395.9a20.752,20.752,0,0,1,15.1-1.926c.145.036.291.075.438.1l74.909,13.8a98.362,98.362,0,0,0,60.776-8.579,6.834,6.834,0,0,0,.855-.5L469.328,309.84a7,7,0,0,0,2.035-9.381,36.972,36.972,0,0,0-49.3-13.482l-1.206.651c-9.431-10.648-25.1-14.624-37.122-8.529q-.078.039-.156.081l-4.376,2.358a41.006,41.006,0,0,0-46.19-3.631L305.272,293h-37a52.544,52.544,0,0,1-22.743-5.219l-5.137-2.489a89.564,89.564,0,0,0-93.215,9.1c-.154.115-.3.235-.446.363L134.325,305.8a41.624,41.624,0,0,1-14.36,8.34l-6.636-21.974A7.19,7.19,0,0,0,106.634,287h-60a7.211,7.211,0,0,0-5.241,2.568,6.991,6.991,0,0,0-1.707,5.487Zm330.448-167.5c5.679-2.836,12.7-.929,17.744,3.078l-47.324,25.531-1.465.772a43.993,43.993,0,0,0-5.364-9.764Zm-50.354-1.4c.056-.03.112-.061.166-.093a26.983,26.983,0,0,1,25.213-.957l-21.9,11.8a43.918,43.918,0,0,0-12.241-5.986Zm-196.146,26.1,12.186-10.85a75.619,75.619,0,0,1,78.476-7.516l5.138,2.492A66.618,66.618,0,0,0,268.272,307H318.1a30.1,30.1,0,0,1,29.134,22.675l-34.274-1.554a217.243,217.243,0,0,0-39.563,1.825,7,7,0,1,0,1.92,13.866,203.624,203.624,0,0,1,37.01-1.71l42.5,1.924c.1,0,.211.007.316.007a7,7,0,0,0,7-7c0-.625-.021-1.244-.046-1.863l5.039-2.657,61.57-33.216a22.99,22.99,0,0,1,26.481,3.267l-122.927,84.4a84.24,84.24,0,0,1-51.611,7.14l-74.679-13.751A34.717,34.717,0,0,0,180.7,383.8c-.109.061-.218.126-.323.193l-32.8,20.735-23.53-77.178A55.652,55.652,0,0,0,143.634,316.258ZM101.45,301l45.732,150H72.832L54.539,301Z"/><path d="M106.918,448.722a19,19,0,1,0-19-19A19.022,19.022,0,0,0,106.918,448.722Zm0-24a5,5,0,1,1-5,5A5.006,5.006,0,0,1,106.918,424.722Z"/><path d="M154.106,152.5a20.253,20.253,0,0,0,.146,40.5h.15a20.252,20.252,0,0,0-.3-40.5Zm5.894,20a6.418,6.418,0,0,1-1.589,4.493A5.846,5.846,0,0,1,154.3,179h-.045a6,6,0,1,1-.044-12c.016-1,.03-1,.046-1a5.931,5.931,0,0,1,4.092,1.988A6.11,6.11,0,0,1,160,172.371Z"/><path d="M379,170.871v0Z"/><path d="M358.5,151h-.15a20,20,0,0,0,.142,40h.151A20.425,20.425,0,0,0,379,170.865C378,159.867,369.483,151,358.5,151Zm.041,26H358.5a6,6,0,1,1-.043-12h.045a6,6,0,1,1,.044,12Z"/><path d="M411.1,124.178A7,7,0,0,0,412.989,119a49.119,49.119,0,0,0-2.452-12.124C407.484,97.939,398.23,92,386.92,92h-.248c-5.728,0-15.633.278-21.216.3l-9.638-17.15C348.293,61.887,337.3,47,318.87,47h-.248l-125.268.715c-15.074.112-28.284,10.333-37.215,28.98l-9.763,17.55c-5.6.031-15.671.06-21.448.1-11.424.084-20.7,5.971-23.645,15.015a48.3,48.3,0,0,0-2.277,11.955,7.458,7.458,0,0,0,1.966,5.354A7.2,7.2,0,0,0,106,129h.061l9.73-.286a33.135,33.135,0,0,0-7.52,21.673,6.224,6.224,0,0,0,.063.828L116.1,209.1a19.593,19.593,0,0,0,14.385,18.22l.123,16.67A13.135,13.135,0,0,0,143.9,257h.1l19.106-.05A13.215,13.215,0,0,0,176.3,243.629l-.117-15.91,161.211-1.182.117,15.924A13.6,13.6,0,0,0,341.472,252a13.37,13.37,0,0,0,9.324,4h.1L370,255.688A13.38,13.38,0,0,0,383.2,242.213l-.123-16.795a19.727,19.727,0,0,0,13.789-18.378l7.234-58.011a7.081,7.081,0,0,0,.053-.921,33.118,33.118,0,0,0-8.088-21.642l9.992-.078A7,7,0,0,0,411.1,124.178ZM168.484,83.194c.072-.127.138-.256.2-.387,3.765-7.914,11.992-21,24.772-21.092L318.726,61h.135c8.87,0,16.29,6.193,24.742,21.085l19.242,34.751-16.308.068a33.082,33.082,0,0,0-65.022.434l-132.5.973Zm163.6,33.765-36.118.266a19.064,19.064,0,0,1,36.118-.266Zm-217.749-2.434q.123-.419.262-.845c1.012-3.117,5.3-5.32,10.434-5.358,3.569-.026,8.777-.058,13.556-.085l-3.388,6.108ZM144.6,243.178l-.112-15.214,17.69-.13.112,15.213Zm206.9-1.525-.111-15.214,17.689-.13.112,15.214Zm31.418-35.948a7.051,7.051,0,0,0-.054.919,5.593,5.593,0,0,1-5.542,5.609L135.713,214h-.041a5.6,5.6,0,0,1-5.583-5.521,6.947,6.947,0,0,0-.063-.876l-7.755-57.835c.1-10.445,7.039-17.071,14.07-17.619.242.026.486-.149.733-.149h.052l237.384-1.377c.035,0,.07.377.106.377h.053a14.168,14.168,0,0,1,10.815,4.806,19.108,19.108,0,0,1,4.659,12.064Zm-6.358-93.091-3.394-6.149c4.784-.02,10.016-.045,13.607-.071,5.118-.057,9.454,2.1,10.514,5.2.1.287.19.573.278.855Z"/><path d="M293.477,193.214l-73.878.544a7.123,7.123,0,0,0,.05,14.242h.053l73.878-.665a7.061,7.061,0,0,0-.1-14.121Z"/><path d="M223.059,180h.051a6.992,6.992,0,0,0,6.95-7.062l-.088-12a6.988,6.988,0,0,0-7-6.934h-.052a6.965,6.965,0,0,0-6.949,7.031l.088,12.019A7,7,0,0,0,223.059,180Z"/><path d="M200.712,154h-.053a7.036,7.036,0,0,0-6.948,7.114l.089,11.978a6.965,6.965,0,0,0,7,6.908h.053a6.922,6.922,0,0,0,6.948-6.981l-.089-12.045A7.022,7.022,0,0,0,200.712,154Z"/><path d="M312.015,153h-.053a7.114,7.114,0,0,0-6.948,7.2l.089,11.934a6.928,6.928,0,0,0,7,6.863h.052a6.846,6.846,0,0,0,6.949-6.891l-.089-12.09A7.062,7.062,0,0,0,312.015,153Z"/><path d="M245.319,180h.052a7.062,7.062,0,0,0,6.949-7.144l-.088-11.963a6.952,6.952,0,0,0-7-6.893h-.051a6.9,6.9,0,0,0-6.95,6.949l.088,12.06A7.037,7.037,0,0,0,245.319,180Z"/><path d="M267.58,180h.052a7.135,7.135,0,0,0,6.949-7.226l-.088-11.922a6.917,6.917,0,0,0-7-6.852h-.052a6.827,6.827,0,0,0-6.949,6.867l.088,12.1A7.071,7.071,0,0,0,267.58,180Z"/><path d="M289.841,179h.053a6.778,6.778,0,0,0,6.948-6.809l-.089-12.131a7.1,7.1,0,0,0-7-7.06H289.7a7.187,7.187,0,0,0-6.948,7.285l.089,11.893A6.893,6.893,0,0,0,289.841,179Z"/></svg>
