<?xml version="1.0"?>
<svg xmlns="http://www.w3.org/2000/svg" id="Layer_1" data-name="Layer 1" viewBox="0 0 512 512" width="512" height="512"><title>Car mechanic</title><path d="M425.215,228h9.341a7,7,0,1,0,0-14h-9.341a7,7,0,1,0,0,14Z"/><path d="M436.576,240H425.215a7,7,0,1,0,0,14h11.361a7,7,0,0,0,0-14Z"/><path d="M436.576,267H425.215a7,7,0,1,0,0,14h11.361a7,7,0,0,0,0-14Z"/><path d="M331,238.57a7,7,0,0,0-7,7v52.339a7,7,0,0,0,14,0V245.57A7,7,0,0,0,331,238.57Z"/><path d="M312,238.57a7,7,0,0,0-7,7v52.339a7,7,0,0,0,14,0V245.57A7,7,0,0,0,312,238.57Z"/><path d="M359.6,185a16,16,0,0,0-15.871-16H337V69.94l6.626-13.474a7.034,7.034,0,0,0,.557-4.784l-8.819-33.653A6.767,6.767,0,0,0,328.645,13H314.452a6.828,6.828,0,0,0-6.772,5.029L298.809,51.78a6.923,6.923,0,0,0,.613,4.735L306,69.94V169h-6.629a15.974,15.974,0,0,0-6.831,30.365l-8.279,28.865A7.249,7.249,0,0,0,284,230.2v75.6c0,15.9,12.914,29.209,28.814,29.209h17.469c15.9,0,28.717-13.309,28.717-29.209V230.2a6.943,6.943,0,0,0-.213-1.934l-8.26-28.9A16,16,0,0,0,359.6,185ZM319.854,27h3.389L330.1,52.953,323.89,65.448a6.83,6.83,0,0,0-.89,2.911V169h-3V68.359a7.181,7.181,0,0,0-.842-3.009l-6.077-12.4ZM345,305.791c0,8.181-6.537,15.209-14.717,15.209H312.814C304.633,321,298,313.972,298,305.791V231.183L306.657,201H336.44L345,231.183ZM343.726,187H299.371a2,2,0,0,1,0-4h44.355a2,2,0,0,1,0,4Z"/><path d="M461.5,13.017a7.357,7.357,0,0,0-7,.308,7.183,7.183,0,0,0-3.5,5.954V50.86L430.974,64.32,410.315,49.8l.151-30.535a6.974,6.974,0,0,0-10.088-6.3A68.624,68.624,0,0,0,402,136.824V306.065a28.5,28.5,0,1,0,57,0V136.824a67.74,67.74,0,0,0,40.271-62.39A68.073,68.073,0,0,0,461.5,13.017ZM449.78,125.6a7.213,7.213,0,0,0-4.78,6.557V306.065a14.5,14.5,0,1,1-29,0V132.157a6.85,6.85,0,0,0-4.384-6.557,54.648,54.648,0,0,1-15.189-93.588l-.052,21.4a7.01,7.01,0,0,0,3,5.76L427.044,78.53a7,7,0,0,0,7.9.091l27.125-18.185A6.835,6.835,0,0,0,465,54.609V32.054a53.258,53.258,0,0,1,20.2,42.38A54.786,54.786,0,0,1,449.78,125.6Z"/><path d="M206,447.764a7,7,0,0,0,7-7v-6a7,7,0,0,0-14,0v6A7,7,0,0,0,206,447.764Z"/><path d="M72,447.764a7,7,0,0,0,7-7v-6a7,7,0,0,0-14,0v6A7,7,0,0,0,72,447.764Z"/><path d="M128.87,100h23.571a7,7,0,0,0,0-14H128.87a7,7,0,0,0,0,14Z"/><path d="M128.87,79h23.571a7,7,0,0,0,0-14H128.87a7,7,0,0,0,0,14Z"/><path d="M266,492.639v-73.45c0-.194.242-.387.226-.581a54.03,54.03,0,0,0-29.455-43.689c-.125-.064-.206-.122-.335-.178L186,353.2V323.185c27-15.526,46.162-44.186,47.949-77.317a29.422,29.422,0,0,0,17.742-34.319,23.914,23.914,0,0,0-14.412-16.721l.6-8.828H249.5a6.242,6.242,0,0,0,6.5-6.581V154c0-3.866-2.634-7-6.5-7h-6.42a115.681,115.681,0,0,0-22-61.924,104.3,104.3,0,0,0-50.347-37.015l.682-6.575a6.74,6.74,0,0,0-1.763-5.292,6.9,6.9,0,0,0-5.2-2.194h-49.91a6.813,6.813,0,0,0-6.962,7.545l.682,6.546A104.213,104.213,0,0,0,57.914,85.182,115.83,115.83,0,0,0,35.931,147H29.5c-3.866,0-7.5,3.133-7.5,7v25.42c0,3.866,3.634,6.581,7.5,6.581H40.683l.592,8.8A23.741,23.741,0,0,0,26.8,211.442a29.907,29.907,0,0,0-.842,7.054A29.354,29.354,0,0,0,44.6,245.861,93.928,93.928,0,0,0,93,323.439V353.2L42.5,374.741c-.129.056-.265.114-.39.178a54.439,54.439,0,0,0-29.833,43.689c-.016.194-.278.387-.278.581v73.45A7.758,7.758,0,0,0,19.5,500h240C263.366,500,266,496.505,266,492.639ZM203,375.873l6,2.561V412h-6ZM105,64.351a80.1,80.1,0,0,1,12.6-4.487,6.876,6.876,0,0,0,5.174-7.37L122.31,48h34.38l-.478,4.494a6.948,6.948,0,0,0,5.184,7.429A80.33,80.33,0,0,1,174,64.344v8.692a52.791,52.791,0,0,1-33.47,49.078A52.638,52.638,0,0,1,105,72.275ZM69.154,93.488A98.2,98.2,0,0,1,91,72.234v.041a66.591,66.591,0,0,0,46.106,63.463l1.371.444a7.046,7.046,0,0,0,2.173.344,7.146,7.146,0,0,0,2.3-.38A66.776,66.776,0,0,0,188,73.036v-.828a98.158,98.158,0,0,1,21.851,21.2A101.6,101.6,0,0,1,229.058,147H49.952A101.816,101.816,0,0,1,69.154,93.488ZM36,172V161H242v11H210c-1.29,0-2.775-.844-4.286-.559-.6.114-1.169.559-1.7.559H36Zm187.842,14-.885,13.047a2.257,2.257,0,0,1-.633,1.435l-1.477,1.431-2.742-8.407A66.655,66.655,0,0,1,215.926,186Zm-163.4,0-1.147,14.553L55.7,198.815c-.08-.041-.133-.279-.14-.368L54.716,186ZM58,240.7v-.133a6.809,6.809,0,0,0-5.571-6.9A15.226,15.226,0,0,1,39.85,218.549a15.476,15.476,0,0,1,.495-3.671,9.509,9.509,0,0,1,5.086-6.415,14.209,14.209,0,0,0,3.863,2.911l10.531,5.4a8.8,8.8,0,0,0,8.309-.141,9.143,9.143,0,0,0,4.49-7.2L74.482,186H201.5c.942,4,2.042,8.11,3.325,11.959l5.3,16.01a8.786,8.786,0,0,0,14.355,3.742l7.4-6.9a15.96,15.96,0,0,0,1.8-2,9.477,9.477,0,0,1,4.418,6.064,15.375,15.375,0,0,1-12.265,18.793A7.046,7.046,0,0,0,220,240.563v.141c0,44.573-36.428,80.836-80.994,80.836S58,285.277,58,240.7Zm114,89v23.812a82.791,82.791,0,0,1-65,0V329.866a94.635,94.635,0,0,0,65-.164ZM89,369.9l10.388-4.327a97.182,97.182,0,0,0,39.987,8.58,95.762,95.762,0,0,0,39.675-8.58L189,369.9V412H89Zm-20,8.535,6-2.561V412H69ZM55,412H52.5c-3.866,0-7.5,2.9-7.5,6.764V486H26V419.492c2-13.587,9.511-25.8,21.684-31.961L55,384.409Zm164,74H59V426H219Zm33,0H233V418.764c0-3.867-2.634-6.764-6.5-6.764H223V384.409l7.316,3.122A39.588,39.588,0,0,1,252,419.492Z"/></svg>
