<?xml version="1.0"?>
<svg xmlns="http://www.w3.org/2000/svg" id="Layer_1" data-name="Layer 1" viewBox="0 0 512 512" width="512" height="512"><title>Car Piston 2 </title><path d="M256,184.5a27,27,0,1,0,27,27A27.03,27.03,0,0,0,256,184.5Zm0,40a13,13,0,1,1,13-13A13.015,13.015,0,0,1,256,224.5Z"/><path d="M302.48,219H341c3.866,0,7-3.634,7-7.5v-87c0-3.866-3.134-6.5-7-6.5H171c-3.866,0-7,2.634-7,6.5v87c0,3.866,3.134,7.5,7,7.5h38.52A46.55,46.55,0,0,0,237,254.479V406.527A46.5,46.5,0,0,0,209.524,443H191a7,7,0,0,0,0,14h18.524c3.39,22,22.939,40,46.476,40s43.086-18,46.476-40H321a7,7,0,0,0,0-14H302.476A46.5,46.5,0,0,0,275,406.527V254.479A46.55,46.55,0,0,0,302.48,219ZM178,132H334v20H178ZM289,449.5a33,33,0,1,1-33-33A33.038,33.038,0,0,1,289,449.5Zm-38-46.731V258.226a45.757,45.757,0,0,0,10,0V402.769a46.6,46.6,0,0,0-10,0Zm5-158.019a33.038,33.038,0,0,1-33-33,6.791,6.791,0,0,0-7-6.75H178V166H334v39H296a6.791,6.791,0,0,0-7,6.75A33.038,33.038,0,0,1,256,244.75Z"/><path d="M348,71a7,7,0,0,0-7-7H171a7,7,0,0,0-7,7v30a7,7,0,0,0,7,7H341a7,7,0,0,0,7-7ZM334,94H178V78H334Z"/><path d="M341,40H171a7,7,0,0,0,0,14H341a7,7,0,0,0,0-14Z"/><path d="M341,16H171a7,7,0,0,0,0,14H341a7,7,0,0,0,0-14Z"/></svg>
