<?xml version="1.0"?>
<svg xmlns="http://www.w3.org/2000/svg" id="Layer_1" data-name="Layer 1" viewBox="0 0 512 512" width="512" height="512"><title>Car Piston </title><path d="M169,272a7,7,0,0,0,7,7h33.35a6.86,6.86,0,0,0,6.425-4.481A41.459,41.459,0,0,1,233,253.6v130.65C216,392.889,203.9,411.1,203.9,431a52.092,52.092,0,0,0,104.184,0c0-19.9-12.079-38.111-29.079-46.748V253.6a41.454,41.454,0,0,1,17.225,20.917A6.862,6.862,0,0,0,302.65,279H336a7,7,0,0,0,7-7V108a7,7,0,0,0-7-7H176a7,7,0,0,0-7,7ZM294.053,431a38.02,38.02,0,1,1-51.485-35.6A6.9,6.9,0,0,0,247,388.85V247.931a43.99,43.99,0,0,1,18,0V388.85a6.9,6.9,0,0,0,4.438,6.555A38.138,38.138,0,0,1,294.053,431ZM183,115H329v15H183Zm0,29H329V265H307.224a57,57,0,0,0-102.448,0H183Z"/><path d="M176,91H336a7,7,0,0,0,0-14H176a7,7,0,0,0,0,14Z"/><path d="M176,67H336a7,7,0,0,0,0-14H176a7,7,0,0,0,0,14Z"/><path d="M176,43H336a7,7,0,0,0,0-14H176a7,7,0,0,0,0,14Z"/><path d="M256,209a27,27,0,1,0-27-27A27.03,27.03,0,0,0,256,209Zm0-40a13,13,0,1,1-13,13A13.015,13.015,0,0,1,256,169Z"/><path d="M231.631,428.631A24.369,24.369,0,1,0,256,404.263,24.4,24.4,0,0,0,231.631,428.631Zm34.737,0A10.369,10.369,0,1,1,256,418.263,10.38,10.38,0,0,1,266.368,428.631Z"/></svg>
