<?xml version="1.0"?>
<svg xmlns="http://www.w3.org/2000/svg" id="Layer_1" data-name="Layer 1" viewBox="0 0 512 512" width="512" height="512"><title>Car Proctection</title><path d="M499.086,220.4l-48.457-23.8a6.986,6.986,0,0,0,3.61-6.517,67.4,67.4,0,0,0-3.366-16.323c-3.985-11.67-16.33-19.133-31.384-19.028-8.843.066-24.8.126-32.325.153L372.45,128.292C362.044,109.954,346.914,89,321.994,89h-.327L141.593,90.267c-20.454.15-38.488,14.377-50.8,40.12L75.849,157.324c-7.51.04-23.658.121-32.618.186-15.08.112-27.288,7.757-31.1,19.485a67.417,67.417,0,0,0-3.124,16.369,7.407,7.407,0,0,0,1.965,5.33A7.175,7.175,0,0,0,16,201h.061l21.474-.361c-9.387,7.771-15.312,20.106-15.208,34.314a6.316,6.316,0,0,0,.063.835l11.182,83.386A25.12,25.12,0,0,0,54.241,343.2l.2,26.374a15.379,15.379,0,0,0,4.785,11.063A15.7,15.7,0,0,0,70.476,385H70.6l27.464.043A15.961,15.961,0,0,0,113.99,369l-.191-25.888,193.508-1.395c6.108,15.161,16.491,29.358,28.5,37.545l62.5,42.634a7,7,0,0,0,7.888,0l62.5-42.625C487.931,366.163,503,337.663,503,314.4V226.682A7,7,0,0,0,499.086,220.4ZM419.593,168.73c8.8-.076,16.058,3.775,18.032,9.553a52.236,52.236,0,0,1,1.48,5.25l-14.841.115-18.928-9.3a7,7,0,0,0-6.165,0l-.992.485-3.3-5.98C402.876,168.823,413.125,168.778,419.593,168.73ZM103.144,136.959c.07-.127.137-.257.2-.388,5.722-12.024,18.314-32.157,38.353-32.3L321.771,103H322c13.994,0,25.457,9.606,38.239,32.13l25.358,45.9-18.124,8.861-8.3-.193C356.2,167.988,337.547,151,315.1,151h-.332c-22.591,1-41.166,17.477-43.831,39.332L72.6,191.9Zm241.862,52.834-59.9.312c2.589-14.1,14.913-24.1,29.768-25.1h.228A30.768,30.768,0,0,1,345.006,189.793ZM24.045,186.579a52,52,0,0,1,1.4-5.259c1.888-5.807,9.078-9.753,17.891-9.817,6.479-.048,16.716-.107,24.725-.152l-8.275,14.918ZM97.96,371.043,70.5,371h-.012a2.028,2.028,0,0,1-1.437-.344,1.7,1.7,0,0,1-.61-1.318l-.191-25.889,31.554-.2.191,25.98A1.85,1.85,0,0,1,97.96,371.043ZM305.171,220.237A7.278,7.278,0,0,0,301,226.55V314.4a67.128,67.128,0,0,0,1.744,13.594L58.735,330h-.083a11.285,11.285,0,0,1-11.088-11.218,8.752,8.752,0,0,0-.062-.984L36.326,234.391c.064-17.034,11.6-27.6,23.248-28.406a7.006,7.006,0,0,0,1.095.015h.051l277.73-1.967ZM489,314.4c0,18.481-12.911,42.9-28.194,53.317L402.25,407.649l-58.807-39.936C328.161,357.293,315,332.877,315,314.4v-83.48l87-42.484L489,231.042Z"/><path d="M332.729,298.378a69.521,69.521,0,1,0,69.521-69.521A69.6,69.6,0,0,0,332.729,298.378Zm69.521-55.521a55.521,55.521,0,1,1-55.521,55.521A55.584,55.584,0,0,1,402.25,242.857Z"/><path d="M388.076,320.646a7,7,0,0,0,9.874.417l38.262-35.045a7,7,0,0,0-9.457-10.325l-33.117,30.334-15.476-16.781a7,7,0,0,0-10.291,9.49Z"/><path d="M85.369,241h-.192a25.861,25.861,0,0,0-25.558,26.037,26.053,26.053,0,0,0,7.675,18.354A25.774,25.774,0,0,0,85.361,293h.2c14.2,0,25.662-11.992,25.557-26.189A26,26,0,0,0,85.369,241Zm.084,38h-.088a11.922,11.922,0,0,1-11.746-11.848A12.044,12.044,0,0,1,77,258.661,11.732,11.732,0,0,1,85.28,255h.088a12,12,0,0,1,.085,24Z"/><path d="M285.573,300h-.052l-106.2.612A6.7,6.7,0,1,0,179.372,314h.053l106.2-.561A6.724,6.724,0,1,0,285.573,300Z"/><path d="M184.272,275h.053c3.865-1,6.977-3.432,6.948-7.3l-.127-17.515a7.208,7.208,0,0,0-7-7.187H184.1a7.083,7.083,0,0,0-6.949,7.167l.127,17.581A7.268,7.268,0,0,0,184.272,275Z"/><path d="M152.147,243H152.1a7.187,7.187,0,0,0-6.949,7.285l.128,17.522a7.215,7.215,0,0,0,7,7.193h.053a7.093,7.093,0,0,0,6.948-7.18l-.128-17.574A7.26,7.26,0,0,0,152.147,243Z"/><path d="M216.272,274h.053a6.866,6.866,0,0,0,6.948-6.916l-.127-17.206a6.94,6.94,0,0,0-7-6.878H216.1a6.981,6.981,0,0,0-6.949,7.049l.127,17.14A6.885,6.885,0,0,0,216.272,274Z"/><path d="M248.272,274h.053a6.966,6.966,0,0,0,6.948-7.034l-.127-17.147a6.891,6.891,0,0,0-7-6.819h-.052a6.879,6.879,0,0,0-6.948,6.932l.127,17.2A6.934,6.934,0,0,0,248.272,274Z"/><path d="M280.271,274h.053a7.068,7.068,0,0,0,6.948-7.151l-.126-17.089a6.843,6.843,0,0,0-7-6.76h-.052a6.781,6.781,0,0,0-6.948,6.813l.126,17.258A6.985,6.985,0,0,0,280.271,274Z"/></svg>
