<?xml version="1.0"?>
<svg xmlns="http://www.w3.org/2000/svg" id="Layer_1" data-name="Layer 1" viewBox="0 0 512 512" width="512" height="512"><title>Car Repair 2</title><path d="M335.842,370h63.017l.2,83.017a7,7,0,0,0,7,6.983h49.781A6.88,6.88,0,0,0,463,453.309v-120A7.405,7.405,0,0,0,455.842,326h-120A7.138,7.138,0,0,0,329,333.309v30A6.609,6.609,0,0,0,335.842,370ZM343,340H449V446H413.044l-.2-83.017a7,7,0,0,0-7-6.983H343Z"/><path d="M120.4,193h-.182a24.2,24.2,0,0,0-24.181,24.388,23.555,23.555,0,0,0,7.262,16.889,23.935,23.935,0,0,0,17.1,6.723h.184a24,24,0,1,0-.179-48Zm.075,34H120.4a10.106,10.106,0,0,1-7.271-2.772,9.71,9.71,0,0,1-3.089-7.047A10.129,10.129,0,0,1,120.32,207h.077a10.005,10.005,0,1,1,.076,20Z"/><path d="M392.3,191h-.186a24,24,0,1,0,.175,48h.184a24,24,0,1,0-.173-48Zm7.375,31.362a10.374,10.374,0,0,1-14.655.079,10.136,10.136,0,0,1,7.2-17.441h.079a10.17,10.17,0,0,1,7.378,17.362Z"/><path d="M366.669,310.121a14.842,14.842,0,0,0,4.586,10.647A15.093,15.093,0,0,0,382.042,325h.117l25.435,0a15.31,15.31,0,0,0,15.262-15.393l-.177-24.048a23.768,23.768,0,0,0,18.373-22.783l9.644-77.334a6.955,6.955,0,0,0,.054-.912A41.751,41.751,0,0,0,440.437,157.1a37.855,37.855,0,0,0-3.733-3.66l18.881-.146a7,7,0,0,0,6.935-7.388,62.528,62.528,0,0,0-3.144-15.093C455.639,119.869,444.181,113,430.131,113h-.313c-8.074,0-22.545-.047-29.627-.021L386.71,88.633C377,71.527,362.879,52,339.535,52h-.308L172.463,53.075c-19.148.141-36.009,13.365-47.5,37.386L111.277,115.1c-7.074.038-21.722.1-29.9.159-14.192.106-25.689,7.321-29.29,18.4a62.985,62.985,0,0,0-2.918,15.3,6.728,6.728,0,0,0,1.965,5.035A6.887,6.887,0,0,0,56.158,156h.06l18.571-.043a38.3,38.3,0,0,0-3.614,3.793A42.437,42.437,0,0,0,61.5,187.38a7.216,7.216,0,0,0,.062.893L71.915,265.5a23.8,23.8,0,0,0,19.143,22.653l.177,24a14.929,14.929,0,0,0,4.585,10.685C97.3,324.289,99.014,326,100.879,326H56.458A7.673,7.673,0,0,0,49,333.309v120c0,3.866,3.592,6.691,7.458,6.691H106.24a7,7,0,0,0,7-6.983l.2-83.017h63.017A6.364,6.364,0,0,0,183,363.309v-30c0-3.867-2.675-7.309-6.542-7.309h-39.21c2.14,0,4.105-1.844,5.749-3.512a15.1,15.1,0,0,0,4.424-10.829l-.173-23.475,219.249-1.6ZM407.49,311.2l-25.434.188a1.308,1.308,0,0,1-.975-.4,1.35,1.35,0,0,1-.412-.969L380.5,286.5l28.186-.208.173,23.515A1.376,1.376,0,0,1,407.49,311.2Zm22.431-184.52c7.931-.106,14.451,3.354,16.207,8.5.5,1.451.892,2.867,1.209,4.182l-32.357.25L407.9,126.787C415.171,126.758,424.165,126.718,429.921,126.676ZM137.312,96.987c.071-.127.137-.257.2-.387,5.247-11.027,16.779-29.391,35.054-29.525L339.33,66h.2c12.749,0,23.229,8.719,34.96,29.39l27.5,49.735-27.581.326A41.68,41.68,0,0,0,333.148,110h-.311a41.513,41.513,0,0,0-41.045,36.021l-182.331,1.263ZM360.2,145.517,306,146a27.6,27.6,0,0,1,26.94-22h.207A27.633,27.633,0,0,1,360.2,145.517ZM64.251,142.165c.3-1.316.672-2.733,1.145-4.187,1.679-5.166,8.141-8.676,16.079-8.735,5.764-.042,14.74-.095,22.013-.135L96.4,141.887ZM169,340v16H106.458a7,7,0,0,0-7,6.983L99.257,446H63V340Zm-63.938-51.466,28.186-.208.173,23.514a1.378,1.378,0,0,1-1.365,1.386l-25.435.187a1.551,1.551,0,0,1-.975-.4,1.346,1.346,0,0,1-.411-.969ZM95.73,275h-.072a9.936,9.936,0,0,1-9.751-9.88,8.885,8.885,0,0,0-.062-.978L75.5,186.938a28.768,28.768,0,0,1,6.4-18.1,20.658,20.658,0,0,1,14.576-7.766A7.269,7.269,0,0,0,97.525,161h.052l316.035-2.168c.047,0,.092.168.139.168h.209a21.182,21.182,0,0,1,16,7.4,28.094,28.094,0,0,1,6.789,17.82l-9.637,77.277a7.026,7.026,0,0,0-.054.916,9.937,9.937,0,0,1-9.68,10.023Z"/><path d="M305.8,247h-.053l-98.348.671A7.167,7.167,0,0,0,207.454,262h.052l98.349-.916A7.042,7.042,0,0,0,305.8,247Z"/><path d="M211.992,225h.053a7.141,7.141,0,0,0,6.948-7.234l-.118-15.909a6.923,6.923,0,0,0-7-6.857h-.053a6.828,6.828,0,0,0-6.948,6.869l.118,16.091A7.079,7.079,0,0,0,211.992,225Z"/><path d="M182.242,195h-.053a6.919,6.919,0,0,0-6.948,6.979l.117,16.036a7.032,7.032,0,0,0,7,6.985h.053a7.045,7.045,0,0,0,6.948-7.125l-.117-15.963A6.969,6.969,0,0,0,182.242,195Z"/><path d="M330.414,194h-.053a6.88,6.88,0,0,0-6.948,6.933l.117,16.059a7.052,7.052,0,0,0,7,7.008h.053a7.085,7.085,0,0,0,6.948-7.171l-.117-15.94A6.95,6.95,0,0,0,330.414,194Z"/><path d="M241.626,224h.053a6.806,6.806,0,0,0,6.948-6.844l-.118-16.1a7.09,7.09,0,0,0-7-7.053h-.052a7.165,7.165,0,0,0-6.949,7.26l.118,15.9A6.912,6.912,0,0,0,241.626,224Z"/><path d="M271.261,224h.052a6.9,6.9,0,0,0,6.949-6.953L278.144,201a7.042,7.042,0,0,0-7-7h-.052a7.069,7.069,0,0,0-6.949,7.151l.118,15.95A6.957,6.957,0,0,0,271.261,224Z"/><path d="M300.9,224h.052a6.992,6.992,0,0,0,6.949-7.062l-.118-15.995a6.994,6.994,0,0,0-7-6.943h-.052a6.974,6.974,0,0,0-6.949,7.042l.118,16A7,7,0,0,0,300.9,224Z"/></svg>
