<?xml version="1.0"?>
<svg xmlns="http://www.w3.org/2000/svg" id="Layer_1" data-name="Layer 1" viewBox="0 0 512 512" width="512" height="512"><title>Car Repair Location</title><path d="M89.606,203h-.2a26.664,26.664,0,0,0-26.694,26.89,27.2,27.2,0,0,0,8.017,19.166A26.912,26.912,0,0,0,89.6,257h.2c7.183-1,13.916-3.141,18.958-8.258A26.874,26.874,0,0,0,89.606,203Zm9.183,35.674a12.893,12.893,0,0,1-22.077-8.955A12.665,12.665,0,0,1,89.51,217h.095A12.794,12.794,0,0,1,102.5,229.664,12.5,12.5,0,0,1,98.789,238.674Z"/><path d="M467.045,193.3a7.025,7.025,0,0,0,.054-.918c-.113-15.24-7.286-28.665-18.111-36.641l24.662-.191a7,7,0,0,0,6.936-7.388,71.061,71.061,0,0,0-3.549-17.207c-4.169-12.206-17.074-19.98-32.894-19.9-9.489.07-26.687.135-34.555.163L393.855,82.628C382.87,63.27,366.909,41,340.688,41h-.343L149.269,42.5c-21.536.159-40.537,15.248-53.522,42.415L79.758,113.762c-7.849.042-25.248.148-34.861.219C29.085,114.1,16.29,122.1,12.3,134.37a71.093,71.093,0,0,0-3.295,17.26A7.072,7.072,0,0,0,16,159h.061l24.1-.249a41.258,41.258,0,0,0-6.17,5.96,47.489,47.489,0,0,0-10.846,30.95,6.885,6.885,0,0,0,.062.873l11.869,88.524A26.238,26.238,0,0,0,57,310.232l.209,28.346A16.553,16.553,0,0,0,73.806,355h.126l29.142-.188a16.606,16.606,0,0,0,16.475-16.707l-.206-27.956,84.085-.616q-.417,5.615-.426,11.292c0,82.709,67.289,150,150,150s150-67.288,150-150a148.922,148.922,0,0,0-39.244-101.155Zm-22.8-68.246c9.5-.089,17.388,4.119,19.543,10.426a56.116,56.116,0,0,1,1.7,6.133l-38.952.3L417.3,125.184C425.884,125.151,437.189,125.1,444.246,125.05ZM108.094,91.558c.071-.127.137-.256.2-.388,6.113-12.849,19.581-34.516,41.078-34.674L340.448,55h.242c15.024,0,27.3,10.409,40.95,34.466l32.337,58.619-34.212.274A46.451,46.451,0,0,0,333.379,108h-.355a46.443,46.443,0,0,0-46.134,41.161L75.334,150.672ZM365.62,148.485l-64.586.476A32.494,32.494,0,0,1,333.128,122h.249a32.393,32.393,0,0,1,23.008,9.241A32,32,0,0,1,365.62,148.485ZM24.01,144.849a56.031,56.031,0,0,1,1.6-6.144c2.061-6.338,9.852-10.643,19.386-10.713,7.073-.052,18.371-.118,26.969-.165l-9.256,16.687Zm78.961,195.963L73.828,341h-.02a2.589,2.589,0,0,1-1.822-.722,2.551,2.551,0,0,1-.774-1.817l-.206-27.956,34.337-.25.206,27.967A2.577,2.577,0,0,1,102.971,340.812Zm102.161-45.09L61.35,297h-.091a12.391,12.391,0,0,1-12.194-12.314A8.734,8.734,0,0,0,49,283.7L37.141,195.178A34,34,0,0,1,44.71,173.72a24.47,24.47,0,0,1,17.553-8.955A7.126,7.126,0,0,0,63.4,165h.052l362.113-2.838c.055,0,.109-.162.164-.162h.231c14.728,0,26.8,13.4,27.135,30.017L451.176,207.4a150.042,150.042,0,0,0-185.09-8.841,150.677,150.677,0,0,0-30.595,29.014l-.117-15.917a7,7,0,0,0-14,.1l.135,18.312a6.983,6.983,0,0,0,7,6.929h.05a149.5,149.5,0,0,0-16.519,32.415A151.22,151.22,0,0,0,205.132,295.722ZM489,320.826c0,74.99-61.009,136-136,136s-136-61.009-136-136a136,136,0,0,1,272,0Z"/><path d="M194.42,205h-.053a6.964,6.964,0,0,0-6.948,7.031l.136,18.176a6.868,6.868,0,0,0,7,6.793h.052a6.86,6.86,0,0,0,6.949-6.907l-.136-18.239A6.92,6.92,0,0,0,194.42,205Z"/><path d="M160.413,205.208a7,7,0,0,0-6.948,7.051l.135,18.562a7.2,7.2,0,0,0,7,7.179h.052a7.184,7.184,0,0,0,6.949-7.281l-.135-18.447A7.137,7.137,0,0,0,160.413,205.208Z"/><path d="M353,201.4a95.259,95.259,0,0,0-67.941,28.2,101.871,101.871,0,0,0-29.419,65.148,96.206,96.206,0,0,0,5.8,39.6,103.357,103.357,0,0,0,22.174,35.219L347.9,438.04a7,7,0,0,0,10.207,0l64.279-68.466a103.357,103.357,0,0,0,22.174-35.219,96.209,96.209,0,0,0,5.8-39.6,101.871,101.871,0,0,0-29.419-65.147A95.259,95.259,0,0,0,353,201.4Zm78.4,128.153a89.443,89.443,0,0,1-19.228,30.435L353,423.021l-59.175-63.029A89.437,89.437,0,0,1,274.6,329.556a82.281,82.281,0,0,1-4.989-33.866,87.876,87.876,0,0,1,25.368-56.2,81.934,81.934,0,0,1,116.048,0,87.876,87.876,0,0,1,25.368,56.2A82.29,82.29,0,0,1,431.4,329.557Z"/><path d="M353,247.625c-25.076,0-45.477,20.865-45.477,46.511s20.4,46.51,45.477,46.51,45.477-20.864,45.477-46.51S378.077,247.625,353,247.625Zm0,79.021c-17.356,0-31.477-14.584-31.477-32.51S335.645,261.625,353,261.625s31.477,14.585,31.477,32.511S370.357,326.646,353,326.646Z"/></svg>
