<?xml version="1.0"?>
<svg xmlns="http://www.w3.org/2000/svg" id="Layer_1" data-name="Layer 1" viewBox="0 0 512 512" width="512" height="512"><title>Car Repair</title><path d="M445.971,76H446a6.788,6.788,0,0,0,6.273-9.886,62.606,62.606,0,0,0-56.563-34.829A63.688,63.688,0,0,0,338.459,68H173.541A63.651,63.651,0,0,0,116.3,31.324,62.75,62.75,0,0,0,59.776,66.2a6.692,6.692,0,0,0,.309,6.645A6.853,6.853,0,0,0,66.039,76H94.483l11.844,17.9-12.8,18.243L66.029,112h-.024a7.164,7.164,0,0,0-6.273,10.287A63.153,63.153,0,0,0,173.541,121H338.459a63.162,63.162,0,0,0,113.764,1.452,7.318,7.318,0,0,0-.308-6.972,7.16,7.16,0,0,0-5.954-3.48H417.517L405.673,94.365l12.8-18.376ZM414.835,62a7.1,7.1,0,0,0-5.736,3.092L391.462,90.354a7.043,7.043,0,0,0-.09,7.919l16.57,24.745A6.875,6.875,0,0,0,413.769,126h19.225a48.2,48.2,0,0,1-37.289,17.249,49.243,49.243,0,0,1-46.038-31.817A6.9,6.9,0,0,0,343.109,107H168.891a6.962,6.962,0,0,0-6.558,4.508,49.057,49.057,0,0,1-83.364,14.6L97.141,126h.024a6.855,6.855,0,0,0,5.736-2.825l17.637-25.127a6.935,6.935,0,0,0,.09-7.852l-16.57-24.98A7.093,7.093,0,0,0,98.231,62H79.006c9.2-11,22.669-16.981,37.289-16.981A49.579,49.579,0,0,1,162.333,77.2a7.235,7.235,0,0,0,6.558,4.8H343.109a7.179,7.179,0,0,0,6.558-4.74,49.439,49.439,0,0,1,46.038-32.031,48.709,48.709,0,0,1,37.326,16.986L414.859,62Z"/><path d="M99.411,327.939a27,27,0,1,0,27,27A27.029,27.029,0,0,0,99.411,327.939Zm0,40a13,13,0,1,1,13-13A13.013,13.013,0,0,1,99.411,367.936Z"/><path d="M412.588,327.939a27,27,0,1,0,27,27A27.029,27.029,0,0,0,412.588,327.939Zm0,40a13,13,0,1,1,13-13A13.013,13.013,0,0,1,412.588,367.936Z"/><path d="M456.671,238.41c-9.548,0-26.859-.062-34.758-.092L406.3,209.335C395.359,189.719,379.4,167,352.851,167H160.771c-21.633,0-40.833,15.18-54.082,42.378l-16.3,28.98c-7.88-.016-25.393,0-35.064,0-15.881,0-28.788,7.962-32.883,20.248a71.451,71.451,0,0,0-3.438,17.325,6.692,6.692,0,0,0,1.928,5.034A6.871,6.871,0,0,0,26,283h.009l24.272.111c-10.578,8.052-17.389,21.577-17.389,37.113a7.537,7.537,0,0,0,.055.914l11.236,89.1A26.552,26.552,0,0,0,66,435.69v28.528A16.851,16.851,0,0,0,82.728,481h29.3A17.066,17.066,0,0,0,129,464.218V436H383v28.218A17.065,17.065,0,0,0,399.975,481h29.3A16.852,16.852,0,0,0,446,464.218V435.6a26.292,26.292,0,0,0,21.315-25.33l11.751-89.059a6.848,6.848,0,0,0,.051-.917c0-15.351-7.15-28.92-18.013-37l24.9-.009a7,7,0,0,0,6.987-7.338,71.4,71.4,0,0,0-3.438-17.312C485.459,246.348,472.552,238.41,456.671,238.41ZM118.988,216.044c.071-.127.139-.343.2-.473C125.435,202.692,139.142,181,160.771,181h192.08c15.23,0,27.558,10.426,41.183,34.854L426.134,275H391.645a46.988,46.988,0,0,0-93.29,0H85.589ZM377.5,275h-65c2.7-15,16.241-27.323,32.5-27.323S374.8,260,377.5,275ZM34.058,269.272a56.416,56.416,0,0,1,1.67-6.211c2.123-6.371,10-10.651,19.6-10.651,7.128,0,18.523.018,27.172.034l-9.468,16.779ZM115,464.218A3.068,3.068,0,0,1,112.023,467H82.728A2.838,2.838,0,0,1,80,464.218V436h35Zm317,0A2.84,2.84,0,0,1,429.271,467h-29.3A3.066,3.066,0,0,1,397,464.218V436h35ZM465.1,319.74l-11.765,89.119a6.346,6.346,0,0,0-.061.882A12.278,12.278,0,0,1,440.983,422H70.514a12.278,12.278,0,0,1-12.295-12.259,6.693,6.693,0,0,0-.056-.861L46.894,319.865c.178-14.689,9.658-29.943,25.5-30.758A7.263,7.263,0,0,0,73.6,289H437.64c.065,0,.128.239.193.239C452.742,289.239,464.894,302.945,465.1,319.74ZM438.721,269.3l-9.2-16.954c8.635.03,20.037.064,27.148.064,9.6,0,17.478,4.28,19.6,10.651a56.152,56.152,0,0,1,1.672,6.225Z"/><path d="M163.383,370H348.617a7.194,7.194,0,0,0,6.628-9.46l-6.387-18.652c-4.39-12.9-18.5-22.888-32.136-22.888H194.775c-13.667,0-27.7,10.016-31.939,23.008l-6.107,18.625a7.2,7.2,0,0,0,.988,6.38A7.091,7.091,0,0,0,163.383,370Zm12.762-23.509C178.5,339.292,187.2,333,194.775,333H316.722c7.608,0,16.431,6.3,18.881,13.5l3.24,9.5H173.032Z"/><path d="M373.063,380H144.607a7,7,0,1,0,0,14H373.063a7,7,0,0,0,0-14Z"/></svg>
