<?xml version="1.0"?>
<svg xmlns="http://www.w3.org/2000/svg" id="Layer_1" data-name="Layer 1" viewBox="0 0 512 512" width="512" height="512"><title>Car Seat </title><path d="M404.75,346.4a28.5,28.5,0,0,0-16.978,5.65L381,357.1V129.09A54.123,54.123,0,0,0,326.833,75H313V57.076A19.42,19.42,0,0,0,293.778,38H218.222A19.42,19.42,0,0,0,199,57.076V75H185.167A54.123,54.123,0,0,0,131,129.09V357.4l-6.646-5.124A28.136,28.136,0,0,0,79,374.511v92.218A7.236,7.236,0,0,0,86,474H426a7.236,7.236,0,0,0,7-7.271V374.646A28.281,28.281,0,0,0,404.75,346.4ZM213,56.806A4.806,4.806,0,0,1,217.806,52h75.388A4.806,4.806,0,0,1,298,56.806v53.388A4.806,4.806,0,0,1,293.194,115H217.806A4.806,4.806,0,0,1,213,110.194ZM145,166.859A64,64,0,0,1,202,230.3V358.435a7,7,0,0,0,14,0V230.3a77.8,77.8,0,0,0-71-77.5V129.09A40.107,40.107,0,0,1,185.167,89H199v21.2c0,10.369,8.853,18.8,19.222,18.8h75.556C304.147,129,313,120.57,313,110.2V89h13.833A40.107,40.107,0,0,1,367,129.09V152.8a77.8,77.8,0,0,0-71,77.5V358.435a7,7,0,0,0,14,0V230.3a64,64,0,0,1,57-63.442V367.6l-64.617,48.484a114.974,114.974,0,0,0-95.636-.009L145,368.242ZM419,460H93V374.511a14.115,14.115,0,0,1,22.756-11.161l85.785,66.415a7,7,0,0,0,7.266.8l2.4-1.13a101.219,101.219,0,0,1,88.882,1.057,7,7,0,0,0,7.33-.661L396.2,363.245a14.251,14.251,0,0,1,22.8,11.4Z"/></svg>
