<?xml version="1.0"?>
<svg xmlns="http://www.w3.org/2000/svg" id="Layer_1" data-name="Layer 1" viewBox="0 0 512 512" width="512" height="512"><title>Car service check 2</title><path d="M89.61,203h-.2a26.741,26.741,0,0,0-26.7,26.957A27.194,27.194,0,0,0,89.6,257h.2c7.184-1,13.917-3.142,18.959-8.258a27,27,0,0,0,7.737-19.2A26.767,26.767,0,0,0,89.61,203Zm.089,39.518a12.948,12.948,0,0,1-9.144-3.709,12.5,12.5,0,0,1-3.844-8.955A12.76,12.76,0,0,1,89.509,217h.1A12.665,12.665,0,0,1,102.5,229.6,12.852,12.852,0,0,1,89.7,242.518Z"/><path d="M467.045,193.3a7.046,7.046,0,0,0,.054-.918,46.835,46.835,0,0,0-11.561-30.773,41.968,41.968,0,0,0-6.381-5.87l24.493-.189a7,7,0,0,0,6.936-7.389,71.146,71.146,0,0,0-3.549-17.232C472.9,118.811,460.147,111,444.493,111h-.35c-9.49,0-26.687.161-34.555.188L393.855,82.616C382.87,63.257,366.913,41,340.688,41h-.343L149.27,42.5c-21.536.158-40.538,15.248-53.523,42.416l-15.989,28.85c-7.849.042-25.248.148-34.86.219-15.814.116-28.609,8.123-32.6,20.389a71.089,71.089,0,0,0-3.295,17.259A7.072,7.072,0,0,0,16,159h.061l24.039-.249c-10.425,8.1-17.072,21.494-16.958,36.92a6.836,6.836,0,0,0,.062.869l11.869,88.521A26.234,26.234,0,0,0,57,310.234l.209,28.345A16.553,16.553,0,0,0,73.805,355h.126l29.143-.188a16.607,16.607,0,0,0,16.475-16.707l-.206-27.956,84.085-.616q-.417,5.615-.426,11.291c0,82.71,67.289,150,150,150s150-67.288,150-150a148.914,148.914,0,0,0-39.245-101.154Zm-22.8-68.247c9.536-.076,17.389,4.12,19.543,10.426a56.054,56.054,0,0,1,1.7,6.133l-38.952.3L417.3,125.185C425.884,125.151,437.189,125.1,444.246,125.05ZM108.094,91.559c.071-.127.137-.257.2-.388,6.115-12.85,19.582-34.517,41.08-34.675L340.448,55h.241c15.025,0,27.3,10.41,40.951,34.466l32.337,58.619-34.212.274A46.451,46.451,0,0,0,333.379,108h-.355a46.445,46.445,0,0,0-46.134,41.161L75.334,150.672Zm257.527,56.926-64.587.476A32.494,32.494,0,0,1,333.128,122h.249a32.393,32.393,0,0,1,23.008,9.241A32.014,32.014,0,0,1,365.621,148.485ZM24.01,144.849a55.955,55.955,0,0,1,1.6-6.144c2.061-6.338,9.852-10.643,19.387-10.713,7.074-.052,18.371-.118,26.968-.165l-9.256,16.686Zm78.961,195.989-29.143.215a2.793,2.793,0,0,1-1.841-.748,2.587,2.587,0,0,1-.775-1.83l-.206-27.963,34.337-.253.206,27.963A2.6,2.6,0,0,1,102.971,340.838Zm102.161-45.325L61.349,296.582a12.265,12.265,0,0,1-8.632-3.524,12.105,12.105,0,0,1-3.652-8.58A6.993,6.993,0,0,0,49,283.6L37.141,195.123c.056-18.37,12.536-29.532,25.116-30.372A7.213,7.213,0,0,0,63.4,165h.052l362.122-2.838c.052,0,.1-.162.155-.162h.239a25.325,25.325,0,0,1,19.091,8.862,33.293,33.293,0,0,1,8.036,21.168l-1.917,15.376a150.039,150.039,0,0,0-185.09-8.847,150.73,150.73,0,0,0-30.595,29.014l-.117-15.918a7,7,0,0,0-14,.1l.135,18.313a6.983,6.983,0,0,0,7,6.928h.049a149.4,149.4,0,0,0-23.425,58.513ZM489,320.826c0,74.99-61.009,136-136,136s-136-61.009-136-136a136,136,0,0,1,272,0Z"/><path d="M194.42,205h-.052a6.965,6.965,0,0,0-6.949,7.031l.135,18.176a6.87,6.87,0,0,0,7,6.793h.052a6.859,6.859,0,0,0,6.949-6.907l-.135-18.238A6.92,6.92,0,0,0,194.42,205Z"/><path d="M160.465,205h-.052a7.073,7.073,0,0,0-6.949,7.156l.136,18.614a7.246,7.246,0,0,0,7,7.23h.052a7.184,7.184,0,0,0,6.949-7.282l-.136-18.551A7.19,7.19,0,0,0,160.465,205Z"/><path d="M441.986,248.926l-85.849-42.141a7.058,7.058,0,0,0-6.19,0L264.034,248.8A7.107,7.107,0,0,0,260,255.09v80.4c0,21.47,14.006,47.769,31.757,59.871l57.249,39.011a7.063,7.063,0,0,0,7.927,0l57.3-39.011c17.752-12.1,31.763-38.4,31.763-59.871V255.209A7.094,7.094,0,0,0,441.986,248.926ZM432,335.485c0,16.744-11.8,38.865-25.645,48.305l-53.3,36.321L299.669,383.79C285.823,374.35,274,352.229,274,335.485V259.456l79-38.591,79,38.7Z"/><path d="M320.014,310.358a7,7,0,1,0-10.291,9.491l26.356,28.58a7,7,0,0,0,9.874.417l49.909-45.715a7,7,0,1,0-9.457-10.324l-44.764,41Z"/></svg>
