<?xml version="1.0"?>
<svg xmlns="http://www.w3.org/2000/svg" id="Layer_1" data-name="Layer 1" viewBox="0 0 512 512" width="512" height="512"><title>Car Service Date</title><path d="M89.606,203h-.2a26.664,26.664,0,0,0-26.694,26.89,27.2,27.2,0,0,0,8.017,19.166A26.912,26.912,0,0,0,89.6,257h.2c7.183-1,13.916-3.141,18.958-8.258A26.874,26.874,0,0,0,89.606,203Zm9.183,35.916C96.372,241.369,93.144,242,89.7,243h-.1a13.316,13.316,0,0,1-12.89-13.161A12.766,12.766,0,0,1,89.51,217h.095a12.874,12.874,0,0,1,9.184,21.916Z"/><path d="M467.045,193.3a7.025,7.025,0,0,0,.054-.918c-.113-15.24-7.286-28.665-18.11-36.641l24.661-.191a7,7,0,0,0,6.936-7.388,71.061,71.061,0,0,0-3.549-17.207c-4.169-12.206-17.057-19.98-32.894-19.9-9.489.07-26.687.135-34.555.163L393.855,82.628C382.87,63.27,366.909,41,340.688,41h-.343L149.269,42.5c-21.536.159-40.537,15.248-53.522,42.415L79.758,113.762c-7.849.042-25.248.148-34.861.219C29.085,114.1,16.29,122.1,12.3,134.37a71.093,71.093,0,0,0-3.295,17.26A7.072,7.072,0,0,0,16,159h.061l24.1-.249a41.258,41.258,0,0,0-6.17,5.96,47.489,47.489,0,0,0-10.846,30.95,6.885,6.885,0,0,0,.062.873l11.869,88.524A26.237,26.237,0,0,0,57,310.232l.209,28.346A16.553,16.553,0,0,0,73.806,355h.126l29.142-.188a16.606,16.606,0,0,0,16.475-16.707l-.206-27.956,84.085-.616q-.417,5.615-.426,11.292c0,82.709,67.289,150,150,150s150-67.288,150-150a148.919,148.919,0,0,0-39.245-101.155Zm-22.8-68.246c9.58-.089,17.389,4.119,19.543,10.426a56.116,56.116,0,0,1,1.7,6.133l-38.952.3L417.3,125.184C425.884,125.151,437.189,125.1,444.246,125.05ZM108.094,91.558c.071-.127.137-.256.2-.388,6.113-12.849,19.581-34.516,41.078-34.674L340.448,55h.242c15.024,0,27.3,10.409,40.95,34.466l32.337,58.619-34.212.274A46.451,46.451,0,0,0,333.379,108h-.355a46.443,46.443,0,0,0-46.134,41.161L75.334,150.672Zm257.527,56.927-64.587.476A32.494,32.494,0,0,1,333.128,122h.249a32.393,32.393,0,0,1,23.008,9.241A32.011,32.011,0,0,1,365.621,148.485ZM24.01,144.849a56.031,56.031,0,0,1,1.6-6.144c2.061-6.338,9.852-10.643,19.386-10.713,7.074-.052,18.371-.118,26.968-.165l-9.255,16.687Zm78.961,195.963L73.828,341h-.02a2.589,2.589,0,0,1-1.822-.722,2.551,2.551,0,0,1-.774-1.817l-.206-27.956,34.337-.25.206,27.967A2.577,2.577,0,0,1,102.971,340.812Zm102.161-45.09L61.35,297h-.091a12.391,12.391,0,0,1-12.194-12.314A8.734,8.734,0,0,0,49,283.7L37.141,195.178A34,34,0,0,1,44.71,173.72a24.47,24.47,0,0,1,17.553-8.955A7.1,7.1,0,0,0,63.4,165h.052l362.113-2.838c.055,0,.108-.162.164-.162h.231c14.728,0,26.8,13.4,27.135,30.017L451.176,207.4a150.042,150.042,0,0,0-185.09-8.841,150.7,150.7,0,0,0-30.595,29.014l-.117-15.77a6.876,6.876,0,0,0-7-6.8h-.053a6.859,6.859,0,0,0-6.948,6.905l.135,18.239a6.921,6.921,0,0,0,7,6.856h.049a149.538,149.538,0,0,0-16.518,32.415A151.22,151.22,0,0,0,205.132,295.722ZM489,320.826c0,74.99-61.009,136-136,136s-136-61.009-136-136a136,136,0,0,1,272,0Z"/><path d="M194.42,205h-.053a6.964,6.964,0,0,0-6.948,7.031l.136,18.176a6.868,6.868,0,0,0,7,6.793h.052a6.86,6.86,0,0,0,6.949-6.907l-.136-18.239A6.92,6.92,0,0,0,194.42,205Z"/><path d="M160.413,205.208a7,7,0,0,0-6.948,7.051l.135,18.562a7.2,7.2,0,0,0,7,7.179h.052a7.184,7.184,0,0,0,6.949-7.281l-.135-18.447A7.1,7.1,0,0,0,160.413,205.208Z"/><path d="M446,267.347A23.71,23.71,0,0,0,422.55,244H419v-1.686c0-9.99-7.752-18.314-17.742-18.314h-2.069A18.368,18.368,0,0,0,381,242.314V244H325v-1.686A18.578,18.578,0,0,0,306.567,224H304.5A18.636,18.636,0,0,0,286,242.314V244h-2.793A23.5,23.5,0,0,0,260,267.347v127.1C260,407.136,270.521,417,283.207,417H422.55c12.684,0,23.45-9.864,23.45-22.549v-94.7c0-.579.246-1.186.246-1.814S446,296.7,446,296.119Zm-51-25.229A4.118,4.118,0,0,1,399.118,238h1.764A4.118,4.118,0,0,1,405,242.118v11.764A4.118,4.118,0,0,1,400.882,258h-1.764A4.118,4.118,0,0,1,395,253.882Zm-95,0A4.118,4.118,0,0,1,304.118,238h1.764A4.118,4.118,0,0,1,310,242.118v11.764A4.118,4.118,0,0,1,305.882,258h-1.764A4.118,4.118,0,0,1,300,253.882ZM432,394.451c0,4.966-4.485,8.549-9.45,8.549H283.207c-4.966,0-9.207-3.583-9.207-8.549V305H432ZM432,291H274V267.347A9.487,9.487,0,0,1,283.207,258h3.639A18.115,18.115,0,0,0,304.5,272h2.069a18.117,18.117,0,0,0,17.653-14h57.317a18.116,18.116,0,0,0,17.652,14h2.069a18.115,18.115,0,0,0,17.652-14h3.64a9.7,9.7,0,0,1,9.45,9.347Z"/></svg>
