<?xml version="1.0"?>
<svg xmlns="http://www.w3.org/2000/svg" id="Layer_1" data-name="Layer 1" viewBox="0 0 512 512" width="512" height="512"><title>Car Service mail</title><path d="M472.946,223.6c-.008-.074-.015-.148-.026-.221a6.9,6.9,0,0,0-.166-.816c-.007-.025-.016-.048-.023-.073a7.187,7.187,0,0,0-.251-.723c-.026-.064-.054-.128-.082-.191q-.139-.316-.311-.621c-.026-.045-.049-.091-.075-.136a7.067,7.067,0,0,0-.477-.7c-.025-.032-.053-.061-.078-.092a6.81,6.81,0,0,0-.469-.526c-.065-.066-.133-.13-.2-.194s.126-.125.059-.183L401,158.07V144.479c0-16.8-14.16-30.479-30.955-30.479h-11.71l-98-77.237a7,7,0,0,0-8.744.057L156.462,114H141.955C125.16,114,111,127.684,111,144.479v5.239L40.828,219h.125C39.671,221,39,222.449,39,224.4V440.423a36.163,36.163,0,0,0,9.849,24.824c.022.029.041.06.064.089a8.144,8.144,0,0,0,.967,1.106A36.3,36.3,0,0,0,75.306,477H436.693A36.58,36.58,0,0,0,473,440.423V224.4c0-.047-.008-.092-.009-.138Q472.984,223.926,472.946,223.6ZM401,176.634l53.721,46.787L401,256.484ZM256.063,51.214,335.72,114H178.681ZM125,155.558l.215-.212-.215-.217v-10.65C125,135.4,132.879,128,141.955,128h18.713l.3.371.458-.371H353.482l.237.187.147-.187h16.179c9.076,0,16.955,7.4,16.955,16.479v14.687a2.708,2.708,0,0,0,0,3.741V265.1L267.959,338.212a22.856,22.856,0,0,1-23.777-.014L125,264.886Zm-14,13.858v86.832L56.961,222.9ZM53,440.423V236.6L204.911,330.34,55.628,450.914A22.164,22.164,0,0,1,53,440.423ZM436.693,463H75.306a22.264,22.264,0,0,1-9.429-2.233L217.542,338.2l19.412,11.944a36.123,36.123,0,0,0,38.095.006l19.1-11.764L445.84,460.9A22.27,22.27,0,0,1,436.693,463ZM459,440.423a22.162,22.162,0,0,1-2.762,10.738L306.8,330.6,459,236.922Z"/><path d="M310,277.951c0,6.288,5.439,11.049,11.728,11.049H335.1c6.288,0,11.9-4.761,11.9-11.049V267.7a16.593,16.593,0,0,0,9.5-14.075l5.224-40.459a6.845,6.845,0,0,0,0-.917c0-11.748-7.862-21.746-18.223-23.969L342.324,186H348.4a7,7,0,0,0,0-14H334.729l-6.791-12.167C322.436,149.97,314.313,139,300.214,139H212.526c-11.381,0-21.339,7.206-28.058,20.936L177.46,172H161.5a7,7,0,0,0,0,14h8.06l-1.128,2.173c-10.433,2.146-18.09,12.047-18.09,24.074a6.973,6.973,0,0,0,.055.879l4.877,40.476c.2,6.441,4.726,11.914,9.726,14.181v10.168c0,6.288,5.609,11.049,11.9,11.049h13.374C196.56,289,202,284.239,202,277.951V269H310ZM333,275h-9v-6h9ZM196.764,166.642c.071-.127.139-.085.2-.215,2.463-5.079,7.759-13.427,15.56-13.427h87.688c5.387,0,10.021,4.011,15.457,13.756l8.605,15.773c.08.162.166.29.259.445L327.278,188h-6.209a25.262,25.262,0,0,0-48.877,0H184.719ZM305.887,188H287.373a11.239,11.239,0,0,1,18.514,0ZM188,275h-9v-6h9Zm-16.679-20a1.874,1.874,0,0,1-1.808-1.855,7.358,7.358,0,0,0-.056-.9l-5.109-40.375c.152-4.763,3.055-9.537,7.853-9.909.177.013.351.042.53.042H338.914c.033,0,.064-.008.1-.008,5.195,0,8.464,5.036,8.639,9.856l-5.332,40.333a7.562,7.562,0,0,0-.061.964A1.874,1.874,0,0,1,340.449,255Z"/><path d="M287.147,230H224.853a7,7,0,0,0,0,14h62.294a7,7,0,0,0,0-14Z"/><path d="M188.275,213.3a18.55,18.55,0,1,0,18.55,18.55A18.57,18.57,0,0,0,188.275,213.3Zm0,23.1a4.55,4.55,0,1,1,4.55-4.55A4.555,4.555,0,0,1,188.275,236.4Z"/><path d="M323.725,213.3a18.55,18.55,0,1,0,18.55,18.55A18.571,18.571,0,0,0,323.725,213.3Zm0,23.1a4.55,4.55,0,1,1,4.55-4.55A4.555,4.555,0,0,1,323.725,236.4Z"/></svg>
