<?xml version="1.0"?>
<svg xmlns="http://www.w3.org/2000/svg" id="Layer_1" data-name="Layer 1" viewBox="0 0 512 512" width="512" height="512"><title>Car service Truck</title><path d="M24.927,384H42.234a45.742,45.742,0,0,0,13,24.4,45.565,45.565,0,0,0,63.645-.168,45.705,45.705,0,0,0,9.606-13.7A45.5,45.5,0,0,0,214.73,384H376.064a45.72,45.72,0,0,0,12.994,24.4,45.592,45.592,0,0,0,77.217-29.489,41.477,41.477,0,0,0,20.15-12.36c7.248-7.8,11.575-17.611,11.575-26.229v-48.37a43.105,43.105,0,0,0-37.835-42.7L438.515,185H457.95A11.378,11.378,0,0,0,469,173.7V151.652A10.821,10.821,0,0,0,457.95,141H374.617A36.473,36.473,0,0,0,338,177.617V335H320V137.007C320,111.55,299.088,91,273.631,91H60.167A46.082,46.082,0,0,0,14,137.007v235.63C14,378.656,18.908,384,24.927,384Zm427.453-7.6a31.506,31.506,0,0,1-63-.045c-.007-.23-.006-.467-.006-.695a31.5,31.5,0,0,1,62.924-2.309c.055.74.084,1.517.084,2.309C452.386,375.9,452.386,376.144,452.38,376.4ZM374.617,155H455v16H352.831C355.794,161,364.441,155,374.617,155ZM352,185h71.746l21.532,64H352Zm0,78h63.709a32.377,32.377,0,0,1-31.79,27H352Zm0,78.81V304h31.919a46.142,46.142,0,0,0,45.9-41h24.938A29.029,29.029,0,0,1,484,291.952v48.37c0,8.842-8.846,20.729-18.968,24.359A45.507,45.507,0,0,0,375.8,370H352ZM118.556,376.39a31.51,31.51,0,0,1-63-.056c-.007-.223-.006-.453-.006-.677a31.45,31.45,0,0,1,8.407-21.424l.13-.13c.045-.046.09-.091.133-.138a31.254,31.254,0,0,1,7.807-6.006,31.566,31.566,0,0,1,30.042,0l.03.016a31.2,31.2,0,0,1,7.8,5.993c.046.049.093.1.14.144l.13.13a31.41,31.41,0,0,1,8.4,21.419C118.564,375.877,118.565,376.1,118.556,376.39Zm9.939-19.364c-1.282-2.817-2.861-6.026-4.708-8.026h9.4C131.354,351,129.781,354.2,128.5,357.026ZM201,375.657v.811c0,16.931-14.348,30.693-31.3,30.693a31.624,31.624,0,0,1-31.4-30.861c-.008-.213.045-.431.045-.643a31.525,31.525,0,0,1,16.482-27.685c.013-.007.037-.014.049-.02a31.135,31.135,0,0,1,15.017-3.8,31.537,31.537,0,0,1,15.012,3.8l.027.014a31.154,31.154,0,0,1,16.188,25.351C201.178,374.041,201,374.805,201,375.657ZM338,349v21H215.006a44.441,44.441,0,0,0-8.329-21ZM28,137.007A32.067,32.067,0,0,1,60.167,105H273.631A32.24,32.24,0,0,1,306,137.007V335H189.92a45.365,45.365,0,0,0-40.038,0H107.074a45.384,45.384,0,0,0-40.047,0H28ZM28,349H50.327a43.649,43.649,0,0,0-8.365,21H28Z"/><path d="M85.749,273.42a22,22,0,0,0,15.605-6.454l36.887-36.887a7.035,7.035,0,0,0,1.185-1.579l8.514-15.5a7,7,0,0,0,9.626-10.146l-10.97-10.97,61.682-61.682a7,7,0,0,0-9.9-9.9L136.7,181.989l-10.97-10.97a7,7,0,0,0-10.147,9.626l-15.5,8.514a7.021,7.021,0,0,0-1.578,1.185L61.619,227.232a22.1,22.1,0,0,0,0,31.21l8.525,8.524A22,22,0,0,0,85.749,273.42Zm-14.23-36.289L107.7,200.949l18.172-9.985,11.748,11.749-9.985,18.171L91.454,257.067a8.08,8.08,0,0,1-11.411,0l-8.524-8.525A8.078,8.078,0,0,1,71.519,237.131Z"/><path d="M182.5,219.488l-64.481,64.481A21.833,21.833,0,0,0,148.9,314.845l64.481-64.481a49.395,49.395,0,0,0,62.72-62.442,7,7,0,0,0-11.59-2.733l-14.535,14.535-13.769-2.762L233.631,182.4l14.094-14a7,7,0,0,0-2.7-11.608,49.123,49.123,0,0,0-50.671,11.893A49.637,49.637,0,0,0,182.5,219.488Zm45.543-51.273-6.878,6.831a7,7,0,0,0-1.96,6.185L223.25,204.1a7,7,0,0,0,5.517,5.646l22.129,4.438a7,7,0,0,0,6.327-1.914l7.426-7.426A35.424,35.424,0,0,1,214.58,235.8a7,7,0,0,0-7.855,1.419L139,304.946a7.833,7.833,0,0,1-11.077-11.077l67.726-67.726a7,7,0,0,0,1.419-7.855,35.429,35.429,0,0,1,30.979-50.073Z"/></svg>
