<?xml version="1.0"?>
<svg xmlns="http://www.w3.org/2000/svg" id="Layer_1" data-name="Layer 1" viewBox="0 0 512 512" width="512" height="512"><title>Car Service </title><path d="M460.015,190.266l-200-140a7,7,0,0,0-8.03,0l-200,140A7,7,0,0,0,49,196V456a7,7,0,0,0,7,7H456a7,7,0,0,0,7-7V196A7,7,0,0,0,460.015,190.266ZM449,449H63V199.645l193-135.1,193,135.1Z"/><path d="M143.654,242.8l-11.342,20.452c-6.223.033-18.116.1-24.854.148-12.537.093-22.71,6.525-25.918,16.389a54.882,54.882,0,0,0-2.534,13.3,6.582,6.582,0,0,0,1.965,4.967A6.828,6.828,0,0,0,86,300h.061l13.222.074c-.441.468-.875,1.042-1.3,1.541a37.229,37.229,0,0,0-8.48,24.221,7.348,7.348,0,0,0,.062.9l8.806,65.694a21.29,21.29,0,0,0,16.3,20.021l.145,19.623A14.044,14.044,0,0,0,128.95,446h.107l21.652-.106a14.127,14.127,0,0,0,14.028-14.209l-.14-18.964,184.572-1.354.14,18.982a13.614,13.614,0,0,0,4.213,9.774A13.865,13.865,0,0,0,363.436,444h.108l21.652.03a13.974,13.974,0,0,0,14.028-14.093l-.146-19.691a21.244,21.244,0,0,0,15.636-20.118l8.2-65.788a7.005,7.005,0,0,0,.054-.916,36.59,36.59,0,0,0-9.042-24.042c-.431-.486-.874-.953-1.326-1.407l13.451-.1a7,7,0,0,0,6.935-7.389,55.2,55.2,0,0,0-2.73-13.371C426.931,267.367,416.789,261,404.375,261H404.1c-6.689,0-18.4.2-24.6.223l-11.185-20.352C359.913,226.062,347.659,209,327.25,209h-.271l-141.972,1.194C168.294,210.317,153.614,221.987,143.654,242.8ZM94.216,286.305c.184-.71.4-1.445.638-2.19,1.272-3.909,6.5-6.672,12.708-6.718,4.445-.032,11.137-.072,16.96-.105l-4.876,8.793Zm56.39,145.642-21.652.159h0a.146.146,0,0,1-.131-.129L128.682,413l21.915-.162.14,18.977A.133.133,0,0,1,150.606,431.947Zm234.488-1.728-21.654.159h0a.146.146,0,0,1-.13-.129l-.14-18.978,21.915-.162.14,18.979A.148.148,0,0,1,385.094,430.219ZM404.206,275h.156c6.142,0,11.331,2.778,12.649,6.635.255.748.478,1.536.674,2.247l-25.6.225-4.877-8.926C393.03,275.157,399.737,275,404.206,275Zm-13.889,27.858c.038,0,.076-.074.115-.074.062,0,.123-.04.185-.04a16.868,16.868,0,0,1,12.83,5.939,22.844,22.844,0,0,1,5.517,14.425l-8.194,65.706a6.86,6.86,0,0,0-.054.917,7.3,7.3,0,0,1-7.209,7.315l-273.825,2.018a7.3,7.3,0,0,1-7.315-7.207,6.993,6.993,0,0,0-.062-.879l-8.8-65.612a23.373,23.373,0,0,1,5.2-14.654,16.411,16.411,0,0,1,11.535-5.943,7.292,7.292,0,0,0,.974.231h.052Zm-90.288-13.494a22.558,22.558,0,0,1,43.482-.321ZM327.082,223h.163c10.432,0,19.083,7.543,28.855,24.761l22.566,40.95-20.841.361A36.439,36.439,0,0,0,321.812,259h-.273A36.268,36.268,0,0,0,285.7,289.554l-152.547,1.082L156,249.422c.071-.127.138-.267.2-.4,4.362-9.167,13.918-24.715,28.91-24.825Z"/><path d="M140.687,373h.163a21.835,21.835,0,0,0-.322-43.669A21.835,21.835,0,0,0,140.687,373Zm-.055-30h.058a7.363,7.363,0,0,1,5.226,2.4A7.647,7.647,0,0,1,148,350.972v.083a7.588,7.588,0,0,1-2,5.519,7.462,7.462,0,0,1-5.367,2.32A7.85,7.85,0,0,1,132.85,351,7.964,7.964,0,0,1,140.632,343Z"/><path d="M372.165,371h.163a21.62,21.62,0,0,0,21.62-21.8,21.156,21.156,0,0,0-6.493-15.143A21.435,21.435,0,0,0,372.172,328h-.165a21.461,21.461,0,0,0-21.62,21.567A21.647,21.647,0,0,0,372.165,371Zm-5.537-26.868A7.492,7.492,0,0,1,372.11,342h.059a7.614,7.614,0,0,1,5.485,2.052A7.484,7.484,0,0,1,380,349.4a7.8,7.8,0,0,1-15.6.066A7.3,7.3,0,0,1,366.628,344.132Z"/><path d="M214.8,390h.052l83.729-.571A7.219,7.219,0,0,0,298.533,375h-.053l-83.728.855A7.073,7.073,0,0,0,214.8,390Z"/><path d="M218.667,359h.053a7.153,7.153,0,0,0,6.948-7.248l-.1-13.712a7.078,7.078,0,0,0-7-7.04h-.052a6.977,6.977,0,0,0-6.949,7.045l.1,13.814A7.167,7.167,0,0,0,218.667,359Z"/><path d="M193.438,359h.053a7.071,7.071,0,0,0,6.948-7.155l-.1-13.759a7.119,7.119,0,0,0-7-7.086h-.053a7.057,7.057,0,0,0-6.948,7.138l.1,13.767A7.128,7.128,0,0,0,193.438,359Z"/><path d="M319.582,358h.053a7.041,7.041,0,0,0,6.948-7.12l-.1-13.655a7,7,0,1,0-14,.069l.1,13.69A7.058,7.058,0,0,0,319.582,358Z"/><path d="M243.9,358h.052a6.8,6.8,0,0,0,6.948-6.841l-.1-13.516a7,7,0,0,0-14,.183l.1,13.423A6.836,6.836,0,0,0,243.9,358Z"/><path d="M269.124,358h.052a6.883,6.883,0,0,0,6.949-6.934l-.1-13.369a6.789,6.789,0,0,0-7-6.7h-.051a6.82,6.82,0,0,0-6.95,6.859l.1,13.406A6.82,6.82,0,0,0,269.124,358Z"/><path d="M294.354,358h.052a6.96,6.96,0,0,0,6.948-7.027l-.1-13.823a7.175,7.175,0,0,0-7-7.15H294.2a7.169,7.169,0,0,0-6.948,7.266l.1,13.7A7.072,7.072,0,0,0,294.354,358Z"/></svg>
