<?xml version="1.0"?>
<svg xmlns="http://www.w3.org/2000/svg" id="Layer_1" data-name="Layer 1" viewBox="0 0 512 512" width="512" height="512"><title>Car Tow Truck </title><path d="M481.06,251H468V227h3.033a18,18,0,1,0,0-36H373.657A6.353,6.353,0,0,0,367,197.563V308h-8V292.84c0-3.866-3.531-6.84-7.4-6.84H335V234.126a6.836,6.836,0,0,0-1.15-4.1L258.064,125.015A6.955,6.955,0,0,0,252.481,122h-15.5a7.114,7.114,0,0,0-6.037,3.575,7.3,7.3,0,0,0-.837,2.348l-26.222,46.442a7.014,7.014,0,0,0,6.094,10.465c5.708,0,10.013,4.112,10.013,9.559,0,5.36-4.449,9.561-10.128,9.561a10.175,10.175,0,0,1-8.491-5.427,9.131,9.131,0,0,0-3.443-10.734L179.4,175.227a26.43,26.43,0,0,0-30.521.56,117.238,117.238,0,0,0-25.423,25.831,148.552,148.552,0,0,0-44.846,19.308,118.56,118.56,0,0,0-13.057,9.857A100.564,100.564,0,0,0,51.1,246.323a6.756,6.756,0,0,0-1.137,1.553c-.441.617-.883,1.234-1.306,1.858L19.387,292.9,7.923,309.808a16.977,16.977,0,0,0-2.815,11.431l4.241,37.432A16.943,16.943,0,0,0,16.686,370.8l18.256,12.378a34.486,34.486,0,0,0,31.051,3.862l.1-.037a27.426,27.426,0,0,0,12.1-8.826,26.613,26.613,0,0,0,11.033,2.406,27.248,27.248,0,0,0,5.132-.49,26.93,26.93,0,0,0,14.624-44.809l22.426-33.077h0l27.152-40.047a26.594,26.594,0,0,0,9.47,1.747,27.248,27.248,0,0,0,5.132-.49,26.929,26.929,0,0,0,14.8-44.62l5.38-7.935a23.441,23.441,0,0,0,16.526,7.087c13.529,0,24.128-10.348,24.128-23.559A23.258,23.258,0,0,0,220.639,173.2l16.537-29.269L287.9,234.781,268.617,286H184.739A6.646,6.646,0,0,0,178,292.84V308H145.555C139.512,308,135,313.308,135,319.352v27.213c0,6.044,4.512,11.435,10.555,11.435h35.211c3.729,18,20.1,32.234,39.343,32.234S255.741,376,259.451,358h14.568c3.728,18,20.094,32.238,39.339,32.238S348.976,376,352.705,358h37.047c3.727,18,20.092,32.23,39.341,32.23S464.712,376,468.435,358H500c3.866,0,7-3.6,7-7.466v-74A25.628,25.628,0,0,0,481.06,251Zm-406.3-9.671a104.563,104.563,0,0,1,11.51-8.684,130.275,130.275,0,0,1,24.589-12.413L83.3,261.134,66.389,249.671A89.381,89.381,0,0,1,74.763,241.329ZM58,260.9l17.472,11.845-23,34.129L34.9,294.962Zm-38.98,58.765a2.964,2.964,0,0,1,.492-2l7.536-11.115,17.6,11.932L22.592,351.2ZM99.984,360.9a12.933,12.933,0,0,1-17.961,3.447h0A12.933,12.933,0,1,1,99.984,360.9ZM97.1,327.869A26.934,26.934,0,0,0,67.36,369.293a13.735,13.735,0,0,1-6.049,4.557l-.1.036A20.461,20.461,0,0,1,42.8,371.594l-11.713-7.942L87.059,280.6l28.832,19.548Zm81.694-83.642a12.934,12.934,0,0,1-17.962,3.447h0a12.933,12.933,0,1,1,17.962-3.447Zm-2.643-32.952A26.929,26.929,0,0,0,147.2,253.97l-23.452,34.59L94.883,268.99l38.548-57.2A102.874,102.874,0,0,1,157.2,187.05a12.236,12.236,0,0,1,7.1-2.4,12.419,12.419,0,0,1,7.243,2.162l14.513,9.84Zm126,25.4a7.094,7.094,0,0,0-.44-5.924L248.758,136.3,321,236.393V286H283.579ZM180.43,344H149V322h41.613A42.407,42.407,0,0,0,180.43,344Zm65.814,6.228a26.146,26.146,0,0,1-52.279-.061c-.006-.181,0-.367,0-.548a26.1,26.1,0,0,1,6.961-17.762l.1-.1c.047-.047.093-.1.139-.143a25.868,25.868,0,0,1,6.476-4.982,26.189,26.189,0,0,1,12.476-3.157,26.041,26.041,0,0,1,18.942,8.138c.046.049.093.1.14.144l.1.1a26.066,26.066,0,0,1,6.96,17.76C246.25,349.8,246.251,349.986,246.244,350.228ZM273.692,344H259.781A42.394,42.394,0,0,0,249.6,322h34.269A43.223,43.223,0,0,0,273.692,344ZM340,350.305c-1,14.045-12.33,25.459-26.393,25.459a26.431,26.431,0,0,1-26.265-25.62c-.007-.174-.067-.352-.067-.525a26.113,26.113,0,0,1,13.646-22.987,25.761,25.761,0,0,1,12.452-3.158,26.516,26.516,0,0,1,26.318,24.2c.043.6.309,1.234.309,1.94ZM192,308v-8H345v8Zm175,36H353.034a43.244,43.244,0,0,0-10.165-22H367Zm51-139h53.033a4,4,0,1,1,0,8H418Zm0,22h36v24H430.086A12.43,12.43,0,0,1,418,238.657Zm-37-22h23v33.657a26.4,26.4,0,0,0,20,25.286V282H381Zm74.233,145.233a26.147,26.147,0,0,1-52.281-.045c-.006-.189,0-.383,0-.57a26.145,26.145,0,0,1,52.22-1.915c.047.615.07,1.26.07,1.915C455.237,349.816,455.238,350.021,455.233,350.233ZM493,344H468.765a39.7,39.7,0,0,0-39.672-34.062c-20.069,0-36.745,14.062-39.685,34.062H381V315.521c0-.044.007-.086.007-.13S381,315.3,381,315.26V296h50.322A6.4,6.4,0,0,0,438,289.4V265h43.06A11.615,11.615,0,0,1,493,276.537Z"/></svg>
