<?xml version="1.0"?>
<svg xmlns="http://www.w3.org/2000/svg" id="Layer_1" data-name="Layer 1" viewBox="0 0 512 512" width="512" height="512"><title>Car Truck towing</title><path d="M478,233.694V223.61a18.342,18.342,0,0,0-.886-5.642L463.1,162H478a7,7,0,0,0,0-14H356.616c-3.866,0-6.616,3.585-6.616,7.451V296H188.476a46.181,46.181,0,0,0-40.82,0H103.869a46.2,46.2,0,0,0-40.829,0H20.011A11.136,11.136,0,0,0,9,307.134v27.482C9,340.682,13.945,346,20.011,346h17.8a47.407,47.407,0,0,0,13.256,25,46.375,46.375,0,0,0,64.79-.145,46.471,46.471,0,0,0,9.914-14.237A46.522,46.522,0,0,0,200.469,371a47.4,47.4,0,0,0,13.257-25H378.733a47.384,47.384,0,0,0,13.252,25,46.62,46.62,0,0,0,64.793.045A47.481,47.481,0,0,0,470.031,346h25.958A7.34,7.34,0,0,0,503,338.624V275.205A47.046,47.046,0,0,0,478,233.694ZM37.54,332H23V310H46.244C41.552,316,38.565,324,37.54,332Zm78.238,6.453a32.328,32.328,0,0,1-64.639-.062c-.008-.229-.006-.462-.006-.691a32.265,32.265,0,0,1,8.624-21.979l.132-.132c.047-.048.094-.1.139-.144a32.023,32.023,0,0,1,8.01-6.161,32.379,32.379,0,0,1,30.827,0l.021.011a32.013,32.013,0,0,1,8,6.151c.046.049.092.1.14.145l.134.134a32.224,32.224,0,0,1,8.623,21.977C115.786,337.929,115.788,338.162,115.778,338.453Zm10-19.753a56.969,56.969,0,0,0-5.1-8.7h10.19A57.764,57.764,0,0,0,125.778,318.7ZM200,337.7v.83c0,17.372-14.733,31.491-32.125,31.491a32.45,32.45,0,0,1-32.219-31.653c-.008-.221.043-.447.043-.668a32.339,32.339,0,0,1,16.91-28.4c.012-.006.036-.013.048-.02a31.939,31.939,0,0,1,15.407-3.9,32.364,32.364,0,0,1,15.405,3.9l.023.012a31.97,31.97,0,0,1,16.624,26.01C200.169,336.047,200,336.831,200,337.7ZM350,332H214a46.634,46.634,0,0,0-8.662-22H350Zm63-170h35.661l14.951,59.683c.058.23.128.569.209.793A3.689,3.689,0,0,1,464,223.61V228.9a47.138,47.138,0,0,0-8.011-.9H426.257A13.064,13.064,0,0,1,413,215.205Zm-49,0h35v53.205c0,12.6,9,23.214,21,26.175V260H364Zm92.7,176.459a32.325,32.325,0,0,1-64.633-.041c-.006-.237,0-.483,0-.719a32.322,32.322,0,0,1,64.558-2.369c.057.762.086,1.56.086,2.369C456.7,337.942,456.7,338.2,456.7,338.459ZM489,332H470.3a46.312,46.312,0,0,0-91.827,0H364V303.269c0-.045.007-.09.007-.135S364,303.044,364,303V274h62.633c3.866,0,7.367-2.81,7.367-6.676V242h21.989A33.222,33.222,0,0,1,489,275.205Z"/><path d="M37.216,245.772l.178.066a34.6,34.6,0,0,0,19.525,6.39A33.626,33.626,0,0,0,123.464,254H235.238a33.6,33.6,0,0,0,66.124,0h31.424A10.149,10.149,0,0,0,343,244.169V218.1a36.114,36.114,0,0,0-29.213-35.237l-40.178-7.8a195.157,195.157,0,0,0-55.471-35.745,155.914,155.914,0,0,0-20.387-6.939,131.991,131.991,0,0,0-27.633-4.265,7.108,7.108,0,0,0-1.378-.136,7.247,7.247,0,0,0-.837.064c-1.06-.028-2.124-.043-3.179-.043H77.833a20.306,20.306,0,0,0-13.214,4.877L26.262,165.6A20.442,20.442,0,0,0,19,181.011v29.444A43.871,43.871,0,0,0,37.216,245.772ZM268.3,267.645a19.609,19.609,0,1,1,19.609-19.61A19.631,19.631,0,0,1,268.3,267.645ZM176,142.547a121.055,121.055,0,0,1,18.3,3.372,139.879,139.879,0,0,1,18.392,6.316,181.345,181.345,0,0,1,38.551,22.36L176,174.813Zm0,46.266,93.624-.271,41.555,8.065A22.032,22.032,0,0,1,329,218.1V240H300.94a33.6,33.6,0,0,0-65.28,0H176ZM90.343,267.979a19.61,19.61,0,1,1,19.609-19.61A19.632,19.632,0,0,1,90.343,267.979ZM112,142h50v32.853L112,175Zm-38.271,1.507a6.3,6.3,0,0,1,4.1-1.507H98v33.037l-61.327.182ZM33,189.224l129-.371V240H122.905c-3.716-14-16.9-25.389-32.562-25.389C75.332,214.611,62.591,225,58.29,238h-.481a20.814,20.814,0,0,1-12.243-3.659l-.161.076A29.826,29.826,0,0,1,33,210.455Z"/></svg>
