<?xml version="1.0"?>
<svg xmlns="http://www.w3.org/2000/svg" id="Layer_1" data-name="Layer 1" viewBox="0 0 512 512" width="512" height="512"><title>Car trunk</title><path d="M302.445,238H277.731a7,7,0,0,0,0,14h24.714a7,7,0,0,0,0-14Z"/><path d="M486.046,238.237,463.878,181.37l13.262-9.725a7,7,0,1,0-8.28-11.29l-70.405,51.63c-10.379-9.512-39.82-34.411-80.536-51.436a230.563,230.563,0,0,0-30.15-10.276,194.715,194.715,0,0,0-41.115-6.316,4.341,4.341,0,0,0-2.613.015c-1.668-.048-3.334.028-4.992.028H93.4a26.913,26.913,0,0,0-17.571,6.386l-57.4,49.143A26.854,26.854,0,0,0,9,219.972v44.261a62.191,62.191,0,0,0,25.7,50.261l.1.292A48.643,48.643,0,0,0,63.3,324h1.965c1.216,24,21.8,44.337,46.941,44.337A47.015,47.015,0,0,0,158.935,326H348.082a46.989,46.989,0,0,0,93.335,0h50.27A11.134,11.134,0,0,0,503,314.914V274.293A47.178,47.178,0,0,0,486.046,238.237ZM27.54,210.1l57.4-49.086A12.9,12.9,0,0,1,93.4,158H127v56.516L23.886,214.8A13.513,13.513,0,0,1,27.54,210.1ZM112.2,354.227a33,33,0,1,1,33-33A33.038,33.038,0,0,1,112.2,354.227ZM238,312H158.33A47.4,47.4,0,0,0,112.2,274.337,46.6,46.6,0,0,0,66.673,310H63.3a34.719,34.719,0,0,1-20.328-6.579s-.119-.2-.124-.2A48.326,48.326,0,0,1,23,264.233V262H40.328a7,7,0,0,0,0-14H23V228.806l215-.6Zm0-97.791-97,.268V158h97ZM452.192,189.94l15.1,38.741c-.461-.114-.92-.231-1.387-.331l-51.073-11.015ZM252,158.314a177.3,177.3,0,0,1,32.167,5.5,217.073,217.073,0,0,1,28.351,9.653c29.288,12.247,52.73,29.131,66.51,40.352L252,214.17ZM394.75,353.726a33,33,0,1,1,33-33A33.037,33.037,0,0,1,394.75,353.726ZM489,312H440.965a46.988,46.988,0,0,0-92.431,0H252V228.17l144.208-.4a7.2,7.2,0,0,0,1.607.221l65.132,14.044A33.186,33.186,0,0,1,489,274.293Z"/><path d="M442,247a7,7,0,0,0-7,7v12.8A19.192,19.192,0,0,0,454.02,286H472a7.076,7.076,0,0,0,7-7.088C479,259.877,464.131,247,442,247Zm12.02,25a5.179,5.179,0,0,1-5.02-5.2v-5.148C454.444,262.7,460.966,265,463.7,272Z"/></svg>
