<?xml version="1.0"?>
<svg xmlns="http://www.w3.org/2000/svg" id="Layer_1" data-name="Layer 1" viewBox="0 0 512 512" width="512" height="512"><title>Car Wash</title><path d="M136.856,419.6a22.216,22.216,0,1,0-22.215-22.216A22.241,22.241,0,0,0,136.856,419.6Zm0-30.432a8.216,8.216,0,1,1-8.215,8.216A8.226,8.226,0,0,1,136.856,389.168Z"/><path d="M375.143,419.6a22.216,22.216,0,1,0-22.215-22.216A22.241,22.241,0,0,0,375.143,419.6Zm0-30.432a8.216,8.216,0,1,1-8.215,8.216A8.226,8.226,0,0,1,375.143,389.168Z"/><path d="M81,345h.009l14.01-.249a37.13,37.13,0,0,0-10.449,26.39,6.087,6.087,0,0,0,.055.821l8.658,67.659A21.083,21.083,0,0,0,110,460.172v20.36A14.315,14.315,0,0,0,124.162,495h22.291A14.645,14.645,0,0,0,161,480.532V461H351v19.532A14.644,14.644,0,0,0,365.546,495h22.29A14.317,14.317,0,0,0,402,480.532V460.075a21.989,21.989,0,0,0,16.335-20.461l8.989-67.671a6.9,6.9,0,0,0,.083-.918,37.05,37.05,0,0,0-10.845-26.482l14.435,0a7,7,0,0,0,6.993-7.337,56.135,56.135,0,0,0-2.7-13.622c-3.347-10.042-13.791-16.531-26.607-16.531-6.928,0-19.09-.042-25.448-.066L371.82,285.927C363.273,270.6,350.76,253,329.691,253H183.544c-17.124,0-32.257,11.722-42.632,33l-11.894,21.082c-6.371-.013-18.723-.033-25.7-.033-12.816,0-23.26,6.49-26.608,16.533a56.214,56.214,0,0,0-2.7,13.622,7.543,7.543,0,0,0,1.927,5.4A7.242,7.242,0,0,0,81,345Zm66,135.532c0,.188-.36.468-.547.468H124.162c-.188,0-.162-.28-.162-.468V461h23ZM387.836,481h-22.29c-.188,0-.546-.28-.546-.468V461h23v19.532C388,480.72,388.024,481,387.836,481Zm20.848-159.952c6.481,0,11.961,2.861,13.326,6.959.289.866.537,1.717.75,2.534l-26.737.01-5.177-9.542C396.914,321.029,404,321.048,408.684,321.048ZM153.209,292.583c.072-.126.139-.207.2-.338C157.992,282.8,168,267,183.544,267H329.691c10.9,0,19.842,7.59,29.863,25.557L382.638,335H360.666a37.431,37.431,0,0,0-73.9,0H129.206ZM346.372,335h-45.31a23.434,23.434,0,0,1,45.31,0ZM394.2,349c.052,0,.1.126.155.126,9.075,0,18.863,8.207,19.073,21.406l-8.935,67.66a8.52,8.52,0,0,0-.061,1.022A7.779,7.779,0,0,1,396.748,447H114.869a7.78,7.78,0,0,1-7.681-7.786,7.819,7.819,0,0,0-.055-.931l-8.56-67.645c.171-10.285,6.708-20.9,17.617-21.589a7.16,7.16,0,0,0,1.029-.049ZM89.99,328.006c1.365-4.1,6.845-6.958,13.326-6.958,4.666,0,11.735.01,17.81.021l-5.319,9.425-26.563.034C89.456,329.714,89.7,328.868,89.99,328.006Z"/><path d="M185.53,410H326.47a6.789,6.789,0,0,0,6.627-9.022l-4.86-14.31C324.681,376.212,313.245,368,302.2,368H209.416c-11.08,0-22.453,8.311-25.893,18.843l-4.647,14.264a6.715,6.715,0,0,0,.988,6.143A6.874,6.874,0,0,0,185.53,410Zm11.3-18.965c1.561-4.778,7.559-9.035,12.585-9.035H302.2c5.06,0,11.153,4.269,12.782,9.06L316.7,396H195.179Z"/><path d="M171.245,437H345.07a7,7,0,0,0,0-14H171.245a7,7,0,0,0,0,14Z"/><path d="M191,134H321a7.161,7.161,0,0,0,7-7.186A72.184,72.184,0,0,0,265,55.3c0-.028,0-.148,0-.176v-31a7,7,0,0,0-14,0V54.82a72.254,72.254,0,0,0-67,71.994A7.161,7.161,0,0,0,191,134Zm65-65a57.832,57.832,0,0,1,57.58,51H198.42A57.832,57.832,0,0,1,256,69Z"/><path d="M181,154H331a7,7,0,0,0,0-14H181a7,7,0,0,0,0,14Z"/><path d="M181,191.127a7,7,0,0,0,7-7v-14a7,7,0,0,0-14,0v14A7,7,0,0,0,181,191.127Z"/><path d="M331,191.127a7,7,0,0,0,7-7v-14a7,7,0,0,0-14,0v14A7,7,0,0,0,331,191.127Z"/><path d="M206,191.127a7,7,0,0,0,7-7v-14a7,7,0,0,0-14,0v14A7,7,0,0,0,206,191.127Z"/><path d="M231,191.127a7,7,0,0,0,7-7v-14a7,7,0,0,0-14,0v14A7,7,0,0,0,231,191.127Z"/><path d="M256,191.127a7,7,0,0,0,7-7v-14a7,7,0,0,0-14,0v14A7,7,0,0,0,256,191.127Z"/><path d="M281,191.127a7,7,0,0,0,7-7v-14a7,7,0,0,0-14,0v14A7,7,0,0,0,281,191.127Z"/><path d="M306,191.127a7,7,0,0,0,7-7v-14a7,7,0,0,0-14,0v14A7,7,0,0,0,306,191.127Z"/><path d="M193,198.127a7,7,0,0,0-7,7v14a7,7,0,0,0,14,0v-14A7,7,0,0,0,193,198.127Z"/><path d="M218,226.127a7,7,0,0,0,7-7v-14a7,7,0,0,0-14,0v14A7,7,0,0,0,218,226.127Z"/><path d="M243,226.127a7,7,0,0,0,7-7v-14a7,7,0,0,0-14,0v14A7,7,0,0,0,243,226.127Z"/><path d="M268,226.127a7,7,0,0,0,7-7v-14a7,7,0,0,0-14,0v14A7,7,0,0,0,268,226.127Z"/><path d="M293,226.127a7,7,0,0,0,7-7v-14a7,7,0,0,0-14,0v14A7,7,0,0,0,293,226.127Z"/><path d="M318,226.127a7,7,0,0,0,7-7v-14a7,7,0,1,0-14,0v14A7,7,0,0,0,318,226.127Z"/></svg>
