<?xml version="1.0"?>
<svg xmlns="http://www.w3.org/2000/svg" id="Layer_1" data-name="Layer 1" viewBox="0 0 512 512" width="512" height="512"><title>Chain</title><path d="M296.509,167.042h0a34.421,34.421,0,1,0,48.678,0A34.462,34.462,0,0,0,296.509,167.043Zm38.779,38.779a20.421,20.421,0,1,1-28.879-28.88h0a20.421,20.421,0,1,1,28.88,28.879Z"/><path d="M474.229,42.438a81.4,81.4,0,0,0-47.462-25.122,81.106,81.106,0,0,0-92.28,68.172,30.5,30.5,0,0,1-25.768,25.694,81.411,81.411,0,0,0-47.371,25.07,80.5,80.5,0,0,0-21.55,52.375L188.623,239.8a81.235,81.235,0,0,0-77.465,69.015,30.5,30.5,0,0,1-25.77,25.695,81.412,81.412,0,0,0-47.354,25.06A81.178,81.178,0,0,0,97.475,496h.218a81.033,81.033,0,0,0,80.189-70.236,28.706,28.706,0,0,1,24.382-24.481,80.669,80.669,0,0,0,69.928-77.439L323.828,272.2a80.608,80.608,0,0,0,77.384-69.867A28.652,28.652,0,0,1,425.594,177.9,81.313,81.313,0,0,0,474.406,42.638C474.349,42.57,474.289,42.5,474.229,42.438ZM240.422,366.661a67.091,67.091,0,0,1-40.047,20.7,42.712,42.712,0,0,0-36.366,36.425A67,67,0,0,1,97.657,482h-.182A67.193,67.193,0,0,1,87.426,348.388a44.559,44.559,0,0,0,37.583-37.516,67.1,67.1,0,0,1,115.432-35.79c.06.07.122.137.185.206a67.7,67.7,0,0,1-.2,91.373Zm30.393-61.253a79.93,79.93,0,0,0-19.728-39.429c-.061-.072-.124-.142-.188-.211a81.425,81.425,0,0,0-43.933-24.508l34.274-34.274a80.583,80.583,0,0,0,64.152,63.845ZM463.753,143.331a67.091,67.091,0,0,1-40.047,20.7,42.71,42.71,0,0,0-36.367,36.425,67.111,67.111,0,1,1-76.583-75.423,44.541,44.541,0,0,0,37.582-37.5A67.138,67.138,0,0,1,414.552,30.4a67.335,67.335,0,0,1,49.229,21.363c.057.066.115.132.176.2a67.706,67.706,0,0,1-.2,91.374Z"/><path d="M414.7,63.114A34.422,34.422,0,1,0,439.034,73.2,34.2,34.2,0,0,0,414.7,63.114Zm14.44,48.861A20.421,20.421,0,1,1,400.255,83.1h0a20.421,20.421,0,0,1,28.879,28.88Z"/><path d="M97.514,380.288a34.42,34.42,0,1,0,24.339,10.082A34.2,34.2,0,0,0,97.514,380.288Zm14.439,48.86A20.42,20.42,0,1,1,83.074,400.27h0a20.421,20.421,0,0,1,28.879,28.879Z"/><path d="M167.022,296.521h0a34.421,34.421,0,1,0,48.679,0A34.463,34.463,0,0,0,167.021,296.522ZM205.8,335.3a20.421,20.421,0,1,1-28.88-28.88h0A20.421,20.421,0,1,1,205.8,335.3Z"/></svg>
