<?xml version="1.0"?>
<svg xmlns="http://www.w3.org/2000/svg" id="Layer_1" data-name="Layer 1" viewBox="0 0 512 512" width="512" height="512"><title>Cog wheel Wrench</title><path d="M451.279,204.1c-16.115,0-31.138,7.9-40.908,19.9H336.839a152.335,152.335,0,0,0-17.922-44.329l21.229-25.546a6.943,6.943,0,0,0-.411-9.338L303.7,108.314a7,7,0,0,0-9.446-.463l-25.681,21.272a149.348,149.348,0,0,0-40.054-16.914l-3.214-33.117A6.8,6.8,0,0,0,218.339,73H166.6a6.8,6.8,0,0,0-6.968,6.093l-3.214,33.233a145.959,145.959,0,0,0-40.1,16.823L90.683,107.892a7,7,0,0,0-9.415.427L44.773,144.806a7,7,0,0,0-.441,9.412L65.6,179.9a149.264,149.264,0,0,0-16.918,40.054l-33.353,3.214A7,7,0,0,0,9,230.13v51.74a7,7,0,0,0,6.328,6.968l33.351,3.214a146.021,146.021,0,0,0,16.881,40.1L44.332,357.786a7,7,0,0,0,.441,9.415L81.268,403.7a7,7,0,0,0,9.415.443l25.68-21.268a149.244,149.244,0,0,0,40.055,16.918l3.214,33.119A6.8,6.8,0,0,0,166.6,439h51.739a6.8,6.8,0,0,0,6.968-6.093l3.214-33.233a145.959,145.959,0,0,0,40.1-16.823l25.634,21.257a7,7,0,0,0,9.415-.426l36.5-36.488a7,7,0,0,0,.441-9.412l-21.267-25.5A150.678,150.678,0,0,0,337.3,288h73.07c9.77,12,24.793,19.9,40.908,19.9a51.9,51.9,0,0,0,0-103.794ZM304.85,329.067a6.866,6.866,0,0,0,.49,8.172l20.42,24.613-27.483,27.46L273.62,368.881a7,7,0,0,0-8.348-.438,131.455,131.455,0,0,1-44.716,18.845,6.735,6.735,0,0,0-5.489,5.934L211.981,425H172.957l-3.085-31.78a6.867,6.867,0,0,0-5.488-6.052,135.313,135.313,0,0,1-44.8-18.847,7,7,0,0,0-8.26.52L86.661,389.275,59.18,361.8,79.6,337.147a7,7,0,0,0,.432-8.346,131.42,131.42,0,0,1-18.846-44.716,7,7,0,0,0-6.17-5.488L23,275.513V236.487L55.015,233.4a7,7,0,0,0,6.17-5.488,135.421,135.421,0,0,1,18.9-44.8,7,7,0,0,0-.49-8.259L59.18,150.192,86.661,122.71l24.658,20.419a7,7,0,0,0,8.348.433,131.447,131.447,0,0,1,44.717-18.847,6.738,6.738,0,0,0,5.488-5.935L172.957,87h39.024l3.086,31.78a6.867,6.867,0,0,0,5.489,6.052,135.361,135.361,0,0,1,44.8,18.846,7,7,0,0,0,8.26-.52l24.626-20.407,27.078,27.417-20.446,24.685a6.734,6.734,0,0,0-.433,8.169A137.336,137.336,0,0,1,322.468,224h-27a107.483,107.483,0,0,0-103-75.912c-59.406,0-107.736,48.418-107.736,107.824s48.33,107.956,107.736,107.956a107.444,107.444,0,0,0,103-75.868h27.462A138.038,138.038,0,0,1,304.85,329.067Zm-181.4-99.5a7.15,7.15,0,0,0,5.18,2.438h.025l35.424-.274,17.283,24.431L165.3,280h-36.63a7.266,7.266,0,0,0-6.263,10.429,77.251,77.251,0,0,0,69.3,43.107C222.2,333.536,250,315,262.368,288h18.353A93.785,93.785,0,0,1,98.734,256.088c0-51.685,42.05-93.956,93.736-93.956A93.346,93.346,0,0,1,280.721,224H262.368C250,197,222.2,178.413,191.7,178.413a77.175,77.175,0,0,0-69.353,43.15A7.281,7.281,0,0,0,123.446,229.562Zm327.833,64.159a37.493,37.493,0,0,1-31.478-16.76A6.841,6.841,0,0,0,413.963,274h-83.31l-.057,0c-.02,0-.038,0-.058,0H257.68a6.845,6.845,0,0,0-6.558,4.373A63.442,63.442,0,0,1,191.7,319.3,62.356,62.356,0,0,1,141.211,294h27.833a6.817,6.817,0,0,0,5.826-2.918l20.789-31.114a6.917,6.917,0,0,0-.091-7.843l-22.12-31.38A6.783,6.783,0,0,0,167.712,218h-.025l-26.527-.122a63.461,63.461,0,0,1,109.962,15.8A6.8,6.8,0,0,0,257.68,238h72.4c.02,0,.038,0,.058,0s.038,0,.057,0h83.772a6.841,6.841,0,0,0,5.838-2.961,37.762,37.762,0,1,1,31.478,58.682Z"/><path d="M451.279,234.093A21.907,21.907,0,1,0,473.187,256,21.86,21.86,0,0,0,451.279,234.093Zm0,29.814A7.907,7.907,0,1,1,459.187,256,7.9,7.9,0,0,1,451.279,263.907Z"/></svg>
