<?xml version="1.0"?>
<svg xmlns="http://www.w3.org/2000/svg" id="Layer_1" data-name="Layer 1" viewBox="0 0 512 512" width="512" height="512"><title>Customer service Female</title><path d="M319,447.778a7,7,0,0,0,7-7v-6.371a7,7,0,1,0-14,0v6.371A7,7,0,0,0,319,447.778Z"/><path d="M176,447.778a7,7,0,0,0,7-7v-6.371a7,7,0,1,0-14,0v6.371A7,7,0,0,0,176,447.778Z"/><path d="M236.325,79h25.032a7,7,0,0,0,0-14H236.325a7,7,0,0,0,0,14Z"/><path d="M236.325,56h25.032a7,7,0,0,0,0-14H236.325a7,7,0,0,0,0,14Z"/><path d="M361.828,244C375.545,244,387,232.381,387,218.664V217h4.819a7,7,0,0,0,0-14H387v-.173c0-11.947-9-21.951-20-24.335v-8.737c3-1.023,4-3.549,4-6.51v-27c0-3.866-2.7-7.25-6.571-7.25H357.2a120.369,120.369,0,0,0-23.3-65.811,110.17,110.17,0,0,0-53.585-39.2l.762-7.3A6.974,6.974,0,0,0,274.115,9h-53a7,7,0,0,0-6.963,7.723l.761,7.329a109.964,109.964,0,0,0-53.589,39.235A120.573,120.573,0,0,0,138.038,129H130.8a7.051,7.051,0,0,0-6.8,7.25v27A6.626,6.626,0,0,0,130.8,170h12.28l.679,9.954a24.719,24.719,0,0,0-15.4,17.45,31.087,31.087,0,0,0-.881,7.364,30.708,30.708,0,0,0,17.371,27.707l-30.9,97.4a7,7,0,0,0,5,8.92c1.172.289,22.939,5.481,54.943,5.481,7.746,0,16.115-.308,25.115-1.06v4.857l-54.057,22.992c-.129.056-.347.115-.474.178a57.231,57.231,0,0,0-31.309,46.044c-.016.193-.16.387-.16.581v78A7.27,7.27,0,0,0,120.181,503H375.048A7.074,7.074,0,0,0,382,495.867v-78c0-.194.016-.388,0-.582a57.075,57.075,0,0,0-31.161-46.043c-.126-.063-.045-.122-.174-.178L297,348.073v-5.082c12,.985,26.9,1.008,27.609,1.009h0a7,7,0,0,0,5.769-3.034l3.553-5.169,1.364,3.451a7.009,7.009,0,0,0,6.958,4.412c21.776-1.4,35.476-4.722,36.049-4.862a7.083,7.083,0,0,0,5.054-8.915L360,256.082V244ZM211,40.765a72.635,72.635,0,0,1,13.479-4.9,6.921,6.921,0,0,0,5.06-7.488L228.877,23h37.474l-.559,5.377a7.14,7.14,0,0,0,5.343,7.488A119.055,119.055,0,0,1,285,40.759v9.513a56.431,56.431,0,0,1-35.9,52.581A56.274,56.274,0,0,1,211,49.465ZM172.79,71.607A100.915,100.915,0,0,1,197,48.612v.853a70.079,70.079,0,0,0,48.436,66.981l1.339.471a6.706,6.706,0,0,0,2.118.345,7.923,7.923,0,0,0,2.429-.381A70.6,70.6,0,0,0,299,50.272V48.586a99.324,99.324,0,0,1,23.83,22.937A106.074,106.074,0,0,1,343.18,129H152.06A106.679,106.679,0,0,1,172.79,71.607ZM138,156V143H353.033c-.027,1-.033.755-.033,1.013V156H284.427a5.764,5.764,0,0,1-.787-.167,18.729,18.729,0,0,0-2.849.167Zm202.972,22A6.933,6.933,0,0,0,334,184.95v1.4C319,187.8,306.454,178,298.094,170H353v8ZM346,247.086v25.895c0,8.028-6.641,15.019-14.668,15.019h-3.025A111.476,111.476,0,0,0,346,247.086ZM258.369,170a153.556,153.556,0,0,1-19.037,8.87c-29.089,11.1-56.477,11.695-81.478,1.937L157.113,170Zm-116.92,34.8a16.864,16.864,0,0,1,.5-4,10.644,10.644,0,0,1,7.878-7.956,114.148,114.148,0,0,0,44.606,8.9,140.15,140.15,0,0,0,50.314-9.837,177.663,177.663,0,0,0,36.5-19.227,99.853,99.853,0,0,0,15.247,14.74c12.338,9.5,25.5,13.885,37.5,13.007v27.9a85.706,85.706,0,0,1-17.25,51.4A18.743,18.743,0,0,0,303.4,274H273.127A18.355,18.355,0,0,0,255,292.517v4.045a18.228,18.228,0,0,0,9.871,16.273,87.521,87.521,0,0,1-17.5,1.769A86.458,86.458,0,0,1,161,228.327v-.141a6.956,6.956,0,0,0-5.742-6.9A16.682,16.682,0,0,1,141.449,204.8ZM283,322.221v26.184c-23,9.609-48,9.609-70,0V322.39c10,4.014,22.556,6.214,34.766,6.214C259.87,328.6,271,326.416,283,322.221Zm-97.345,7.794,2.861-12.394a7.034,7.034,0,0,0-13.689-3.242l-3.785,15.852a265.5,265.5,0,0,1-41.381-3.58L151.7,257.763A98.677,98.677,0,0,0,199,315.935v13.231C194,329.568,189.909,329.842,185.655,330.015ZM173,374.3l7-3.09V410h-7ZM159,410h-3.775A7.56,7.56,0,0,0,148,417.416V489H127V418.171c1-14.588,10.375-27.7,23.445-34.316L159,380.277Zm177-29.723,8.555,3.579C357.626,390.472,367,403.583,368,418.171V489H347V417.416c0-3.866-3.13-7.416-7-7.416h-4ZM333,489H162V424H333ZM315,371.213l7,3.089V410h-7Zm-14-5.975V410H194V365.238l11.246-4.782a102.368,102.368,0,0,0,84.612,0ZM273.308,301A4.307,4.307,0,0,1,269,296.693v-4.386A4.307,4.307,0,0,1,273.308,288h30.384A4.307,4.307,0,0,1,308,292.307v4.386A4.307,4.307,0,0,1,303.692,301ZM367.6,326.774c-4.946.856-12.193,1.8-21.169,2.542l-4.3-10.889a7,7,0,0,0-12.278-1.393l-8.69,12.935c-5.357-.07-16.156-.3-24.156-1.025V315.709c0-.273.555-.709,1.034-.709H303.4a18.879,18.879,0,0,0,17.6-13h10.327a28.763,28.763,0,0,0,24.09-13.48ZM348,230V192h13.828A11.1,11.1,0,0,1,373,202.827v15.837A11.545,11.545,0,0,1,361.828,230Z"/></svg>
