<?xml version="1.0"?>
<svg xmlns="http://www.w3.org/2000/svg" id="Layer_1" data-name="Layer 1" viewBox="0 0 512 512" width="512" height="512"><title>Customer service</title><path d="M105,431.007a7,7,0,0,0-7,7v6.472a7,7,0,1,0,14,0v-6.472A7,7,0,0,0,105,431.007Z"/><path d="M165.883,77H191.31a7,7,0,0,0,0-14H165.883a7,7,0,0,0,0,14Z"/><path d="M165.883,53H191.31a7,7,0,0,0,0-14H165.883a7,7,0,0,0,0,14Z"/><path d="M279,228.676V229h0Z"/><path d="M47.906,480H242.017c.016,0,.032-.055.048-.05l.092,13.723A12.439,12.439,0,0,0,254.609,506h.093l16.559-.122a12.466,12.466,0,0,0,12.36-12.54l-.086-12.884,127.85-.989.085,13.014A12.607,12.607,0,0,0,423.922,505h.093l16.559-.283a12.536,12.536,0,0,0,12.361-12.62l-.093-13.908A17.981,17.981,0,0,0,464.775,461.8l6.236-40.139a6.991,6.991,0,0,0,.083-1.129,29.632,29.632,0,0,0-7.328-19.467,25.367,25.367,0,0,0-14.835-8.365l-19.847-35.755C422.438,345.228,412.707,332,396.249,332h-.225l-98.561.607c-13.433.1-25.172,9.131-33.076,25.614l-3.682,6.6L227,350.384V318h5.584A18.717,18.717,0,0,0,250.3,305h10.774C277.228,305,290,291.391,290,275.24V269h2.61A25.113,25.113,0,0,0,318,243.892V238h5.621a7,7,0,0,0,0-14H318v-4.754a25.823,25.823,0,0,0-20-24.971V169.35a6.788,6.788,0,0,0,5-6.783V135.146A7.12,7.12,0,0,0,296.006,128h-7.444a123.435,123.435,0,0,0-23.653-66.946,111.828,111.828,0,0,0-54.46-39.836l.782-7.514A6.984,6.984,0,0,0,204.269,6H150.431a7,7,0,0,0-6.962,7.723l.781,7.533a111.69,111.69,0,0,0-54.464,39.9A123.659,123.659,0,0,0,66.148,128H58.693A6.871,6.871,0,0,0,52,135.146v27.421c0,3.867,2.827,7.433,6.693,7.433H71.27l.7,9.976a24.735,24.735,0,0,0-15.656,17.489,30.83,30.83,0,0,0-.892,7.366,31.155,31.155,0,0,0,20.216,29.076A101.471,101.471,0,0,0,128,317.6v32.781L73.063,373.769c-.129.055-.33.114-.456.176a57.863,57.863,0,0,0-31.593,46.681c-.016.193-.014.388-.014.582v51.657A7.037,7.037,0,0,0,47.906,480Zm208.24,11.989-.075-11.322,13.464-.1.076,11.327Zm169.314-1.322-.075-11.31,13.464-.1.075,11.315ZM276.733,364.729c.071-.127.137-.256.2-.387,3.17-6.662,10.066-17.657,20.638-17.735L396.133,346h.11c7.306,0,13.494,5.212,20.625,17.779l15.922,28.743-11.8.043a29.605,29.605,0,0,0-57.891.406l-102.464.79Zm129.614,27.9-28.609.222a15.625,15.625,0,0,1,14.235-9.488,15.327,15.327,0,0,1,11.071,4.49A15.6,15.6,0,0,1,406.347,392.63ZM246,373.648l8.039,3.431L246,391.573Zm-9.171,47.521c.373-6.234,4.435-12.779,11.256-13.283.2.017.4.114.609.114h.055l195.726-1.76c.03,0,.059-.24.089-.24h.142a11.389,11.389,0,0,1,8.578,4.171,16.045,16.045,0,0,1,3.8,9.857l-6.219,40.058a7.355,7.355,0,0,0-.083,1.148,3.947,3.947,0,0,1-3.88,3.95L247.508,466.73a3.537,3.537,0,0,1-1.5-.291,3.919,3.919,0,0,1-2.434-3.585,7.028,7.028,0,0,0-.1-1.1L236.8,421.816Q236.81,421.492,236.829,421.169ZM237,300.693A4.307,4.307,0,0,1,232.693,305H200.307A4.307,4.307,0,0,1,196,300.693v-5.386A4.307,4.307,0,0,1,200.307,291h32.386A4.307,4.307,0,0,1,237,295.307ZM213,323.9v26.82c-23,9.809-49,9.81-71,0V324.065a101.04,101.04,0,0,0,71-.164Zm63-48.661c0,8.431-6.492,15.76-14.923,15.76H257.9a116.178,116.178,0,0,0,12.518-21.608c.2.018.411-.392.621-.392H276Zm-12-85.007-1.009.165A71.405,71.405,0,0,1,248.346,170H264Zm40,29.013v24.646A11.1,11.1,0,0,1,292.61,255H278V241.544A54.12,54.12,0,0,0,279,229h-1V208h14.61A11.215,11.215,0,0,1,304,219.246ZM278,194V170h6v24ZM140,38.084a71.971,71.971,0,0,1,13.8-5.013,6.928,6.928,0,0,0,5.071-7.488L158.2,20H196.5l-.579,5.583a6.971,6.971,0,0,0,5.127,7.488A73.774,73.774,0,0,1,215,38.078v9.735a57.256,57.256,0,0,1-36.377,53.527A57.1,57.1,0,0,1,140,46.992ZM101.232,69.473C108.152,60.109,116,52.206,126,45.92v1.072a71.1,71.1,0,0,0,49.15,67.935l1.374.478a6.715,6.715,0,0,0,2.119.343,6.633,6.633,0,0,0,2.216-.381A71.4,71.4,0,0,0,229,47.813V45.9a106.252,106.252,0,0,1,24.622,23.492A109.4,109.4,0,0,1,274.54,128H80.17A109.8,109.8,0,0,1,101.232,69.473ZM66,156V142H289v14H241.656a5.768,5.768,0,0,0-4.652-.738c-.742.14-1.433-.262-2.062.738H66Zm26.662,14-1.35,16.675-4.6-2.472c-.258-.132-.43-.231-.45-.52L85.3,170ZM89,228.676v-.143a6.842,6.842,0,0,0-5.611-6.895,17,17,0,0,1-14.055-16.861,17.223,17.223,0,0,1,.537-4.09,10.794,10.794,0,0,1,6.143-7.464,14.8,14.8,0,0,0,4.287,3.325l11.356,5.828a8.932,8.932,0,0,0,8.443-.144,8.567,8.567,0,0,0,4.561-6.882L106.707,170H233.29a77.408,77.408,0,0,0,21.25,31.556l.987.789a6.883,6.883,0,0,0,4.367,1.76l4.106.135v36.235a86.555,86.555,0,0,1-17.872,42.457A18.085,18.085,0,0,0,232.584,277H200.509A18.288,18.288,0,0,0,182,295.055v4.951a18.383,18.383,0,0,0,8.5,15.369,89.778,89.778,0,0,1-13.618,1.05C128.5,316.425,89,277.061,89,228.676Zm34,139,11.422-4.9a104.051,104.051,0,0,0,86.023,0l11.555,4.9v32.889c-4,3.423-6.592,8.438-8.049,13.438H123Zm-22,9.208,8-3.233V414h-8ZM91,428H223.6l5.989,35.774c.033.773.122,1.226.251,2.226H91Zm-36-6.49a42.861,42.861,0,0,1,23.517-34.951l8.483-3.7V414H83.5a6.38,6.38,0,0,0-6.5,6.748V466H55Z"/><path d="M263.581,460h.138a18.292,18.292,0,0,0,18.169-18.428,18.651,18.651,0,0,0-5.456-13.1A18.382,18.382,0,0,0,263.589,423h-.139a18.5,18.5,0,0,0,.131,37Zm-3.061-21.516A4.455,4.455,0,0,1,263.553,437h.033a4.6,4.6,0,0,1,3.064,7.724A4.233,4.233,0,0,1,263.616,446h-.033a4.29,4.29,0,0,1-4.3-4.261A4.757,4.757,0,0,1,260.52,438.484Z"/><path d="M430.592,459h.14a18.177,18.177,0,0,0,12.9-5.6A18.48,18.48,0,0,0,430.6,422h-.137A18.321,18.321,0,0,0,412.3,440.489a18.581,18.581,0,0,0,5.456,13.074A18.346,18.346,0,0,0,430.592,459Zm-.027-23h.033a4.428,4.428,0,0,1,4.4,4.323v.052a4.7,4.7,0,0,1-1.287,3.2A4.506,4.506,0,0,1,430.628,445H430.6a4.42,4.42,0,0,1-3.018-1.383,4.564,4.564,0,0,1-1.283-3.159A4.4,4.4,0,0,1,430.565,436Z"/><path d="M313.922,449h.053a6.885,6.885,0,0,0,6.948-6.936l-.077-10.266a6.873,6.873,0,0,0-7-6.8h-.053a6.9,6.9,0,0,0-6.948,6.959l.077,10.255A6.863,6.863,0,0,0,313.922,449Z"/><path d="M380.385,449h.053c3.865-1,6.976-3.426,6.948-7.292l-.077-10.588a7.149,7.149,0,0,0-7-7.12h-.053a7.028,7.028,0,0,0-6.948,7.1l.077,10.682A7.232,7.232,0,0,0,380.385,449Z"/><path d="M336.076,449h.053a7,7,0,0,0,6.948-7.078l-.077-10.2A6.814,6.814,0,0,0,336,425h-.052A6.786,6.786,0,0,0,329,431.817l.077,10.325A6.923,6.923,0,0,0,336.076,449Z"/><path d="M358.23,449h.053a7.128,7.128,0,0,0,6.948-7.221l-.076-10.623a7.181,7.181,0,0,0-7-7.156H358.1a7.088,7.088,0,0,0-6.948,7.175l.076,10.646A7.2,7.2,0,0,0,358.23,449Z"/></svg>
