<?xml version="1.0"?>
<svg xmlns="http://www.w3.org/2000/svg" id="Layer_1" data-name="Layer 1" viewBox="0 0 512 512" width="512" height="512"><title>Disc Brake</title><path d="M39.614,278H67.96c1.758,113,93.914,203.822,206.959,203.822,114.14,0,206.9-92.811,206.9-206.952C481.822,161.825,391,69.718,278,67.961V39.614a6.915,6.915,0,0,0-5.8-6.912A209.039,209.039,0,0,0,32.7,272.2,6.921,6.921,0,0,0,39.614,278ZM275.332,130.246A6.9,6.9,0,0,0,278,124.678V81.961c105,1.756,189.822,87.632,189.822,192.958,0,106.42-86.531,192.9-192.951,192.9C169.545,467.822,83.717,383,81.96,278h42.718a6.863,6.863,0,0,0,6.744-8.73,111.933,111.933,0,0,1,137.9-137.86A6.8,6.8,0,0,0,275.332,130.246ZM53.074,180.434A194.836,194.836,0,0,1,264,45.679V115.81A125.683,125.683,0,0,0,115.809,264H45.679A196.406,196.406,0,0,1,53.074,180.434Z"/><path d="M167.919,274.919a107.121,107.121,0,0,0,107,107l.129,0,.033,0c.019,0,.036,0,.054,0a106.638,106.638,0,0,0,74.372-30.359,6.835,6.835,0,0,0,2.218-2.223,106.629,106.629,0,0,0,30.174-72.85,6.824,6.824,0,0,0,0-3.131A106.629,106.629,0,0,0,351.726,200.5a6.822,6.822,0,0,0-2.221-2.224,106.63,106.63,0,0,0-74.37-30.358c-.018,0-.035,0-.054,0l-.033,0-.129,0A107.121,107.121,0,0,0,167.919,274.919Zm73.221-43.838-26.767-26.728A93.622,93.622,0,0,1,268,182.171v37.748a7,7,0,0,0,14,0V182.192A93.74,93.74,0,0,1,335.559,204.5L309,231.078a7.006,7.006,0,0,0,9.917,9.9l26.566-26.524A93.691,93.691,0,0,1,367.656,268H330.081a7,7,0,0,0,0,14h37.575a93.445,93.445,0,0,1-22.17,53.465L318.922,308.88a6.995,6.995,0,1,0-9.9,9.884L335.56,345.34A93.75,93.75,0,0,1,282,367.646V329.919a7,7,0,0,0-14,0v37.748a93.618,93.618,0,0,1-53.627-22.181l26.747-26.727a6.995,6.995,0,1,0-9.885-9.9L204.5,335.64A93.677,93.677,0,0,1,182.181,282h37.9a7,7,0,1,0,0-14h-37.9a91.191,91.191,0,0,1,22.32-53.722L231.24,241a7.006,7.006,0,0,0,9.9-9.917Z"/><path d="M274.919,301.919a27,27,0,1,0-27-27A27.03,27.03,0,0,0,274.919,301.919Zm0-40a13,13,0,1,1-13,13A13.014,13.014,0,0,1,274.919,261.919Z"/><path d="M86.042,208.611a6.993,6.993,0,0,0,9.069-3.969c1.014-2.593,2.1-5.2,3.226-7.745a7,7,0,1,0-12.8-5.665c-1.209,2.732-2.374,5.528-3.462,8.31A7,7,0,0,0,86.042,208.611Z"/><path d="M130.452,143.608a6.981,6.981,0,0,0,5.057-2.159c1.926-2.011,3.92-4.006,5.929-5.93a7,7,0,1,0-9.683-10.111c-2.154,2.063-4.293,4.2-6.358,6.359a7,7,0,0,0,5.055,11.841Z"/><path d="M194.047,98.948a6.992,6.992,0,0,0,2.83-.6c2.541-1.125,5.142-2.21,7.73-3.222a7,7,0,1,0-5.1-13.038c-2.777,1.087-5.568,2.25-8.3,3.458a7,7,0,0,0,2.838,13.4Z"/></svg>
