<?xml version="1.0"?>
<svg xmlns="http://www.w3.org/2000/svg" id="Layer_1" data-name="Layer 1" viewBox="0 0 512 512" width="512" height="512"><title>Document </title><path d="M64.048,481.751a19.314,19.314,0,1,0-18.913-19.31A19.136,19.136,0,0,0,64.048,481.751Zm0-24.62a5.326,5.326,0,1,1-4.913,5.31A5.128,5.128,0,0,1,64.048,457.131Z"/><path d="M332.5,253h-109a7,7,0,0,0,0,14h109a7,7,0,0,0,0-14Z"/><path d="M285.5,288h-62a7,7,0,0,0,0,14h62a7,7,0,0,0,0-14Z"/><path d="M412.992,233.424a68.051,68.051,0,0,0-10.992.822v-132a7.2,7.2,0,0,0-2.239-4.95L314.817,12.247A7.422,7.422,0,0,0,309.772,10H183.712C168.156,10,155,23.05,155,38.606V172.117L60.2,247.945c-.22.177-.159.366-.356.567A38.29,38.29,0,0,0,49,275.679V422H39.5c-9.374,0-17.5,7.314-17.5,16.688v45.918A17.794,17.794,0,0,0,39.5,502H190.252c9.374,0,16.748-8.02,16.748-17.394V438.688A16.541,16.541,0,0,0,190.252,422H187v-9.992c18-3.3,31-19.147,31-38.134V341H342.785a76.66,76.66,0,1,0,70.207-107.576ZM317,34.293,377.722,95H330.984A13.829,13.829,0,0,1,317,81.03ZM190,436a3,3,0,0,1,3,3v46a3,3,0,0,1-3,3H39a3,3,0,0,1-3-3V439a3,3,0,0,1,3-3Zm14-62.126a24.471,24.471,0,0,1-24.384,24.767,6.682,6.682,0,0,0-6.616,7V422H63V275.679a24.255,24.255,0,0,1,6.426-17.07L155,190.026V245.5L95.448,292.851a6.984,6.984,0,0,0-1.017,9.833,7.075,7.075,0,0,0,9.9,1.142l71.439-56.541,1.223,1.208a16.819,16.819,0,0,1,.012,23.8l-33.692,33.694a6.992,6.992,0,0,0-2.038,4.547l-.425,7.346c-.008.135-.011.27-.011.4a38.577,38.577,0,0,0,3.809,16.491,36.134,36.134,0,0,1-2.551,35.22A6.92,6.92,0,0,0,141,373.874v15.883a7,7,0,1,0,14,0V375.9c8-14.186,9.473-32.025,2.4-47.086a24.849,24.849,0,0,1-2.519-10.35l.237-4.47.407-.6A28.077,28.077,0,0,0,183.712,341H204ZM338.085,327H183.712C175.875,327,169,320.988,169,313.151V299.592l17.655-17.4a30.861,30.861,0,0,0,.124-43.595l-5.553-5.616a7.29,7.29,0,0,0-9.514-.538L169,234.414V38.606A15,15,0,0,1,183.712,24H303V81.03A27.845,27.845,0,0,0,330.984,109H388V237.67a76.208,76.208,0,0,0-51.7,72.269A71.824,71.824,0,0,0,338.085,327ZM412.8,372.818a62.7,62.7,0,1,1,62.7-62.7A62.768,62.768,0,0,1,412.8,372.818Z"/><path d="M442.8,275a7,7,0,0,0-7-7h-46a7,7,0,0,0,0,14h13.163a11.783,11.783,0,0,1,10.629,6H389.8a7,7,0,0,0,0,14H413.6a13.323,13.323,0,0,1-10.629,5H389.8A7.171,7.171,0,0,0,385,319.323l32.9,31.128a6.988,6.988,0,1,0,9.615-10.142l-20.441-19.1A26.684,26.684,0,0,0,428.769,302H435.8a7,7,0,0,0,0-14h-7.036a34.332,34.332,0,0,0-2.3-6H435.8A7,7,0,0,0,442.8,275Z"/><path d="M339.745,153.222l-13.016-23.81C321.907,120.765,314.753,111,302.206,111h-66.66c-10.1,0-18.906,6.471-24.81,18.519L197.32,153.212c-9.118,2.115-15.759,10.647-15.759,21.214a6.688,6.688,0,0,0,.055.86l4.126,34.4c.2,5.634,4.258,10.438,8.258,12.66v7.98c0,5.927,5.283,10.671,11.211,10.671H216.6A10.4,10.4,0,0,0,227,230.329V224h83v6.329A10.5,10.5,0,0,0,320.523,241H331.91c5.928,0,11.09-4.744,11.09-10.671v-8.072c4-2.257,7.922-7.007,8.123-12.556l4.462-34.4a7.024,7.024,0,0,0,.019-.918C355.6,164.065,348.8,155.41,339.745,153.222Zm-116.713-17c.072-.126.139-.175.2-.306,1.991-4.1,6.237-10.911,12.312-10.911h66.66c4.159,0,7.833,3.407,12.246,11.319L323.5,153h-2.754c-2.793-10-11.414-16.062-21.593-16.062S280.355,143,277.562,153H213.651ZM304.708,153H293.6c1.5-2,3.433-2.062,5.552-2.062S303.212,151,304.708,153ZM213,227h-5v-3h5Zm116,0h-5v-3h5Zm8.023-18.71a9.447,9.447,0,0,0-.06,1.064c0,.257-.243.646-.5.646h-136c-.261,0-.5-.405-.5-.666a8.378,8.378,0,0,0-.056-.963l-4.34-34.322c.146-3.456,2.269-6.893,5.655-7.218.147.01.292.169.44.169h133.5c.026,0,.051-.156.077-.156,3.767,0,6.15,3.641,6.313,7.23Z"/><path d="M291.081,188h-45.04a7,7,0,0,0,0,14h45.04a7,7,0,0,0,0-14Z"/><path d="M214.9,174.243a16.834,16.834,0,1,0,16.834,16.834A16.853,16.853,0,0,0,214.9,174.243Zm0,19.668a2.834,2.834,0,1,1,2.834-2.834A2.838,2.838,0,0,1,214.9,193.911Z"/><path d="M322.224,174.243a16.834,16.834,0,1,0,16.834,16.834A16.852,16.852,0,0,0,322.224,174.243Zm0,19.668a2.834,2.834,0,1,1,2.834-2.834A2.837,2.837,0,0,1,322.224,193.911Z"/></svg>
