<?xml version="1.0"?>
<svg xmlns="http://www.w3.org/2000/svg" id="Layer_1" data-name="Layer 1" viewBox="0 0 512 512" width="512" height="512"><title>Documents dollar</title><path d="M61.081,485.132a19.5,19.5,0,1,0-19.1-19.5A19.325,19.325,0,0,0,61.081,485.132Zm0-25a5.516,5.516,0,1,1-5.1,5.5A5.316,5.316,0,0,1,61.081,460.131Z"/><path d="M333.682,253H223a7,7,0,0,0,0,14H333.682a7,7,0,0,0,0-14Z"/><path d="M285.956,288H223a7,7,0,0,0,0,14h62.958a7,7,0,0,0,0-14Z"/><path d="M415.344,233.184a79.086,79.086,0,0,0-11.344.851V99.866a7.119,7.119,0,0,0-2.168-4.95L315.613,8.9A7.011,7.011,0,0,0,310.6,7H182.6A28.37,28.37,0,0,0,154,35.247V170.873L57.467,247.906c-.221.176-.224.365-.421.567A38.833,38.833,0,0,0,46,275.983V424H36c-9.374,0-17,7.982-17,17.356v46.937A16.771,16.771,0,0,0,36,505H189.391A16.44,16.44,0,0,0,206,488.293V441.356c0-9.374-7.235-17.356-16.609-17.356H185v-9.672c19-3.31,33-19.375,33-38.633V343H344.2a77.862,77.862,0,1,0,71.149-109.816ZM318,30.606,379.864,93h-47.72C324.126,93,318,86.344,318,78.326ZM189,438a3,3,0,0,1,3,3v47a3,3,0,0,1-3,3H36a3,3,0,0,1-3-3V441a3,3,0,0,1,3-3ZM204,375.7c0,13.927-11.7,25.258-25.629,25.258a7.326,7.326,0,0,0-7.371,7V424H60V275.983a24.9,24.9,0,0,1,6.742-17.413L154,188.782v56.606L93.26,293.5a7.007,7.007,0,0,0,8.713,10.976l72.589-57.474,1.3,1.295a17.212,17.212,0,0,1,0,24.315l-34.213,34.215a7.008,7.008,0,0,0-2.039,4.545l-.432,7.461q-.012.2-.012.405a39.079,39.079,0,0,0,3.858,16.7,36.825,36.825,0,0,1-2.763,35.87A7.074,7.074,0,0,0,139,375.7v16.129a7,7,0,1,0,14,0v-14.1a50.08,50.08,0,0,0,2.611-47.739,25.2,25.2,0,0,1-2.488-10.557l.286-4.585.642-.418A28.759,28.759,0,0,0,182.6,343H204ZM339.489,329H182.6C174.578,329,168,322.052,168,314.034V300.221l17.732-17.7a31.23,31.23,0,0,0,.015-44.115l-5.7-5.7a7.032,7.032,0,0,0-9.321-.539L168,234.3V35.247A14.356,14.356,0,0,1,182.6,21H304V78.326C304,94.063,316.406,107,332.144,107H390V237.464a78.353,78.353,0,0,0-52.43,73.707A81.7,81.7,0,0,0,339.489,329Zm75.737,45.731A63.774,63.774,0,1,1,479,310.958,63.846,63.846,0,0,1,415.226,374.731Z"/><path d="M362.05,173.03c0-10.967-7.249-20.152-16.9-22.356l-14.138-26C325.886,115.48,318.3,105,305.056,105H233.135c-10.681,0-20.007,6.976-26.28,19.784l-14.593,25.822c-9.718,2.127-16.821,11.212-16.821,22.443a6.833,6.833,0,0,0,.056.87l4.524,37.15A15.341,15.341,0,0,0,189,224.429v8.959c0,6.091,5.314,10.612,11.405,10.612h12.286c6.091,0,11.309-4.521,11.309-10.612V226h90v7.388A10.5,10.5,0,0,0,324.818,244H337.1A10.568,10.568,0,0,0,348,233.388v-9.059a15.384,15.384,0,0,0,9.023-13.242l4.948-37.14A7.211,7.211,0,0,0,362.05,173.03Zm-142.9-41.707c.072-.127.139-.139.2-.27,2.2-4.545,6.925-12.053,13.781-12.053h71.921c4.714,0,8.822,3.6,13.7,12.344L328.96,150h-4.316a23.769,23.769,0,0,0-45.761,0H208.566ZM309.094,150H294.433a9.734,9.734,0,0,1,14.661,0ZM210,230h-7v-4h7Zm124,0h-6v-4h6Zm9.168-20.381a10.164,10.164,0,0,0-.061,1.1A1.3,1.3,0,0,1,342.016,212H195.283a1.29,1.29,0,0,1-1.092-1.268,8.416,8.416,0,0,0-.055-.966l-4.688-37.116c.152-4,2.653-8.248,6.648-8.6.161.011.319-.05.482-.05h144.04c.026,0,.051.085.077.085,4.412,0,7.2,4.36,7.366,8.506Z"/><path d="M293.053,188H244.458a7,7,0,1,0,0,14h48.6a7,7,0,0,0,0-14Z"/><path d="M210.857,173.428a17.61,17.61,0,1,0,17.61,17.61A17.63,17.63,0,0,0,210.857,173.428Zm0,21.22a3.61,3.61,0,1,1,3.61-3.61A3.614,3.614,0,0,1,210.857,194.648Z"/><path d="M326.653,173.428a17.61,17.61,0,1,0,17.611,17.61A17.63,17.63,0,0,0,326.653,173.428Zm0,21.22a3.61,3.61,0,1,1,3.611-3.61A3.614,3.614,0,0,1,326.653,194.648Z"/><path d="M415.226,283.039A10.274,10.274,0,0,1,425.488,293.3a7,7,0,0,0,7,7,6.9,6.9,0,0,0,6.887-7A24.373,24.373,0,0,0,422,270.073v-3.518a7,7,0,0,0-14,0v3.518a24.281,24.281,0,0,0,7.169,47.491,10.26,10.26,0,0,1,.159,20.52c-.039,0-.07-.006-.109-.006s-.074.005-.114.006a10.269,10.269,0,0,1-10.144-10.257,7,7,0,0,0-7-7,7.1,7.1,0,0,0-7.112,7A24.173,24.173,0,0,0,408,351.056v4.3a7,7,0,0,0,14,0v-4.3a24.243,24.243,0,0,0-6.831-47.492,10.263,10.263,0,0,1,.057-20.525Z"/></svg>
