<?xml version="1.0"?>
<svg xmlns="http://www.w3.org/2000/svg" id="Layer_1" data-name="Layer 1" viewBox="0 0 512 512" width="512" height="512"><title>Artboard 77</title><path d="M393.9,175.646,185.811,146.474a114.258,114.258,0,1,0,0,219.052L393.9,336.354a80.364,80.364,0,0,0,0-160.708ZM182.824,351.807l-31.569,4.425a100.252,100.252,0,0,1,0-200.464l31.569,4.425a100.268,100.268,0,0,1,0,191.614Zm40.6-5.691a114.13,114.13,0,0,0,0-180.232L356,184.471a80.326,80.326,0,0,0,0,143.058Zm169.193-23.729A66.387,66.387,0,1,1,459,256,66.463,66.463,0,0,1,392.613,322.387Z"/><path d="M153.258,181.258A74.742,74.742,0,1,0,228,256,74.826,74.826,0,0,0,153.258,181.258Zm0,135.484A60.742,60.742,0,1,1,214,256,60.811,60.811,0,0,1,153.258,316.742Z"/><path d="M392.613,226.419A29.581,29.581,0,1,0,422.194,256,29.614,29.614,0,0,0,392.613,226.419Zm0,45.162A15.581,15.581,0,1,1,408.194,256,15.6,15.6,0,0,1,392.613,271.581Z"/></svg>
