<?xml version="1.0"?>
<svg xmlns="http://www.w3.org/2000/svg" id="Layer_1" data-name="Layer 1" viewBox="0 0 512 512" width="512" height="512"><title>Engine oil 2</title><path d="M192.521,354.922a50.408,50.408,0,0,0,35.878-14.86l40.5-40.5,162.484,23.308a7,7,0,0,0,7.913-7.99l-2.63-17.134a7,7,0,0,0-4.858-5.628L311.945,255.186a50.824,50.824,0,0,0-6.227-64.2L212.936,98.2A50.8,50.8,0,0,0,144.6,95.1a57.282,57.282,0,0,0-80.89,80.586,50.8,50.8,0,0,0,.154,71.6l92.783,92.783A50.408,50.408,0,0,0,192.521,354.922ZM151.08,108.1a36.738,36.738,0,0,1,51.955,0l92.782,92.784a36.776,36.776,0,0,1,0,51.955l-.973.973a7,7,0,0,0,2.889,11.64L423.5,304.2l.531,3.466L267.425,285.2a7,7,0,0,0-5.945,1.979l-7.5,7.5L79.818,179.367Zm-74.227,0a43.356,43.356,0,0,1,57.637-3.21L73.644,165.741A43.359,43.359,0,0,1,76.853,108.1Zm-6.77,81.608,173.79,115.075L218.5,330.161a36.736,36.736,0,0,1-51.955,0L73.761,237.379A36.793,36.793,0,0,1,70.083,189.712Z"/><path d="M440.288,352.417a7,7,0,0,0-12.314,0l-19.235,35.556a29.049,29.049,0,0,0,4.978,34.15h0a28.868,28.868,0,0,0,45.8-34.15Zm4.358,59.806a14.889,14.889,0,0,1-21.03,0h0a14.957,14.957,0,0,1-2.563-17.588l13.077-24.175,13.077,24.175A14.96,14.96,0,0,1,444.646,412.223Z"/></svg>
