<?xml version="1.0"?>
<svg xmlns="http://www.w3.org/2000/svg" id="Layer_1" data-name="Layer 1" viewBox="0 0 512 512" width="512" height="512"><title>Female mechanic</title><path d="M195,437.334a7,7,0,0,0,7-7v-5.466a7,7,0,1,0-14,0v5.466A7,7,0,0,0,195,437.334Z"/><path d="M73,437.334a7,7,0,0,0,7-7v-5.466a7,7,0,0,0-14,0v5.466A7,7,0,0,0,73,437.334Z"/><path d="M124.135,121h21.473a7,7,0,0,0,0-14H124.135a7,7,0,1,0,0,14Z"/><path d="M124.135,101h21.473a7,7,0,0,0,0-14H124.135a7,7,0,1,0,0,14Z"/><path d="M250,477.592V410.68c0-.194.062-.388.045-.581a49.933,49.933,0,0,0-27.254-40.306c-.125-.063-.151-.122-.28-.177L177,350.149v-2.63c10,.773,22.4.789,22.959.788a6.927,6.927,0,0,0,5.726-3.034l1.968-2.894.473,1.222a7.015,7.015,0,0,0,6.952,4.413c18.768-1.2,30.6-4.077,31.1-4.2a7,7,0,0,0,5-8.914l-26.594-83.807a27.406,27.406,0,0,0,12.054-29.722,22.323,22.323,0,0,0-13.082-15.444l.47-6.928h10.007A6.766,6.766,0,0,0,241,192.251V169.093A7.056,7.056,0,0,0,234.028,162h-5.262a105.731,105.731,0,0,0-20.126-56.113A95.639,95.639,0,0,0,162.945,72.13l.571-5.482A6.938,6.938,0,0,0,156.553,59H111.086a6.95,6.95,0,0,0-6.963,7.675l.57,5.487a95.548,95.548,0,0,0-45.7,33.813A105.9,105.9,0,0,0,38.881,162H33.61c-3.866,0-6.61,3.227-6.61,7.093v23.158A6.466,6.466,0,0,0,33.61,199h9.606l.468,6.9a22.21,22.21,0,0,0-13.138,15.409,27.731,27.731,0,0,0-.784,6.555,27.335,27.335,0,0,0,14.693,24.274L18.2,334.893a7,7,0,0,0,5,8.92c1.011.249,19.73,4.73,47.321,4.729,6.352,0,13.479-.238,20.479-.82v2.427L45.291,369.616c-.129.055-.3.114-.431.177A50.266,50.266,0,0,0,17.3,410.1c-.017.193-.3.387-.3.581v66.912A7.8,7.8,0,0,0,24.5,485H243.139C247.005,485,250,481.458,250,477.592ZM193,372.163l4,1.8V403h-4Zm42.493-40.517c-4.014.667-9.571,1.439-16.253,2.016l-3.42-8.653a7,7,0,0,0-12.278-1.393L196.3,334.273c-4.508-.065-12.3-.253-19.3-.794v-9.9a87.526,87.526,0,0,0,40-50.359ZM103,87.83a97.986,97.986,0,0,1,11.025-3.891,6.974,6.974,0,0,0,5.178-7.456L118.85,73h29.939l-.365,3.483a7.144,7.144,0,0,0,5.37,7.472A100.68,100.68,0,0,1,165,87.825v7.512a47.644,47.644,0,0,1-30.076,44.045A47.511,47.511,0,0,1,103,94.644ZM70.253,114.291A84.148,84.148,0,0,1,89.071,95.779a61.276,61.276,0,0,0,42.4,57.262l1.24.409a6.989,6.989,0,0,0,4.442-.033,61.432,61.432,0,0,0,41.432-57.63A83.891,83.891,0,0,1,197.39,114.22,91.665,91.665,0,0,1,214.744,162H52.9A91.868,91.868,0,0,1,70.253,114.291ZM41,185v-9H227v9H165.506a7.834,7.834,0,0,1-.849-.159,20.075,20.075,0,0,0-2.472.159Zm168.986,14-.439,6.377C198.773,207.862,189.1,204,181.938,199Zm-71.156,0C119.51,209,89,218.393,57.768,206.517L57.249,199ZM43.861,227.9a13.4,13.4,0,0,1,.284-3.195,8.139,8.139,0,0,1,5.728-6.012A98.925,98.925,0,0,0,88.2,226.275a121.239,121.239,0,0,0,43.52-8.506,153.7,153.7,0,0,0,31.159-16.354,75.7,75.7,0,0,0,12.386,10.12c13.387,8.673,27.4,11.017,40.7,6.855a8.29,8.29,0,0,1,7.065,6.31,13.481,13.481,0,0,1,.383,3.2,13.174,13.174,0,0,1-10.825,13.163A6.838,6.838,0,0,0,207,247.954v.128a73,73,0,1,1-146,0v-.122a7.181,7.181,0,0,0-5.993-6.9A13.425,13.425,0,0,1,43.861,227.9ZM163,330.046v20.388c-19,7.793-40,7.792-58,0V330.2a86.949,86.949,0,0,0,58-.15Zm-81.119,4.22,2.178-9.353A7.018,7.018,0,0,0,70.4,321.671L67.344,334.5a227.833,227.833,0,0,1-33.418-2.858L51.5,276.547A88.761,88.761,0,0,0,91,323.8v9.869C88,333.933,84.814,334.13,81.881,334.266ZM89,366.188l8.554-3.673a89.088,89.088,0,0,0,72.726,0l8.72,3.673V403H89Zm-18,7.776,4-1.8V403H71ZM57,403H54.562C50.7,403,48,406.426,48,410.292V471H31V410.984c2-12.146,8.928-23.06,19.807-28.579L57,379.939Zm149,68H62V417H206Zm30,0H220V410.292A7.192,7.192,0,0,0,213.075,403H211V379.939l5.693,2.466A35.562,35.562,0,0,1,236,410.984Z"/><path d="M420.215,243h9.342a7,7,0,0,0,0-14h-9.342a7,7,0,1,0,0,14Z"/><path d="M431.576,255H420.215a7,7,0,1,0,0,14h11.361a7,7,0,0,0,0-14Z"/><path d="M431.576,282H420.215a7,7,0,1,0,0,14h11.361a7,7,0,0,0,0-14Z"/><path d="M326,253.628a7,7,0,0,0-7,7v52.339a7,7,0,0,0,14,0V260.628A7,7,0,0,0,326,253.628Z"/><path d="M307,253.628a7,7,0,0,0-7,7v52.339a7,7,0,0,0,14,0V260.628A7,7,0,0,0,307,253.628Z"/><path d="M302.68,33.058l-8.87,33.765a6.936,6.936,0,0,0,.612,4.742L301,85v99h-6.629a16,16,0,0,0-6.831,30.408l-8.278,28.873a7.222,7.222,0,0,0-.262,1.973v75.6c0,15.9,12.913,29.151,28.813,29.151h17.47c15.9,0,28.717-13.251,28.717-29.151V245.254a6.943,6.943,0,0,0-.213-1.934l-8.26-28.834a16.045,16.045,0,0,0-6.8-30.486H332V85l6.627-13.476a7.027,7.027,0,0,0,.557-4.784l-8.82-33.681A6.79,6.79,0,0,0,323.646,28H309.451A6.852,6.852,0,0,0,302.68,33.058ZM340,320.849c0,8.18-6.536,15.151-14.717,15.151h-17.47A15.107,15.107,0,0,1,293,320.849V246.24L301.656,216H331.44L340,246.24ZM338.726,198a2,2,0,0,1,0,4H294.371a2,2,0,0,1,0-4ZM318.243,42,325.1,67.981l-6.208,12.51A6.887,6.887,0,0,0,318,83.417V184h-3V83.417a7.2,7.2,0,0,0-.841-3.009l-6.077-12.427L314.854,42Z"/><path d="M456.5,28.075a7.361,7.361,0,0,0-6.994.309,7.18,7.18,0,0,0-3.5,5.953V65.919L425.975,79.378,405.315,64.86l.152-30.535a6.975,6.975,0,0,0-10.089-6.3A68.625,68.625,0,0,0,397,151.882V321.124a28.5,28.5,0,1,0,57,0V151.882a67.739,67.739,0,0,0,40.271-62.39A68.072,68.072,0,0,0,456.5,28.075ZM444.779,140.657A7.215,7.215,0,0,0,440,147.215V321.124a14.5,14.5,0,1,1-29,0V147.215a6.851,6.851,0,0,0-4.384-6.558A54.648,54.648,0,0,1,391.427,47.07l-.052,21.4a7.009,7.009,0,0,0,3,5.76l27.673,19.356a7,7,0,0,0,7.894.09l27.125-18.185A6.832,6.832,0,0,0,460,69.667V47.112a53.255,53.255,0,0,1,20.2,42.38A54.784,54.784,0,0,1,444.779,140.657Z"/></svg>
