<?xml version="1.0"?>
<svg xmlns="http://www.w3.org/2000/svg" id="Layer_1" data-name="Layer 1" viewBox="0 0 512 512" width="512" height="512"><title>flat tire</title><path d="M121.769,355.428A34.2,34.2,0,1,0,89.03,331.115,34.034,34.034,0,0,0,121.769,355.428ZM103.963,311.7a20.191,20.191,0,1,1-1.53,15.373A20.028,20.028,0,0,1,103.963,311.7Z"/><path d="M361.044,283.189a34.176,34.176,0,0,0,32.681-44.064h0a34.168,34.168,0,1,0-32.681,44.064Zm-5.862-53.513a20.176,20.176,0,0,1,25.14,13.5h0a20.168,20.168,0,1,1-25.14-13.5Z"/><path d="M16.824,273.231A17.126,17.126,0,0,0,33.17,285.4a17.175,17.175,0,0,0,4.965-.738l10.074-3.042a32.447,32.447,0,0,0-9.221,33.337l17.3,57.317a32.363,32.363,0,0,0,40.351,21.635l15.821-4.777,10.447,34.6A17.9,17.9,0,0,0,140,436.449a17.944,17.944,0,0,0,5.186-.771l31.112-9.393a17.869,17.869,0,0,0,11.937-22.275l-10.446-34.6L341.435,320l10.446,34.6a17.861,17.861,0,0,0,22.27,11.947l31.113-9.393A17.892,17.892,0,0,0,417.2,334.882l-10.446-34.6,15.821-4.777a32.372,32.372,0,0,0,21.636-40.349l-17.3-57.317a32.418,32.418,0,0,0-26.175-22.65l9.676-2.921a17.1,17.1,0,0,0,11.426-21.31l-3.592-11.9a17.1,17.1,0,0,0-21.31-11.428l-6.065,1.831a37.056,37.056,0,0,0-22.089,18.08,37.629,37.629,0,0,0-2.5,5.807L325.49,96.474c-.051-.071-.1-.141-.156-.21a28.9,28.9,0,0,0-31.014-9.907L252.173,99.082l-.929-3.077a28.772,28.772,0,0,0-35.817-19.216l-62.42,18.844a28.74,28.74,0,0,0-19.2,35.827l.928,3.076-47,14.191a28.9,28.9,0,0,0-20.349,25.415c-.006.087-.011.173-.014.26l-2.516,70.413a37.722,37.722,0,0,0-5.728-3.787,37.054,37.054,0,0,0-28.4-2.835l-6.064,1.831a17.1,17.1,0,0,0-11.428,21.311ZM174.536,411.008a3.844,3.844,0,0,1-2.289,1.875l-31.112,9.392a3.871,3.871,0,0,1-4.822-2.591l-10.447-34.6,38.517-11.629,10.446,34.6A3.85,3.85,0,0,1,174.536,411.008Zm226.681-67.253L370.1,353.147a3.873,3.873,0,0,1-4.821-2.591l-10.446-34.6,38.517-11.629,10.446,34.6A3.876,3.876,0,0,1,401.217,343.755Zm-6.3-200.89,6.063-1.831a3.064,3.064,0,0,1,2.361.236,3.079,3.079,0,0,1,1.5,1.835l3.592,11.9a3.1,3.1,0,0,1-2.071,3.861l-27.915,8.428A23.334,23.334,0,0,1,394.916,142.865ZM148.329,116.18a14.626,14.626,0,0,1,8.725-7.144l62.42-18.845a14.759,14.759,0,0,1,18.368,9.861l.929,3.076L148.14,130.49l-.929-3.076A14.661,14.661,0,0,1,148.329,116.18ZM78,268.909a6.939,6.939,0,0,0,.092-2.566l3.262-91.3a14.826,14.826,0,0,1,10.425-12.916l206.586-62.37a14.823,14.823,0,0,1,15.83,4.991l52.251,72.861.17.563a7,7,0,0,0,2.24,3.371l-33.22,10.03-1.179-3.9a34.168,34.168,0,1,0-65.419,19.751l1.179,3.9L77.986,269.362Zm244.233-73.288-38.614,11.658-1.179-3.9a20.168,20.168,0,1,1,38.615-11.657ZM72.636,285.6l.071-.021,317.9-95.976a18.364,18.364,0,0,1,22.9,12.279l17.3,57.316a18.374,18.374,0,0,1-12.281,22.9l-20.795,6.278a6.831,6.831,0,0,0-3.455,1.043l-48.466,14.633a6.8,6.8,0,0,0-3.454,1.042l-173.6,52.411a6.779,6.779,0,0,0-3.454,1.043l-48.463,14.631a7.039,7.039,0,0,0-1.8.288,6.968,6.968,0,0,0-1.659.756L92.6,380.5a18.4,18.4,0,0,1-22.9-12.279l-17.3-57.316a18.372,18.372,0,0,1,12.28-22.9ZM26.87,254.929a3.085,3.085,0,0,1,1.836-1.5l6.065-1.831a23.315,23.315,0,0,1,27.237,11.23l-27.92,8.429a3.1,3.1,0,0,1-3.861-2.07l-3.592-11.9A3.085,3.085,0,0,1,26.87,254.929Z"/><path d="M444.5,323.284a7,7,0,0,0,7,6.829l.174,0,41-1a7,7,0,0,0-.342-14l-41,1A7,7,0,0,0,444.5,323.284Z"/><path d="M398.283,374.219a7,7,0,0,0-5.677,8.11l7.5,42.5a7,7,0,0,0,13.788-2.433l-7.5-42.5A7,7,0,0,0,398.283,374.219Z"/><path d="M441.55,365.163a7,7,0,0,0,0,9.9l30,30a7,7,0,0,0,9.9-9.9l-30-30A7,7,0,0,0,441.55,365.163Z"/></svg>
