<?xml version="1.0"?>
<svg xmlns="http://www.w3.org/2000/svg" id="Layer_1" data-name="Layer 1" viewBox="0 0 512 512" width="512" height="512"><title>Gear Stick</title><path d="M163,369c-25.916,0-47,21.449-47,47.365v26.5A7.116,7.116,0,0,0,123,450H389a7.116,7.116,0,0,0,7-7.135v-26.5C396,390.449,374.916,369,349,369H290V200.972c23-12.222,39.7-36.912,39.7-65.337a73.668,73.668,0,0,0-73.6-73.5c-40.528,0-73.75,32.971-73.75,73.5,0,28.425,16.65,53.115,39.65,65.337V369Zm33.5-233.365a59.5,59.5,0,1,1,59.5,59.5A59.567,59.567,0,0,1,196.5,135.635ZM236,304V265h40v39Zm40,14v51H236V318Zm-40-67V206.46a76.1,76.1,0,0,0,40,0V251ZM349,383c18.2,0,33,15.169,33,33.365V436H130V416.365c0-18.2,14.8-33.365,33-33.365Z"/></svg>
