<?xml version="1.0"?>
<svg xmlns="http://www.w3.org/2000/svg" id="Layer_1" data-name="Layer 1" viewBox="0 0 512 512" width="512" height="512"><title>Hand Gear</title><path d="M208.727,320A24.787,24.787,0,0,0,184,345.137V375H146.909A24.556,24.556,0,0,0,122,399.682V402H106a6.809,6.809,0,0,0-7,6.772v27.274A6.961,6.961,0,0,0,106,443H406a6.961,6.961,0,0,0,7-6.954V408.772A6.809,6.809,0,0,0,406,402H390v-2.318A24.556,24.556,0,0,0,365.091,375H328V345.137A24.787,24.787,0,0,0,303.273,320H278V229.948a82,82,0,1,0-44,0V320ZM231,429H113V416H231Zm36,0H245V416h22Zm132-13v13H281V416Zm-33.909-27A10.546,10.546,0,0,1,376,399.682V402H136v-2.318A10.546,10.546,0,0,1,146.909,389ZM188,150.954a68,68,0,1,1,81.61,66.64,69.119,69.119,0,0,1-27.218,0A68.176,68.176,0,0,1,188,150.954Zm76,81.607V320H248V232.561c2.657.258,5.329.393,8,.393S261.343,232.819,264,232.561ZM303.273,334c6.165,0,10.727,4.971,10.727,11.137V375H198V345.137c0-6.166,4.562-11.137,10.727-11.137Z"/><path d="M239,158h34a7,7,0,0,0,0-14H239a7,7,0,0,0,0,14Z"/><path d="M239,128h34a7,7,0,0,0,0-14H239a7,7,0,0,0,0,14Z"/><path d="M280,181a7,7,0,0,0-7-7H239a7,7,0,0,0,0,14h34A7,7,0,0,0,280,181Z"/></svg>
