<?xml version="1.0"?>
<svg xmlns="http://www.w3.org/2000/svg" id="Layer_1" data-name="Layer 1" viewBox="0 0 512 512" width="512" height="512"><title>Artboard 8</title><path d="M59.685,463.863A6.986,6.986,0,0,0,66.633,470h90a6.977,6.977,0,0,0,6.7-9.018l-11.514-37.761,35.876-22.679a20.764,20.764,0,0,1,15.1-1.938q.217.056.438.1l74.909,13.794a98.35,98.35,0,0,0,60.776-8.581,7.123,7.123,0,0,0,.856-.5l129.557-88.955a7,7,0,0,0,2.035-9.382,36.971,36.971,0,0,0-49.3-13.482l-1.206.65c-9.432-10.646-25.1-14.622-37.122-8.528-.052.026-.1.053-.155.081l-4.376,2.358a40.986,40.986,0,0,0-46.19-3.439L305.271,298h-37a52.734,52.734,0,0,1-22.743-5.412L240.391,290a89.557,89.557,0,0,0-93.215,9.053c-.153.116-.3.212-.445.34l-12.407,11.033a41.618,41.618,0,0,1-14.359,8.333l-6.636-21.785a7.016,7.016,0,0,0-6.7-4.977h-60a7.023,7.023,0,0,0-6.948,7.863Zm330.45-167.7c5.679-2.833,12.7-.927,17.742,3.079l-47.323,25.53-1.465.773a43.993,43.993,0,0,0-5.364-9.764Zm-50.354-1.4.166-.094a27,27,0,0,1,25.212-.956l-21.9,11.8a43.891,43.891,0,0,0-12.241-5.986Zm-196.148,26.1,12.187-10.85a75.621,75.621,0,0,1,78.476-7.517l5.138,2.685A66.817,66.817,0,0,0,268.272,312H318.1a29.925,29.925,0,0,1,29.134,22.483l-34.274-1.651a217.412,217.412,0,0,0-39.563,1.777,6.981,6.981,0,1,0,1.92,13.83,203.565,203.565,0,0,1,37.011-1.716l42.5,1.92c.106.005.211.006.317.006a7,7,0,0,0,7-7c0-.625-.021-1.244-.047-1.862l5.04-2.658,61.57-33.216a22.993,22.993,0,0,1,26.482,3.267l-122.928,84.4a84.25,84.25,0,0,1-51.611,7.14l-74.68-13.751a34.711,34.711,0,0,0-25.27,3.439c-.11.061-.218.126-.324.193l-32.8,20.735-23.53-77.179A55.643,55.643,0,0,0,143.633,320.873ZM101.449,306l45.732,150H72.832L54.539,306Z"/><path d="M106.918,453.336a19,19,0,1,0-19-19A19.021,19.021,0,0,0,106.918,453.336Zm0-24a5,5,0,1,1-5,5A5.006,5.006,0,0,1,106.918,429.336Z"/><path d="M211,159h.361l-5.316,19.041a6.64,6.64,0,0,0-.045,1.912V236.4c0,12.851,9.988,23.6,22.838,23.6h13.044C254.732,260,265,249.248,265,236.4V179.953a6.625,6.625,0,0,0-.185-1.912L259.36,159h.361a7,7,0,0,0,0-14H242V49.957a7,7,0,1,0-14,0V145H211a7,7,0,0,0,0,14Zm9,21.95L225.94,159h18.84L251,180.95V236.4c0,5.131-3.987,9.6-9.118,9.6H228.838c-5.13,0-8.838-4.472-8.838-9.6Z"/><path d="M292,137.626v99.027a23,23,0,1,0,46,0V137.626a53.239,53.239,0,0,0,29.9-47.572,52.56,52.56,0,0,0-29.227-47.316,6.573,6.573,0,0,0-6.583.309A6.8,6.8,0,0,0,329,49V71.549l-13.431,8.81L301.79,70.79,301.814,49a7.042,7.042,0,0,0-10.159-6.3A52.87,52.87,0,0,0,292,137.626Zm-4.283-75.134-.04,11.911a7,7,0,0,0,2.987,5.759L311.257,94.57a7,7,0,0,0,7.892.091l20.529-13.537A7.2,7.2,0,0,0,343,75.3V62.518a39.015,39.015,0,0,1-14.25,63.943,7.187,7.187,0,0,0-4.75,6.558V236.653a9,9,0,1,1-18,0V133.019a6.957,6.957,0,0,0-4.5-6.558,38.89,38.89,0,0,1-13.78-63.969Z"/></svg>
