<?xml version="1.0"?>
<svg xmlns="http://www.w3.org/2000/svg" id="Layer_1" data-name="Layer 1" viewBox="0 0 512 512" width="512" height="512"><title>Hand Tools</title><path d="M428.823,361.13l19.291,19.424a7.007,7.007,0,0,0,11.611-2.7,62.6,62.6,0,0,0-15.152-64.56,63.233,63.233,0,0,0-66.031-14.634l-15.888-15.888a24.676,24.676,0,0,0-13.2-39.444,24.625,24.625,0,0,0-15.735-32.652,24.606,24.606,0,0,0-20.958-36.733,24.627,24.627,0,0,0-42.033-18.684l-17.79,17.79L208.883,129a62.933,62.933,0,0,0-79.1-81.214,7,7,0,0,0-2.732,11.59L147.073,79.4,142.9,100.231,121.027,104.1,101.736,84.672a7.006,7.006,0,0,0-11.61,2.7,62.6,62.6,0,0,0,15.152,64.561,63.235,63.235,0,0,0,66.031,14.633l3.9,3.9-37.33,37.419A37.133,37.133,0,0,0,127,234.379v13.2a70.229,70.229,0,0,1-16.08,44.783l-1.623-1.58a19.658,19.658,0,0,0-27.776,0l-26.77,26.764a19.641,19.641,0,0,0,0,27.742L171.172,461.715a19.615,19.615,0,0,0,27.741,0l26.765-26.764a19.641,19.641,0,0,0,0-27.742l-4.1-4.1,7.455-3.59a214.383,214.383,0,0,0,58.725-41.663l37.417-37.418,15.79,15.79A63.235,63.235,0,0,0,355.6,402.261a62.583,62.583,0,0,0,44.358,18.471,63.474,63.474,0,0,0,20.107-3.288,7,7,0,0,0,2.733-11.59l-20.023-20.022L406.956,365ZM170.065,151.965a49.13,49.13,0,0,1-54.887-9.928,48.625,48.625,0,0,1-14.217-38.278l12.713,12.8a6.994,6.994,0,0,0,6.185,1.96l30.178-5.333a7,7,0,0,0,5.645-5.517l5.855-29.2a7,7,0,0,0-1.914-6.326l-13.5-13.5a48.956,48.956,0,0,1,48.152,69.106,7,7,0,0,0,1.418,7.855l47.338,47.337L225.258,200.72l-47.337-47.336A7,7,0,0,0,170.065,151.965ZM215.777,425.05l-26.764,26.765a5.617,5.617,0,0,1-7.943,0L64.646,335.39a5.623,5.623,0,0,1,0-7.944L91.41,300.682a5.617,5.617,0,0,1,7.943,0L215.777,417.107A5.621,5.621,0,0,1,215.777,425.05Zm62.084-77.092a200.378,200.378,0,0,1-54.9,38.948l-11.871,5.716-90.248-90.336A84.112,84.112,0,0,0,141,247.579v-13.2a23.225,23.225,0,0,1,6.782-16.588l37.374-37.418,30.225,30.247-.765.753c-.416.416-.845.822-1.276,1.218-9.622,8.82-24.326,10.842-36.584,5.028l-.534-.252a7,7,0,0,0-6,12.649l.533.253c17.625,8.356,38.054,5.468,52.041-7.359q.867-.8,1.708-1.635l56.119-56.121A10.664,10.664,0,1,1,295.7,180.235l-.888.887,0,0L252.88,223.058a7,7,0,1,0,9.9,9.9l41.946-41.945a10.663,10.663,0,0,1,15.065,15.094l-10.7,10.7,0,0L277.86,248.038a7,7,0,1,0,9.9,9.9L319,226.7a10.664,10.664,0,0,1,15.07,15.091L302.84,273.018a7,7,0,1,0,9.9,9.9l20.554-20.553,2.643-2.642a10.663,10.663,0,1,1,15.079,15.08Zm112.367,45.123,13.5,13.5a48.956,48.956,0,0,1-48.153-69.106,7,7,0,0,0-1.418-7.855L335.077,310.54l17.776-17.775,19.077,19.077a7,7,0,0,0,7.855,1.419,49.132,49.132,0,0,1,54.888,9.928,48.628,48.628,0,0,1,14.217,38.278l-12.713-12.8a7,7,0,0,0-6.186-1.96l-30.178,5.334a7,7,0,0,0-5.644,5.516l-5.856,29.2A7,7,0,0,0,390.228,393.081Z"/></svg>
