<?xml version="1.0"?>
<svg xmlns="http://www.w3.org/2000/svg" id="Layer_1" data-name="Layer 1" viewBox="0 0 512 512" width="512" height="512"><title>Horn</title><path d="M408.066,172.556a7,7,0,0,0-9.9,9.9,104,104,0,0,1,0,147.084,7,7,0,0,0,9.9,9.9,118,118,0,0,0,0-166.888Z"/><path d="M426.706,144.018a7,7,0,0,0,0,9.9,144.347,144.347,0,0,1,0,204.165,7,7,0,1,0,9.9,9.9,158.345,158.345,0,0,0,0-223.967A7,7,0,0,0,426.706,144.018Z"/><path d="M379.53,201.1a7,7,0,0,0-9.9,9.9,63.653,63.653,0,0,1,0,90.012,7,7,0,0,0,9.9,9.9,77.656,77.656,0,0,0,0-109.8Z"/><path d="M70.321,231.085a25.429,25.429,0,0,0-18.833,30.639,7,7,0,0,0,13.617-3.25A11.43,11.43,0,0,1,73.57,244.7a7,7,0,1,0-3.249-13.617Z"/><path d="M79,206a50.005,50.005,0,1,0,50,50.005A50.061,50.061,0,0,0,79,206Zm0,86.01a36,36,0,1,1,36-36A36.045,36.045,0,0,1,79,292.005Z"/><path d="M339,145.042a7,7,0,0,0-7,7V165.58c-51,54.25-193.683,55.176-195.137,55.179a7.091,7.091,0,0,0-6.421,4.105,7,7,0,0,0,1.061,7.49l1.737,2.013a30.376,30.376,0,0,1-1.43,41.278,7,7,0,0,0-1.468,7.748,7.165,7.165,0,0,0,6.8,4.2C138.481,287.539,271,283.364,332,346.5v13.457a7,7,0,1,0,14,0V152.042A7,7,0,0,0,339,145.042Zm-7,182.284c-27-23.154-66.413-39.169-116.542-47.685a446.306,446.306,0,0,0-65.184-6.085,44.621,44.621,0,0,0-.147-39.129c35.325-1.44,131.873-9.1,181.873-49.8Z"/></svg>
