<?xml version="1.0"?>
<svg xmlns="http://www.w3.org/2000/svg" id="Layer_1" data-name="Layer 1" viewBox="0 0 512 512" width="512" height="512"><title>Jumper cables and nuts</title><path d="M156.152,68.582a7,7,0,0,0,3.252-7.9l-8.139-29.7A6.847,6.847,0,0,0,144.511,26h-40.7A6.547,6.547,0,0,0,97,32.647V213H93a6.886,6.886,0,0,0-7,6.865V444.758a41.5,41.5,0,1,0,83,0V219.865A6.726,6.726,0,0,0,162.189,213H156V200.33a17.261,17.261,0,0,1,17.21-17.42,16.585,16.585,0,0,1,12,5.1A17.011,17.011,0,0,1,190,200.33V213h-6.189A6.726,6.726,0,0,0,177,219.865V444.758a41.5,41.5,0,1,0,83,0V219.865A6.886,6.886,0,0,0,253,213h-4V32.647A6.547,6.547,0,0,0,242.189,26h-40.7a6.847,6.847,0,0,0-6.754,4.983L186.6,60.769a6.941,6.941,0,0,0,3.252,7.857,33.661,33.661,0,1,1-33.7-.044ZM246,444.758a27.5,27.5,0,1,1-55,0V304h55ZM246,290H191V264h55Zm0-63v23H191V227ZM182.2,144.564a47.557,47.557,0,0,0,19.24-84.913L206.837,40H235V213H204V200.33a31.088,31.088,0,0,0-24.793-30.786,15.017,15.017,0,0,1,2.988-24.98ZM155,444.758a27.5,27.5,0,1,1-55,0V304h55ZM155,290H100V264h55Zm0-40H100V227h55ZM125.3,97.767a47.655,47.655,0,0,0,37.958,46.683,28.021,28.021,0,0,0-.266,26.175A31.281,31.281,0,0,0,142,200.33V213H111V40h28.163l5.4,19.651A47.533,47.533,0,0,0,125.3,97.767Z"/><path d="M307.938,157.446A7.049,7.049,0,0,0,314,161h70a7.049,7.049,0,0,0,6.062-3.554l35-60.649a7.028,7.028,0,0,0,0-7.014l-35-60.452A6.844,6.844,0,0,0,384,26H314a6.84,6.84,0,0,0-6.062,3.324l-35,60.534a6.97,6.97,0,0,0,0,6.983ZM318.041,40h61.918l30.958,53.5L379.959,147H318.041L287.083,93.5Z"/><path d="M349,120.27a27,27,0,1,0-27-27A27.031,27.031,0,0,0,349,120.27Zm0-40a13,13,0,1,1-13,13A13.014,13.014,0,0,1,349,80.27Z"/><path d="M272.938,259.5l35,60.811A7.181,7.181,0,0,0,314,324h70a7.181,7.181,0,0,0,6.062-3.689l35-60.716a7.092,7.092,0,0,0,0-7.048l-35-60.834A7.205,7.205,0,0,0,384,188H314a7.181,7.181,0,0,0-6.062,3.689l-35,60.716A7.181,7.181,0,0,0,272.938,259.5Zm45.1-57.5h61.918l30.958,54-30.958,54H318.041l-30.958-54Z"/><path d="M349,283a27,27,0,1,0-27-27A27.03,27.03,0,0,0,349,283Zm0-40a13,13,0,1,1-13,13A13.015,13.015,0,0,1,349,243Z"/><path d="M272.938,422.23l35,60.446A6.84,6.84,0,0,0,314,486h70a6.84,6.84,0,0,0,6.062-3.324l35-60.534a6.92,6.92,0,0,0,0-6.956l-35-60.654A7.029,7.029,0,0,0,384,351H314a7.049,7.049,0,0,0-6.062,3.554l-35,60.649A7.053,7.053,0,0,0,272.938,422.23Zm45.1-57.23h61.918l30.958,53.5L379.959,472H318.041l-30.958-53.5Z"/><path d="M349,445.73a27,27,0,1,0-27-27A27.03,27.03,0,0,0,349,445.73Zm0-40a13,13,0,1,1-13,13A13.015,13.015,0,0,1,349,405.73Z"/></svg>
