<?xml version="1.0"?>
<svg xmlns="http://www.w3.org/2000/svg" id="Layer_1" data-name="Layer 1" viewBox="0 0 512 512" width="512" height="512"><title>jumper cables</title><path d="M295.311,172.272a7,7,0,0,0-9.9,0l-2.694,2.7L155.283,47.534a7,7,0,0,0-9.9,0L116.6,76.313a7,7,0,0,0-1.127,8.425l15.368,26.879a7.006,7.006,0,0,0,7.885,3.288,33.7,33.7,0,1,1-23.825,23.825,7,7,0,0,0-3.288-7.885L84.738,115.477a7,7,0,0,0-8.425,1.127L47.534,145.383a7,7,0,0,0,0,9.9L174.967,282.716l-2.7,2.694a7,7,0,0,0,0,9.9L331.3,454.333a41.595,41.595,0,0,0,58.824-58.824L231.1,236.485a7,7,0,0,0-9.9,0l-4.674,4.674L207.66,232.3A17.42,17.42,0,0,1,232.3,207.659l8.864,8.865-4.674,4.673a7,7,0,0,0,0,9.9L395.509,390.12A41.595,41.595,0,0,0,454.333,331.3ZM380.22,405.409A27.594,27.594,0,0,1,341.2,444.433L241.78,345.018l39.026-39.024ZM270.9,296.093,231.88,335.118,213.5,316.734l39.025-39.025Zm-44.758-44.758,16.474,16.474L203.6,306.834,187.122,290.36Zm-19.523-.277-21.757,21.757L62.384,150.333l20.048-20.048,17.839,10.2a47.679,47.679,0,0,0,73.306,46.868,28.928,28.928,0,0,0,18.167,18.852,31.469,31.469,0,0,0,6.017,35.99Zm35.571-53.3a31.45,31.45,0,0,0-39.521-4.015,14.989,14.989,0,0,1-15.608-19.721,47.694,47.694,0,0,0-46.581-73.753l-10.2-17.839,20.048-20.048L272.815,184.867l-21.756,21.757Zm9.14,28.387,39.025-39.025L306.834,203.6l-39.025,39.025Zm26.374,26.374L316.734,213.5l18.384,18.384L296.093,270.9Zm166.724,127.7a27.625,27.625,0,0,1-39.024,0l-99.416-99.415,39.026-39.024L444.433,341.2A27.625,27.625,0,0,1,444.433,380.22Z"/></svg>
