<?xml version="1.0"?>
<svg xmlns="http://www.w3.org/2000/svg" id="Layer_1" data-name="Layer 1" viewBox="0 0 512 512" width="512" height="512"><title>Maintenance</title><path d="M178.891,477.809A160.077,160.077,0,0,0,310.85,408h21.963a6.915,6.915,0,0,0,6.968-6.229l3.29-34.078a148.843,148.843,0,0,0,41.059-17.26l26.232,21.736a7,7,0,0,0,9.415-.435L457.013,334.5a7,7,0,0,0,.442-9.413l-21.763-26.278a152.226,152.226,0,0,0,17.323-41.018l33.665-3.284A7,7,0,0,0,493,247.54V194.75a7,7,0,0,0-6.328-6.968l-34.128-3.289a148.876,148.876,0,0,0-17.285-41.06L456.983,117.2a7,7,0,0,0-.41-9.383L419.808,70.582a7,7,0,0,0-9.446-.473L384.083,91.871A152.2,152.2,0,0,0,343.071,74.55l-3.29-34.176A7.04,7.04,0,0,0,332.813,34h-52.79a7.04,7.04,0,0,0-6.968,6.375l-3.289,34.149a148.947,148.947,0,0,0-41.059,17.3L202.474,70.1a7,7,0,0,0-9.414.444l-37.236,37.238a7,7,0,0,0-.442,9.415l21.763,26.28a161.153,161.153,0,0,0-7.969,14.951C85.519,163.47,19,233.067,19,317.968,19,406.132,90.727,477.809,178.891,477.809ZM326.456,394h-7.018a146.539,146.539,0,0,0,8.878-19.3ZM228.167,165.907A95.789,95.789,0,1,1,338.633,311.373C335.835,243.3,290.279,186.077,228.167,165.907ZM170.229,113.18l28.224-28.224,25.257,20.917a7,7,0,0,0,8.348.432,134.273,134.273,0,0,1,45.674-19.25,7.051,7.051,0,0,0,5.488-6.216L286.381,48h40.075l3.161,32.839a7.024,7.024,0,0,0,5.488,6.193,138.405,138.405,0,0,1,45.761,19.319,7,7,0,0,0,8.26-.484l25.226-20.888,27.81,28.168L421.22,138.436a7,7,0,0,0-.433,8.348,134.278,134.278,0,0,1,19.25,45.674,7,7,0,0,0,6.17,5.489L479,201.108V241.19l-32.33,3.154a7,7,0,0,0-6.162,5.488A138.352,138.352,0,0,1,421.2,295.593a7,7,0,0,0,.491,8.26l20.916,25.257-28.223,28.224-25.258-20.917a7,7,0,0,0-8.348-.433,134.234,134.234,0,0,1-45.673,19.251,6.933,6.933,0,0,0-.763.23,159.314,159.314,0,0,0,4.234-29.327A109.793,109.793,0,1,0,213.933,162.005a159.462,159.462,0,0,0-29.046-3.754c2.055-3.9,4.306-7.767,6.75-11.555a7,7,0,0,0-.491-8.259Zm8.662,58.947c80.444,0,145.89,65.446,145.89,145.891s-65.446,145.89-145.89,145.89S33,398.462,33,318.018,98.446,172.127,178.891,172.127Z"/><path d="M95.525,359h.139a17.929,17.929,0,0,0,12.9-5.344,17.614,17.614,0,0,0,5.266-12.734A18.115,18.115,0,0,0,95.531,323H95.4a18,18,0,1,0,.13,36Zm-3.061-20.908A4.073,4.073,0,0,1,95.5,337h.032A4.291,4.291,0,0,1,100,341.033a4.048,4.048,0,0,1-1.316,2.845A4.3,4.3,0,0,1,95.561,345h-.033a4.177,4.177,0,0,1-3.019-1.125,3.949,3.949,0,0,1-.045-5.783Z"/><path d="M262.538,358h.138a18.5,18.5,0,0,0-.132-37h-.137a18.5,18.5,0,0,0,.131,37Zm-.028-23h.032a4.505,4.505,0,0,1,.032,9h-.033a4.314,4.314,0,0,1-3.019-1.278,4.7,4.7,0,0,1-1.283-3.21A4.453,4.453,0,0,1,262.51,335Z"/><path d="M86.55,405h.1l16.558-.017A12.422,12.422,0,0,0,115.566,392.5l-.086-12.857,127.849-.977.086,12.859A12.557,12.557,0,0,0,255.866,404h.094l16.558-.177a12.491,12.491,0,0,0,12.361-12.568l-.092-13.882A17.934,17.934,0,0,0,296.719,361l6.237-40.135a7.094,7.094,0,0,0,.083-1.128,29.631,29.631,0,0,0-7.329-19.466,25.277,25.277,0,0,0-14.841-8.376l-19.84-35.848C254.383,244.333,244.651,231,228.191,231h-.222l-98.561.713c-13.433.1-25.173,9.182-33.076,25.666l-20,36.034c-11.771,2.175-20.73,12.7-21.535,26.135-.042.692-.061,1.394-.056,2.1a7,7,0,0,0,.1,1.1l6.7,40.048a17.9,17.9,0,0,0,11.041,15.784c.472.2.952.362,1.435.516l.092,13.7A12.272,12.272,0,0,0,86.55,405Zm1.541-13.8-.076-11.322,13.465-.1.076,11.327ZM257.4,389.878l-.075-11.311,13.465-.1.075,11.316ZM108.678,263.94c.071-.127.137-.256.2-.387,3.171-6.662,10.067-17.763,20.639-17.84L228.077,245h.109c7.308,0,13.5,5.318,20.627,17.884l15.921,28.8-11.808.069a29.605,29.605,0,0,0-57.885.432l-102.463.791Zm129.607,28.114-28.6.327A15.458,15.458,0,0,1,223.917,283h.117A15.439,15.439,0,0,1,238.285,292.054ZM75.518,362.067a7.04,7.04,0,0,0-.1-1.1l-6.675-39.935c0-.216.013-.432.026-.65.374-6.232,4.434-12.882,11.253-13.388.2.018.407.009.613.009h.054l195.726-1.26c.03,0,.059.26.089.26h.053a11.3,11.3,0,0,1,8.668,3.777,15.493,15.493,0,0,1,3.8,9.659l-6.218,39.96a6.509,6.509,0,0,0-.083,1.1,3.925,3.925,0,0,1-3.88,3.913L79.452,365.946a3.592,3.592,0,0,1-1.5-.293A3.921,3.921,0,0,1,75.518,362.067Z"/><path d="M145.867,348h.052a6.8,6.8,0,0,0,6.949-6.831l-.077-10.318a6.917,6.917,0,0,0-7-6.851h-.053a6.993,6.993,0,0,0-6.948,7.064l.077,10.2A6.819,6.819,0,0,0,145.867,348Z"/><path d="M212.33,348h.052a7.1,7.1,0,0,0,6.949-7.186l-.078-10.641a7.194,7.194,0,0,0-7-7.173H212.2a7.12,7.12,0,0,0-6.949,7.209l.078,10.63A7.184,7.184,0,0,0,212.33,348Z"/><path d="M168.021,348h.053a6.916,6.916,0,0,0,6.948-6.973l-.077-10.247a6.857,6.857,0,0,0-7-6.78h-.052a6.873,6.873,0,0,0-6.949,6.922l.077,10.273A6.879,6.879,0,0,0,168.021,348Z"/><path d="M190.175,348h.053a7.036,7.036,0,0,0,6.948-7.115l-.076-10.677a7.228,7.228,0,0,0-7-7.208h-.053a7.181,7.181,0,0,0-6.948,7.28l.076,10.594A7.155,7.155,0,0,0,190.175,348Z"/></svg>
