<?xml version="1.0"?>
<svg xmlns="http://www.w3.org/2000/svg" id="Layer_1" data-name="Layer 1" viewBox="0 0 512 512" width="512" height="512"><title>Mechanic coat</title><path d="M155.259,65H96a7.259,7.259,0,0,0-7,7.3V73.2c0,30.841,7.131,61.933,21.195,92.413a40.439,40.439,0,0,1-17.523,52.464A7,7,0,0,0,89,224.237V416a30.992,30.992,0,0,0,30.7,31h94.815C231.449,447,245,432.931,245,416V286h22V416c0,16.931,13.551,31,30.481,31H392.3A30.992,30.992,0,0,0,423,416V224.237a7,7,0,0,0-3.672-6.158,40.438,40.438,0,0,1-17.522-52.465C415.869,135.135,423,104.043,423,73.2V72.3a7.259,7.259,0,0,0-7-7.3H155.259ZM231,416c0,9.211-7.271,17-16.481,17H119.7A16.978,16.978,0,0,1,103,416V380H231Zm0-50H103V333H231Zm0-147H215.7a7,7,0,0,0,0,14H231v12H215.7a7,7,0,0,0,0,14H231v13H215.7a7,7,0,0,0,0,14H231v33H103V228.223A54.635,54.635,0,0,0,122.907,159.6C110.629,132.992,103.977,106,103.1,79h45.276a90.306,90.306,0,0,0,57.039,79.427c15.37,6,25.585,21.458,25.585,38.358Zm36,53H245V259h22Zm0-27H245V233h22ZM409,416a16.978,16.978,0,0,1-16.7,17H297.481c-9.21,0-16.481-7.789-16.481-17V380H409Zm0-50H281V333H409ZM363.624,79H408.9c-.877,27-7.529,53.992-19.806,80.6A54.634,54.634,0,0,0,409,228.223V319H281V286h15.3a7,7,0,1,0,0-14H281V259h15.3a7,7,0,1,0,0-14H281V233h15.3a7,7,0,1,0,0-14H281V196.785c0-16.9,10.215-32.285,25.585-38.283A90.277,90.277,0,0,0,363.624,79Zm-14.033,0a75.114,75.114,0,0,1-48.1,66.312c-20.7,8.078-34.5,28.852-34.5,51.473V219H245V196.785c0-22.621-13.8-43.4-34.5-51.474A75.112,75.112,0,0,1,162.409,79Z"/></svg>
