<?xml version="1.0"?>
<svg xmlns="http://www.w3.org/2000/svg" id="Layer_1" data-name="Layer 1" viewBox="0 0 512 512" width="512" height="512"><title>Mechanic Tools</title><path d="M303.386,334h23.025a7,7,0,1,0,0-14H303.386a7,7,0,1,0,0,14Z"/><path d="M303.386,374h23.025a7,7,0,1,0,0-14H303.386a7,7,0,1,0,0,14Z"/><path d="M303.386,413h23.025a7,7,0,1,0,0-14H303.386a7,7,0,1,0,0,14Z"/><path d="M166,356.851a7,7,0,0,0-7,7V442.1a7,7,0,0,0,14,0V363.851A7,7,0,0,0,166,356.851Z"/><path d="M137,356.851a7,7,0,0,0-7,7V442.1a7,7,0,0,0,14,0V363.851A7,7,0,0,0,137,356.851Z"/><path d="M204.838,273.372A20.379,20.379,0,0,0,184.575,253H172V100.493l9.771-20.853a6.991,6.991,0,0,0,.372-4.785l-13.3-50.618A7.057,7.057,0,0,0,162.029,19h-21.22a7.009,7.009,0,0,0-6.771,5.237L120.775,74.85a6.991,6.991,0,0,0,.373,4.787L131,100.493V253H118.263a20.359,20.359,0,0,0-6.022,39.776L99.13,338.9a7.105,7.105,0,0,0-.13,1.962V453.883C99,475.744,116.5,494,138.36,494h26.118C186.338,494,204,475.744,204,453.883V340.865a6.942,6.942,0,0,0-.211-1.934l-13.223-46.155A20.4,20.4,0,0,0,204.838,273.372ZM146.211,33h10.416l11.245,42.918L158.521,95.9A6.889,6.889,0,0,0,158,98.911V253H145V98.911a6.93,6.93,0,0,0-.6-3.01l-9.471-19.983ZM190,453.883C190,468.024,178.619,480,164.478,480H138.36C124.219,480,113,468.024,113,453.883V341.852L126.546,294h49.746L190,341.852ZM184.575,280H118.263a6.5,6.5,0,0,1,0-13h66.312a6.5,6.5,0,0,1,0,13Z"/><path d="M315,493.529a39.078,39.078,0,0,0,39-39.235V199.019a99.656,99.656,0,0,0,59.933-91.026A98.61,98.61,0,0,0,359.07,19.272,6.957,6.957,0,0,0,349,25.535V74.606L315.257,97.068,280.8,72.969l.159-47.465a7.012,7.012,0,0,0-10.127-6.3,98.45,98.45,0,0,0-54.869,88.79A99.75,99.75,0,0,0,276,199.019V454.294A39.078,39.078,0,0,0,315,493.529ZM229.8,107.993a84.6,84.6,0,0,1,37.121-70.322l-.133,38.911a7,7,0,0,0,2.987,5.759l41.363,28.937a6.994,6.994,0,0,0,7.892.091l40.841-27.187A7.012,7.012,0,0,0,363,78.355V37.739a85.133,85.133,0,0,1-18.375,150A7.069,7.069,0,0,0,340,194.292v260a25,25,0,1,1-50,0v-260a7.158,7.158,0,0,0-4.72-6.558A85.638,85.638,0,0,1,229.8,107.993Z"/></svg>
