<?xml version="1.0"?>
<svg xmlns="http://www.w3.org/2000/svg" id="Layer_1" data-name="Layer 1" viewBox="0 0 512 512" width="512" height="512"><title>Mechanic</title><path d="M327,447.778a7,7,0,0,0,7-7v-6.371a7,7,0,1,0-14,0v6.371A7,7,0,0,0,327,447.778Z"/><path d="M185,447.778a7,7,0,0,0,7-7v-6.371a7,7,0,1,0-14,0v6.371A7,7,0,0,0,185,447.778Z"/><path d="M244.711,79h25.032a7,7,0,0,0,0-14H244.711a7,7,0,0,0,0,14Z"/><path d="M244.711,56h25.032a7,7,0,0,0,0-14H244.711a7,7,0,0,0,0,14Z"/><path d="M153.137,371.065c-.13.056-.252.115-.378.178a56.847,56.847,0,0,0-30.954,46.044c-.016.193.195.387.195.581v78c0,3.866,2.7,7.133,6.566,7.133H383.434c3.866,0,6.566-3.267,6.566-7.133v-78c0-.194.209-.388.192-.581a56.966,56.966,0,0,0-31.065-46.044c-.125-.063-.189-.122-.318-.178L305,348.073V315.664a100.463,100.463,0,0,0,50.908-82.156,30.779,30.779,0,0,0,18.818-36.04A24.814,24.814,0,0,0,359.385,180l.679-10h12.75A6.957,6.957,0,0,0,380,163.245v-27a7.378,7.378,0,0,0-7.186-7.25h-7.226a120.37,120.37,0,0,0-23.3-65.811,110.167,110.167,0,0,0-53.584-39.2l.76-7.3A6.974,6.974,0,0,0,282.5,9h-53a7,7,0,0,0-6.963,7.723l.76,7.329a109.969,109.969,0,0,0-53.589,39.235A120.574,120.574,0,0,0,146.423,129h-7.237A7.378,7.378,0,0,0,132,136.25v27A6.957,6.957,0,0,0,139.186,170h12.28l.68,9.974a24.708,24.708,0,0,0-15.4,17.433,31.151,31.151,0,0,0-.881,7.361,30.7,30.7,0,0,0,19.751,28.743C157.43,268.934,178,299.573,207,315.935v32.138ZM181,374.3l7-3.089V410h-7ZM167,410h-3.389c-3.866,0-6.611,3.55-6.611,7.416V489H136V418.171a41.976,41.976,0,0,1,22.945-34.315L167,380.277Zm178-29.723,8.055,3.579A41.976,41.976,0,0,1,376,418.171V489H355V417.416c0-3.866-2.745-7.416-6.611-7.416H345ZM341,489H171V424H341ZM324,371.213l7,3.089V410h-7ZM219,40.765a74.616,74.616,0,0,1,13.672-4.9,7,7,0,0,0,5.157-7.488L237.264,23h37.472l-.557,5.377a6.988,6.988,0,0,0,5.149,7.488A74.877,74.877,0,0,1,293,40.759v9.513a56.431,56.431,0,0,1-35.9,52.581A56.274,56.274,0,0,1,219,49.465ZM180.982,71.607A100.129,100.129,0,0,1,205,48.612v.853a70.251,70.251,0,0,0,48.629,66.981l1.437.471a6.967,6.967,0,0,0,2.165.345,6.893,6.893,0,0,0,2.26-.381A70.444,70.444,0,0,0,307,50.272V48.586a100.088,100.088,0,0,1,24.022,22.937A106.266,106.266,0,0,1,351.566,129H160.445A106.5,106.5,0,0,1,180.982,71.607ZM146,156V143H366v13H330.765c-1.309,0-2.827-.892-4.374-.6-.637.12-1.234.6-1.788.6H146Zm200.031,14-.971,14.218a2.711,2.711,0,0,1-.809,1.762l-2.063,1.955-3.124-9.48c-.915-2.747-1.739-5.455-2.474-8.455ZM172.51,170,171.2,186.471l-4.388-2.191a.875.875,0,0,1-.384-.673L165.5,170ZM169,228.327v-.141a6.79,6.79,0,0,0-5.548-6.9A16.6,16.6,0,0,1,149.738,204.8a16.843,16.843,0,0,1,.541-4,10.529,10.529,0,0,1,5.925-7.241,14.7,14.7,0,0,0,4.2,3.238l11.179,5.735a8.9,8.9,0,0,0,8.416-.139,9.1,9.1,0,0,0,4.55-7.2l2-25.191H322.181a101.808,101.808,0,0,0,3.6,12.9l5.63,16.949A8.9,8.9,0,0,0,345.95,203.6l7.854-7.328a16.54,16.54,0,0,0,2.1-2.374,10.48,10.48,0,0,1,5.22,6.9,16.766,16.766,0,0,1-13.331,20.487A7.013,7.013,0,0,0,342,228.178v.149c0,47.573-38.927,86.277-86.493,86.277S169,275.9,169,228.327Zm122,93.889v26.19a88.6,88.6,0,0,1-70,0V322.39a100.362,100.362,0,0,0,70-.174Zm-77.562,38.24a103.42,103.42,0,0,0,85.066,0l11.5,4.781V410H202V365.237Z"/></svg>
