<?xml version="1.0"?>
<svg xmlns="http://www.w3.org/2000/svg" id="Layer_1" data-name="Layer 1" viewBox="0 0 512 512" width="512" height="512"><title>Mechanical Services</title><path d="M89.61,203h-.2a26.741,26.741,0,0,0-26.7,26.957A27.194,27.194,0,0,0,89.6,257h.2c7.184-1,13.917-3.142,18.959-8.258a27,27,0,0,0,7.737-19.2A26.767,26.767,0,0,0,89.61,203Zm.089,39.518a12.931,12.931,0,0,1-9.144-3.709,12.5,12.5,0,0,1-3.844-8.955A12.76,12.76,0,0,1,89.509,217h.1A12.665,12.665,0,0,1,102.5,229.6,12.852,12.852,0,0,1,89.7,242.518Z"/><path d="M467.045,193.3a7.046,7.046,0,0,0,.054-.918,46.835,46.835,0,0,0-11.561-30.773,42.073,42.073,0,0,0-6.374-5.87l24.487-.189a7,7,0,0,0,6.935-7.389,71.172,71.172,0,0,0-3.548-17.232C472.9,118.811,460.147,111,444.493,111h-.35c-9.489,0-26.686.161-34.555.188L393.856,82.616C382.871,63.257,366.913,41,340.687,41h-.343L149.27,42.5c-21.536.158-40.538,15.248-53.523,42.416l-15.989,28.85c-7.849.042-25.248.148-34.86.219-15.814.116-28.609,8.123-32.6,20.389a71.089,71.089,0,0,0-3.295,17.259A7.072,7.072,0,0,0,16,159h.061l24.039-.249c-10.425,8.1-17.072,21.494-16.958,36.92a6.836,6.836,0,0,0,.062.869l11.869,88.521A26.234,26.234,0,0,0,57,310.234l.209,28.345A16.553,16.553,0,0,0,73.805,355h.126l29.143-.188a16.607,16.607,0,0,0,16.475-16.707l-.206-27.956,84.085-.616q-.417,5.615-.426,11.291a149.178,149.178,0,0,0,28.344,87.643,6.976,6.976,0,0,0,1.079,1.48A149.876,149.876,0,0,0,353,470.825c82.71,0,150-67.289,150-150a148.913,148.913,0,0,0-39.244-101.154Zm-22.8-68.3h.236c9.428,0,17.17,4.2,19.306,10.451a56.228,56.228,0,0,1,1.7,6.146l-38.952.307L417.3,125.157C425.884,125.123,437.189,125,444.247,125ZM108.094,91.559c.071-.127.137-.257.2-.388,6.115-12.85,19.582-34.517,41.08-34.675L340.447,55h.242c15.025,0,27.3,10.41,40.951,34.466l32.337,58.619-34.212.274a46.785,46.785,0,0,0-92.875.7L75.334,150.623Zm257.527,56.926-64.587.476A32.494,32.494,0,0,1,333.127,122h.249a32.392,32.392,0,0,1,23.009,9.241A32.014,32.014,0,0,1,365.621,148.485ZM24.01,144.849a55.955,55.955,0,0,1,1.6-6.144c2.061-6.338,9.852-10.643,19.387-10.713,7.074-.052,18.371-.118,26.968-.165l-9.255,16.686Zm78.961,195.989-29.143.215a2.692,2.692,0,0,1-1.841-.748,2.587,2.587,0,0,1-.775-1.83l-.206-27.963,34.337-.253.206,27.963A2.6,2.6,0,0,1,102.971,340.838Zm102.161-45.325L61.349,296.582a12.321,12.321,0,0,1-8.632-3.524,12.105,12.105,0,0,1-3.652-8.58A6.993,6.993,0,0,0,49,283.6L37.141,195.123c.056-18.37,12.536-29.532,25.116-30.372A7.213,7.213,0,0,0,63.4,165h.052l362.121-2.838c.052,0,.1-.162.155-.162h.24a25.323,25.323,0,0,1,19.09,8.862,33.288,33.288,0,0,1,8.037,21.168l-1.917,15.376a150.038,150.038,0,0,0-185.091-8.846,150.746,150.746,0,0,0-30.594,29.013l-.117-15.772a6.876,6.876,0,0,0-7-6.8h-.052a6.859,6.859,0,0,0-6.949,6.905l.135,18.24a6.921,6.921,0,0,0,7,6.855h.05a149.383,149.383,0,0,0-23.426,58.513Zm41.692,110.193,84.688-84.687a7,7,0,0,0,1.419-7.856A56.279,56.279,0,0,1,344.3,250.291a55.708,55.708,0,0,1,45.755-16.1l-15.778,15.67a7,7,0,0,0-1.96,6.186l6.012,34.018a7,7,0,0,0,5.517,5.644l32.912,6.6a7,7,0,0,0,6.326-1.914l16.556-16.556a55.709,55.709,0,0,1-16.107,45.687A56.278,56.278,0,0,1,360.664,340.9a7,7,0,0,0-7.855,1.418L268.121,427A137.2,137.2,0,0,1,246.824,405.706ZM489,320.826c0,74.99-61.009,136-136,136a135.193,135.193,0,0,1-73.369-21.534l79.774-79.773a70.051,70.051,0,0,0,90.93-87.851,7,7,0,0,0-11.589-2.732l-22.909,22.908-24.551-4.924-4.544-25.707,22.226-22.074a7.008,7.008,0,0,0-2.7-11.612A69.674,69.674,0,0,0,334.4,240.392a70.382,70.382,0,0,0-16.093,74.029L238.536,394.2A135.98,135.98,0,1,1,489,320.826Z"/><path d="M194.42,205h-.052a6.965,6.965,0,0,0-6.949,7.031l.135,18.176a6.87,6.87,0,0,0,7,6.793h.052a6.859,6.859,0,0,0,6.949-6.907l-.135-18.238A6.92,6.92,0,0,0,194.42,205Z"/><path d="M160.465,205h-.052a7.073,7.073,0,0,0-6.949,7.156l.136,18.614a7.246,7.246,0,0,0,7,7.23h.052a7.184,7.184,0,0,0,6.949-7.282l-.136-18.551A7.19,7.19,0,0,0,160.465,205Z"/></svg>
