<?xml version="1.0"?>
<svg xmlns="http://www.w3.org/2000/svg" id="Layer_1" data-name="Layer 1" viewBox="0 0 512 512" width="512" height="512"><title>Mobile Maintenance Truck</title><path d="M39.826,443H70.969a47.818,47.818,0,0,0,94.343,0H338.043a47.819,47.819,0,0,0,94.344,0h39.787A10.6,10.6,0,0,0,483,432.458V185.968A45.089,45.089,0,0,0,437.572,141H245.433A45.092,45.092,0,0,0,200,185.968V198H114.777C89.729,198,69,215.209,69,236.285V259.1c0,3.866,3.483,6.9,7.35,6.9h8.866L60.954,347.559C42.408,355.556,29,378.894,29,398.817v33.641A10.6,10.6,0,0,0,39.826,443Zm112.136-6.877a33.832,33.832,0,0,1-67.646-.054c-.007-.246-.006-.5-.006-.745a33.83,33.83,0,1,1,67.659,0C151.969,435.577,151.97,435.837,151.962,436.123ZM178,345H97.793l8.047-33H178Zm241.036,91.123a33.831,33.831,0,0,1-67.645-.054c-.008-.246-.007-.5-.007-.745a33.7,33.7,0,0,1,9.107-23.081h0l.093-.1.1-.108a33.8,33.8,0,0,1,49.053,0c.044.045.05.053.1.1l.1.108h0a33.694,33.694,0,0,1,9.105,23.081C419.043,435.577,419.044,435.837,419.036,436.123ZM214,185.968A31.078,31.078,0,0,1,245.433,155H437.572A31.074,31.074,0,0,1,469,185.968V371H214ZM207,385H469v44H432.652a46.967,46.967,0,0,0-12.484-26.457c-.039-.042-.067,0-.107-.042-.067-.071-.133-.1-.2-.174a47.81,47.81,0,0,0-69.286.019c-.076.077-.151.162-.227.243-.03.031-.058-.079-.087-.049A46.983,46.983,0,0,0,337.774,429H192V385ZM83,252V236.285C83,223.155,97.742,212,114.777,212H200V371h-8V259.1a7.166,7.166,0,0,0-7.092-7.1Zm16.822,14H178v32H100.367a7.3,7.3,0,0,0-6.793,5.634L83.366,345H76.414ZM43,398.817C43,381.319,58.24,359,74.428,359H178v70H165.574c-2.98-23-23.108-41.791-47.434-41.791S73.684,406,70.7,429H43Z"/><path d="M156.028,92.86a6.877,6.877,0,0,0-4.711,1.8,7,7,0,0,0-1.585,8.32,51.209,51.209,0,0,0,45.974,28.659A52.186,52.186,0,0,0,241.83,103H390.17a52.186,52.186,0,0,0,46.124,28.641,51.145,51.145,0,0,0,45.937-28.5A7.006,7.006,0,0,0,475.969,93H454.3l-8.356-12.584,9.086-13.237L475.972,67H476a6.668,6.668,0,0,0,6.273-9.774,51.335,51.335,0,0,0-92.1.774H241.83a51.3,51.3,0,0,0-92.061-.643,6.546,6.546,0,0,0,.308,6.567A6.785,6.785,0,0,0,156.031,67H177.7l8.356,12.746-9.086,13.086ZM180.6,107a7.027,7.027,0,0,0,5.735-3.015l13.924-19.916a7.011,7.011,0,0,0,.091-7.9L187.272,56.322A7.2,7.2,0,0,0,181.446,53H169.665c6.843-6,16.091-10.352,26.041-10.352a37.736,37.736,0,0,1,34.967,24.528A7.26,7.26,0,0,0,237.23,72H394.77a7.164,7.164,0,0,0,6.557-4.725,37.565,37.565,0,0,1,34.967-24.341,36.907,36.907,0,0,1,26.064,10.337L451.42,53H451.4a7.19,7.19,0,0,0-5.743,3.177l-13.924,20a7.078,7.078,0,0,0-.091,7.94l13.082,19.706a7.055,7.055,0,0,0,5.826,3.18h11.781c-6.843,7-16.091,10.514-26.041,10.514a37.351,37.351,0,0,1-34.967-24.109A6.871,6.871,0,0,0,394.77,89H237.23a6.855,6.855,0,0,0-6.557,4.387,37.381,37.381,0,0,1-61.031,13.589L180.58,107Z"/></svg>
