<?xml version="1.0"?>
<svg xmlns="http://www.w3.org/2000/svg" id="Layer_1" data-name="Layer 1" viewBox="0 0 512 512" width="512" height="512"><title>Navigation </title><path d="M258.055,250.351c34.419,0,62.421-28.254,62.421-62.984s-28-62.982-62.421-62.982-62.421,28.254-62.421,62.982S223.636,250.351,258.055,250.351Zm0-111.966c26.7,0,48.421,21.973,48.421,48.982s-21.722,48.984-48.421,48.984-48.421-21.974-48.421-48.984S231.355,138.385,258.055,138.385Z"/><path d="M417.443,289.058A7.016,7.016,0,0,0,411.1,285H362.229a139.616,139.616,0,0,0,24.791-41.628,131.512,131.512,0,0,0,8.193-54.948A140.444,140.444,0,0,0,353.69,97.952a136.6,136.6,0,0,0-191.272,0A140.459,140.459,0,0,0,120.9,188.432a131.428,131.428,0,0,0,8.192,54.94A139.607,139.607,0,0,0,153.88,285H100.9a7.016,7.016,0,0,0-6.343,4.058L22.656,443.14A6.925,6.925,0,0,0,29,453H483a6.934,6.934,0,0,0,6.344-9.887ZM406.642,299l34.049,73H279.641l69.634-73ZM142.216,238.512a117.6,117.6,0,0,1-7.352-49.135,126.462,126.462,0,0,1,37.39-81.46,122.6,122.6,0,0,1,171.6,0,126.473,126.473,0,0,1,37.391,81.464,117.61,117.61,0,0,1-7.352,49.138c-5.814,15.675-15.341,30.5-28.318,44.1L343.284,285H343v.189L257.883,374.34,173,285.434V285h-.175l-2.291-2.383C157.557,269.019,148.028,254.186,142.216,238.512ZM236.469,372H165.888l14.228-59.048ZM105.358,299h61.476l1.783,1.886L151.486,372H71.309ZM39.991,439l24.784-53H124.6l-15.852,53Zm83.372,0,15.853-53H249.83l3.161,3.312a7,7,0,0,0,10.128,0l3.16-3.312h62.505l15.853,53Zm235.885,0L343.4,386H447.225l24.784,53Z"/></svg>
