<?xml version="1.0"?>
<svg xmlns="http://www.w3.org/2000/svg" id="Layer_1" data-name="Layer 1" viewBox="0 0 512 512" width="512" height="512"><title>Oil funnel</title><path d="M298.562,374.09A7,7,0,0,0,302,368.064v-138.5L441.584,44.915a6.736,6.736,0,0,0,.683-7.187A6.862,6.862,0,0,0,436,34H76a6.822,6.822,0,0,0-5.584,10.991L210,229.563v95.58a7,7,0,0,0,3.625,6.133l78,42.921a7,7,0,0,0,6.937-.107ZM90.066,48H421.934L393.365,85H118.635Zm199.35,174.752A7.72,7.72,0,0,0,288,227.215V356.223l-64-35.218v-93.79a7.72,7.72,0,0,0-1.416-4.463L129.218,99H382.782Z"/><path d="M262.157,374.928a7,7,0,0,0-12.314,0L223.457,423.7a37.228,37.228,0,0,0,6.38,43.767h0A37,37,0,0,0,288.543,423.7Zm10.107,82.642a23.029,23.029,0,0,1-32.528,0h0a23.142,23.142,0,0,1-3.966-27.206L256,392.971l20.229,37.393A23.144,23.144,0,0,1,272.264,457.57Z"/></svg>
