<?xml version="1.0"?>
<svg xmlns="http://www.w3.org/2000/svg" id="Layer_1" data-name="Layer 1" viewBox="0 0 512 512" width="512" height="512"><title>OilCar</title><path d="M164.219,482H347.781A57.288,57.288,0,0,0,405,424.75V150.788A46.846,46.846,0,0,0,358.031,104H237.624a47.009,47.009,0,0,0-38.149,19.441l-83.64,116.2a46.551,46.551,0,0,0-8.835,27.4V424.75A57.288,57.288,0,0,0,164.219,482ZM391,398H223V242H391ZM121,267.036a32.79,32.79,0,0,1,6.2-19.275l83.647-116.143A32.964,32.964,0,0,1,237.624,118H358.031A32.829,32.829,0,0,1,391,150.788V228H215.9a6.919,6.919,0,0,0-6.9,7V405a6.919,6.919,0,0,0,6.9,7H391v12.75A43.273,43.273,0,0,1,347.781,468H164.219A43.273,43.273,0,0,1,121,424.75Z"/><path d="M260,82h86a11,11,0,0,0,11-11V41a11,11,0,0,0-11-11H260a11,11,0,0,0-11,11V71A11,11,0,0,0,260,82Zm65-38h18V68H325Zm-30,0h16V68H295Zm-32,0h18V68H263Z"/><path d="M259.9,86a7,7,0,0,0,0,14h86a7,7,0,0,0,0-14Z"/><path d="M306.4,377A41.719,41.719,0,0,0,336.1,364.7a42.255,42.255,0,0,0,5.7-52.3L312.3,266.232a7,7,0,0,0-11.8,0L271.014,312.4a42.255,42.255,0,0,0,5.7,52.3A41.717,41.717,0,0,0,306.4,377Zm-23.591-57.06L306.4,283,330,319.94a28.167,28.167,0,0,1-3.8,34.861,27.992,27.992,0,0,1-39.587,0A28.167,28.167,0,0,1,282.813,319.94Z"/></svg>
