<?xml version="1.0"?>
<svg xmlns="http://www.w3.org/2000/svg" id="Layer_1" data-name="Layer 1" viewBox="0 0 512 512" width="512" height="512"><title>Piston </title><path d="M336,232c14.888,0,27-12.612,27-27.5v-100C363,89.612,350.888,78,336,78H176c-14.888,0-27,11.612-27,26.5v100c0,14.888,12.112,27.5,27,27.5h53v80.463a64,64,0,1,0,54,0V232ZM163,104.5c0-7.168,5.832-12.5,13-12.5H336c7.168,0,13,5.332,13,12.5V116H163Zm0,25.5H349v13H163Zm0,27H349v12H163ZM273.543,323.665a50,50,0,1,1-35.086,0A7,7,0,0,0,243,317.11V224.5c0-3.866-3.134-6.5-7-6.5H176c-7.168,0-13-6.332-13-13.5V183H349v21.5c0,7.168-5.832,13.5-13,13.5H276c-3.866,0-7,2.634-7,6.5v92.61A7,7,0,0,0,273.543,323.665Z"/><path d="M227,370a29,29,0,1,0,29-29A29.032,29.032,0,0,0,227,370Zm44,0a15,15,0,1,1-15-15A15.017,15.017,0,0,1,271,370Z"/></svg>
