<?xml version="1.0"?>
<svg xmlns="http://www.w3.org/2000/svg" id="Layer_1" data-name="Layer 1" viewBox="0 0 512 512" width="512" height="512"><title>Repair</title><path d="M28.154,473H67.936a7,7,0,0,0,7-6.983l.2-83.017h53.017A6.87,6.87,0,0,0,135,376V356a6.87,6.87,0,0,0-6.846-7H60V46a7.133,7.133,0,0,0-7.154-7H28.154A7.133,7.133,0,0,0,21,46V466A7.133,7.133,0,0,0,28.154,473ZM35,53H46V349H35Zm0,310h86v6H68.154a7,7,0,0,0-7,6.983L60.952,459H35Z"/><path d="M377,356v20a6.87,6.87,0,0,0,6.846,7h53.017l.2,83.017a7,7,0,0,0,7,6.983h39.782A7.133,7.133,0,0,0,491,466V46a7.133,7.133,0,0,0-7.154-7H459.154A7.133,7.133,0,0,0,452,46V349H383.846A6.87,6.87,0,0,0,377,356ZM466,53h11V349H466ZM391,363h86v96H451.048l-.2-83.017a7,7,0,0,0-7-6.983H391Z"/><path d="M169.221,229.007C172.879,240.205,184.972,249,196.75,249H314.834c11.743,0,23.9-8.733,27.687-19.852l5.273-15.516a7.392,7.392,0,0,0-.936-6.518A7.187,7.187,0,0,0,341.167,204H170.833a7.266,7.266,0,0,0-6.654,9.459ZM331.393,218l-2.126,6.457c-1.84,5.409-8.72,10.543-14.433,10.543H196.75c-5.78,0-12.426-5.028-14.221-10.522L180.482,218Z"/><path d="M98,298.58v25.648A14.8,14.8,0,0,0,112.948,339h24.573A14.41,14.41,0,0,0,152,324.228V301H358v23.228A14.619,14.619,0,0,0,372.731,339h26.323A14.8,14.8,0,0,0,414,324.228V298.58a38.624,38.624,0,0,0,24-35.632V214.479c0-9.833-5.344-21.2-14.3-30.416-4.915-5.056-18.367-15.153-24.1-19.39-1.64-10.217-7.464-45.274-12.224-58.048C379.667,85.914,363.5,73,345.183,73H167.2c-18.678,0-35.828,13.583-42.675,33.73-4.316,12.706-10.282,47.084-12.055,57.6-5.373,4.064-19.611,14.963-24.2,19.628C81.4,190.945,74,203.486,74,214.479v48.469A38.622,38.622,0,0,0,98,298.58Zm40,25.648c0,.532.053.772-.479.772H112.948c-.532,0-.948-.24-.948-.772V301.411s.31-.411.475-.411H138Zm262,0c0,.532-.414.772-.946.772H372.731c-.532,0-.731-.24-.731-.772V301h27.525c.166,0,.475.413.475.411Zm24-105.856V235H368.514a16.815,16.815,0,0,1,2.2-5.408c5-7.231,13.184-10.893,25.008-11.188C400.165,218.291,415.216,218.333,424,218.372ZM137.782,111.234C142.7,96.768,154.521,87,167.2,87H345.183c12.5,0,23.373,9.193,29.078,24.513,3.747,10.055,8.57,37.537,10.766,50.758-19.784,1.89-76.279,6.8-130.492,6.8-53.892,0-108.195-4.859-127.513-6.768C129.315,149.046,134.292,121.507,137.782,111.234ZM88,218.373c8.638-.038,23.788-.085,28.283.029,11.822.3,20,3.959,25.006,11.19a16.376,16.376,0,0,1,2.2,5.408H88ZM88,249h63.414a7,7,0,0,0,7-7c0-1.255-.157-12.49-5.613-20.373-7.622-11.014-19.791-16.806-36.167-17.216-4.224-.107-16.895-.081-25.752-.046a42.623,42.623,0,0,1,7.37-10.575c3.493-3.55,15.813-13.075,22.358-18.036,12.936,1.35,73.658,7.329,133.925,7.329,59.984,0,122.7-5.923,136.531-7.307,6.492,4.8,18.741,14.079,22.6,18.048a42.712,42.712,0,0,1,7.59,10.54c-8.954-.034-21.682-.06-25.888.046-16.377.409-28.546,6.2-36.168,17.214-5.456,7.884-5.613,19.121-5.613,20.376a7,7,0,0,0,7,7H424v13.948A24.144,24.144,0,0,1,399.525,287H112.475A24.144,24.144,0,0,1,88,262.948Z"/><path d="M307.618,255H204.382a7,7,0,0,0,0,14H307.618a7,7,0,0,0,0-14Z"/></svg>
