<?xml version="1.0"?>
<svg xmlns="http://www.w3.org/2000/svg" id="Layer_1" data-name="Layer 1" viewBox="0 0 512 512" width="512" height="512"><title>Screw</title><path d="M408.547,356.693a7,7,0,0,0-2.022-4.316l-56.361-56.361,3.9-9.475a7,7,0,1,0-12.945-5.33l-1.681,4.081-24.673-24.675,3.9-9.474a7,7,0,0,0-12.945-5.331l-1.681,4.081L279.368,225.22l3.9-9.475a7,7,0,1,0-12.946-5.33l-1.68,4.081L243.97,189.821l3.9-9.474a7,7,0,1,0-12.945-5.33l-1.681,4.08-24.674-24.674,3.9-9.475a7,7,0,0,0-12.946-5.33l-1.68,4.081-20-20L190.6,110.95a7,7,0,0,0-9.9-9.9l-17.7,17.7L118.749,163l-17.7,17.7a7,7,0,0,0,9.9,9.9L123.7,177.848l42.562,42.561-3.9,9.475a7,7,0,1,0,12.946,5.33l1.68-4.081,24.674,24.675-3.9,9.474a7,7,0,1,0,12.945,5.33l1.681-4.08,24.673,24.673-3.9,9.475a7,7,0,1,0,12.946,5.33l1.68-4.081L272.455,326.6l-3.9,9.474a7,7,0,1,0,12.945,5.33l1.681-4.08L307.854,362l-3.9,9.475a7,7,0,1,0,12.945,5.33l1.681-4.081,33.8,33.8a7,7,0,0,0,4.316,2.022l48.673,4.425c.212.018.424.028.634.028a7,7,0,0,0,6.972-7.634ZM172.035,206.384,133.6,167.948,167.947,133.6l24.125,24.125Zm35.4,35.4L182.76,217.108l20.037-48.66,24.674,24.674Zm35.4,35.4-24.674-24.673L238.2,203.846l24.674,24.674Zm35.4,35.4L253.556,287.9l20.037-48.661,24.674,24.674Zm35.4,35.4L288.954,323.3l20.037-48.661,24.674,24.674Zm46.856,46.856L324.353,358.7l20.037-48.66,50.443,50.443,3.436,37.785Z"/></svg>
