<?xml version="1.0"?>
<svg xmlns="http://www.w3.org/2000/svg" id="Layer_1" data-name="Layer 1" viewBox="0 0 512 512" width="512" height="512"><title>Search car</title><path d="M388.783,348.535a7,7,0,0,0-9.9,0l-10.224,10.224-24.542-24.542A187.705,187.705,0,0,0,73.8,73.8,187.705,187.705,0,0,0,334.217,344.117l24.542,24.542-10.224,10.224a7,7,0,0,0,0,9.9l96.777,96.778a26.033,26.033,0,0,0,36.77,0l3.479-3.479a26.033,26.033,0,0,0,0-36.77Zm-59.416-19.167A173.71,173.71,0,1,1,83.7,83.7a173.707,173.707,0,0,1,245.663,0h0a173.707,173.707,0,0,1,0,245.664ZM475.66,472.182l-3.478,3.478a12.011,12.011,0,0,1-16.97,0l-91.827-91.827,20.448-20.448,91.827,91.826A12.014,12.014,0,0,1,475.66,472.182Z"/><path d="M104.792,207h-.148a20,20,0,0,0,.146,40h.148A20.108,20.108,0,0,0,125,226.929v-.018A20.172,20.172,0,0,0,104.792,207Zm.044,26h-.045a6,6,0,1,1-.046-12h.045a6,6,0,1,1,.046,12Z"/><path d="M309.038,206h-.148A19.742,19.742,0,0,0,289,225.924,20.2,20.2,0,0,0,309.03,246h.154a19.878,19.878,0,0,0,14.128-6.109,19.658,19.658,0,0,0,5.766-14.1A19.972,19.972,0,0,0,309.038,206Zm.024,25.741A5.949,5.949,0,0,1,304.786,230a5.79,5.79,0,0,1,4.2-10h.046A5.681,5.681,0,0,1,315,225.7a5.951,5.951,0,0,1-5.937,6.037Z"/><path d="M363.525,173.649a48.447,48.447,0,0,0-2.453-11.947c-3.051-8.936-12.305-14.7-23.616-14.7h-.248c-5.729,0-15.634.1-21.217.125l-9.637-17.563C298.829,116.3,287.838,101,269.4,101h-.247l-125.269,1.042c-15.073.11-28.283,10.5-37.214,29.142l-9.763,17.632c-5.6.03-15.672.1-21.449.144-11.423.085-20.7,5.991-23.646,15.037a48.371,48.371,0,0,0-2.275,11.964,6.718,6.718,0,0,0,1.966,5.031A6.883,6.883,0,0,0,56.536,183H56.6l9.729.041a33.567,33.567,0,0,0-7.519,21.835,7.492,7.492,0,0,0,.062.91l7.765,57.929a19.616,19.616,0,0,0,14.387,18.241l.123,16.681A13.438,13.438,0,0,0,94.43,312h.1l19.106-.223a13.342,13.342,0,0,0,13.194-13.431l-.117-15.942,161.21-1.2.118,15.915a12.847,12.847,0,0,0,3.964,9.214A13.059,13.059,0,0,0,301.334,310h.1l19.1.015a13.162,13.162,0,0,0,13.195-13.235l-.123-16.752A19.662,19.662,0,0,0,347.4,261.682l7.234-58.006a7.237,7.237,0,0,0,.054-.918,32.919,32.919,0,0,0-8.164-21.641l10.067-.078a7,7,0,0,0,6.935-7.39Zm-244.5-35.8c.071-.127.137-.257.2-.388,3.765-7.915,11.992-21.324,24.771-21.418L269.262,115h.134c8.872,0,16.291,6.518,24.742,21.411l19.243,34.915-16.317.253A33.02,33.02,0,0,0,264.6,145h-.246a32.932,32.932,0,0,0-32.308,27.087l-132.5.925Zm163.591,33.867-36.118.215A18.972,18.972,0,0,1,264.461,159h.143A19.015,19.015,0,0,1,282.612,171.715ZM64.87,169.178q.123-.42.262-.845c1.014-3.117,5.3-5.32,10.434-5.358,3.57-.027,8.778-.058,13.557-.086L85.735,169ZM95.138,297.83l-.112-15.213,17.69-.131.112,15.214Zm206.9-1.524-.112-15.214,17.69-.13.113,15.214Zm31.418-35.95a7.061,7.061,0,0,0-.054.919,5.541,5.541,0,0,1-1.617,3.95,5.71,5.71,0,0,1-3.926,1.835L86.249,269h-.041a5.73,5.73,0,0,1-5.584-5.7,9.716,9.716,0,0,0-.062-1.037l-7.755-57.837c.1-10.443,7.036-16.9,14.066-17.446a6.936,6.936,0,0,0,.737.024h.052l237.383-1.725c.035,0,.07.017.106.017.053,0,.106,0,.161.006,9.262,0,15.115,8.795,15.367,17.136ZM327.1,167.261l-3.395-6.169c4.784-.02,10.015-.092,13.608-.092h.134c5.071,0,9.327,2.152,10.378,5.228.1.287.191.583.279.865Z"/><path d="M244.064,248h-.052l-73.877.478A6.764,6.764,0,1,0,170.186,262h.052l73.877-.339A6.832,6.832,0,1,0,244.064,248Z"/><path d="M173.6,235h.052a7.144,7.144,0,0,0,6.949-7.237l-.089-12.11a7,7,0,1,0-14,.034l.089,12.191A7.15,7.15,0,0,0,173.6,235Z"/><path d="M151.247,209h-.053a6.886,6.886,0,0,0-6.948,6.939l.089,12.066a7.039,7.039,0,0,0,7,7h.053a7.072,7.072,0,0,0,6.948-7.155l-.089-11.958A6.948,6.948,0,0,0,151.247,209Z"/><path d="M262.551,208H262.5a6.963,6.963,0,0,0-6.948,7.03l.089,12.02a7,7,0,0,0,7,6.95h.052a6.993,6.993,0,0,0,6.949-7.064l-.089-12A6.987,6.987,0,0,0,262.551,208Z"/><path d="M195.855,234h.053a6.786,6.786,0,0,0,6.948-6.819l-.088-12.125a7.094,7.094,0,0,0-7-7.056h-.053a7.177,7.177,0,0,0-6.948,7.276l.088,11.9A6.9,6.9,0,0,0,195.855,234Z"/><path d="M218.116,234h.053a6.853,6.853,0,0,0,6.948-6.9l-.089-12.085a7.057,7.057,0,0,0-7-7.015h-.052a7.106,7.106,0,0,0-6.949,7.194l.089,11.938A6.932,6.932,0,0,0,218.116,234Z"/><path d="M240.377,234h.053a6.923,6.923,0,0,0,6.948-6.982l-.089-12.044a7.021,7.021,0,0,0-7-6.974h-.053a7.034,7.034,0,0,0-6.948,7.112l.089,11.979A6.966,6.966,0,0,0,240.377,234Z"/></svg>
