<?xml version="1.0"?>
<svg xmlns="http://www.w3.org/2000/svg" id="Layer_1" data-name="Layer 1" viewBox="0 0 512 512" width="512" height="512"><title>Search service station</title><path d="M89.607,203h-.2a26.664,26.664,0,0,0-26.694,26.89,27.2,27.2,0,0,0,8.017,19.166A26.912,26.912,0,0,0,89.6,257h.2c14.829-1,26.8-12.369,26.7-27.2A27.016,27.016,0,0,0,89.607,203Zm.092,39.518a12.891,12.891,0,0,1-12.987-12.8A12.665,12.665,0,0,1,89.51,217h.1a12.759,12.759,0,1,1,.093,25.518Z"/><path d="M467.045,193.3a7.046,7.046,0,0,0,.054-.918,46.835,46.835,0,0,0-11.561-30.773,42.08,42.08,0,0,0-6.375-5.87l24.487-.189a7,7,0,0,0,6.936-7.389,71.146,71.146,0,0,0-3.549-17.232C472.9,118.811,460.147,111,444.493,111h-.35c-9.49,0-26.687.161-34.555.188L393.855,82.616C382.87,63.257,366.913,41,340.688,41h-.343L149.269,42.5c-21.536.158-40.538,15.248-53.522,42.416l-15.989,28.85c-7.849.042-25.248.148-34.86.219C29.085,114.1,16.29,122.1,12.3,134.37a71.089,71.089,0,0,0-3.295,17.259A7.072,7.072,0,0,0,16,159h.061l24.1-.249a41.258,41.258,0,0,0-6.17,5.96,47.49,47.49,0,0,0-10.846,30.95,6.9,6.9,0,0,0,.062.873l11.869,88.524A26.237,26.237,0,0,0,57,310.232l.209,28.347A16.555,16.555,0,0,0,73.806,355h.126l29.142-.188a16.607,16.607,0,0,0,16.475-16.707l-.206-27.956,84.086-.616q-.418,5.615-.427,11.291c0,82.71,67.289,150,150,150s150-67.288,150-150a148.918,148.918,0,0,0-39.244-101.154Zm-22.8-68.3h.237c9.428,0,17.169,4.2,19.306,10.451a56.228,56.228,0,0,1,1.7,6.146l-38.952.307L417.3,125.157C425.884,125.124,437.189,125,444.246,125ZM108.094,91.559c.071-.127.137-.257.2-.388,6.113-12.85,19.58-34.517,41.078-34.675L340.448,55h.241c15.025,0,27.3,10.41,40.951,34.466l32.337,58.619-34.212.274A46.451,46.451,0,0,0,333.379,108h-.355a46.445,46.445,0,0,0-46.134,41.161L75.334,150.672Zm257.527,56.926-64.587.476A32.494,32.494,0,0,1,333.128,122h.249a32.393,32.393,0,0,1,23.008,9.241A32.008,32.008,0,0,1,365.621,148.485ZM24.01,144.849a55.973,55.973,0,0,1,1.6-6.144c2.061-6.338,9.851-10.643,19.386-10.713,7.074-.052,18.372-.118,26.969-.165l-9.255,16.686Zm78.961,195.989-29.143.215a2.451,2.451,0,0,1-1.842-.748,2.591,2.591,0,0,1-.774-1.83l-.206-27.963,34.337-.253.206,27.963A2.6,2.6,0,0,1,102.971,340.838Zm102.161-45.116L61.35,297h-.091a12.623,12.623,0,0,1-12.194-12.418,7.839,7.839,0,0,0-.062-.931l-11.862-88.5a33.97,33.97,0,0,1,7.569-21.445,24.466,24.466,0,0,1,17.553-8.948A7.255,7.255,0,0,0,63.4,165h.052l362.161-2.812c.057,0,.112-.064.168-.064a25.2,25.2,0,0,1,19.278,8.8,33.207,33.207,0,0,1,8.036,21.137l-1.917,15.361a150.034,150.034,0,0,0-185.09-8.859,150.7,150.7,0,0,0-30.595,29.012l-.117-15.773a6.877,6.877,0,0,0-7-6.8h-.053a6.859,6.859,0,0,0-6.948,6.905l.135,18.24a6.921,6.921,0,0,0,7,6.855h.05a149.481,149.481,0,0,0-16.519,32.416A151.21,151.21,0,0,0,205.132,295.722ZM489,320.826c0,74.99-61.009,136-136,136s-136-61.009-136-136a136,136,0,0,1,272,0Z"/><path d="M194.42,205h-.053a6.964,6.964,0,0,0-6.948,7.031l.136,18.176a6.868,6.868,0,0,0,7,6.793h.052a6.86,6.86,0,0,0,6.949-6.907l-.136-18.238A6.92,6.92,0,0,0,194.42,205Z"/><path d="M160.466,205h-.053a7.073,7.073,0,0,0-6.948,7.156l.135,18.614a7.247,7.247,0,0,0,7,7.23h.052a7.184,7.184,0,0,0,6.949-7.282l-.135-18.551A7.191,7.191,0,0,0,160.466,205Z"/><path d="M410.633,363.791a92.92,92.92,0,1,0-9.9,9.9l34.4,34.4a7,7,0,1,0,9.9-9.9ZM340.281,382.14a78.8,78.8,0,1,1,78.8-78.8A78.889,78.889,0,0,1,340.281,382.14Z"/></svg>
