<?xml version="1.0"?>
<svg xmlns="http://www.w3.org/2000/svg" id="Layer_1" data-name="Layer 1" viewBox="0 0 512 512" width="512" height="512"><title>Service Application</title><path d="M89.175,382H249v72H173.374a7,7,0,0,0,0,14H343.41a7,7,0,1,0,0-14H263V382H422.825C448.741,382,470,361.155,470,335.239V91a47.206,47.206,0,0,0-47.175-47H89.175A47.206,47.206,0,0,0,42,91V335.239C42,361.155,63.259,382,89.175,382ZM56,91A33.19,33.19,0,0,1,89.175,58h333.65A33.19,33.19,0,0,1,456,91V293H56Zm0,216H456v28.239A32.984,32.984,0,0,1,422.825,368H89.175A32.984,32.984,0,0,1,56,335.239Z"/><path d="M134.182,105.667a55.182,55.182,0,1,0,55.182,55.182A54.883,54.883,0,0,0,134.182,105.667Zm0,96.364a41.182,41.182,0,1,1,0-82.364,41.182,41.182,0,1,1,0,82.364Z"/><path d="M149.012,144.464l-21.629,17.6-7.125-8.344a7,7,0,1,0-10.647,9.092l11.564,13.541a7,7,0,0,0,9.741.884l26.931-21.91a7,7,0,0,0-8.835-10.86Z"/><path d="M171,228H86a7,7,0,0,0,0,14h85a7,7,0,0,0,0-14Z"/><path d="M142,258H86a7,7,0,0,0,0,14h56a7,7,0,0,0,0-14Z"/><path d="M424.107,180H422.2l-11.066-36.715A26.929,26.929,0,0,0,385.288,124H272.926a26.927,26.927,0,0,0-25.845,19.285L236.015,180h-1.908A17.311,17.311,0,0,0,217,197.233V233.34A16.824,16.824,0,0,0,234.107,250H242v13.984A11.889,11.889,0,0,0,254.223,276H270.6c6.879,0,12.4-5.135,12.4-12.016V250h92v13.984c0,6.881,5.738,12.016,12.617,12.016h16.375A11.711,11.711,0,0,0,416,263.984V250h8.107A16.64,16.64,0,0,0,441,233.34V197.233A17.129,17.129,0,0,0,424.107,180ZM260.482,147.335A13.011,13.011,0,0,1,272.926,138H385.288a13.011,13.011,0,0,1,12.444,9.335L407.575,180h-57.2l15.606-11.328a6.931,6.931,0,0,0,1.5-9.727,7.017,7.017,0,0,0-9.784-1.593L326.7,180H250.64ZM269,262H256V250h13Zm133,0H389V250h13Zm25-28.66a2.64,2.64,0,0,1-2.893,2.66h-190A2.827,2.827,0,0,1,231,233.34V197.233A3.3,3.3,0,0,1,234.107,194h190A3.123,3.123,0,0,1,427,197.233Z"/><path d="M276.666,209h-10.95a7,7,0,0,0,0,14h10.95a7,7,0,0,0,0-14Z"/><path d="M397.973,209h-10.95a7,7,0,0,0,0,14h10.95a7,7,0,0,0,0-14Z"/><path d="M314.325,107h29.564a7,7,0,0,0,0-14H314.325a7,7,0,0,0,0,14Z"/></svg>
