<?xml version="1.0"?>
<svg xmlns="http://www.w3.org/2000/svg" id="Layer_1" data-name="Layer 1" viewBox="0 0 512 512" width="512" height="512"><title>Service bill</title><path d="M342.95,137.05l-112-112A7,7,0,0,0,226,23H86A35.04,35.04,0,0,0,51,58V394a35.04,35.04,0,0,0,35,35H271.012A98.977,98.977,0,1,0,345,292.466V142A7,7,0,0,0,342.95,137.05ZM233,46.9,321.1,135H254a21.024,21.024,0,0,1-21-21ZM266.2,415H86a21.024,21.024,0,0,1-21-21V58A21.024,21.024,0,0,1,86,37H219v77a35.04,35.04,0,0,0,35,35h77V295.971A99.048,99.048,0,0,0,266.2,415ZM362,305a84.9,84.9,0,1,1-22.181,2.921A85.1,85.1,0,0,1,362,305Z"/><path d="M320,341a7,7,0,0,0,7,7h20.03a23.416,23.416,0,0,1,21.943,16H327a7,7,0,0,0,0,14h41.973c-2.97,10-11.682,16-21.943,16H327a7.208,7.208,0,0,0-4.808,12.372l50.064,47.356a6.983,6.983,0,0,0,9.9-.244,7.223,7.223,0,0,0-.28-10.08L344.6,408h2.43a37.142,37.142,0,0,0,36.361-30H397a7,7,0,0,0,0-14H383.391A38.939,38.939,0,0,0,376,348h21a7,7,0,0,0,0-14H327A7,7,0,0,0,320,341Z"/><path d="M300.02,225.145a7.012,7.012,0,0,0,.02-.917c0-11.855-7.929-21.763-18.387-23.99l-15.726-28.913C260.375,161.37,252.169,150,237.954,150H158.795c-11.478,0-21.521,7.571-28.3,21.426l-16.232,28.735C103.733,202.31,96,212.107,96,224.242a6.86,6.86,0,0,0,.056.871l5.02,40.924c.2,6.5,4.924,12.017,9.924,14.287v10.335c0,6.315,5.457,11.341,11.772,11.341h13.522A11.59,11.59,0,0,0,148,290.659V281H248v9.659A11.59,11.59,0,0,0,259.706,302h13.522c6.315,0,11.772-5.026,11.772-11.341V280.241c5-2.321,9.482-7.78,9.691-14.185Zm-157.228-46.96c.071-.127.139-.259.2-.39,2.5-5.151,7.871-13.795,15.8-13.795h79.159c5.479,0,10.185,4.309,15.7,14.191L265.448,200h-6.467a25.465,25.465,0,0,0-49.3,0H130.548ZM243.843,200H224.819a11.453,11.453,0,0,1,19.024,0ZM134,288h-9v-7h9Zm137,0h-9v-7h9Zm9.6-23.358a3.947,3.947,0,0,0-.061.685A1.742,1.742,0,0,1,278.635,267h-161.5a1.754,1.754,0,0,1-1.906-1.688,5.37,5.37,0,0,0-.056-.77l-5.167-40.7c.152-4.855,3.115-9.615,8.013-9.994.179.014.358.154.541.154H277.094c.029,0,.057-.114.087-.114,5.3,0,8.636,5.083,8.812,10Z"/><path d="M224.743,242H171.258a7,7,0,0,0,0,14h53.485a7,7,0,0,0,0-14Z"/><path d="M134.275,225.37a18.678,18.678,0,1,0,18.678,18.678A18.7,18.7,0,0,0,134.275,225.37Zm0,23.356a4.678,4.678,0,1,1,4.678-4.678A4.683,4.683,0,0,1,134.275,248.726Z"/><path d="M261.726,225.37A18.678,18.678,0,1,0,280.4,244.048,18.7,18.7,0,0,0,261.726,225.37Zm0,23.356a4.678,4.678,0,1,1,4.677-4.678A4.683,4.683,0,0,1,261.726,248.726Z"/><path d="M247,327H103a7,7,0,0,0,0,14H247a7,7,0,0,0,0-14Z"/><path d="M210,361H103a7,7,0,0,0,0,14H210a7,7,0,0,0,0-14Z"/></svg>
