<?xml version="1.0"?>
<svg xmlns="http://www.w3.org/2000/svg" id="Layer_1" data-name="Layer 1" viewBox="0 0 512 512" width="512" height="512"><title>Service call</title><path d="M89.607,203h-.2a26.739,26.739,0,0,0-26.694,26.957A27.192,27.192,0,0,0,89.6,257h.2c14.829-1,26.8-12.369,26.7-27.2A27.017,27.017,0,0,0,89.607,203Zm.092,39.518a12.781,12.781,0,0,1-9.144-3.709,12.5,12.5,0,0,1-3.844-8.955A12.76,12.76,0,0,1,89.509,217h.1a12.759,12.759,0,1,1,.093,25.518Z"/><path d="M467.045,193.3a6.874,6.874,0,0,0,.053-.918,46.829,46.829,0,0,0-11.56-30.773,41.975,41.975,0,0,0-6.382-5.87l24.5-.189a7,7,0,0,0,6.935-7.389,71.065,71.065,0,0,0-3.549-17.208c-4.169-12.2-17.074-19.989-32.894-19.9-9.489.07-26.687.135-34.555.163L393.855,82.628C382.871,63.269,366.913,41,340.687,41h-.342L149.269,42.5c-21.535.158-40.537,15.248-53.522,42.416l-15.989,28.85c-7.849.042-25.248.148-34.86.219-15.814.116-28.609,8.123-32.6,20.389a71.033,71.033,0,0,0-3.295,17.259A7.072,7.072,0,0,0,16,159h.061l24.039-.249c-10.425,8.1-17.072,21.494-16.958,36.92a6.836,6.836,0,0,0,.062.869l11.869,88.521A26.268,26.268,0,0,0,57,310.233l.209,28.346A16.555,16.555,0,0,0,73.805,355h.126l29.143-.188a16.606,16.606,0,0,0,16.474-16.707l-.206-27.956,84.086-.616q-.417,5.616-.426,11.291c0,82.71,67.289,150,150,150s150-67.288,150-150a148.91,148.91,0,0,0-39.244-101.154Zm-22.8-68.3h.237c9.428,0,17.169,4.2,19.306,10.451a56.29,56.29,0,0,1,1.7,6.146l-38.952.307L417.3,125.157C425.884,125.123,437.19,125,444.246,125ZM108.094,91.559c.071-.127.137-.257.2-.388,6.115-12.85,19.582-34.517,41.079-34.675L340.448,55h.242c15.024,0,27.3,10.41,40.949,34.466l32.337,58.619-34.211.274a46.783,46.783,0,0,0-92.871.7l-211.56,1.561Zm257.527,56.926-64.582.668A32.559,32.559,0,0,1,333.127,122h.249a32.394,32.394,0,0,1,23.009,9.241A32.014,32.014,0,0,1,365.621,148.485ZM24.01,144.849a55.878,55.878,0,0,1,1.6-6.145c2.06-6.337,9.851-10.642,19.386-10.712,7.074-.052,18.371-.118,26.968-.165l-9.255,16.686Zm78.961,195.963L73.828,341h-.02a2.584,2.584,0,0,1-1.821-.722,2.547,2.547,0,0,1-.775-1.817l-.206-27.956,34.337-.25.206,27.967A2.579,2.579,0,0,1,102.971,340.812Zm102.161-45.09L61.349,297h-.091a12.623,12.623,0,0,1-12.193-12.418,8.055,8.055,0,0,0-.061-.931l-11.863-88.5c.055-18.37,12.535-29.545,25.116-30.385A7.178,7.178,0,0,0,63.4,165h.052l362.121-2.838c.052,0,.1-.162.155-.162h.24a25.32,25.32,0,0,1,19.09,8.862,33.289,33.289,0,0,1,8.037,21.169l-1.917,15.375a150.037,150.037,0,0,0-185.09-8.846,150.7,150.7,0,0,0-30.595,29.013l-.117-15.918a7,7,0,0,0-14,.1l.135,18.313a6.983,6.983,0,0,0,7,6.928h.049a149.478,149.478,0,0,0-16.518,32.416A151.21,151.21,0,0,0,205.132,295.722ZM489,320.826c0,74.99-61.009,136-136,136s-136-61.009-136-136a136,136,0,0,1,272,0Z"/><path d="M194.368,204.958a7,7,0,0,0-6.949,7.052l.136,18.187a6.876,6.876,0,0,0,7,6.8h.053a6.859,6.859,0,0,0,6.948-6.907l-.135-18.259A6.961,6.961,0,0,0,194.368,204.958Z"/><path d="M160.413,205.208a7,7,0,0,0-6.948,7.052l.135,18.562a7.2,7.2,0,0,0,7,7.178h.052a7.183,7.183,0,0,0,6.948-7.282l-.135-18.447A7.1,7.1,0,0,0,160.413,205.208Z"/><path d="M431.51,314H430V287.538a77,77,0,1,0-154,0V314h-1.508A23.345,23.345,0,0,0,251,337.56v22.431C251,373.127,261.355,384,274.492,384h19.627A7.06,7.06,0,0,0,301,376.814V320.736A6.678,6.678,0,0,0,294.119,314H290V287.538a63,63,0,1,1,126,0V314h-4.117A6.68,6.68,0,0,0,405,320.736v56.078A7.062,7.062,0,0,0,411.883,384H416v7.381c0,7.326-5.862,13.619-13.189,13.619h-9.747a18.36,18.36,0,0,0-17.736-13H358.772A18.91,18.91,0,0,0,340,410.967v1.4A18.623,18.623,0,0,0,358.772,431h16.556a18.8,18.8,0,0,0,17.737-12h9.746C417.858,419,430,406.427,430,391.381V384h1.51c13.136,0,23.49-10.873,23.49-24.009V337.56A23.344,23.344,0,0,0,431.51,314ZM287,370H274.492A9.717,9.717,0,0,1,265,359.991V337.56a9.333,9.333,0,0,1,9.492-9.56H287Zm93,42.158A4.842,4.842,0,0,1,375.158,417H358.842A4.842,4.842,0,0,1,354,412.158v-1.316A4.842,4.842,0,0,1,358.842,406h16.316A4.842,4.842,0,0,1,380,410.842Zm61-52.167A9.716,9.716,0,0,1,431.51,370H419V328h12.51a9.332,9.332,0,0,1,9.49,9.56Z"/></svg>
