<?xml version="1.0"?>
<svg xmlns="http://www.w3.org/2000/svg" id="Layer_1" data-name="Layer 1" viewBox="0 0 512 512" width="512" height="512"><title>Service Checklist </title><path d="M332.487,319.24A60.017,60.017,0,1,0,392.5,259.223,60.085,60.085,0,0,0,332.487,319.24Zm106.034,0A46.017,46.017,0,1,1,392.5,273.223,46.069,46.069,0,0,1,438.521,319.24Z"/><path d="M370.468,312.744a7,7,0,0,0-9.9,9.9l19.983,19.982a7,7,0,0,0,9.785.113l35.228-33.649a7,7,0,0,0-9.67-10.124L385.614,327.89Z"/><path d="M85.89,209.581A23.21,23.21,0,0,0,86.055,256h.177a23.21,23.21,0,1,0-.342-46.419Zm6.748,29.713a9.171,9.171,0,0,1-6.509,2.752,8.95,8.95,0,0,1-6.549-2.655,9.174,9.174,0,0,1-2.752-6.51,8.7,8.7,0,0,1,2.656-6.339A8.908,8.908,0,0,1,85.993,224h.07a8.94,8.94,0,0,1,6.575,15.294Z"/><path d="M26,176h.061l16.18.063a37.476,37.476,0,0,0-2.548,2.835A40.2,40.2,0,0,0,30.54,205.05a7.187,7.187,0,0,0,.062.9l9.676,72.182a22.709,22.709,0,0,0,17.9,21.514l.163,21.851A14.658,14.658,0,0,0,73.17,336h.111l23.781.05a14.64,14.64,0,0,0,14.721-14.771l-.162-21.5L292,298.476v105.21A30.393,30.393,0,0,0,322.571,434H462.437A30.386,30.386,0,0,0,493,403.686V234.794A30.8,30.8,0,0,0,462.437,204h-25.67a25.432,25.432,0,0,0-24.228-18H391.621a34.356,34.356,0,0,0-8.677-12.041l16.508-.216a7.073,7.073,0,0,0,6.935-7.455,59.045,59.045,0,0,0-2.963-14.281C399.866,141.59,388.983,135,375.648,135h-.294c-7.5,0-20.729-.009-27.428.015l-12.477-22.656c-9.176-16.171-22.6-34.748-44.794-34.578L134.738,78.916c-18.083.133-33.99,12.65-44.81,35.265L77.265,137.008c-6.709.036-20.144.108-27.694.164-13.467.1-24.385,6.976-27.814,17.521a59.389,59.389,0,0,0-2.751,14.428,6.545,6.545,0,0,0,1.965,4.952A6.818,6.818,0,0,0,26,176ZM97.544,322.028a.807.807,0,0,1-.586.248l-23.78.175a.846.846,0,0,1-.838-.825l-.158-21.53,25.443-.187.159,21.529A.809.809,0,0,1,97.544,322.028ZM292,234.794v49.682L63,286h-.065a8.6,8.6,0,0,1-8.662-8.517,6.346,6.346,0,0,0-.061-.838L44.54,204.561a26.332,26.332,0,0,1,5.874-16.568,18.818,18.818,0,0,1,13.243-7.012,6.923,6.923,0,0,0,1.02.019h.051l295.525-2.111c.045,0,.089.218.135.218A18.767,18.767,0,0,1,375.053,186h-2.584a25.432,25.432,0,0,0-24.228,18h-25.67A30.8,30.8,0,0,0,292,234.794Zm-31.838-69.1a25.464,25.464,0,0,1,49.532-.365ZM436.48,218h25.957A16.781,16.781,0,0,1,479,234.794V403.686A16.371,16.371,0,0,1,462.437,420H322.571A16.378,16.378,0,0,1,306,403.686V234.794A16.788,16.788,0,0,1,322.571,218h25.957c3.2,10,12.719,18,23.941,18h40.07C423.761,236,433.284,228,436.48,218Zm-23.941-18a11,11,0,1,1,0,22h-40.07a11,11,0,1,1,0-22Zm-37.082-51h.185c7.141,0,12.969,2.94,14.534,7.521.389,1.14.712,2.2.98,3.255l-29.4.2L355.639,149C362.277,148.974,370.25,149,375.457,149ZM102.275,120.777c.07-.127.137-.256.2-.387,4.86-10.213,15.527-27.241,32.367-27.365L290.758,92h.186c11.736,0,21.416,8.1,32.289,27.263L348.574,165.1l-24.621.167A39.546,39.546,0,0,0,284.976,132h-.3a39.389,39.389,0,0,0-38.776,33.815L76.613,167.054ZM35.07,159.022c1.51-4.644,7.379-7.8,14.6-7.852,5.185-.038,13.151-.085,19.8-.123l-6.121,11.036-29.214.252C34.394,161.279,34.7,160.163,35.07,159.022Z"/><path d="M259.357,260.257l-91.952.678A7.033,7.033,0,0,0,167.456,275h.052l91.952-.71a7.017,7.017,0,0,0-.1-14.033Z"/><path d="M171.7,240h.053a6.832,6.832,0,0,0,6.948-6.873l-.111-14.87a6.929,6.929,0,0,0-7.051-6.9,7.019,7.019,0,0,0-6.948,7.074l.11,14.792A6.86,6.86,0,0,0,171.7,240Z"/><path d="M143.831,211.6a7,7,0,0,0-6.948,7.052l.11,15.178a7.191,7.191,0,0,0,7,7.168h.052a7.174,7.174,0,0,0,6.949-7.271l-.11-15.069A7.114,7.114,0,0,0,143.831,211.6Z"/><path d="M282.418,211h-.053a6.806,6.806,0,0,0-6.948,6.843l.111,15.084a7.108,7.108,0,0,0,7,7.073h.052a7.182,7.182,0,0,0,6.948-7.281l-.11-14.865A6.92,6.92,0,0,0,282.418,211Z"/><path d="M199.406,240h.052a6.916,6.916,0,0,0,6.948-6.975L206.3,218.1a7,7,0,0,0-14,.132l.11,14.887A6.939,6.939,0,0,0,199.406,240Z"/><path d="M227.113,240h.053a7,7,0,0,0,6.948-7.077L234,217.956A7.007,7.007,0,0,0,227,211h-.052A6.977,6.977,0,0,0,220,218.047l.11,14.982A7.019,7.019,0,0,0,227.113,240Z"/><path d="M254.82,240h.052a7.092,7.092,0,0,0,6.948-7.179l-.11-14.916a6.963,6.963,0,0,0-7-6.905h-.052a6.89,6.89,0,0,0-6.948,6.945l.11,15.033A7.063,7.063,0,0,0,254.82,240Z"/></svg>
