<?xml version="1.0"?>
<svg xmlns="http://www.w3.org/2000/svg" id="Layer_1" data-name="Layer 1" viewBox="0 0 512 512" width="512" height="512"><title>Service Location 2</title><path d="M379.142,91.705a175.893,175.893,0,0,0-246.284,0A180.911,180.911,0,0,0,79.374,208.248a169.284,169.284,0,0,0,10.549,70.737c8.345,22.5,21.923,43.7,40.358,63.015L250.936,468.425a7,7,0,0,0,10.128,0L381.719,342c18.435-19.316,32.013-40.518,40.358-63.015a169.284,169.284,0,0,0,10.549-70.737A180.911,180.911,0,0,0,379.142,91.705ZM408.95,274.116c-7.677,20.7-20.247,40.288-37.358,58.218L256,453.452,140.408,332.334c-17.111-17.93-29.681-37.518-37.358-58.218A155.363,155.363,0,0,1,93.341,209.2a166.936,166.936,0,0,1,49.353-107.53,161.894,161.894,0,0,1,226.612,0A166.936,166.936,0,0,1,418.659,209.2,155.363,155.363,0,0,1,408.95,274.116Z"/><path d="M256,79.814c-69.31,0-125.7,56.928-125.7,126.9s56.387,126.9,125.7,126.9,125.7-56.928,125.7-126.9S325.31,79.814,256,79.814Zm0,239.8c-61.59,0-111.7-50.647-111.7-112.9S194.41,93.814,256,93.814s111.7,50.648,111.7,112.9S317.59,319.617,256,319.617Z"/><path d="M293.852,134H218.858c-11.017,0-20.648,7.4-27.136,20.656L176.434,181.8C166.37,183.939,159,193.372,159,204.987a7.2,7.2,0,0,0,.056.893l5.149,38.762A14.881,14.881,0,0,0,174,258.417v9.532A10.682,10.682,0,0,0,184.731,279h12.811A11.3,11.3,0,0,0,209,267.949V260h94v7.949A11.3,11.3,0,0,0,314.458,279h12.811A10.682,10.682,0,0,0,338,267.949v-9.634a14.657,14.657,0,0,0,9.576-13.644l5.241-38.739a7.154,7.154,0,0,0,.122-.917c0-11.346-7.5-20.9-17.5-23.109l-14.779-27.351C315.355,145.035,307.511,134,293.852,134Zm-89.833,27.229c.071-.127.138-.249.2-.378,2.328-4.8,7.327-12.851,14.637-12.851h74.994c5.038,0,9.4,3.842,14.545,13.067L319.279,181h-5.228a24.488,24.488,0,0,0-47.264,0H192.729ZM298.7,181H282.141c1.921-2,4.913-4.07,8.278-4.07S296.776,179,298.7,181ZM195,265h-7v-5h7Zm129,0h-7v-5h7Zm7.013-69.762c4.79,0,7.807,4.786,7.979,9.257l-5.1,38.731a10.581,10.581,0,0,0-.061,1.127A1.654,1.654,0,0,1,332.391,246h-153a1.654,1.654,0,0,1-1.438-1.647,8.5,8.5,0,0,0-.056-.984l-4.89-38.692c.148-4.411,2.819-9.093,7.227-9.45.169.012.336-.227.507-.227H330.936C330.961,195,330.986,195.238,331.013,195.238Z"/><path d="M230.665,235h50.67a7,7,0,0,0,0-14h-50.67a7,7,0,1,0,0,14Z"/><path d="M195.63,241.854a18.063,18.063,0,1,0-18.064-18.063A18.083,18.083,0,0,0,195.63,241.854Zm0-22.126a4.063,4.063,0,1,1-4.064,4.063A4.067,4.067,0,0,1,195.63,219.728Z"/><path d="M316.371,241.854a18.063,18.063,0,1,0-18.063-18.063A18.084,18.084,0,0,0,316.371,241.854Zm0-22.126a4.063,4.063,0,1,1-4.063,4.063A4.069,4.069,0,0,1,316.371,219.728Z"/></svg>
