<?xml version="1.0"?>
<svg xmlns="http://www.w3.org/2000/svg" id="Layer_1" data-name="Layer 1" viewBox="0 0 512 512" width="512" height="512"><title>Service monitoring </title><path d="M422.825,382C448.741,382,470,361.155,470,335.239V91a47.206,47.206,0,0,0-47.175-47H89.175A47.206,47.206,0,0,0,42,91V335.239C42,361.155,63.259,382,89.175,382H249v72H173.373a7,7,0,0,0,0,14H343.41a7,7,0,1,0,0-14H263V382ZM56,91A33.19,33.19,0,0,1,89.175,58h333.65A33.19,33.19,0,0,1,456,91V293H56ZM89.175,368A32.983,32.983,0,0,1,56,335.239V307H456v28.239A32.983,32.983,0,0,1,422.825,368Z"/><path d="M284.8,150.711l-16.628-30.519C262.379,109.8,253.828,98,239.057,98H145.732c-11.936,0-22.393,7.833-29.464,22.291L99.093,150.664c-11,2.16-19.093,12.346-19.093,25a6.709,6.709,0,0,0,.024.863l5.425,43.082A16.4,16.4,0,0,0,96,234.424v11.138A11.6,11.6,0,0,0,107.813,257h14.234c6.444,0,11.953-4.993,11.953-11.438V235H250v10.562c0,6.445,5.509,11.438,11.953,11.438h14.234A11.6,11.6,0,0,0,288,245.562V234.337a16.206,16.206,0,0,0,10.307-14.7l5.664-43.082a7.023,7.023,0,0,0,.045-.917C304.016,163.271,295.724,152.95,284.8,150.711ZM128.565,126.737c.071-.127.139-.069.2-.2,2.667-5.5,8.417-14.538,16.965-14.538h93.325c5.919,0,10.969,4.276,16.847,14.814L268.617,150H260.9c-2.854-11-13.272-20.078-25.657-20.078S212.44,139,209.586,150h-94.22ZM245.911,150H224.575c2.173-3,6.135-6.078,10.668-6.078S243.737,147,245.911,150ZM120,243H110v-8h10Zm154,0H264v-8h10Zm10.313-24.838a3.994,3.994,0,0,0-.06.69A2.22,2.22,0,0,1,281.878,221h-180a2.207,2.207,0,0,1-2.374-2.132,5.2,5.2,0,0,0-.056-.758l-5.442-42.994c.154-5.3,3.41-10.627,8.8-11.029.191.016.382-.087.576-.087H280.271c.026,0,.051.129.077.129,5.814,0,9.467,5.68,9.645,11.034Z"/><path d="M225.15,195h-66.3a7,7,0,0,0,0,14h66.3a7,7,0,0,0,0-14Z"/><path d="M119.922,177.205A19.293,19.293,0,1,0,139.214,196.5,19.314,19.314,0,0,0,119.922,177.205Zm0,24.585a5.293,5.293,0,1,1,5.292-5.293A5.3,5.3,0,0,1,119.922,201.79Z"/><path d="M264.079,177.205A19.293,19.293,0,1,0,283.372,196.5,19.313,19.313,0,0,0,264.079,177.205Zm0,24.585a5.293,5.293,0,1,1,5.293-5.293A5.3,5.3,0,0,1,264.079,201.79Z"/><path d="M425,125H352a7,7,0,0,0,0,14h73a7,7,0,0,0,0-14Z"/><path d="M425,155H352a7,7,0,0,0,0,14h73a7,7,0,0,0,0-14Z"/><path d="M425,185H352a7,7,0,0,0,0,14h73a7,7,0,0,0,0-14Z"/><path d="M425,215H352a7,7,0,0,0,0,14h73a7,7,0,0,0,0-14Z"/></svg>
