<?xml version="1.0"?>
<svg xmlns="http://www.w3.org/2000/svg" id="Layer_1" data-name="Layer 1" viewBox="0 0 512 512" width="512" height="512"><title>Service Station map</title><path d="M123.183,346.774,250.936,480.636a7,7,0,0,0,10.128,0L388.817,346.774c19.481-20.412,33.828-42.813,42.643-66.58a178.8,178.8,0,0,0,11.145-74.727A191.154,191.154,0,0,0,386.1,82.333a185.831,185.831,0,0,0-260.194,0A191.154,191.154,0,0,0,69.4,205.467,178.8,178.8,0,0,0,80.54,280.194C89.355,303.961,103.7,326.362,123.183,346.774ZM83.362,206.416A177.165,177.165,0,0,1,135.739,92.3a171.831,171.831,0,0,1,240.522,0,177.165,177.165,0,0,1,52.377,114.121,164.912,164.912,0,0,1-10.3,68.908c-8.148,21.971-21.487,42.758-39.645,61.783L256,465.664,133.311,337.108c-18.158-19.025-31.5-39.812-39.645-61.782A164.921,164.921,0,0,1,83.362,206.416Z"/><path d="M256,340.778c72.785,0,132-59.215,132-132s-59.215-132-132-132-132,59.215-132,132S183.215,340.778,256,340.778Zm0-250a118,118,0,1,1-118,118A118.134,118.134,0,0,1,256,90.778Z"/><path d="M193.594,216.514,189.4,230.506a7.187,7.187,0,0,0-.4,1.954v45.908A20.817,20.817,0,0,0,209.509,299h10.609C231.29,299,240,289.54,240,278.368V232.46a6.9,6.9,0,0,0-.089-1.955l-3.973-13.991A6.808,6.808,0,0,0,234.626,203H222V126.729a7,7,0,1,0-14,0V203H195a6.813,6.813,0,0,0-1.406,13.514ZM203,233.457,208.132,217h13.362L226,233.457v44.911c0,3.453-2.43,6.632-5.882,6.632H209.509A6.81,6.81,0,0,1,203,278.368Z"/><path d="M260,198.844v79.732a20,20,0,1,0,40,0V198.844c14-7.476,24.121-22.781,24.121-39.5a44.142,44.142,0,0,0-24.594-39.653,7.388,7.388,0,0,0-7.009.31A7.193,7.193,0,0,0,289,125.952v17.64l-9.266,6.283L269.985,143l.1-17.041a6.975,6.975,0,0,0-10.088-6.3,44.307,44.307,0,0,0,0,79.186Zm-3.921-58.51-.022,6.274a7,7,0,0,0,2.987,5.76l16.749,11.718a7,7,0,0,0,7.893.09l16.363-11.009A6.844,6.844,0,0,0,303,147.341v-7c5,5.274,6.831,11.916,6.831,19a30.243,30.243,0,0,1-19.485,28.387A6.819,6.819,0,0,0,286,194.287v84.289a6,6,0,1,1-12,0V194.287a7.163,7.163,0,0,0-4.725-6.558A30.509,30.509,0,0,1,249.5,159.342,30.1,30.1,0,0,1,256.079,140.334Z"/></svg>
