<?xml version="1.0"?>
<svg xmlns="http://www.w3.org/2000/svg" id="Layer_1" data-name="Layer 1" viewBox="0 0 512 512" width="512" height="512"><title>Serviced Car</title><path d="M81.461,200h-.209c-7.443,1-14.421,3.238-19.645,8.54a27.96,27.96,0,0,0-8.016,19.882A27.793,27.793,0,0,0,81.452,256h.211a28,28,0,0,0-.2-56Zm.1,42h-.105a13.7,13.7,0,0,1-13.864-13.616,14.259,14.259,0,0,1,3.989-10.043A13.869,13.869,0,0,1,81.355,214h.1a14,14,0,0,1,.1,28Z"/><path d="M477.037,190.185a7.056,7.056,0,0,0,.054-.918,48.78,48.78,0,0,0-12.04-32.055,43.423,43.423,0,0,0-7.5-6.719l26.757-.207a7,7,0,0,0,6.935-7.389,74.612,74.612,0,0,0-3.7-18.1C483.242,112.224,469.992,104,453.719,104h-.363c-10.037,0-28.294.291-36.45.32l-16.6-29.994C388.829,54.1,372.163,31,344.833,31h-.356L144.046,32.479c-22.453.165-42.278,15.88-55.841,44.26L71.332,107.163c-8.133.043-26.6.144-36.767.219C18.127,107.5,4.832,115.8.7,128.526a74.24,74.24,0,0,0-3.439,18.011,7.206,7.206,0,0,0,1.965,5.244A7.089,7.089,0,0,0,4.25,154h.061l26.327-.317a42.558,42.558,0,0,0-7.256,6.8,49.441,49.441,0,0,0-11.3,32.23,6.82,6.82,0,0,0,.062.868L24.6,286.457a27.212,27.212,0,0,0,23,26.142l.22,30.02a17.469,17.469,0,0,0,5.089,12.251A17.172,17.172,0,0,0,64.885,360h.13l30.57-.446a17.181,17.181,0,0,0,16.94-17.3l-.218-29.73,88.918-.682c-.31,4.041-.475,8.091-.475,12.175,0,86.57,70.43,156.993,157,156.993s157-70.433,157-157a155.872,155.872,0,0,0-41.183-105.992ZM453.46,118h.249c10.036,0,18.289,4.618,20.577,11.317a60.321,60.321,0,0,1,1.881,6.958l-41.484.357-10.064-18.359C433.688,118.238,445.9,118,453.46,118ZM100.553,83.341c.071-.127.137-.257.2-.388,6.449-13.551,20.661-36.308,43.4-36.475L344.58,45h.257c15.9,0,28.861,10.879,43.254,36.238l34.2,61.948-36.766.271a48.733,48.733,0,0,0-96.815.713L65.9,145.812ZM371.4,143.561l-68.563.5A34.5,34.5,0,0,1,336.9,115h.263A34.5,34.5,0,0,1,371.4,143.561ZM12.233,139.754a59.6,59.6,0,0,1,1.777-6.9c2.207-6.788,10.509-11.4,20.659-11.473,7.582-.056,19.789-.126,28.874-.176L53.454,139.4Zm83.248,205.58-30.57.226a2.88,2.88,0,0,1-2.174-.883,3.056,3.056,0,0,1-.915-2.162L61.6,312.84l36.7-.271.218,29.675A3.069,3.069,0,0,1,95.481,345.334Zm107.453-47.507L51.822,298.911a13.19,13.19,0,0,1-13.23-13.036,7,7,0,0,0-.063-.88l-12.446-92.83c.048-19.5,13.327-31.455,26.7-32.328a6.986,6.986,0,0,0,1.184.163h.052l379.844-2.9c.057,0,.114-.1.171-.1h.251a26.927,26.927,0,0,1,20.282,9.439,35.3,35.3,0,0,1,8.516,22.464l-2.094,16.8a157.03,157.03,0,0,0-194.213-9.682,157.736,157.736,0,0,0-32.627,31.13l-.13-17.438a6.805,6.805,0,0,0-7-6.717h-.052a6.789,6.789,0,0,0-6.949,6.821l.142,19.23a7,7,0,0,0,7,6.949h.053a6.722,6.722,0,0,0,.671-.155,155.652,155.652,0,0,0-24.952,61.982ZM500.75,324c0,78.851-64.149,143-143,143s-143-64.149-143-143a143,143,0,1,1,286,0Z"/><path d="M191.405,203h-.052a6.9,6.9,0,0,0-6.949,6.953l.142,19.164a6.944,6.944,0,0,0,7,6.883h.053a6.969,6.969,0,0,0,6.948-7.036l-.142-19.123A6.909,6.909,0,0,0,191.405,203Z"/><path d="M155.788,203h-.053a7.01,7.01,0,0,0-6.948,7.083l.142,19.1a6.889,6.889,0,0,0,7,6.817h.052a6.859,6.859,0,0,0,6.949-6.905l-.142-19.189A6.964,6.964,0,0,0,155.788,203Z"/><path d="M432.686,243.451l-23.74,10.922a97.63,97.63,0,0,0-16.367-9.477L390.2,218.719a6.227,6.227,0,0,0-.158-.908A9.817,9.817,0,0,0,380.6,210H335.429c-5.045,0-9.332,3.841-9.592,8.562l-2.388,26.36A87.721,87.721,0,0,0,307,254.35l-23.856-10.981c-.107-.048-.214-.1-.323-.142-4.457-1.783-9.886.023-12.061,3.95L248.2,286.021a9.968,9.968,0,0,0,2.683,13.1l.144.106,21.428,15.234a62.871,62.871,0,0,0-.009,19.021l-22.453,15.286c-.094.064-.188.131-.28.2A10.011,10.011,0,0,0,247.1,361.9l22.585,38.869.052.089a10.108,10.108,0,0,0,5.284,4.454,8.7,8.7,0,0,0,7.256-.757l23.757-10.929A97.908,97.908,0,0,0,322.4,403.1l2.381,26.18a6.216,6.216,0,0,0,.159.907A9.812,9.812,0,0,0,334.376,438H379.55c5.044,0,9.329-3.839,9.59-8.558l2.393-26.365a87.806,87.806,0,0,0,16.446-9.426l23.852,10.983c.116.053.234.107.354.155,4.43,1.749,9.852-.058,12.023-3.952l22.6-38.9a9.952,9.952,0,0,0-2.667-13.02l-20.052-15.276a63.223,63.223,0,0,0,.013-19.179l21.483-15.274c.053-.038.1-.077.156-.115a10.023,10.023,0,0,0,2.642-13l-23.134-38.908C442.817,243.114,437.745,240.583,432.686,243.451Zm-.165,62.066a7,7,0,0,0-2.874,6.7l.229,1.6a54.971,54.971,0,0,1,0,20.367l-.223,1.544a7,7,0,0,0,2.687,6.567l20.58,15.678-18.78,32.327-24.224-11.146a7.005,7.005,0,0,0-7.357.941l-1.283,1.049A73.274,73.274,0,0,1,383.625,391.3l-1.448.621a6.906,6.906,0,0,0-4.213,5.737L375.57,424h-37.2l-2.4-26.349a6.956,6.956,0,0,0-4.213-5.767l-1.448-.605a85.149,85.149,0,0,1-17.971-10.4l-1.262-.944a7,7,0,0,0-7.129-.759l-24.153,11.112L261.1,358.135l21.453-14.6c.055-.038.112-.077.167-.117l1.357-.983a7,7,0,0,0,2.824-6.655l-.233-1.642a54.672,54.672,0,0,1,.008-20.327l.227-1.6a7,7,0,0,0-2.873-6.692l-21.92-15.585,18.72-32.224,24.229,11.144a7,7,0,0,0,7.355-.941l1.282-1.048a73.3,73.3,0,0,1,17.647-10.155l1.454-.622a6.907,6.907,0,0,0,4.219-5.74L339.407,224h37.205l2.4,26.348a6.953,6.953,0,0,0,4.218,5.77l1.45.6a84.97,84.97,0,0,1,17.968,10.4l1.263.945a6.994,6.994,0,0,0,7.129.759l24.186-11.129,19.182,32.262Z"/><path d="M357.75,261.669c-34.951,0-62.329,27.379-62.329,62.331s27.378,62.333,62.329,62.333,62.333-27.38,62.333-62.333S392.7,261.669,357.75,261.669Zm0,110.664A48.332,48.332,0,1,1,406.083,324,47.816,47.816,0,0,1,357.75,372.333Z"/><path d="M357.751,292.081A31.92,31.92,0,1,0,389.672,324,31.58,31.58,0,0,0,357.751,292.081Zm0,49.84A17.92,17.92,0,1,1,375.672,324,17.729,17.729,0,0,1,357.751,341.921Z"/></svg>
