<?xml version="1.0"?>
<svg xmlns="http://www.w3.org/2000/svg" id="Layer_1" data-name="Layer 1" viewBox="0 0 512 512" width="512" height="512"><title>Sign board</title><path d="M280.745,31.8a28.857,28.857,0,0,0-49.489,0L73.146,295.318A28.84,28.84,0,0,0,97.891,339H227V487.207A6.95,6.95,0,0,0,234.143,494h43.714A6.95,6.95,0,0,0,285,487.207V339H414.109a28.843,28.843,0,0,0,24.745-43.687ZM271,480H241V339h30ZM427.038,317.474A14.678,14.678,0,0,1,414.109,325H97.891A14.844,14.844,0,0,1,85.15,302.516L243.261,39a14.857,14.857,0,0,1,25.479,0l158.11,263.51A14.68,14.68,0,0,1,427.038,317.474Z"/><path d="M240.225,219.172a7.148,7.148,0,0,0-7-7.172H219V130.979a7,7,0,0,0-14,0V212H191a7.135,7.135,0,0,0-.912,14.191l-4.645,15.454a7.522,7.522,0,0,0-.443,2v48.919A21.7,21.7,0,0,0,206.46,314h11.3A21.509,21.509,0,0,0,239,292.562V243.643a7.082,7.082,0,0,0-.33-1.955l-4.507-15.5A7.059,7.059,0,0,0,240.225,219.172ZM225,292.562A7.5,7.5,0,0,1,217.765,300h-11.3a7.7,7.7,0,0,1-7.46-7.438V244.64L204.649,226h14.926L225,244.64Z"/><path d="M302.112,123.889A6.988,6.988,0,0,0,292,130.151v19.042l-10.527,7-10.937-7.648.062-18.4a7.007,7.007,0,0,0-10.123-6.3,46.665,46.665,0,0,0-26.13,41.875c0,17.739,10.655,33.968,25.655,41.811v85.242a21,21,0,0,0,42,0V207.541a46.755,46.755,0,0,0,.112-83.652Zm-9.477,72.521A7.077,7.077,0,0,0,288,202.967v89.816a7,7,0,0,1-14,0V202.967a6.844,6.844,0,0,0-4.375-6.557,32.776,32.776,0,0,1-13.122-52.2l0,7.953a7.012,7.012,0,0,0,3,5.76l17.853,12.486a7,7,0,0,0,7.9.091l17.627-11.732A7.008,7.008,0,0,0,306,152.942v-8.715a32.825,32.825,0,0,1-13.365,52.183Z"/></svg>
