<?xml version="1.0"?>
<svg xmlns="http://www.w3.org/2000/svg" id="Layer_1" data-name="Layer 1" viewBox="0 0 512 512" width="512" height="512"><title>Steering Wheel</title><path d="M256,447c105.318,0,191-85.682,191-191S361.318,65,256,65,65,150.682,65,256,150.682,447,256,447Zm36.012-17.687c1.083-5.772,2.413-11.479,3.986-17.052,14.452-51.217,48.247-90.445,90.4-104.933a109.624,109.624,0,0,1,35.713-5.995c1.651,0,3.306.05,4.961.125A177.593,177.593,0,0,1,292.012,429.313ZM256,79c83.908,0,154.365,58.689,172.481,137.173A239.031,239.031,0,0,0,363.113,167.2a237.457,237.457,0,0,0-214.226,0,239.031,239.031,0,0,0-65.368,48.975C101.635,137.689,172.092,79,256,79ZM79,256q0-6.885.521-13.643a225.108,225.108,0,0,1,75.7-62.675,223.459,223.459,0,0,1,201.554,0,225.108,225.108,0,0,1,75.7,62.675Q433,249.112,433,256a177.309,177.309,0,0,1-2.83,31.606c-2.684-.175-5.377-.273-8.059-.273a123.608,123.608,0,0,0-40.264,6.755c-46.494,15.981-83.624,58.737-99.323,114.371a210.689,210.689,0,0,0-5.139,23.246,176.911,176.911,0,0,1-41.479.148,209.507,209.507,0,0,0-5.414-24.188c-15.612-54.25-52.048-96.438-97.465-112.852a124.707,124.707,0,0,0-42.5-7.48c-2.892,0-5.8.114-8.69.316A177.318,177.318,0,0,1,79,256Zm11.528,45.333a110.739,110.739,0,0,1,37.74,6.647c41.21,14.893,74.4,53.606,88.77,103.557,1.695,5.888,3.114,11.927,4.257,18.038A177.581,177.581,0,0,1,84.936,301.488C86.8,301.393,88.667,301.333,90.528,301.333Z"/><path d="M256,493A237,237,0,0,0,423.584,88.416,237,237,0,1,0,88.416,423.584,235.445,235.445,0,0,0,256,493ZM98.315,98.315a223,223,0,0,1,315.37,315.37A223,223,0,0,1,98.315,98.315Z"/><path d="M256,316.667A60.667,60.667,0,1,0,195.333,256,60.736,60.736,0,0,0,256,316.667Zm0-107.334A46.667,46.667,0,1,1,209.333,256,46.72,46.72,0,0,1,256,209.333Z"/></svg>
