<?xml version="1.0"?>
<svg xmlns="http://www.w3.org/2000/svg" id="Layer_1" data-name="Layer 1" viewBox="0 0 512 512" width="512" height="512"><title>Suspension</title><path d="M198.848,139.17l.3,129.7a7.123,7.123,0,0,0,7,7.126h12.611l.5,97.243a6.8,6.8,0,0,0,1.977,4.762,56.958,56.958,0,1,0,69.652.043c.116-.1.234-.206.344-.317a6.681,6.681,0,0,0,2.027-4.821l-.5-96.91h13.387a7.248,7.248,0,0,0,7-7.23l-.305-130.035a6.712,6.712,0,0,0-2.068-4.826A6.887,6.887,0,0,0,305.847,132h-.031l-12.277-.088a57.077,57.077,0,1,0-74.709.194l-13.013.052A7,7,0,0,0,198.848,139.17ZM213.1,248.217l-.064-27.452,57.611-74.895,21.253-.093ZM299,423.065a43,43,0,1,1-43-43A43.048,43.048,0,0,1,299,423.065ZM232.765,276h46l.462,89.976-46,.272Zm66.371-14H261.924l37.1-48.228Zm-.24-102.135.073,30.872L244.26,262H220.385ZM213,88.968A43,43,0,1,1,256.021,132h-.043A43.07,43.07,0,0,1,213,88.968Zm39.932,56.98-39.942,51.924-.122-51.749Z"/></svg>
