<?xml version="1.0"?>
<svg xmlns="http://www.w3.org/2000/svg" id="Layer_1" data-name="Layer 1" viewBox="0 0 512 512" width="512" height="512"><title>Technician Helmate</title><path d="M177.6,215h38.332a7,7,0,1,0,0-14H177.6a7,7,0,0,0,0,14Z"/><path d="M177.6,180h38.332a7,7,0,1,0,0-14H177.6a7,7,0,0,0,0,14Z"/><path d="M498.634,222.2a10.877,10.877,0,0,0,2.89-14.114l-29.852-50.209c-3.626-6.033-9.5-6.326-13.515-4.043L426.332,168.48a124.491,124.491,0,0,0-22.815-13.21l-3.176-34.965a5.325,5.325,0,0,0-.158-.839A10.6,10.6,0,0,0,389.974,111h-58.3c-5.459,0-10.1,4.059-10.351,9.113l-3.192,35.22a112.664,112.664,0,0,0-22.006,12.477,160.532,160.532,0,0,0-55.177-30.181l1.477-14.237a6.634,6.634,0,0,0-1.764-5.245,6.852,6.852,0,0,0-5.2-2.147H154.3a6.737,6.737,0,0,0-6.963,7.469l1.477,14.187C116.288,147.7,86.961,168.865,65.732,197.6A182.614,182.614,0,0,0,30.636,300H16a6.835,6.835,0,0,0-7,6.8v41.339A6.879,6.879,0,0,0,16,355H313.371c1.116,1,2.246,1.141,3.4,1.657l3.183,35.008a5.425,5.425,0,0,0,.157.855,10.612,10.612,0,0,0,10.2,8.48h58.3c5.458,0,10.092-4.057,10.347-9.11l3.2-35.223a110.967,110.967,0,0,0,22.887-13.144l31.893,14.691c.117.054.237.113.357.161,4.814,1.9,10.688-.031,13-4.221l29.149-50.175a10.818,10.818,0,0,0-2.89-14.207l-26.823-20.433a81.6,81.6,0,0,0,.01-26.6l28.73-20.429ZM134,158.182a153.734,153.734,0,0,1,23.952-8.7,6.9,6.9,0,0,0,5.279-7.319L162.065,130H227.7l-1.28,12.167a6.791,6.791,0,0,0,5.011,7.4,120.531,120.531,0,0,1,23.57,8.6v16.974a90.241,90.241,0,0,1-58.729,84.466A89.994,89.994,0,0,1,134,173.906ZM76.763,205.893A162.962,162.962,0,0,1,120,165.755v8.151a104.1,104.1,0,0,0,72.154,99.037l2.327.72a7.332,7.332,0,0,0,2.223.344,6.27,6.27,0,0,0,2.152-.381A104.061,104.061,0,0,0,269,175.144v-9.419a150.452,150.452,0,0,1,43.624,40.036A168.43,168.43,0,0,1,345.131,300H44.641C45.77,266,56.922,232.743,76.763,205.893Zm297,94.107H359.136c-.045-2-.109-3.229-.2-4.792.514.019,1.027,0,1.544,0a39.181,39.181,0,0,0,0-78.362,39.355,39.355,0,0,0-20.845,5.863,175.94,175.94,0,0,0-13.038-21.8,64.79,64.79,0,0,1,33.881-9.325c36.121,0,64.533,28.293,64.533,64.412,0,28.806-18.016,52.931-44.016,61.3V306.8A7.042,7.042,0,0,0,373.764,300Zm-16.151-19.006a183.913,183.913,0,0,0-12.089-45.389,25.313,25.313,0,0,1,14.961-4.767,25.163,25.163,0,1,1,0,50.325A26.821,26.821,0,0,1,357.613,280.994ZM23,341V314H367v27ZM458.165,233.8a7,7,0,0,0-2.874,6.692l.294,2.067A92.1,92.1,0,0,1,456.837,256a91.333,91.333,0,0,1-1.247,13.427l-.288,1.993a7,7,0,0,0,2.687,6.566l27.989,21.323-26.069,44.875-32.945-15.16a7.006,7.006,0,0,0-7.358.941l-1.655,1.353c-5.91,4.839-13.523,9.224-23.269,13.405l-1.869.8a6.809,6.809,0,0,0-4.215,5.671L385.34,387H333.608l-2.923-32h43.079A7.085,7.085,0,0,0,381,348.143v-16.3a79.924,79.924,0,0,0,39.876-25.193A78.873,78.873,0,0,0,438.957,256c0-43.97-34.473-78.412-78.444-78.412a78.62,78.62,0,0,0-42.441,12.142q-5.382-6.472-11.328-12.336a107.923,107.923,0,0,1,18.865-10.114l1.874-.8a6.809,6.809,0,0,0,4.218-5.673L334.951,125h51.735l3.264,35.807a6.9,6.9,0,0,0,4.217,5.736l1.873.768a111.609,111.609,0,0,1,23.61,13.655l1.629,1.215a6.994,6.994,0,0,0,7.13.759l32.88-15.129,26.649,44.822Z"/></svg>
