<?xml version="1.0"?>
<svg xmlns="http://www.w3.org/2000/svg" id="Layer_1" data-name="Layer 1" viewBox="0 0 512 512" width="512" height="512"><title>Technician</title><path d="M326,447.778a7,7,0,0,0,7-7v-6.371a7,7,0,1,0-14,0v6.371A7,7,0,0,0,326,447.778Z"/><path d="M184,447.778a7,7,0,0,0,7-7v-6.371a7,7,0,1,0-14,0v6.371A7,7,0,0,0,184,447.778Z"/><path d="M372.021,170A6.777,6.777,0,0,0,379,163.245v-27a7.2,7.2,0,0,0-6.979-7.25h-7.227a120.354,120.354,0,0,0-23.3-65.811,110.162,110.162,0,0,0-53.584-39.2l.761-7.3A6.974,6.974,0,0,0,281.707,9h-53a7,7,0,0,0-6.963,7.723l.761,7.329a109.964,109.964,0,0,0-53.589,39.235A120.566,120.566,0,0,0,145.63,129h-7.237A7.562,7.562,0,0,0,131,136.25v27c0,3.866,3.526,6.755,7.393,6.755h12.279l.679,9.954a24.722,24.722,0,0,0-15.4,17.453,31.119,31.119,0,0,0-.882,7.361,30.707,30.707,0,0,0,17.372,27.707l-30.9,97.4a7,7,0,0,0,5,8.92c1.172.289,22.642,5.481,54.646,5.481,7.746,0,15.82-.308,24.82-1.06v4.857l-53.762,22.992c-.129.056-.2.115-.325.178a56.933,56.933,0,0,0-31.031,46.043c-.017.194.118.388.118.582v78A6.924,6.924,0,0,0,127.772,503H382.64a7.43,7.43,0,0,0,7.36-7.133v-78c0-.194-.188-.388-.2-.581a57.179,57.179,0,0,0-31.263-46.044c-.126-.063-.391-.122-.52-.178L304,348.073v-5.082c13,.985,27.49,1.008,28.2,1.009h0a7,7,0,0,0,5.769-3.034l3.552-5.169,1.365,3.451a7.007,7.007,0,0,0,6.958,4.412c21.777-1.4,35.477-4.722,36.049-4.862a7,7,0,0,0,5-8.915l-31.273-98.559a30.784,30.784,0,0,0,14.3-33.856,24.828,24.828,0,0,0-15.339-17.488l.68-9.98ZM218,40.765a117.251,117.251,0,0,1,13.775-4.9,7.035,7.035,0,0,0,5.209-7.488L236.47,23h37.473l-.558,5.377a6.911,6.911,0,0,0,5.047,7.488A73.854,73.854,0,0,1,292,40.759v9.513a56.432,56.432,0,0,1-35.9,52.581A56.274,56.274,0,0,1,218,49.465ZM180.086,71.607A99.725,99.725,0,0,1,204,48.612v.853a70.346,70.346,0,0,0,48.732,66.982l1.49.471a7.151,7.151,0,0,0,2.189.344,6.377,6.377,0,0,0,2.171-.381A70.361,70.361,0,0,0,306,50.272V48.586a100.529,100.529,0,0,1,24.125,22.937A106.377,106.377,0,0,1,350.772,129H159.651A106.361,106.361,0,0,1,180.086,71.607Zm12.865,258.409,3.008-12.4a6.979,6.979,0,1,0-13.577-3.242l-3.767,15.853a265.319,265.319,0,0,1-41.372-3.581l21.747-68.888A101.944,101.944,0,0,0,206,315.936v13.23C202,329.568,197.205,329.842,192.951,330.016ZM180,374.3l8-3.089V410h-8ZM166,410h-3.183c-3.866,0-6.817,3.55-6.817,7.416V489H135V418.171a41.977,41.977,0,0,1,22.945-34.315L166,380.277Zm178-29.723,8.555,3.578C365.625,390.472,374,403.583,376,418.171V489H355V417.416A7.72,7.72,0,0,0,347.6,410H344ZM341,489H170V424H341ZM323,371.212l7,3.09V410h-7Zm-14-5.974V410H202V365.238l11.041-4.782a102.49,102.49,0,0,0,84.665,0Zm-89-16.832V322.39a100.362,100.362,0,0,0,70-.174v26.19A88.61,88.61,0,0,1,220,348.406Zm155.145-21.742c-4.932.854-12.121,1.907-21.124,2.652l-4.305-10.889a7,7,0,0,0-12.278-1.393l-8.986,12.935c-5.357-.07-15.452-.3-24.452-1.025v-13.28A98.619,98.619,0,0,0,351.913,253.6ZM360.332,200.8A16.748,16.748,0,0,1,346.9,221.285a7.107,7.107,0,0,0-5.9,6.893v.149a86,86,0,1,1-172,0v-.141a7.138,7.138,0,0,0-5.945-6.9A16.921,16.921,0,0,1,149.584,200.8a10.623,10.623,0,0,1,7.859-7.956,114.107,114.107,0,0,0,44.6,8.9c16.339,0,33.263-3.28,50.31-9.837a177.474,177.474,0,0,0,36.863-19.477c7.756,8.032,24.751,22.525,46.432,22.523a49.706,49.706,0,0,0,15.207-2.423A10.822,10.822,0,0,1,360.332,200.8ZM164.705,170H265.961a153.624,153.624,0,0,1-19.037,8.87c-29.086,11.1-56.476,11.695-81.478,1.937Zm142.983,0h37.55l-.657,9.53C329.729,183.337,316.59,177,307.688,170ZM292,156a9.374,9.374,0,0,1-.98-.195A21.692,21.692,0,0,0,288.4,156H145V143H365v13Z"/><path d="M243.918,79h25.031a7,7,0,0,0,0-14H243.918a7,7,0,0,0,0,14Z"/><path d="M243.918,56h25.031a7,7,0,0,0,0-14H243.918a7,7,0,0,0,0,14Z"/></svg>
