<?xml version="1.0"?>
<svg xmlns="http://www.w3.org/2000/svg" id="Layer_1" data-name="Layer 1" viewBox="0 0 512 512" width="512" height="512"><title>Tool Box 2</title><path d="M436,189H416v-3.909A29.319,29.319,0,0,0,386.909,156H342V119.637C342,103.746,328.618,91,312.727,91H199.273C183.382,91,170,103.746,170,119.637V156H125.091A29.319,29.319,0,0,0,96,185.091V189H76a7,7,0,0,0-7,7v32.728A7.237,7.237,0,0,0,76,236h9V370.546C85,398.467,108.079,421,136,421H376c27.921,0,51-22.533,51-50.454V236h9a7.237,7.237,0,0,0,7-7.272V196A7,7,0,0,0,436,189ZM184,119.637c0-8.171,7.1-14.637,15.273-14.637H312.727C320.9,105,328,111.466,328,119.637V156H184Zm-74,65.454A15.305,15.305,0,0,1,125.091,170H386.909A15.305,15.305,0,0,1,402,185.091V189H110ZM271,203v42.091a15,15,0,0,1-30,0V203ZM83,222V203H227v19ZM413,370.546c0,20.2-16.8,36.454-37,36.454H136c-20.2,0-37-16.253-37-36.454V236H227v9.091a29,29,0,0,0,58,0V236H413ZM429,222H285V203H429Z"/><path d="M147,292.637a7,7,0,0,0-7,7v70.909a7,7,0,1,0,14,0V299.637A7,7,0,0,0,147,292.637Z"/><path d="M201,292.637a7,7,0,0,0-7,7v70.909a7,7,0,1,0,14,0V299.637A7,7,0,0,0,201,292.637Z"/><path d="M256,292.637a7,7,0,0,0-7,7v70.909a7,7,0,1,0,14,0V299.637A7,7,0,0,0,256,292.637Z"/><path d="M311,377.546a7,7,0,0,0,7-7V299.637a7,7,0,1,0-14,0v70.909A7,7,0,0,0,311,377.546Z"/><path d="M365,377.546a7,7,0,0,0,7-7V299.637a7,7,0,1,0-14,0v70.909A7,7,0,0,0,365,377.546Z"/></svg>
