<?xml version="1.0"?>
<svg xmlns="http://www.w3.org/2000/svg" id="Layer_1" data-name="Layer 1" viewBox="0 0 512 512" width="512" height="512"><title>Tool Box</title><path d="M136,65H96a7,7,0,0,0-7,7V223H76a7.117,7.117,0,0,0-7,7.136V440a7,7,0,0,0,7,7H436a7,7,0,0,0,7-7V230.136A7.117,7.117,0,0,0,436,223H423V72a7,7,0,0,0-7-7H376a7,7,0,0,0-7,7V92H143V72A7,7,0,0,0,136,65ZM103,79h26V92h-.44c-11.851,0-21.936,8.118-25.56,18.758Zm0,49.122A26.655,26.655,0,0,0,128.56,146H129v74H103ZM429,237V433H83V237ZM143,223V146H369v77Zm240-3V146h.44a26.616,26.616,0,0,0,19.09-7.69A26.113,26.113,0,0,0,409,128.159V220Zm0-141h26v31.758C405.376,100.118,395.291,92,383.44,92H383Zm.44,27a13.2,13.2,0,0,1,13,13.22,12.66,12.66,0,0,1-3.81,9.08,12.807,12.807,0,0,1-9.19,3.7H128.56a13,13,0,0,1,0-26Z"/><path d="M172.006,318h55.41a7.4,7.4,0,0,0,1.984-.43l18.6-5.551v.184a7,7,0,0,0,14,0V295h93.03a7,7,0,0,0,0-14H262V264.375a7,7,0,0,0-14,0v.183l-18.6-5.339a7.143,7.143,0,0,0-1.984-.219h-55.41A22.93,22.93,0,0,0,149,281.886v12.8A23.293,23.293,0,0,0,172.006,318ZM163,281.886A8.914,8.914,0,0,1,172.006,273h54.413L248,279.138v18.3L226.419,304H172.006A9.28,9.28,0,0,1,163,294.691Z"/><path d="M171.755,389h97.131a52,52,0,0,0,93.345.724,6.62,6.62,0,0,0-.308-6.607A6.82,6.82,0,0,0,355.969,380H333.9l-8.562-13.013,9.306-13.18,21.325.193H356a7.226,7.226,0,0,0,4.688-2,7.146,7.146,0,0,0,1.585-8.419,52.031,52.031,0,0,0-93.382.419H171.755a22.5,22.5,0,1,0,0,45Zm0-31H273.489a7.067,7.067,0,0,0,6.558-4.622,37.848,37.848,0,0,1,62.366-13.562l-11.38.184h-.024a6.787,6.787,0,0,0-5.736,2.746l-14.143,20.1a6.9,6.9,0,0,0-.091,7.833l13.288,20.08A7.122,7.122,0,0,0,330.153,394h12.236a37.366,37.366,0,0,1-26.721,10.781,38.426,38.426,0,0,1-35.621-24.969A7.248,7.248,0,0,0,273.489,375H171.755a8.5,8.5,0,1,1,0-17Z"/></svg>
