<?xml version="1.0"?>
<svg xmlns="http://www.w3.org/2000/svg" id="Layer_1" data-name="Layer 1" viewBox="0 0 512 512" width="512" height="512"><title>Tow Truck </title><path d="M467.992,256H465V211.36A23.223,23.223,0,0,0,453.165,168h-134c-3.866,0-7.168,2.719-7.168,6.585V332h-8V315.478A7.814,7.814,0,0,0,296.554,308H269V228.654a6.916,6.916,0,0,0-1.238-4.1L155.6,69.67A6.713,6.713,0,0,0,149.977,67h-22.92a6.794,6.794,0,0,0-6.037,3.23,6.48,6.48,0,0,0-.914,2.7l-39.074,69.1a6.971,6.971,0,0,0,6.095,10.4c10.352,0,18.158,7.508,18.158,17.475,0,9.806-8.051,17.483-18.329,17.483-7.741,0-14.878-5.809-17.354-14.125a7,7,0,1,0-13.418,4c4.231,14.206,16.884,24.127,30.772,24.127,18.129,0,32.329-13.831,32.329-31.487A31.145,31.145,0,0,0,98.1,140.228l29.261-51.792L206.03,228.99,176.155,308H49.8c-3.866,0-6.8,3.611-6.8,7.478V332H21.857A12.724,12.724,0,0,0,9,344.683v40.242A13.06,13.06,0,0,0,21.857,398H46.719a56.088,56.088,0,0,0,94.55,31.607A55.394,55.394,0,0,0,157.484,398h27.135a56.026,56.026,0,0,0,110.772,0h40.37a56.024,56.024,0,0,0,110.768,0H496a7.179,7.179,0,0,0,7-7.207V291.369C503,272.065,487.3,256,467.992,256ZM220.277,230.885a6.237,6.237,0,0,0-.439-5.537L138.986,81H146.4L255,230.921V308H191.117ZM57,322H290v10H57ZM46.377,384H23V346H66.97c-1.914,1-3.734,3.126-5.437,4.922l-.212.169c-.056.056-.112.2-.167.259A56.5,56.5,0,0,0,46.377,384Zm97.726,6.419a42.015,42.015,0,0,1-84.009-.072c-.01-.3-.009-.607-.009-.906a41.935,41.935,0,0,1,11.232-28.592l.191-.19c.046-.046.091-.092.135-.139a41.642,41.642,0,0,1,10.412-8.01,42.088,42.088,0,0,1,40.079,0,41.652,41.652,0,0,1,10.421,8.008l.134.139.193.192a41.89,41.89,0,0,1,11.231,28.59C144.113,389.74,144.114,390.048,144.1,390.419ZM184.271,384H157.822a56.519,56.519,0,0,0-14.783-32.675c-.054-.057-.107-.169-.163-.224l-.212-.152c-1.7-1.8-3.522-3.949-5.44-4.949h67.628C193.239,355,185.782,369,184.271,384ZM282,390.5c-1,22.591-19.394,40.959-42.007,40.959a42.286,42.286,0,0,1-42-41.127c-.011-.293-.008-.6-.008-.888a42.018,42.018,0,0,1,83.921-3.11c.07.966.1,1.984.1,3.11Zm30-6.5H295.712c-1.519-15-8.954-29-20.566-38H312Zm60-202h81.165a9.5,9.5,0,0,1,0,19H372Zm0,33h79v41H392.612A20.39,20.39,0,0,1,372,235.353Zm-46-33h32v53.353c0,17.546,13,32.116,29,34.623V303H326ZM433.149,390.426a42.017,42.017,0,0,1-84.011-.036c-.009-.315-.008-.638-.008-.951a42.014,42.014,0,0,1,83.915-3.078c.075,1,.112,2,.112,3.078C433.157,389.758,433.158,390.087,433.149,390.426ZM489,384H446.857a55.688,55.688,0,0,0-55.712-50.369A56.29,56.29,0,0,0,335.414,384H326V317h68.441A6.309,6.309,0,0,0,401,310.393V270h66.992C479.576,270,489,279.785,489,291.369Z"/></svg>
