<?xml version="1.0"?>
<svg xmlns="http://www.w3.org/2000/svg" id="Layer_1" data-name="Layer 1" viewBox="0 0 512 512" width="512" height="512"><title>Traffic Cone 2_1</title><path d="M411.173,404.5l-22.551-65.774-24-70-24-70-24-70L297.255,72.243A27,27,0,0,0,271.714,54H240.286a27,27,0,0,0-25.541,18.243l-19.367,56.486-24,70-24,70-24,70L100.827,404.5A27.041,27.041,0,0,0,79,431v20a7,7,0,0,0,7,7H426a7,7,0,0,0,7-7V431A27.041,27.041,0,0,0,411.173,404.5ZM227.989,76.784A13,13,0,0,1,240.286,68h31.428a13,13,0,0,1,12.3,8.784L300.2,124H211.8ZM207,138h98l19.2,56H187.8Zm-24,70H329l19.2,56H163.8Zm-24,70H353l19.2,56H139.8Zm-24,70H377l19.2,56H115.8Zm284,96H93V431a13.015,13.015,0,0,1,13-13H406a13.015,13.015,0,0,1,13,13Z"/></svg>
