<?xml version="1.0"?>
<svg xmlns="http://www.w3.org/2000/svg" id="Layer_1" data-name="Layer 1" viewBox="0 0 512 512" width="512" height="512"><title>Traffic Cone 2</title><path d="M225.561,114h62.188a7.131,7.131,0,0,0,6.624-9.4L274.389,45.935A7.187,7.187,0,0,0,267.765,41h-23.53a7.163,7.163,0,0,0-6.668,5.046L218.893,104.6a7.289,7.289,0,0,0,1.014,6.4A7.135,7.135,0,0,0,225.561,114Zm23.787-59H262.76l15.2,45H235.146Z"/><path d="M425.018,434.378A29.756,29.756,0,0,0,400.351,421H110.492a27.591,27.591,0,0,0-22.868,12.416L70.176,459.677a7.4,7.4,0,0,0-.348,7.406A7.213,7.213,0,0,0,76,471H436a7.169,7.169,0,0,0,6.172-3.874,7.318,7.318,0,0,0-.348-7.361ZM89.079,457l10.193-15.643A13.8,13.8,0,0,1,110.492,435H400.351a15.955,15.955,0,0,1,13.018,7.32L422.92,457Z"/><path d="M144.729,329.507,129.446,374.1a6.638,6.638,0,0,0,.93,6.154A6.836,6.836,0,0,0,136.07,383H375.93a6.83,6.83,0,0,0,6.624-9.078l-15.283-44.446A6.773,6.773,0,0,0,360.647,325H151.353A6.8,6.8,0,0,0,144.729,329.507ZM355.643,339l10.5,30H145.861l10.5-30Z"/><path d="M176.894,236.957l-15.271,44.815A6.973,6.973,0,0,0,168.247,291H343.753a6.9,6.9,0,0,0,6.624-9.154l-15.271-44.908A7.185,7.185,0,0,0,328.482,232H183.518A7.2,7.2,0,0,0,176.894,236.957ZM323.477,246l10.488,31H178.035l10.488-31Z"/><path d="M209.059,144.905,193.788,189.7A7.034,7.034,0,0,0,200.412,199H311.588a6.972,6.972,0,0,0,6.624-9.232L302.941,144.9a7.149,7.149,0,0,0-6.624-4.9H215.683A7.154,7.154,0,0,0,209.059,144.905ZM291.312,154,301.8,185H210.2l10.488-31Z"/></svg>
