<?xml version="1.0"?>
<svg xmlns="http://www.w3.org/2000/svg" id="Layer_1" data-name="Layer 1" viewBox="0 0 512 512" width="512" height="512"><title>Wash</title><path d="M256,16.577a7,7,0,0,0-7,7V63H196.5c-3.866,0-7.5,2.71-7.5,6.577V97H138a20,20,0,0,0,0,40H374a20,20,0,0,0,0-40H322V69.577A6.238,6.238,0,0,0,315.5,63H263V23.577A7,7,0,0,0,256,16.577ZM374,111a6,6,0,0,1,0,12H138a6,6,0,0,1,0-12H374ZM308,77V97H203V77Z"/><path d="M159,153.577a7,7,0,0,0-14,0v48.077a7,7,0,0,0,14,0Z"/><path d="M152,217.73a7,7,0,0,0-7,7v28.847a7,7,0,0,0,14,0V224.73A7,7,0,0,0,152,217.73Z"/><path d="M194,153.577a7,7,0,0,0-14,0v25.961a7,7,0,0,0,14,0Z"/><path d="M186,198.5a7,7,0,0,0-7,7v48.077a7,7,0,0,0,14,0V205.5A7,7,0,0,0,186,198.5Z"/><path d="M228,153.577a7,7,0,0,0-14,0V168a7,7,0,0,0,14,0Z"/><path d="M221,187.923a7,7,0,0,0-7,7v58.654a7,7,0,0,0,14,0V194.923A7,7,0,0,0,221,187.923Z"/><path d="M263,153.577a7,7,0,0,0-14,0v44.231a7,7,0,0,0,14,0Z"/><path d="M256,219.654a7,7,0,0,0-7,7v26.923a7,7,0,0,0,14,0V226.654A7,7,0,0,0,256,219.654Z"/><path d="M298,153.577a7,7,0,0,0-14,0v25.961a7,7,0,0,0,14,0Z"/><path d="M291,197.538a7,7,0,0,0-7,7v49.039a7,7,0,0,0,14,0V204.538A7,7,0,0,0,291,197.538Z"/><path d="M333,153.577a7,7,0,0,0-14,0v61.538a7,7,0,0,0,14,0Z"/><path d="M326,233.115a7,7,0,0,0-7,7v13.462a7,7,0,0,0,14,0V240.115A7,7,0,0,0,326,233.115Z"/><path d="M367,153.577a7,7,0,0,0-14,0v25.961a7,7,0,0,0,14,0Z"/><path d="M360,197.538a7,7,0,0,0-7,7v49.039a7,7,0,0,0,14,0V204.538A7,7,0,0,0,360,197.538Z"/><path d="M46.5,384.85A41.1,41.1,0,0,0,39,408.592V447.9A11.07,11.07,0,0,0,49.774,459H92.99c2.786,20,20.376,36.312,41.6,36.312S173.412,479,176.2,459H340.162a42,42,0,0,0,83.547-3h.9a43.118,43.118,0,0,0,25.451-7.865c.009-.006.132-.011.14-.017A55.107,55.107,0,0,0,473,403.554V364.825a24.475,24.475,0,0,0-8.556-18.6l-50.223-43.186A24.649,24.649,0,0,0,398.276,297H270.832c-1.433,0-2.874.171-4.314.212a9.016,9.016,0,0,0-2.469.2,171.224,171.224,0,0,0-36.069,5.568,202.536,202.536,0,0,0-26.5,9.038,253.848,253.848,0,0,0-72.176,46.523,200.354,200.354,0,0,0-62.953,11.24A40.685,40.685,0,0,0,46.5,384.85Zm335.323,96.573a28,28,0,1,1,28-28A28.031,28.031,0,0,1,381.822,481.423ZM369,311h29.276a10.643,10.643,0,0,1,6.833,2.666l50.224,43.118a9.857,9.857,0,0,1,1.968,2.605l-88.3-.21Zm-96,0h82v48.14l-82-.23Zm0,61.91,186,.518V388H444.713a7,7,0,1,0,0,14H459v1.554a41.2,41.2,0,0,1-16.968,33.28l-.141-.064A29.217,29.217,0,0,1,424.614,442h-2.289c-4.878-17-21.183-30.58-40.5-30.58-20.158,0-37.039,14.58-41.077,33.58H273ZM134.594,480.985a28,28,0,1,1,28-28A28.032,28.032,0,0,1,134.594,480.985Zm72.29-156.047a191.409,191.409,0,0,1,24.88-8.406A160.684,160.684,0,0,1,259,311.826v47.045l-108.01-.3C163.176,348.847,182.6,335.094,206.884,324.938ZM132.372,372.52,259,372.871V445H175.765c-3.869-20-20.857-33.688-41.171-33.688S97.292,425,93.424,445H53V408.592a27.015,27.015,0,0,1,18.12-25.61A186.713,186.713,0,0,1,132.372,372.52Z"/><path d="M215.36,394h21.625a7,7,0,0,0,0-14H215.36a7,7,0,0,0,0,14Z"/></svg>
