<?xml version="1.0"?>
<svg xmlns="http://www.w3.org/2000/svg" id="Layer_1" data-name="Layer 1" viewBox="0 0 512 512" width="512" height="512"><title>Wheel</title><path d="M153.7,337.945c.174.013.347.019.52.019a7.006,7.006,0,0,0,4.95-2.05l56-56A6.975,6.975,0,0,0,210.225,268H131a6.971,6.971,0,0,0-6.922,8.013A133.07,133.07,0,0,0,148.6,335.131,7,7,0,0,0,153.7,337.945ZM193.325,282l-38.1,38.1a124.089,124.089,0,0,1-15.8-38.1Z"/><path d="M239.7,295.308a6.987,6.987,0,0,0-7.619,1.517l-56,56a7,7,0,0,0,.792,10.578A133.126,133.126,0,0,0,236,387.922a7.038,7.038,0,0,0,1.042.078A6.971,6.971,0,0,0,244,381V301.775A6.981,6.981,0,0,0,239.7,295.308ZM230,372.58a124.113,124.113,0,0,1-38.1-15.8l38.1-38.1Z"/><path d="M279.912,296.825A6.974,6.974,0,0,0,268,301.775V381a6.968,6.968,0,0,0,8.008,6.922,133.115,133.115,0,0,0,59.12-24.516,7,7,0,0,0,.787-10.578ZM282,372.58V318.674l38.1,38.1A124.113,124.113,0,0,1,282,372.58Z"/><path d="M131,244h79.225a6.98,6.98,0,0,0,4.95-11.922l-56-56a7,7,0,0,0-10.578.791A133.1,133.1,0,0,0,124.078,236,6.97,6.97,0,0,0,131,244Zm24.223-52.1,38.1,38.1h-53.9A124.089,124.089,0,0,1,155.223,191.9Z"/><path d="M232.088,215.174a7,7,0,0,0,4.952,2.051,6.9,6.9,0,0,0,2.657-.533,6.982,6.982,0,0,0,4.3-6.467V131a6.971,6.971,0,0,0-8.013-6.922,133.107,133.107,0,0,0-59.118,24.516,7,7,0,0,0-.784,10.578ZM230,139.42v53.905l-38.1-38.1A124.113,124.113,0,0,1,230,139.42Z"/><path d="M272.3,216.692a6.974,6.974,0,0,0,7.614-1.518l56-56a7,7,0,0,0-.789-10.578A133.13,133.13,0,0,0,276,124.078,6.97,6.97,0,0,0,268,131v79.225A6.982,6.982,0,0,0,272.3,216.692ZM282,139.42a124.113,124.113,0,0,1,38.1,15.8l-38.1,38.1Z"/><path d="M295.309,239.7a6.982,6.982,0,0,0,6.466,4.3H381a6.971,6.971,0,0,0,6.922-8.013,133.07,133.07,0,0,0-24.517-59.118,7,7,0,0,0-10.578-.784l-56,55.993A6.985,6.985,0,0,0,295.309,239.7Zm61.468-47.8a124.089,124.089,0,0,1,15.8,38.1h-53.9Z"/><path d="M381,268H301.775a6.98,6.98,0,0,0-4.95,11.922l56,56a7,7,0,0,0,4.95,2.048c.173,0,.346-.008.52-.021a7,7,0,0,0,5.108-2.819A133.093,133.093,0,0,0,387.922,276,6.969,6.969,0,0,0,381,268Zm-24.223,52.1-38.1-38.1h53.9A124.089,124.089,0,0,1,356.777,320.1Z"/><path d="M229,256a27,27,0,1,0,27-27A27.03,27.03,0,0,0,229,256Zm27-13a13,13,0,1,1-13,13A13.015,13.015,0,0,1,256,243Z"/><path d="M256,493A237,237,0,0,0,423.584,88.416,237,237,0,1,0,88.416,423.584,235.445,235.445,0,0,0,256,493ZM54,249H33.12A221.289,221.289,0,0,1,93.45,103.35l14.764,14.764a7,7,0,0,0,9.9-9.9L103.351,93.45A221.282,221.282,0,0,1,249,33.12V54a7,7,0,0,0,14,0V33.12A221.282,221.282,0,0,1,408.649,93.45l-14.763,14.765a7,7,0,1,0,9.9,9.9L418.55,103.35A221.289,221.289,0,0,1,478.88,249H458a7,7,0,0,0,0,14h20.88a221.289,221.289,0,0,1-60.33,145.65l-14.764-14.764a7,7,0,0,0-9.9,9.9l14.763,14.765A221.282,221.282,0,0,1,263,478.88V458a7,7,0,0,0-14,0v20.88a221.282,221.282,0,0,1-145.649-60.33l14.763-14.765a7,7,0,0,0-9.9-9.9L93.45,408.65A221.289,221.289,0,0,1,33.12,263H54a7,7,0,0,0,0-14Z"/><path d="M256,423c92.084,0,167-74.916,167-167S348.084,89,256,89,89,163.916,89,256,163.916,423,256,423Zm0-320c84.364,0,153,68.636,153,153S340.364,409,256,409,103,340.364,103,256,171.636,103,256,103Z"/></svg>
