<?xml version="1.0"?>
<svg xmlns="http://www.w3.org/2000/svg" id="Layer_1" data-name="Layer 1" viewBox="0 0 512 512" width="512" height="512"><title>Wrench</title><path d="M471.95,104.075a7.016,7.016,0,0,0-6.556,1.863L423.533,147.8l-48.956-9.819-9-50.93L406.208,46.7A7.014,7.014,0,0,0,403.5,35.077,116.8,116.8,0,0,0,258.045,189.728L42.3,405.471A45.417,45.417,0,0,0,106.531,469.7L322.273,253.957a116.807,116.807,0,0,0,154.71-145.285A7,7,0,0,0,471.95,104.075ZM438.9,218.424A103.227,103.227,0,0,1,323.587,239.28a7,7,0,0,0-7.855,1.418L96.631,459.8A31.416,31.416,0,1,1,52.2,415.371l219.1-219.1a7,7,0,0,0,1.419-7.856A102.671,102.671,0,0,1,387.794,45.252L353.112,79.7a7,7,0,0,0-1.96,6.186l10.47,59.241a7,7,0,0,0,5.517,5.645l57.317,11.5a6.993,6.993,0,0,0,6.326-1.913l36-36A102.194,102.194,0,0,1,438.9,218.424Z"/><path d="M59.6,421.287A22,22,0,0,0,90.715,452.4h0A22,22,0,1,0,59.6,421.287ZM80.815,442.5a8,8,0,1,1,0-11.314A8.01,8.01,0,0,1,80.815,442.5Z"/></svg>
