<svg height="480pt" viewBox="0 -48 480 480" width="480pt" xmlns="http://www.w3.org/2000/svg"><path d="m352 296c-13.253906 0-24 10.746094-24 24s10.746094 24 24 24 24-10.746094 24-24-10.746094-24-24-24zm0 32c-4.417969 0-8-3.582031-8-8s3.582031-8 8-8 8 3.582031 8 8-3.582031 8-8 8zm0 0"/><path d="m128 296c-13.253906 0-24 10.746094-24 24s10.746094 24 24 24 24-10.746094 24-24-10.746094-24-24-24zm0 32c-4.417969 0-8-3.582031-8-8s3.582031-8 8-8 8 3.582031 8 8-3.582031 8-8 8zm0 0"/><path d="m464 280h-16v-264c0-8.835938-7.164062-16-16-16h-328c-.347656.0429688-.695312.113281-1.03125.207031-1.25.011719-2.449219.46875-3.382812 1.296875-.394532.21875-.769532.472656-1.121094.753906-.476563.507813-.882813 1.078126-1.207032 1.695313-.210937.253906-.398437.519531-.570312.800781l-32 72c-.085938.199219-.0625.414063-.144531.621094-.144531.453125-.246094.921875-.304688 1.394531-.109375.625-.140625 1.261719-.09375 1.894531-.011719.214844-.011719.433594 0 .648438l7.617188 45.734375-39.121094 93.816406v.039063c-.109375.394531-.1875.796875-.242187 1.203125-.210938.613281-.34375 1.25-.398438 1.894531v56h-16c-8.835938 0-16 7.164062-16 16v16c0 8.835938 7.164062 16 16 16h48.550781c4.007813 31.992188 31.207031 55.996094 63.449219 55.996094s59.441406-24.003906 63.449219-55.996094h97.101562c4.007813 31.992188 31.207031 55.996094 63.449219 55.996094s59.441406-24.003906 63.449219-55.996094h48.550781c8.835938 0 16-7.164062 16-16v-16c0-8.835938-7.164062-16-16-16zm-32 0h-30.121094c-12.113281-15.167969-30.46875-24-49.878906-24s-37.765625 8.832031-49.878906 24h-102.121094v-200c0-4.417969-3.582031-8-8-8h-107.6875l24.886719-56h322.800781zm-143.449219 32h-97.101562c-.6875-5.492188-2.085938-10.871094-4.160157-16h105.421876c-2.074219 5.128906-3.472657 10.507812-4.160157 16zm-201.773437-192-5.328125-32h102.550781v32zm-38.777344 105.601562 37.335938-89.601562h98.664062v144h-6.121094c-12.113281-15.167969-30.46875-24-49.878906-24s-37.765625 8.832031-49.878906 24h-30.121094zm-32 70.398438h52.710938c-2.074219 5.128906-3.472657 10.507812-4.160157 16h-48.550781zm112 72c-26.507812 0-48-21.492188-48-48s21.492188-48 48-48 48 21.492188 48 48c-.027344 26.5-21.5 47.972656-48 48zm224 0c-26.507812 0-48-21.492188-48-48s21.492188-48 48-48 48 21.492188 48 48c-.027344 26.5-21.5 47.972656-48 48zm112-56h-48.550781c-.6875-5.492188-2.085938-10.871094-4.160157-16h52.710938zm0 0"/><path d="m232 168h64c4.417969 0 8-3.582031 8-8v-80c0-4.417969-3.582031-8-8-8h-64c-4.417969 0-8 3.582031-8 8v80c0 4.417969 3.582031 8 8 8zm8-80h48v64h-48zm0 0"/><path d="m336 168h64c4.417969 0 8-3.582031 8-8v-80c0-4.417969-3.582031-8-8-8h-64c-4.417969 0-8 3.582031-8 8v80c0 4.417969 3.582031 8 8 8zm8-80h48v64h-48zm0 0"/></svg>