<svg height="480pt" viewBox="0 -48 480.00054 480" width="480pt" xmlns="http://www.w3.org/2000/svg"><path d="m464 281.472656v-273.472656c0-4.417969-3.582031-8-8-8h-336c-1.128906 0-2.136719 0-3.113281.0742188-.207031 0-.46875 0-.671875 0-55.964844 1.9492192-100.300782 47.9257812-100.214844 103.9257812 0 4.417969 3.582031 8 8 8h36.265625l-33.296875 84.800781-10.320312 24c-.222657 1.066407-.441407 2.132813-.648438 3.199219v57.367188c-3.347656 1.152343-6.378906 3.070312-8.855469 5.601562-4.605469 4.464844-7.1874998 10.617188-7.144531 17.03125 0 13.253906 10.746094 24 24 24h40.550781c4.011719 31.992188 31.207031 55.996094 63.449219 55.996094s59.441406-24.003906 63.449219-55.996094h97.101562c4.011719 31.992188 31.207031 55.996094 63.449219 55.996094s59.441406-24.003906 63.449219-55.996094h40.550781c13.226562-.066406 23.933594-10.773438 24-24-.042969-10.132812-6.445312-19.148438-16-22.527344zm-304-169.472656v80h-113.945312l31.402343-80zm-32 256c-26.507812 0-48-21.488281-48-48 0-26.507812 21.492188-48 48-48 26.511719 0 48 21.492188 48 48-.027344 26.5-21.5 47.972656-48 48zm80-256h48v200h-48zm144 256c-26.507812 0-48-21.488281-48-48 0-26.507812 21.492188-48 48-48 26.511719 0 48 21.492188 48 48-.027344 26.5-21.5 47.972656-48 48zm109.542969-58.296875c-1.457031 1.488281-3.460938 2.316406-5.542969 2.296875h-40.550781c-4.007813-31.992188-31.207031-55.996094-63.449219-55.996094s-59.4375 24.003906-63.449219 55.996094h-16.550781v-208c0-4.417969-3.582031-8-8-8h-64c-4.417969 0-8 3.582031-8 8v208h-.550781c-4.007813-31.992188-31.207031-55.996094-63.449219-55.996094s-59.4375 24.003906-63.449219 55.996094h-40.550781c-4.417969 0-8-3.582031-8-8-.003906-2.160156.886719-4.222656 2.457031-5.703125 1.460938-1.488281 3.460938-2.316406 5.542969-2.296875 4.417969 0 8-3.582031 8-8v-62.34375l7.585938-17.65625h128.414062c4.417969 0 8-3.582031 8-8v-96c0-4.417969-3.582031-8-8-8h-135.648438c3.972657-44.199219 40.285157-78.496094 84.640626-79.9375 1.023437-.0625 1.945312-.0625 3.007812-.0625h328v272c0 4.417969 3.582031 8 8 8s8 3.582031 8 8c.003906 2.160156-.882812 4.222656-2.457031 5.703125zm0 0"/><path d="m128 296c-13.253906 0-24 10.746094-24 24s10.746094 24 24 24 24-10.746094 24-24-10.746094-24-24-24zm0 32c-4.417969 0-8-3.582031-8-8s3.582031-8 8-8 8 3.582031 8 8-3.582031 8-8 8zm0 0"/><path d="m352 296c-13.253906 0-24 10.746094-24 24s10.746094 24 24 24 24-10.746094 24-24-10.746094-24-24-24zm0 32c-4.417969 0-8-3.582031-8-8s3.582031-8 8-8 8 3.582031 8 8-3.582031 8-8 8zm0 0"/><path d="m344 96h-48c-4.417969 0-8 3.582031-8 8v96c0 4.417969 3.582031 8 8 8h48c4.417969 0 8-3.582031 8-8v-96c0-4.417969-3.582031-8-8-8zm-8 96h-32v-80h32zm0 0"/><path d="m424 96h-48c-4.417969 0-8 3.582031-8 8v96c0 4.417969 3.582031 8 8 8h48c4.417969 0 8-3.582031 8-8v-96c0-4.417969-3.582031-8-8-8zm-8 96h-32v-80h32zm0 0"/></svg>