<svg height="480pt" viewBox="0 -84 480.0003 480" width="480pt" xmlns="http://www.w3.org/2000/svg"><path d="m464 209.472656v-201.472656c0-4.417969-3.582031-8-8-8h-360c-.390625.0507812-.773438.125-1.152344.230469-.558594.054687-1.113281.167969-1.648437.335937-.46875.207032-.917969.457032-1.335938.753906-.445312.238282-.867187.523438-1.253906.847657-.402344.410156-.753906.859375-1.058594 1.34375-.257812.285156-.496093.589843-.710937.914062l-46.054688 92.117188c-11.464844 2.136719-26.785156 10.65625-26.785156 23.457031v89.449219c-3.34375 1.136719-6.378906 3.035156-8.863281 5.542969-4.59375 4.464843-7.167969 10.605468-7.136719 17.007812 0 13.253906 10.746094 24 24 24h40.550781c4.007813 31.992188 31.207031 55.996094 63.449219 55.996094s59.441406-24.003906 63.449219-55.996094h105.101562c4.007813 31.992188 31.207031 55.996094 63.449219 55.996094s59.441406-24.003906 63.449219-55.996094h32.550781c13.226562-.066406 23.933594-10.773438 24-24-.042969-10.132812-6.445312-19.148438-16-22.527344zm-54.121094-1.472656c-12.109375-15.167969-30.46875-24-49.878906-24s-37.765625 8.832031-49.878906 24h-132.242188c-12.109375-15.167969-30.46875-24-49.878906-24s-37.765625 8.832031-49.878906 24h-46.121094v-64h416v64zm-113.328125 32h-105.101562c-.6875-5.492188-2.085938-10.871094-4.160157-16h113.421876c-2.074219 5.128906-3.472657 10.507812-4.160157 16zm-248.550781-128c.9375-.027344 1.863281-.214844 2.734375-.550781.25-.097657.472656-.191407.707031-.304688.6875-.335937 1.328125-.765625 1.894532-1.28125.121093-.109375.257812-.183593.367187-.296875.578125-.585937 1.066406-1.257812 1.441406-1.992187l45.800781-91.574219h347.054688v112h-416v-8c.398438-2.550781 9.503906-8 16-8zm-32 120c-.003906-2.15625.878906-4.222656 2.449219-5.703125 1.464843-1.484375 3.464843-2.3125 5.550781-2.296875h44.710938c-2.074219 5.128906-3.472657 10.507812-4.160157 16h-40.550781c-4.417969 0-8-3.582031-8-8zm112 64c-26.507812 0-48-21.488281-48-48 0-26.507812 21.492188-48 48-48 26.511719 0 48 21.492188 48 48-.027344 26.5-21.5 47.972656-48 48zm232 0c-26.507812 0-48-21.488281-48-48 0-26.507812 21.492188-48 48-48 26.511719 0 48 21.492188 48 48-.027344 26.5-21.5 47.972656-48 48zm101.550781-58.296875c-1.464843 1.484375-3.464843 2.3125-5.550781 2.296875h-32.550781c-.6875-5.492188-2.085938-10.871094-4.160157-16h36.710938c4.417969 0 8 3.582031 8 8 .003906 2.15625-.878906 4.222656-2.449219 5.703125zm0 0"/><path d="m72.222656 105.113281c.054688.574219.171875 1.144531.34375 1.695313.203125.460937.453125.902344.746094 1.3125.238281.453125.523438.878906.855469 1.269531.40625.398437.855469.75 1.335937 1.050781.289063.257813.597656.5.921875.71875.070313 0 .152344 0 .222657.046875 1.027343.503907 2.152343.777344 3.296874.800781h88.054688c4.417969 0 8-3.582031 8-8v-64.007812c0-4.417969-3.582031-8-8-8h-56c-.410156.050781-.816406.132812-1.214844.25-.542968.046875-1.078125.152344-1.601562.308594-.484375.222656-.941406.492187-1.375.800781-.433594.226563-.84375.496094-1.222656.800781-.398438.410156-.753907.859375-1.058594 1.34375-.257813.285156-.496094.589844-.710938.914063l-32 64c0 .070312 0 .15625-.0625.238281-.1875.492188-.324218 1-.410156 1.519531-.160156.519531-.269531 1.058594-.320312 1.601563 0 .085937-.046876.152344-.046876.238281.054688.371094.136719.738281.246094 1.097656zm20.722656-9.113281 24-48h43.054688v48zm0 0"/><path d="m200 112h96c4.417969 0 8-3.582031 8-8v-64c0-4.417969-3.582031-8-8-8h-96c-4.417969 0-8 3.582031-8 8v64c0 4.417969 3.582031 8 8 8zm8-16v-48h80v48zm0 0"/><path d="m328 112h96c4.417969 0 8-3.582031 8-8v-64c0-4.417969-3.582031-8-8-8h-96c-4.417969 0-8 3.582031-8 8v64c0 4.417969 3.582031 8 8 8zm8-16v-48h80v48zm0 0"/><path d="m128 224c-13.253906 0-24 10.746094-24 24s10.746094 24 24 24 24-10.746094 24-24-10.746094-24-24-24zm0 32c-4.417969 0-8-3.582031-8-8s3.582031-8 8-8 8 3.582031 8 8-3.582031 8-8 8zm0 0"/><path d="m360 224c-13.253906 0-24 10.746094-24 24s10.746094 24 24 24 24-10.746094 24-24-10.746094-24-24-24zm0 32c-4.417969 0-8-3.582031-8-8s3.582031-8 8-8 8 3.582031 8 8-3.582031 8-8 8zm0 0"/></svg>