<svg height="480pt" viewBox="0 -24 480 480" width="480pt" xmlns="http://www.w3.org/2000/svg"><path d="m440 160h-25.753906l-38.484375-153.945312c-.894531-3.558594-4.09375-6.054688-7.761719-6.054688h-248c-3.667969 0-6.867188 2.496094-7.761719 6.054688l-38.484375 153.945312h-33.753906c-22.082031.027344-39.9726562 17.917969-40 40v80c.0273438 22.082031 17.917969 39.972656 40 40h8v72c.027344 22.082031 17.917969 39.972656 40 40h32c22.082031-.027344 39.972656-17.917969 40-40v-72h160v72c.027344 22.082031 17.917969 39.972656 40 40h32c22.082031-.027344 39.972656-17.917969 40-40v-72h8c22.082031-.027344 39.972656-17.917969 40-40v-80c-.027344-22.082031-17.917969-39.972656-40-40zm-313.753906-144h235.507812l36 144h-15.507812l-30.484375-121.945312c-.894531-3.558594-4.09375-6.054688-7.761719-6.054688h-200c-3.667969 0-6.867188 2.496094-7.761719 6.054688l-30.484375 121.945312h-15.507812zm239.507812 144h-243.507812l28-112h187.507812zm-301.753906 232v-72h16v94.527344c-9.554688-3.378906-15.957031-12.394532-16-22.527344zm48-72v96h-16v-96zm32 72c-.042969 10.132812-6.445312 19.148438-16 22.527344v-94.527344h16zm192 0v-72h16v94.527344c-9.554688-3.378906-15.957031-12.394532-16-22.527344zm48-72v96h-16v-96zm32 72c-.042969 10.132812-6.445312 19.148438-16 22.527344v-94.527344h16zm48-112c0 13.253906-10.746094 24-24 24h-400c-13.253906 0-24-10.746094-24-24v-80c0-13.253906 10.746094-24 24-24h400c13.253906 0 24 10.746094 24 24zm0 0"/><path d="m96 192c-26.507812 0-48 21.492188-48 48s21.492188 48 48 48 48-21.492188 48-48c-.027344-26.5-21.5-47.972656-48-48zm0 80c-17.671875 0-32-14.328125-32-32s14.328125-32 32-32 32 14.328125 32 32-14.328125 32-32 32zm0 0"/><path d="m384 192c-26.507812 0-48 21.492188-48 48s21.492188 48 48 48 48-21.492188 48-48c-.027344-26.5-21.5-47.972656-48-48zm0 80c-17.671875 0-32-14.328125-32-32s14.328125-32 32-32 32 14.328125 32 32-14.328125 32-32 32zm0 0"/><path d="m304 192h-128c-4.417969 0-8 3.582031-8 8v80c0 4.417969 3.582031 8 8 8h128c4.417969 0 8-3.582031 8-8v-80c0-4.417969-3.582031-8-8-8zm-56 16h16v64h-16zm-16 64h-16v-64h16zm-48-64h16v64h-16zm112 64h-16v-64h16zm0 0"/><path d="m384 216c-13.253906 0-24 10.746094-24 24s10.746094 24 24 24 24-10.746094 24-24-10.746094-24-24-24zm0 32c-4.417969 0-8-3.582031-8-8s3.582031-8 8-8 8 3.582031 8 8-3.582031 8-8 8zm0 0"/><path d="m96 216c-13.253906 0-24 10.746094-24 24s10.746094 24 24 24 24-10.746094 24-24-10.746094-24-24-24zm0 32c-4.417969 0-8-3.582031-8-8s3.582031-8 8-8 8 3.582031 8 8-3.582031 8-8 8zm0 0"/></svg>