<svg height="479pt" viewBox="0 -84 479.98995 479" width="479pt" xmlns="http://www.w3.org/2000/svg"><path d="m464 209.945312c12.335938-37.191406 10.390625-77.640624-5.464844-113.472656-.046875-.121094 0-.242187-.070312-.351562-.070313-.113282-.128906-.152344-.175782-.25-8.722656-19.71875-21.347656-37.464844-37.121093-52.167969-.0625-.0625-.085938-.160156-.152344-.222656-.0625-.066407-.183594-.097657-.253906-.167969-40.515625-37.875-97.851563-51.882812-151.265625-36.953125-.269532.0625-.539063.140625-.800782.230469-51.90625 14.644531-92.949218 54.449218-109.183593 105.882812h-87.511719c-29.179688.035156-55.460938 17.664063-66.566406 44.648438-.105469.222656-.167969.445312-.257813.6875-8.902343 22.167968-6.207031 47.3125 7.191407 67.089844 13.394531 19.78125 35.742187 31.613281 59.632812 31.574218h8.550781c4.011719 31.992188 31.207031 55.992188 63.449219 55.992188s59.441406-24 63.449219-55.992188h89.101562c4.011719 31.992188 31.207031 55.992188 63.449219 55.992188s59.441406-24 63.449219-55.992188h32.550781c11.675781.019532 21.664062-8.382812 23.644531-19.886718 1.976563-11.507813-4.632812-22.761719-15.644531-26.640626zm-16.648438-98.640624c1.339844 3.691406 2.53125 7.453124 3.578126 11.285156 2.53125 9.246094 4.125 18.71875 4.75 28.28125-7.738282-2.8125-13.472657-9.421875-15.167969-17.480469-1.695313-8.058594.890625-16.417969 6.839843-22.109375zm-43.75-61.746094-62.914062 62.914062h-60.6875v-92.289062c43.527344-10.136719 89.289062.738281 123.601562 29.375zm-139.601562-24.773438v87.6875h-87.71875c14.527344-40.957031 46.757812-73.175781 87.71875-87.6875zm-200 104.328125v23.359375h-37.886719c8.859375-12.6875 22.574219-21.144531 37.886719-23.359375zm80 167.359375c-26.121094-.023437-47.429688-20.925781-47.953125-47.042968.257813-.613282.257813-1.304688 0-1.917969 1.148437-25.648438 22.277344-45.855469 47.953125-45.855469s46.804688 20.207031 47.953125 45.855469c-.257813.613281-.257813 1.304687 0 1.917969-.523437 26.117187-21.832031 47.019531-47.953125 47.042968zm216 0c-26.121094-.023437-47.429688-20.925781-47.953125-47.042968.257813-.613282.257813-1.304688 0-1.917969 1.148437-25.648438 22.277344-45.855469 47.953125-45.855469s46.804688 20.207031 47.953125 45.855469c-.257813.613281-.257813 1.304687 0 1.917969-.523437 26.117187-21.832031 47.019531-47.953125 47.042968zm96-56h-32.550781c-4.007813-31.992187-31.207031-55.996094-63.449219-55.996094s-59.4375 24.003907-63.449219 55.996094h-89.101562c-4.007813-31.992187-31.207031-55.996094-63.449219-55.996094s-59.4375 24.003907-63.449219 55.996094h-8.550781c-17.683594.007813-34.332031-8.347656-44.890625-22.53125-10.5625-14.1875-13.789063-32.53125-8.707031-49.46875h53.597656c4.417969 0 8-3.582031 8-8v-32h264c1.050781-.007812 2.085938-.214844 3.054688-.617187.976562-.398438 1.863281-.988281 2.609374-1.734375l65.746094-65.746094c10.210938 10.554688 18.746094 22.609375 25.300782 35.753906-12.878907 9.183594-19.105469 25.121094-15.863282 40.605469 3.242188 15.484375 15.335938 27.582031 30.816406 30.832031-.699218 15.835938-4.039062 31.4375-9.886718 46.167969-.050782.210937-.09375.421875-.121094.632813-.140625.5-.234375 1.011718-.28125 1.527343-.054688.546875-.054688 1.097657 0 1.640625 0 .207032-.046875.410156 0 .617188.089844.269531.195312.539062.3125.800781.152344.535156.355469 1.054687.617188 1.550781.230468.421875.496093.820313.800781 1.191406.652343.816407 1.472656 1.488282 2.398437 1.96875.273438.144532.472656.375.761719.496094.285156.121094.464844.0625.6875.136719.4375.125.886719.210937 1.34375.253906.308594.082031.625.144531.945313.183594.320312-.027344.640624-.074219.957031-.144531.167969 0 .320312.042968.480469 0 2.304687-.300782 4.628906.382812 6.402343 1.882812 1.773438 1.5 2.832031 3.679688 2.917969 6 0 4.417969-3.582031 8-8 8zm0 0"/><path d="m360 224.472656c-13.253906 0-24 10.746094-24 24s10.746094 24 24 24 24-10.746094 24-24-10.746094-24-24-24zm0 32c-4.417969 0-8-3.582031-8-8 0-4.417968 3.582031-8 8-8s8 3.582032 8 8c0 4.417969-3.582031 8-8 8zm0 0"/><path d="m144 224.472656c-13.253906 0-24 10.746094-24 24s10.746094 24 24 24 24-10.746094 24-24-10.746094-24-24-24zm0 32c-4.417969 0-8-3.582031-8-8 0-4.417968 3.582031-8 8-8s8 3.582032 8 8c0 4.417969-3.582031 8-8 8zm0 0"/></svg>