<svg height="480pt" viewBox="0 -104 480.00139 480" width="480pt" xmlns="http://www.w3.org/2000/svg"><path d="m368 176c-26.507812 0-48 21.492188-48 48 0 26.511719 21.492188 48 48 48 26.511719 0 48-21.488281 48-48-.027344-26.496094-21.5-47.972656-48-48zm0 80c-17.671875 0-32-14.328125-32-32s14.328125-32 32-32 32 14.328125 32 32-14.328125 32-32 32zm0 0"/><path d="m112 176c-26.507812 0-48 21.492188-48 48 0 26.511719 21.492188 48 48 48 26.511719 0 48-21.488281 48-48-.027344-26.496094-21.5-47.972656-48-48zm0 80c-17.671875 0-32-14.328125-32-32s14.328125-32 32-32 32 14.328125 32 32-14.328125 32-32 32zm0 0"/><path d="m474.457031 161.601562c-.289062-.527343-.570312-1.050781-.863281-1.601562 10.242188-17.738281 8.050781-40.03125-5.449219-55.4375l-.144531-.144531-.128906-.167969c-.039063 0-.09375-.066406-.132813-.105469-1.210937-1.457031-2.527343-2.824219-3.9375-4.085937-1.144531-2.523438-2.503906-5.152344-4.121093-8-31.191407-55.066406-113.953126-92.058594-171.679688-92.058594-14.238281-.0078125-28.386719 2.285156-41.894531 6.785156-.675781.152344-1.328125.394532-1.9375.726563-37.824219 13.390625-67.753907 42.875-81.71875 80.488281h-26.449219c-35.257812.007812-69.140625 13.6875-94.519531 38.167969-3.914063 3.832031-7.597657 7.890625-11.03125 12.160156-.046875.046875-.082031.113281-.121094.160156-19.691406 24.140625-30.4101562 54.359375-30.328125 85.511719 0 4.417969 3.582031 8 8 8h40c4.417969 0 8-3.582031 8-8 0-30.925781 25.074219-56 56-56 30.929688 0 56 25.074219 56 56 0 4.417969 3.582031 8 8 8h128c4.417969 0 8-3.582031 8-8 0-30.925781 25.074219-56 56-56 30.929688 0 56 25.074219 56 56 0 4.417969 3.582031 8 8 8h8c22.082031-.027344 39.972656-17.917969 40-40v-8c.007812-7.558594-1.785156-15.011719-5.230469-21.742188-.097656-.234374-.210937-.457031-.3125-.65625zm-11.199219-19c-.121093.574219-.273437 1.152344-.425781 1.71875-.464843 1.761719-1.082031 3.480469-1.847656 5.136719-.121094.253907-.207031.519531-.328125.800781-6.167969-8.414062-6.199219-19.847656-.070312-28.289062.167968.328125.335937.648438.480468.976562.648438 1.449219 1.183594 2.945313 1.597656 4.480469.183594.632813.402344 1.261719.535157 1.910157.5 2.1875.769531 4.421874.800781 6.664062-.023438 2.210938-.273438 4.414062-.742188 6.578125zm-83.855468-101.3125-46.714844 46.710938h-76.6875v-67.4375c10.402344-3.003906 21.171875-4.539062 32-4.5625 32 1.324219 63.269531 9.976562 91.402344 25.289062zm-139.402344-14.886718v61.597656h-60.359375c11.753906-27.328125 33.277344-49.292969 60.359375-61.597656zm-64 164.796875v-87.199219h64v112h-56.472656c-.96875-8.65625-3.519532-17.0625-7.527344-24.800781zm-80-80.101563v.902344c0 13.253906-10.746094 24-24 24h-17.441406c11.976562-11.035156 26.078125-19.511719 41.441406-24.902344zm16 40.902344c-36.644531.050781-67.417969 27.585938-71.527344 64h-24.214844c1.488282-23.203125 9.765626-45.457031 23.796876-64h31.945312c22.082031-.027344 39.972656-17.917969 40-40v-5.597656c7.898438-1.605469 15.941406-2.410156 24-2.402344h24v66.488281c-13.15625-11.894531-30.261719-18.484375-48-18.488281zm184.472656 64h-40.472656v-112h72v60.175781c-17.621094 11.796875-29.15625 30.753907-31.527344 51.824219zm167.527344-24c0 13.253906-10.746094 24-24 24h-.472656c-2.375-21.847656-14.632813-41.402344-33.261719-53.0625-18.628906-11.664062-41.574219-14.144531-62.265625-6.738281v-56.886719l49.792969-49.792969c21.1875 12.304688 39.042969 29.609375 52 50.402344 1.515625 2.621094 2.878906 5.332031 4.070312 8.117187.152344.363282.496094.601563.707031.9375-6.785156 7.367188-10.558593 17.011719-10.570312 27.023438-.023438 14.738281 8.152344 28.261719 21.207031 35.097656 1.832031 4.054688 2.78125 8.453125 2.792969 12.902344zm0 0"/><path d="m384 224c0 8.835938-7.164062 16-16 16s-16-7.164062-16-16 7.164062-16 16-16 16 7.164062 16 16zm0 0"/><path d="m128 224c0 8.835938-7.164062 16-16 16s-16-7.164062-16-16 7.164062-16 16-16 16 7.164062 16 16zm0 0"/><path d="m416 112c0 8.835938-7.164062 16-16 16s-16-7.164062-16-16 7.164062-16 16-16 16 7.164062 16 16zm0 0"/><path d="m296 112h-24c-4.417969 0-8 3.582031-8 8s3.582031 8 8 8h24c4.417969 0 8-3.582031 8-8s-3.582031-8-8-8zm0 0"/><path d="m216 112h-24c-4.417969 0-8 3.582031-8 8s3.582031 8 8 8h24c4.417969 0 8-3.582031 8-8s-3.582031-8-8-8zm0 0"/></svg>