<svg height="480pt" viewBox="0 -111 480 480" width="480pt" xmlns="http://www.w3.org/2000/svg"><path d="m472 90.785156h-6.542969l-235.351562-88.257812c-14.691407-5.476563-31.222657-1.894532-42.328125 9.167968l-79.089844 79.089844h-52.6875c-30.929688 0-56 25.070313-56 56 0 30.925782 25.070312 56 56 56h.550781c4.007813 31.988282 31.207031 55.992188 63.449219 55.992188s59.441406-24.003906 63.449219-55.992188h105.101562c4.007813 31.988282 31.207031 55.992188 63.449219 55.992188s59.441406-24.003906 63.449219-55.992188h8.550781c30.914062-.035156 55.964844-25.089844 56-56v-48c0-4.421875-3.582031-8-8-8zm-24 16h16v24h-16zm-28.121094-16h-160.566406l43.792969-43.792968zm-220.800781-67.777344c6.660156-6.65625 16.589844-8.804687 25.402344-5.496093l62.160156 23.3125-49.953125 49.960937h-105.375zm-143.078125 83.777344h6.527344c-2.359375 6.878906-7.753906 12.289063-14.625 14.675782-6.867188 2.390624-14.457032 1.488281-20.574219-2.445313 7.5-7.800781 17.851563-12.21875 28.671875-12.230469zm64 136c-26.507812 0-48-21.492187-48-48 0-26.511718 21.492188-48 48-48s48 21.488282 48 48c-.027344 26.496094-21.5 47.972656-48 48zm232 0c-26.507812 0-48-21.492187-48-48 0-26.511718 21.492188-48 48-48s48 21.488282 48 48c-.027344 26.496094-21.5 47.972656-48 48zm72-56h-8.550781c-4.007813-31.992187-31.207031-55.996094-63.449219-55.996094s-59.441406 24.003907-63.449219 55.996094h-105.101562c-4.007813-31.992187-31.207031-55.996094-63.449219-55.996094s-59.441406 24.003907-63.449219 55.996094h-.550781c-13.171875.085938-25.53125-6.359375-33-17.214844-7.46875-10.851562-9.070312-24.699218-4.28125-36.972656 11.101562 7.027344 24.945312 8.144532 37.027344 2.988282 12.078125-5.15625 20.851562-15.929688 23.453125-28.800782h352.800781v32c0 4.417969 3.582031 8 8 8h24c-.027344 22.078125-17.917969 39.972656-40 40zm0 0"/><path d="m352 170.785156c-13.253906 0-24 10.742188-24 24 0 13.253906 10.746094 24 24 24s24-10.746094 24-24c0-13.257812-10.746094-24-24-24zm0 32c-4.417969 0-8-3.582031-8-8 0-4.421875 3.582031-8 8-8s8 3.578125 8 8c0 4.417969-3.582031 8-8 8zm0 0"/><path d="m120 170.785156c-13.253906 0-24 10.742188-24 24 0 13.253906 10.746094 24 24 24s24-10.746094 24-24c0-13.257812-10.746094-24-24-24zm0 32c-4.417969 0-8-3.582031-8-8 0-4.421875 3.582031-8 8-8s8 3.578125 8 8c0 4.417969-3.582031 8-8 8zm0 0"/></svg>