<svg height="480pt" viewBox="0 -108 480.0003 480" width="480pt" xmlns="http://www.w3.org/2000/svg"><path d="m464.335938 84.75c-.070313-.136719-.128907-.28125-.191407-.417969-4.867187-9.839843-10.816406-19.109375-17.746093-27.628906-1.664063-2.191406-3.414063-4.21875-5.261719-6.234375 0-.046875-.097657-.0625-.144531-.101562-.460938-.433594-.976563-.8125-1.527344-1.121094-.320313-.246094-.652344-.472656-1-.679688-.4375-.144531-.886719-.25-1.34375-.320312-.554688-.175782-1.125-.292969-1.707032-.34375-.0625 0-.117187 0-.183593 0h-123.230469c-13.253906 0-24 10.746094-24 24v8h-140.6875l66.34375-66.34375c3.03125-3.140625 2.988281-8.128906-.097656-11.214844-3.085938-3.085938-8.074219-3.128906-11.214844-.097656l-77.65625 77.617187h-84.6875c-8.835938 0-16 7.160157-16 16v49.132813c-14.085938 3.636718-23.9453125 16.320312-24 30.867187v16c0 8.835938 7.164062 16 16 16h56.550781c4.007813 31.988281 31.207031 55.992188 63.449219 55.992188s59.441406-24.003907 63.449219-55.992188h105.101562c4.007813 31.988281 31.207031 55.992188 63.449219 55.992188s59.441406-24.003907 63.449219-55.992188h40.550781c4.417969 0 8-3.582031 8-8v-48c.046875-23.285156-5.316406-46.257812-15.664062-67.113281zm-24.335938 11.113281h11.703125c3.566406 7.714844 6.394531 15.75 8.449219 24h-20.152344zm-136-24c0-4.417969 3.582031-8 8-8h119.59375c.726562.855469 1.445312 1.742188 2.199219 2.71875 3.410156 4.238281 6.566406 8.671875 9.453125 13.28125h-139.246094zm-240 24v24h-24v-24zm72 152c-26.507812 0-48-21.492187-48-48 0-26.511719 21.492188-48 48-48s48 21.488281 48 48c-.027344 26.496094-21.5 47.972657-48 48zm232 0c-26.507812 0-48-21.492187-48-48 0-26.511719 21.492188-48 48-48s48 21.488281 48 48c-.027344 26.496094-21.5 47.972657-48 48zm96-56h-32.550781c-4.007813-31.992187-31.207031-55.996093-63.449219-55.996093s-59.441406 24.003906-63.449219 55.996093h-105.101562c-4.007813-31.992187-31.207031-55.996093-63.449219-55.996093s-59.441406 24.003906-63.449219 55.996093h-56.550781v-16c0-8.839843 7.164062-16 16-16 4.417969 0 8-3.582031 8-8v-16h32c4.417969 0 8-3.582031 8-8v-32h344v32c0 4.417969 3.582031 8 8 8h31.054688c.625 5.308594.941406 10.652344.945312 16zm0 0"/><path d="m136 175.863281c-13.253906 0-24 10.742188-24 24 0 13.253907 10.746094 24 24 24s24-10.746093 24-24c0-13.257812-10.746094-24-24-24zm0 32c-4.417969 0-8-3.582031-8-8s3.582031-8 8-8 8 3.582031 8 8-3.582031 8-8 8zm0 0"/><path d="m368 175.863281c-13.253906 0-24 10.742188-24 24 0 13.253907 10.746094 24 24 24s24-10.746093 24-24c0-13.257812-10.746094-24-24-24zm0 32c-4.417969 0-8-3.582031-8-8s3.582031-8 8-8 8 3.582031 8 8-3.582031 8-8 8zm0 0"/></svg>