<svg height="480pt" viewBox="0 -108 480.06138 480" width="480pt" xmlns="http://www.w3.org/2000/svg"><path d="m464.0625 161.503906v-41.472656c-.042969-10.886719-7.410156-20.382812-17.945312-23.128906l-30.472657-91.398438c0-.113281-.109375-.203125-.152343-.304687-.128907-.292969-.28125-.582031-.445313-.855469-.285156-.578125-.636719-1.113281-1.058594-1.601562-.214843-.242188-.449219-.472657-.695312-.6875-.484375-.421876-1.023438-.785157-1.597657-1.070313-.257812-.15625-.527343-.292969-.800781-.410156-.902343-.355469-1.863281-.5390628-2.832031-.542969h-200c-2.675781 0-5.171875 1.335938-6.65625 3.558594l-61.625 92.441406h-83.71875c-22.082031.027344-39.976562 17.917969-40 40v25.449219c-3.339844 1.136719-6.371094 3.03125-8.855469 5.535156-7.046875 6.898437-9.152343 17.40625-5.3125 26.488281 3.71875 8.878906 12.449219 14.625 22.078125 14.527344h40.640625c4.007813 31.992188 31.207031 55.996094 63.449219 55.996094s59.4375-24.003906 63.445312-55.996094h97.105469c4.007813 31.992188 31.207031 55.996094 63.449219 55.996094s59.4375-24.003906 63.445312-55.996094h40.554688c13.222656-.074219 23.925781-10.777344 24-24-.042969-10.136719-6.445312-19.152344-16-22.527344zm-16-25.472656h-16v-24h8c4.417969 0 8 3.582031 8 8zm-144-40v-80h96v80zm112 0v-38.695312l12.894531 38.695312zm-203.722656-80h75.722656v80h-129.058594zm-156.277344 96h8v24h-32c0-13.253906 10.742188-24 24-24zm72 136c-26.511719 0-48-21.492188-48-48 0-26.511719 21.488281-48 48-48 26.507812 0 48 21.488281 48 48-.027344 26.5-21.503906 47.972656-48 48zm224 0c-26.511719 0-48-21.492188-48-48 0-26.511719 21.488281-48 48-48 26.507812 0 48 21.488281 48 48-.027344 26.5-21.503906 47.972656-48 48zm109.550781-58.304688c-1.460937 1.492188-3.464843 2.324219-5.550781 2.304688h-40.554688c-4.007812-31.992188-31.203124-55.996094-63.445312-55.996094s-59.441406 24.003906-63.449219 55.996094h-97.105469c-4.007812-31.992188-31.203124-55.996094-63.445312-55.996094s-59.441406 24.003906-63.449219 55.996094h-40.640625c-3.0625.105469-5.890625-1.621094-7.199218-4.390625-1.4375-3.15625-.753907-6.875 1.71875-9.304687 1.464843-1.5 3.476562-2.332032 5.570312-2.304688 4.417969 0 8-3.582031 8-8v-16h40c4.417969 0 8-3.582031 8-8v-32h336v32c0 4.417969 3.582031 8 8 8h24v16c0 4.417969 3.582031 8 8 8s8 3.582031 8 8c.003906 2.152344-.882812 4.214844-2.449219 5.695312zm0 0"/><path d="m128.0625 176.03125c-13.257812 0-24 10.746094-24 24s10.742188 24 24 24c13.253906 0 24-10.746094 24-24s-10.746094-24-24-24zm0 32c-4.417969 0-8-3.582031-8-8s3.582031-8 8-8 8 3.582031 8 8-3.582031 8-8 8zm0 0"/><path d="m352.0625 176.03125c-13.257812 0-24 10.746094-24 24s10.742188 24 24 24c13.253906 0 24-10.746094 24-24s-10.746094-24-24-24zm0 32c-4.417969 0-8-3.582031-8-8s3.582031-8 8-8 8 3.582031 8 8-3.582031 8-8 8zm0 0"/></svg>