<svg height="480pt" viewBox="0 -48 480.00048 480" width="480pt" xmlns="http://www.w3.org/2000/svg"><path d="m464 281.472656v-273.472656c0-4.417969-3.582031-8-8-8h-344c-1.050781-.00390625-2.09375.207031-3.0625.617188-.71875.339843-1.382812.785156-1.96875 1.320312-.183594.152344-.417969.222656-.585938.390625-.742187.746094-1.332031 1.632813-1.734374 2.609375l-88.007813 215.933594v.082031c-.128906.449219-.214844.910156-.265625 1.375-.183594.542969-.308594 1.101563-.375 1.671875v57.441406c-3.339844 1.136719-6.371094 3.035156-8.855469 5.542969-4.605469 4.460937-7.1835935 10.605469-7.144531 17.015625 0 13.253906 10.746094 24 24 24h40.550781c4.007813 31.992188 31.207031 55.996094 63.449219 55.996094s59.441406-24.003906 63.449219-55.996094h97.101562c4.007813 31.992188 31.207031 55.996094 63.449219 55.996094s59.441406-24.003906 63.449219-55.996094h40.550781c13.222656-.074219 23.925781-10.777344 24-24-.042969-10.132812-6.445312-19.148438-16-22.527344zm-16-1.472656h-46.121094c-12.109375-15.167969-30.46875-24-49.878906-24s-37.765625 8.832031-49.878906 24h-124.242188c-12.109375-15.167969-30.46875-24-49.878906-24s-37.765625 8.832031-49.878906 24h-46.121094v-54.398438l13.671875-33.601562h146.328125c4.417969 0 8-3.582031 8-8v-144c0-4.417969-3.582031-8-8-8h-81.144531l6.519531-16h330.625zm-159.449219 32h-97.101562c-.6875-5.492188-2.085938-10.871094-4.160157-16h105.421876c-2.074219 5.128906-3.472657 10.507812-4.160157 16zm-184.207031-264h79.65625v128h-131.808594zm-88.34375 256c-.003906-2.15625.882812-4.214844 2.449219-5.695312 1.457031-1.492188 3.464843-2.324219 5.550781-2.304688h44.710938c-2.074219 5.128906-3.472657 10.507812-4.160157 16h-40.550781c-4.417969 0-8-3.582031-8-8zm112 64c-26.507812 0-48-21.488281-48-48 0-26.507812 21.492188-48 48-48 26.511719 0 48 21.492188 48 48-.027344 26.5-21.5 47.972656-48 48zm224 0c-26.507812 0-48-21.488281-48-48 0-26.507812 21.492188-48 48-48 26.511719 0 48 21.492188 48 48-.027344 26.5-21.5 47.972656-48 48zm109.550781-58.304688c-1.457031 1.492188-3.464843 2.324219-5.550781 2.304688h-40.550781c-.6875-5.492188-2.085938-10.871094-4.160157-16h44.710938c4.417969 0 8 3.582031 8 8 .003906 2.15625-.882812 4.214844-2.449219 5.695312zm0 0"/><path d="m128 296c-13.253906 0-24 10.746094-24 24s10.746094 24 24 24 24-10.746094 24-24-10.746094-24-24-24zm0 32c-4.417969 0-8-3.582031-8-8s3.582031-8 8-8 8 3.582031 8 8-3.582031 8-8 8zm0 0"/><path d="m352 296c-13.253906 0-24 10.746094-24 24s10.746094 24 24 24 24-10.746094 24-24-10.746094-24-24-24zm0 32c-4.417969 0-8-3.582031-8-8s3.582031-8 8-8 8 3.582031 8 8-3.582031 8-8 8zm0 0"/><path d="m224 192h80c4.417969 0 8-3.582031 8-8v-144c0-4.417969-3.582031-8-8-8h-80c-4.417969 0-8 3.582031-8 8v144c0 4.417969 3.582031 8 8 8zm8-144h64v128h-64zm0 0"/></svg>