<svg height="480pt" viewBox="0 -92 480 480" width="480pt" xmlns="http://www.w3.org/2000/svg"><path d="m479.847656 232.792969c0-.261719.152344-.488281.152344-.75-.050781-.496094-.148438-.984375-.296875-1.457031 0-.300782-.019531-.597657-.054687-.894532l-64-208c-.046876-.152344-.160157-.257812-.214844-.402344-.265625-.703124-.625-1.363281-1.074219-1.96875-.152344-.21875-.3125-.429687-.488281-.628906-.511719-.5625-1.105469-1.042968-1.757813-1.433594-.191406-.113281-.351562-.25-.546875-.351562-.191406-.105469-.292968-.226562-.46875-.304688-.175781-.078124-.425781-.167968-.632812-.230468-56.203125-24.527344-120.640625-21.355469-174.160156 8.574218-.320313.222657-.625.46875-.914063.734376-.496094.324218-.957031.695312-1.375 1.113281-.363281.472656-.675781.980469-.925781 1.519531-.222656.316406-.425782.648438-.601563.992188l-30.089843 82.738281h-162.398438c-4.417969 0-8 3.582031-8 8v40.796875c-18.613281 3.828125-31.9765625 20.199218-32 39.203125v32c0 4.417969 3.582031 8 8 8h48.550781c4.007813 31.988281 31.207031 55.992187 63.449219 55.992187s59.441406-24.003906 63.449219-55.992187h113.101562c4.007813 31.988281 31.207031 55.992187 63.449219 55.992187s59.441406-24.003906 63.449219-55.992187h48.550781c1.167969-.011719 2.320312-.285157 3.367188-.800781.292968-.171876.574218-.359376.839843-.570313.6875-.414063 1.304688-.9375 1.832031-1.542969.113282-.136718.296876-.191406.402344-.335937.109375-.222657.207032-.453125.285156-.6875.386719-.625.671876-1.304688.859376-2.015625.125-.421875.214843-.855469.261718-1.296875zm-359.847656 47.25c-26.507812 0-48-21.492188-48-48 0-26.511719 21.492188-48 48-48s48 21.488281 48 48c-.027344 26.496093-21.5 47.972656-48 48zm240 0c-26.507812 0-48-21.492188-48-48 0-26.511719 21.492188-48 48-48s48 21.488281 48 48c-.027344 26.496093-21.5 47.972656-48 48zm63.449219-56c-4.007813-31.992188-31.207031-55.996094-63.449219-55.996094s-59.441406 24.003906-63.449219 55.996094h-113.101562c-4.007813-31.992188-31.207031-55.996094-63.449219-55.996094s-59.441406 24.003906-63.449219 55.996094h-40.550781v-24c0-13.257813 10.746094-24 24-24 4.417969 0 8-3.582031 8-8v-40h160c.964844-.015625 1.914062-.207031 2.808594-.570313.273437-.109375.539062-.238281.800781-.382812.578125-.292969 1.113281-.65625 1.597656-1.089844.242188-.195312.46875-.40625.679688-.628906.449219-.507813.828125-1.070313 1.128906-1.671875.144531-.238281.28125-.480469.398437-.730469 0-.070312.082032-.121094.105469-.191406l30.878907-84.976563c47.804687-26.011719 104.835937-28.902343 155.027343-7.863281l59.742188 194.105469zm0 0"/><path d="m415.734375 118.746094c-.011719-.414063-.0625-.828125-.148437-1.234375l-24-72c-.097657-.191407-.207032-.378907-.320313-.558594-.21875-.496094-.488281-.96875-.800781-1.40625-.277344-.429687-.601563-.824219-.960938-1.183594-.339844-.316406-.707031-.601562-1.097656-.851562-.480469-.335938-1.003906-.617188-1.550781-.839844-.191407-.070313-.320313-.222656-.519531-.277344-18.933594-5.621093-38.585938-8.433593-58.335938-8.351562-20.714844 1.09375-41.066406 5.859375-60.113281 14.078125l-6.589844 2.402344c-.113281 0-.175781.125-.289063.167968-1.445312.492188-2.660156 1.496094-3.414062 2.820313-.359375.449219-.664062.933593-.914062 1.449219-.039063.105468-.136719.175781-.175782.28125l-24 64c-.113281.464843-.1875.9375-.222656 1.414062-.136719.453125-.230469.917969-.28125 1.386719v.160156c.050781.613281.175781 1.21875.367188 1.804687.0625.421876.160156.839844.296874 1.242188.226563.4375.492188.851562.800782 1.238281.257812.453125.558594.875.902344 1.265625.332031.269532.683593.507813 1.058593.71875.492188.386719 1.027344.710938 1.597657.96875.046874 0 .089843.070313.136718.097656.910156.332032 1.871094.5 2.839844.503907h168c.859375 0 1.710938-.136719 2.527344-.410157.105468-.039062.175781-.121093.273437-.160156.527344-.226562 1.027344-.511718 1.488281-.855468.40625-.230469.792969-.496094 1.152344-.800782.644532-.777344 1.238282-1.597656 1.773438-2.453125.3125-.992187.554687-2.007812.722656-3.035156 0-.109375.0625-.199219.0625-.3125-.046875-.429687-.136719-.855469-.265625-1.269531zm-79.734375-70.425782c14.125.515626 28.144531 2.648438 41.785156 6.351563l19.117188 57.371094h-60.902344zm-16 .144532v63.578125h-68.457031l18.65625-49.738281 3.199219-1.152344c14.9375-6.175782 30.59375-10.4375 46.601562-12.6875zm0 0"/><path d="m120 208.042969c-13.253906 0-24 10.742187-24 24 0 13.253906 10.746094 24 24 24s24-10.746094 24-24c0-13.257813-10.746094-24-24-24zm0 32c-4.417969 0-8-3.582031-8-8s3.582031-8 8-8 8 3.582031 8 8-3.582031 8-8 8zm0 0"/><path d="m360 208.042969c-13.253906 0-24 10.742187-24 24 0 13.253906 10.746094 24 24 24s24-10.746094 24-24c0-13.257813-10.746094-24-24-24zm0 32c-4.417969 0-8-3.582031-8-8s3.582031-8 8-8 8 3.582031 8 8-3.582031 8-8 8zm0 0"/></svg>