<svg height="480pt" viewBox="0 -100 480 480" width="480pt" xmlns="http://www.w3.org/2000/svg"><path d="m479.902344 104.457031c.042968-.152343.074218-.304687.097656-.457031-.175781-.863281-.347656-1.726562-.519531-2.59375-.179688-.476562-.40625-.933594-.679688-1.367188-.230469-.4375-.496093-.851562-.800781-1.238281-.378906-.410156-.800781-.777343-1.257812-1.097656-.230469-.230469-.480469-.449219-.742188-.648437-.144531-.054688-.289062-.101563-.441406-.144532-.480469-.21875-.984375-.386718-1.503906-.503906-.519532-.15625-1.054688-.265625-1.597657-.316406-.160156 0-.296875-.089844-.457031-.089844h-67.054688l-45.746093-91.574219c-.585938-.753906-1.175781-1.507812-1.765625-2.257812-.820313-.605469-1.6875-1.140625-2.59375-1.601563-.519532-.167968-1.054688-.277344-1.601563-.328125-.402343-.113281-.820312-.191406-1.238281-.238281h-160c-.402344.046875-.796875.128906-1.183594.238281-.542968.050781-1.078125.160157-1.601562.320313-.476563.222656-.933594.492187-1.359375.800781-.433594.226563-.847657.496094-1.230469.800781-.402344.410156-.757812.867188-1.058594 1.359375-.257812.28125-.496094.585938-.710937.90625l-45.800781 91.574219h-131.054688c-.160156 0-.296875.078125-.457031.089844-.527344.050781-1.046875.15625-1.550781.316406-.527344.113281-1.039063.285156-1.527344.503906-.136719.074219-.296875.066406-.433594.144532-.261719.199218-.511719.417968-.742188.648437-.457031.320313-.878906.6875-1.257812 1.097656-.304688.386719-.570312.800781-.800781 1.238281-.269531.433594-.5.890626-.679688 1.367188-.179687.867188-.367187 1.730469-.550781 2.59375.0234375.152344.0546875.304688.0976562.457031.0468748.527344.1523438 1.046875.3085938 1.550781.113281.527344.285156 1.039063.503906 1.527344.074219.136719.066406.296875.144532.433594l64 112c.347656.582031.761718 1.121094 1.242187 1.597656l.0625.074219c.65625.632813 1.417969 1.148437 2.25 1.519531.207031.105469.414063.175782.636719.265625.878906.347657 1.808594.542969 2.753906.574219h16.566406c4.007813 31.992188 31.207032 55.996094 63.449219 55.996094s59.441406-24.003906 63.449219-55.996094h49.101562c4.007813 31.992188 31.207032 55.996094 63.449219 55.996094s59.441406-24.003906 63.449219-55.996094h16.535156c.9375-.027344 1.863281-.214844 2.734375-.550781.226563-.089844.433594-.160157.640625-.265625.832031-.371094 1.59375-.886719 2.25-1.519532l.0625-.070312c.480469-.480469.894531-1.019531 1.242188-1.601562l64-112c.078124-.136719.070312-.296876.140624-.433594.222657-.488282.390626-1 .503907-1.527344.167969-.511719.277343-1.039062.328125-1.574219zm-76.542969 103.542969h-11.910156c-4.007813-31.992188-31.207031-55.996094-63.449219-55.996094s-59.441406 24.003906-63.449219 55.996094h-49.101562c-4.007813-31.992188-31.207031-55.996094-63.449219-55.996094s-59.441406 24.003906-63.449219 55.996094h-11.910156l-54.855469-96h122.214844c.9375-.027344 1.863281-.214844 2.734375-.550781.25-.097657.472656-.191407.707031-.304688.6875-.335937 1.324219-.765625 1.894532-1.28125.121093-.109375.257812-.183593.367187-.296875.578125-.585937 1.066406-1.257812 1.441406-1.992187l45.800781-91.574219h150.109376l45.785156 91.574219c.375.734375.863281 1.40625 1.441406 1.992187.109375.113282.246094.1875.367188.296875.566406.515625 1.207031.945313 1.894531 1.28125.234375.113281.457031.207031.703125.304688.878906.339843 1.8125.527343 2.753906.550781h58.230469zm-251.359375 56c-26.507812 0-48-21.492188-48-48s21.492188-48 48-48 48 21.492188 48 48c-.027344 26.5-21.5 47.972656-48 48zm176 0c-26.507812 0-48-21.492188-48-48s21.492188-48 48-48 48 21.492188 48 48c-.027344 26.5-21.5 47.972656-48 48zm0 0"/><path d="m375.9375 103.6875c-.039062-.820312-.203125-1.628906-.488281-2.398438-.074219-.175781-.113281-.359374-.183594-.527343-.074219-.167969-.058594-.203125-.105469-.296875l-32-64c-.214844-.320313-.453125-.625-.710937-.914063-.304688-.480469-.660157-.933593-1.058594-1.34375-.386719-.324219-.808594-.609375-1.253906-.847656-.855469-.667969-1.898438-1.050781-2.984375-1.085937-.378906-.121094-.761719-.210938-1.152344-.273438h-128c-.386719.046875-.769531.125-1.144531.230469-.566407.054687-1.128907.164062-1.671875.335937-.457032.203125-.890625.449219-1.296875.738282-.457031.242187-.886719.53125-1.285157.863281-.394531.40625-.742187.851562-1.042968 1.328125-.261719.292968-.5.601562-.71875.929687l-32 64c-.046875.09375-.054688.199219-.105469.292969-.046875.097656-.109375.351562-.183594.527344-.285156.773437-.449219 1.582031-.488281 2.402344 0 .113281-.0625.199218-.0625.3125v.136718c.023438.917969.210938 1.828125.542969 2.6875.089843.214844.183593.414063.289062.621094.105469.210938.191407.515625.335938.753906.289062.4375.621093.847656.992187 1.222656.085938.089844.144532.191407.230469.28125.648437.617188 1.394531 1.125 2.210937 1.496094.207032.085938.398438.167969.613282.238282.882812.371093 1.828125.574218 2.785156.601562h192c.945312-.019531 1.882812-.207031 2.761719-.558594.214843-.074218.40625-.152344.613281-.242187.816406-.371094 1.5625-.875 2.210938-1.496094.085937-.085937.140624-.191406.230468-.277344.367188-.378906.699219-.785156.992188-1.226562.144531-.238281.214844-.503907.335937-.75.121094-.25.199219-.410157.289063-.625.339844-.855469.535156-1.765625.566406-2.6875v-.136719c0-.113281-.054688-.199219-.0625-.3125zm-186.992188-7.6875 24-48h51.054688v48zm91.054688 0v-48h51.054688l24 48zm0 0"/><path d="m152 192c-13.253906 0-24 10.746094-24 24s10.746094 24 24 24 24-10.746094 24-24-10.746094-24-24-24zm0 32c-4.417969 0-8-3.582031-8-8s3.582031-8 8-8 8 3.582031 8 8-3.582031 8-8 8zm0 0"/><path d="m328 192c-13.253906 0-24 10.746094-24 24s10.746094 24 24 24 24-10.746094 24-24-10.746094-24-24-24zm0 32c-4.417969 0-8-3.582031-8-8s3.582031-8 8-8 8 3.582031 8 8-3.582031 8-8 8zm0 0"/></svg>