<svg height="480pt" viewBox="0 -48 480.00259 480" width="480pt" xmlns="http://www.w3.org/2000/svg"><path d="m288 32h-64c-.144531 0-.261719.074219-.40625.082031-.542969.054688-1.082031.164063-1.601562.328125-.480469.09375-.953126.234375-1.40625.421875-.421876.230469-.816407.5-1.183594.800781-.46875.3125-.90625.671876-1.296875 1.074219-.097657.101563-.226563.148438-.3125.253907l-104 128c-.183594.296874-.347657.609374-.488281.929687-.316407.460937-.585938.953125-.800782 1.46875-.167968.882813-.335937 1.761719-.503906 2.640625 0 .144531.074219.257812.082031.402344.054688.542968.164063 1.078125.328125 1.597656.097656.476562.238282.941406.421875 1.394531.230469.417969.496094.8125.800781 1.183594.304688.472656.660157.90625 1.0625 1.296875.105469.09375.152344.222656.265626.308594.378906.265625.785156.496094 1.207031.683594.304687.195312.625.371093.953125.527343.914062.378907 1.890625.582031 2.878906.605469h168c4.417969 0 8-3.582031 8-8v-128c0-4.417969-3.582031-8-8-8zm-8 128h-143.199219l91.007813-112h52.191406zm0 0"/><path d="m480 269.6875c.257812-31.207031-24.792969-56.734375-56-57.0625-8.515625-.289062-15.425781-6.988281-15.976562-15.488281-.554688-8.503907 5.425781-16.039063 13.832031-17.429688l2.640625-.167969c2.46875-.15625 4.726562-1.441406 6.117187-3.488281 1.390625-2.042969 1.757813-4.617187.996094-6.96875l-46.496094-142.59375 12.605469-12.886719c2.257812-2.300781 2.914062-5.730468 1.664062-8.703124-1.25-2.96875-4.160156-4.898438-7.382812-4.898438h-184c-2.402344 0-4.679688 1.082031-6.199219 2.945312l-130.96875 160.625c-26.269531.921876-47.035156 22.589844-46.832031 48.878907 0 3.28125.328125 6.558593.976562 9.777343-18.160156 12.570313-27.597656 34.367188-24.34375 56.214844 3.257813 21.84375 18.644532 39.941406 39.679688 46.671875 2.925781 33.089844 30.472656 58.558594 63.6875 58.886719 32.09375-.308594 59.070312-24.179688 63.28125-56h161.4375c4.167969 33.785156 34.085938 58.367188 68.035156 55.902344 33.949219-2.464844 60.003906-31.113282 59.246094-65.140625 0-.800781-.085938-1.550781-.121094-2.335938 15.125-10.761719 24.113282-28.175781 24.121094-46.738281zm-376 98.3125c-26.710938-.679688-48.007812-22.527344-48.007812-49.246094s21.296874-48.566406 48.007812-49.25c26.710938.683594 48.007812 22.53125 48.007812 49.25s-21.296874 48.566406-48.007812 49.246094zm288 0c-26.640625.691406-49.003906-19.929688-50.46875-46.539062-1.460938-26.613282 18.503906-49.5625 45.058594-51.796876 26.558594-2.234374 50.078125 17.054688 53.082031 43.539063 0 .125 0 .238281.058594.367187.179687 1.722657.269531 3.457032.269531 5.191407.308594 26.835937-21.164062 48.863281-48 49.238281zm0-114.496094c-33.066406.324219-60.542969 25.578125-63.65625 58.496094h-160.6875c-3.113281-32.917969-30.589844-58.171875-63.65625-58.496094-31.617188.300782-58.34375 23.496094-63.09375 54.753906-15.207031-6.792968-24.96875-21.917968-24.90625-38.570312-.003906-14.738281 7.804688-28.378906 20.519531-35.839844.433594-.292968.886719-.558594 1.351563-.796875 3.539062-1.804687 5.214844-5.929687 3.945312-9.691406-1.199218-3.511719-1.8125-7.199219-1.816406-10.910156-.222656-17.910157 14.089844-32.625 32-32.894531h2.640625c2.402344 0 4.679687-1.082032 6.199219-2.945313l130.960937-160.609375h161.183594l-2.703125 2.769531c-2.082031 2.128907-2.808594 5.234375-1.886719 8.0625l45.15625 138.496094c-14.800781 5.332031-23.6875 20.472656-21.125 36 2.5625 15.523437 15.84375 27.003906 31.574219 27.296875 22.371094.324219 40.261719 18.691406 40 41.0625-.003906 10.59375-4.050781 20.785156-11.3125 28.496094-8.441406-26.445313-32.925781-44.472656-60.6875-44.679688zm0 0"/><path d="m104 294.402344c-9.882812-.148438-18.875 5.695312-22.761719 14.785156-3.882812 9.089844-1.886719 19.625 5.050781 26.667969s17.441407 9.191406 26.589844 5.445312c9.144532-3.75 15.121094-12.652343 15.121094-22.539062.085938-13.347657-10.652344-24.246094-24-24.359375zm0 32.710937c-3.410156.148438-6.566406-1.792969-7.976562-4.90625-1.40625-3.109375-.78125-6.761719 1.578124-9.230469 2.363282-2.464843 5.988282-3.246093 9.15625-1.972656 3.167969 1.273438 5.242188 4.34375 5.242188 7.757813.085938 4.511719-3.488281 8.242187-8 8.351562zm0 0"/><path d="m392 294.402344c-9.882812-.148438-18.875 5.695312-22.761719 14.785156-3.882812 9.089844-1.886719 19.625 5.050781 26.667969s17.441407 9.191406 26.589844 5.445312c9.144532-3.75 15.121094-12.652343 15.121094-22.539062.085938-13.347657-10.652344-24.246094-24-24.359375zm0 32.710937c-3.410156.148438-6.566406-1.792969-7.976562-4.90625-1.40625-3.109375-.78125-6.761719 1.578124-9.230469 2.363282-2.464843 5.988282-3.246093 9.15625-1.972656 3.167969 1.273438 5.242188 4.34375 5.242188 7.757813.085938 4.511719-3.488281 8.242187-8 8.351562zm0 0"/></svg>