<svg height="480pt" viewBox="0 -64 480.12471 480" width="480pt" xmlns="http://www.w3.org/2000/svg"><path d="m120.125 144.0625c-26.511719 0-48 21.488281-48 48 0 26.507812 21.488281 48 48 48 26.507812 0 48-21.492188 48-48-.027344-26.5-21.503906-47.972656-48-48zm0 80c-17.675781 0-32-14.328125-32-32s14.324219-32 32-32c17.671875 0 32 14.328125 32 32s-14.328125 32-32 32zm0 0"/><path d="m360.125 144.0625c-26.511719 0-48 21.488281-48 48 0 26.507812 21.488281 48 48 48 26.507812 0 48-21.492188 48-48-.027344-26.5-21.503906-47.972656-48-48zm0 80c-17.675781 0-32-14.328125-32-32s14.324219-32 32-32c17.671875 0 32 14.328125 32 32s-14.328125 32-32 32zm0 0"/><path d="m480.125 192.0625c.144531-31.867188-18.742188-60.75-48-73.382812 4.785156-3.371094 7.738281-8.769532 8-14.617188 0-13.253906-10.746094-24-24-24h-14.863281l-17.347657-73.832031c-.847656-3.617188-4.074218-6.1718752-7.789062-6.167969h-272c-3.714844-.0039062-6.941406 2.550781-7.792969 6.167969l-17.359375 73.832031h-14.847656c-13.257812 0-24 10.746094-24 24 .257812 5.847656 3.210938 11.246094 8 14.617188-32.042969 13.917968-51.347656 47.019531-47.683594 81.761718 3.660156 34.742188 29.441406 63.089844 63.683594 70.019532v41.601562c.023438 22.082031 17.917969 39.972656 40 40h32c22.078125-.027344 39.972656-17.917969 40-40v-40h128v40c.023438 22.082031 17.917969 39.972656 40 40h32c22.078125-.027344 39.972656-17.917969 40-40v-41.601562c37.226562-7.648438 63.957031-40.394532 64-78.398438zm-56-88c0 1.191406-5.066406 5.601562-15.511719 7.273438l-3.585937-15.273438h11.097656c4.417969 0 8 3.582031 8 8zm-313.664062-88h259.328124l22.566407 96h-304.457031zm-46.335938 80h11.085938l-3.589844 15.273438c-10.433594-1.671876-15.496094-6.082032-15.496094-7.273438 0-4.417969 3.582031-8 8-8zm96 216c0 13.253906-10.746094 24-24 24h-32c-13.257812 0-24-10.746094-24-24v-40h80zm240 0c0 13.253906-10.746094 24-24 24h-32c-13.257812 0-24-10.746094-24-24v-40h80zm0-56h-320c-34.621094-.421875-62.628906-28.300781-63.210938-62.917969-.582031-34.617187 26.472657-63.421875 61.058594-65.011719.121094 0 .207032-.0625.320313-.070312h323.664062c.109375 0 .199219.070312.320313.070312 34.585937 1.589844 61.640625 30.394532 61.054687 65.011719-.582031 34.617188-28.585937 62.496094-63.207031 62.917969zm0 0"/><path d="m296.125 160.0625h-112c-4.417969 0-8 3.582031-8 8s3.582031 8 8 8h112c4.417969 0 8-3.582031 8-8s-3.582031-8-8-8zm0 0"/><path d="m280.125 208.0625h-80c-4.417969 0-8 3.582031-8 8s3.582031 8 8 8h80c4.417969 0 8-3.582031 8-8s-3.582031-8-8-8zm0 0"/></svg>