<svg height="495pt" viewBox="0 -111 495.84518 495" width="495pt" xmlns="http://www.w3.org/2000/svg"><path d="m494.9375 164.910156c.640625-3.105468.945312-6.265625.902344-9.433594.082031-6.714843-.875-13.402343-2.839844-19.824218-4.097656-13.277344-12.425781-24.851563-23.710938-32.960938-.226562-.160156-.460937-.304687-.703124-.4375-2.617188-1.859375-5.382813-3.503906-8.265626-4.914062l-22.664062-22.671875c-3.125-3.121094-8.1875-3.121094-11.3125 0l-53.65625 53.65625h-73.40625l19.398438-19.457031c9.511718-9.238282 9.734374-24.4375.496093-33.949219-9.238281-9.515625-24.4375-9.734375-33.953125-.496094l-56.421875 53.902344h-57.488281l36.609375-36.609375 9.597656 10.539062c1.910157 2.167969 4.84375 3.136719 7.667969 2.53125 2.828125-.601562 5.109375-2.679687 5.972656-5.4375.859375-2.757812.164063-5.769531-1.816406-7.871094l-22.863281-25.082031c-1.910157-2.167969-4.84375-3.136719-7.667969-2.53125-2.828125.601563-5.109375 2.679688-5.96875 5.4375-.863281 2.757813-.167969 5.769531 1.8125 7.871094l2.472656 2.710937-37.128906 37.128907v-33.375l69.65625-69.65625c3.03125-3.140625 2.988281-8.128907-.097656-11.214844-3.085938-3.085937-8.074219-3.128906-11.214844-.097656l-69.65625 69.65625h-28.6875c-17.515625.011719-34.8125 3.882812-50.664062 11.335937-.363282.140625-.714844.304688-1.054688.496094-12.285156 5.851562-23.488281 13.734375-33.144531 23.320312-22.546875 22.472657-35.1953128 53.015626-35.136719 84.847657 0 4.417969 3.582031 8 8 8h39.59375c-.160156 1.726562-.363281 3.417969-.394531 5.257812-.445313 35.328125 27.824219 64.332031 63.152343 64.796875h1.023438c34.921875-.066406 63.332031-28.128906 63.824219-63.046875.007812-2.339843-.121094-4.679687-.382813-7.007812h177.183594c-3.066406 18.371093 2.074219 37.164062 14.0625 51.414062 11.988281 14.253907 29.625 22.535157 48.25 22.65625h.886719c18.992187 0 37-8.433593 49.160156-23.019531 12.15625-14.585938 17.210937-33.820312 13.792969-52.5 8.929687-9.34375 14.789062-21.195312 16.785156-33.964844zm-198.601562-78.984375c3.191406-3.066406 8.261718-2.964843 11.324218.226563s2.960938 8.261718-.226562 11.324218l-30.753906 30.847657h-24.71875zm-232.335938 18.839844v23.558594h-25.863281c2.578125-3.339844 5.355469-6.519531 8.3125-9.527344 5.332031-5.289063 11.214843-9.996094 17.550781-14.03125zm-36.183594 39.558594h44.183594c4.417969 0 8-3.582031 8-8v-40c12.671875-5.289063 26.269531-8.007813 40-8h24v63.199219c-9.683594-5.78125-20.722656-8.898438-32-9.03125h-.800781c-26.824219-.078126-50.828125 16.644531-60.046875 41.832031h-34.847656c1.078124-13.976563 4.992187-27.589844 11.511718-40zm116.839844 96.535156c-9.035156 8.972656-21.34375 13.863281-34.070312 13.542969-26.484376-.363282-47.679688-22.089844-47.386719-48.574219.019531-3.828125.535156-7.632813 1.535156-11.328125v-.085938l.050781-.097656c5.441406-21.15625 24.554688-35.917968 46.398438-35.839844h.585937c13.054688.140626 25.484375 5.617188 34.398438 15.160157 5.527343 5.871093 9.457031 13.058593 11.425781 20.878906 1.152344 4.089844 1.691406 8.328125 1.597656 12.578125-.132812 12.746094-5.367187 24.90625-14.535156 33.765625zm26.433594-56.535156c-2.554688-6.941407-6.304688-13.378907-11.089844-19.015625v-20.984375h216c2.125-.011719 4.15625-.855469 5.664062-2.351563l50.335938-50.335937 17.863281 17.863281c.378907.308594.785157.574219 1.21875.800781.355469.316407.746094.597657 1.15625.839844 2.695313 1.242187 5.25 2.761719 7.625 4.535156.234375.160157.472657.320313.714844.464844 8.136719 6.03125 14.136719 14.503906 17.125 24.183594 1.5 4.867187 2.21875 9.941406 2.136719 15.03125.03125 2.242187-.179688 4.484375-.632813 6.679687-1.0625 6.695313-3.550781 13.085938-7.292969 18.738282-10.917968-20.851563-32.382812-34.042969-55.914062-34.371094-16.953125-.109375-33.277344 6.402344-45.496094 18.152344-5.808594 5.65625-10.488281 12.367187-13.792968 19.769531zm244.109375 74.078125h-.632813c-15.230468-.210938-29.457031-7.632813-38.347656-20-8.886719-12.371094-11.386719-28.222656-6.730469-42.726563.089844-.207031.167969-.417969.230469-.632812 6.585938-19.496094 24.871094-32.625 45.449219-32.640625h.648437c20.429688.234375 38.457032 13.410156 44.878906 32.800781.039063.097656.066407.191406.105469.289063 4.789063 14.613281 2.28125 30.632812-6.746093 43.082031-9.027344 12.449219-23.476563 19.8125-38.855469 19.796875zm0 0"/><path d="m122.320312 185.210938c-3.308593-1.730469-6.976562-2.664063-10.710937-2.726563h-.128906c-.847657 0-1.695313.207031-2.550781.296875-3.101563.226562-6.132813 1.042969-8.929688 2.398438h-.046875c-7.722656 4.109374-12.59375 12.09375-12.722656 20.839843-.183594 13.269531 10.414062 24.183594 23.683593 24.382813h.238282c13.128906-.050782 23.816406-10.570313 24.078125-23.695313.082031-9.023437-4.90625-17.328125-12.910157-21.496093zm-11.199218 29.273437c-2.132813-.039063-4.164063-.921875-5.648438-2.457031-1.488281-1.507813-2.300781-3.554688-2.257812-5.671875.042968-2.335938 1.101562-4.542969 2.90625-6.03125h10.0625c1.890625 1.503906 3 3.785156 3.015625 6.199219-.074219 4.417968-3.675781 7.960937-8.09375 7.960937zm0 0"/><path d="m415.464844 186.394531h-.265625c-13.253907-.085937-24.070313 10.585938-24.160157 23.839844-.085937 13.257813 10.585938 24.074219 23.839844 24.160156h.320313c13.253906.082031 24.066406-10.59375 24.148437-23.851562.082032-13.253907-10.597656-24.066407-23.851562-24.148438zm7.6875 24.105469c-.023438 2.113281-.886719 4.128906-2.398438 5.601562-1.554687 1.425782-3.574218 2.230469-5.683594 2.261719-4.417968-.027343-7.976562-3.632812-7.945312-8.050781.027344-4.417969 3.632812-7.976562 8.050781-7.949219h.097657c4.414062.058594 7.949218 3.683594 7.894531 8.097657zm0 0"/></svg>