<svg height="480pt" viewBox="0 -100 480 480" width="480pt" xmlns="http://www.w3.org/2000/svg"><path d="m472 96h-68.6875l-93.648438-93.648438c-1.507812-1.496093-3.539062-2.3398432-5.664062-2.351562h-116c-.667969.046875-1.332031.179688-1.96875.390625-2.726562-.777344-5.660156-.03125-7.6875 1.953125l-93.65625 93.65625h-20.6875c-35.328125.039062-63.9609375 28.671875-64 64v56c0 4.417969 3.582031 8 8 8h56.550781c4.007813 31.992188 31.207031 55.996094 63.449219 55.996094s59.441406-24.003906 63.449219-55.996094h89.101562c4.007813 31.992188 31.207031 55.996094 63.449219 55.996094s59.441406-24.003906 63.449219-55.996094h64.550781c4.417969 0 8-3.582031 8-8v-112c0-4.417969-3.582031-8-8-8zm-8 40h-16v-24h16zm-264-40v-80h96v80zm112-68.6875 68.6875 68.6875h-68.6875zm-128-8v76.6875h-76.6875zm-136 95.488281v29.199219h-29.199219c4.855469-13.625 15.574219-24.34375 29.199219-29.199219zm80 149.199219c-26.507812 0-48-21.492188-48-48s21.492188-48 48-48 48 21.492188 48 48c-.027344 26.5-21.5 47.972656-48 48zm216 0c-26.507812 0-48-21.492188-48-48s21.492188-48 48-48 48 21.492188 48 48c-.027344 26.5-21.5 47.972656-48 48zm63.449219-56c-4.007813-31.992188-31.207031-55.996094-63.449219-55.996094s-59.441406 24.003906-63.449219 55.996094h-89.101562c-4.007813-31.992188-31.207031-55.996094-63.449219-55.996094s-59.441406 24.003906-63.449219 55.996094h-48.550781v-48h40c4.417969 0 8-3.582031 8-8v-40h368v32c0 4.417969 3.582031 8 8 8h24v56zm0 0"/><path d="m128 192c-13.253906 0-24 10.746094-24 24s10.746094 24 24 24 24-10.746094 24-24-10.746094-24-24-24zm0 32c-4.417969 0-8-3.582031-8-8s3.582031-8 8-8 8 3.582031 8 8-3.582031 8-8 8zm0 0"/><path d="m344 192c-13.253906 0-24 10.746094-24 24s10.746094 24 24 24 24-10.746094 24-24-10.746094-24-24-24zm0 32c-4.417969 0-8-3.582031-8-8s3.582031-8 8-8 8 3.582031 8 8-3.582031 8-8 8zm0 0"/></svg>