<svg height="480pt" viewBox="0 -100 480 480" width="480pt" xmlns="http://www.w3.org/2000/svg"><path d="m128 192c-13.253906 0-24 10.746094-24 24s10.746094 24 24 24 24-10.746094 24-24-10.746094-24-24-24zm0 32c-4.417969 0-8-3.582031-8-8s3.582031-8 8-8 8 3.582031 8 8-3.582031 8-8 8zm0 0"/><path d="m344 192c-13.253906 0-24 10.746094-24 24s10.746094 24 24 24 24-10.746094 24-24-10.746094-24-24-24zm0 32c-4.417969 0-8-3.582031-8-8s3.582031-8 8-8 8 3.582031 8 8-3.582031 8-8 8zm0 0"/><path d="m440 0h-256c-2.125.0117188-4.15625.855469-5.664062 2.351562l-93.648438 93.648438h-20.6875c-35.328125.039062-63.9609375 28.671875-64 64v40c0 13.253906 10.746094 24 24 24h40.550781c4.007813 31.992188 31.207031 55.996094 63.449219 55.996094s59.441406-24.003906 63.449219-55.996094h89.101562c4.007813 31.992188 31.207031 55.996094 63.449219 55.996094s59.441406-24.003906 63.449219-55.996094h48.550781c13.253906 0 24-10.746094 24-24v-160c-.027344-22.082031-17.917969-39.9726562-40-40zm24 176h-70.121094c-12.113281-15.167969-30.46875-24-49.878906-24s-37.765625 8.832031-49.878906 24h-116.242188c-12.113281-15.167969-30.46875-24-49.878906-24s-37.765625 8.832031-49.878906 24h-62.121094v-16h40c4.417969 0 8-3.582031 8-8v-40h400zm-183.449219 32h-89.101562c-.6875-5.492188-2.085938-10.871094-4.160157-16h97.421876c-2.074219 5.128906-3.472657 10.507812-4.160157 16zm39.449219-112v-80h64v80zm-16 0h-104v-80h104zm160-56v56h-64v-80h40c13.253906 0 24 10.746094 24 24zm-280-20.6875v76.6875h-76.6875zm-136 95.488281v29.199219h-29.199219c4.855469-13.625 15.574219-24.34375 29.199219-29.199219zm-32 85.199219v-8h52.710938c-2.074219 5.128906-3.472657 10.507812-4.160157 16h-40.550781c-4.417969 0-8-3.582031-8-8zm112 64c-26.507812 0-48-21.492188-48-48s21.492188-48 48-48 48 21.492188 48 48c-.027344 26.5-21.5 47.972656-48 48zm216 0c-26.507812 0-48-21.492188-48-48s21.492188-48 48-48 48 21.492188 48 48c-.027344 26.5-21.5 47.972656-48 48zm120-64c0 4.417969-3.582031 8-8 8h-48.550781c-.6875-5.492188-2.085938-10.871094-4.160157-16h60.710938zm0 0"/></svg>