<svg height="480pt" viewBox="0 -100 480 480" width="480pt" xmlns="http://www.w3.org/2000/svg"><path d="m128 192c-13.253906 0-24 10.746094-24 24s10.746094 24 24 24 24-10.746094 24-24-10.746094-24-24-24zm0 32c-4.417969 0-8-3.582031-8-8s3.582031-8 8-8 8 3.582031 8 8-3.582031 8-8 8zm0 0"/><path d="m344 192c-13.253906 0-24 10.746094-24 24s10.746094 24 24 24 24-10.746094 24-24-10.746094-24-24-24zm0 32c-4.417969 0-8-3.582031-8-8s3.582031-8 8-8 8 3.582031 8 8-3.582031 8-8 8zm0 0"/><path d="m472 0h-288c-2.125.0117188-4.15625.855469-5.664062 2.351562l-93.648438 93.648438h-20.6875c-35.328125.039062-63.9609375 28.671875-64 64v24c.0273438 22.082031 17.917969 39.972656 40 40h24.550781c4.007813 31.992188 31.207031 55.996094 63.449219 55.996094s59.441406-24.003906 63.449219-55.996094h89.101562c4.007813 31.992188 31.207031 55.996094 63.449219 55.996094s59.441406-24.003906 63.449219-55.996094h64.550781c4.417969 0 8-3.582031 8-8v-208c0-4.417969-3.582031-8-8-8zm-424 114.800781v29.199219h-29.199219c4.855469-13.625 15.574219-24.34375 29.199219-29.199219zm80 149.199219c-26.507812 0-48-21.492188-48-48s21.492188-48 48-48 48 21.492188 48 48c-.027344 26.5-21.5 47.972656-48 48zm216 0c-26.507812 0-48-21.492188-48-48s21.492188-48 48-48 48 21.492188 48 48c-.027344 26.5-21.5 47.972656-48 48zm120-56h-56.550781c-4.007813-31.992188-31.207031-55.996094-63.449219-55.996094s-59.441406 24.003906-63.449219 55.996094h-89.101562c-4.007813-31.992188-31.207031-55.996094-63.449219-55.996094s-59.441406 24.003906-63.449219 55.996094h-24.550781c-13.253906 0-24-10.746094-24-24v-24h40c4.417969 0 8-3.582031 8-8v-40h24c2.125-.011719 4.15625-.855469 5.664062-2.351562l93.648438-93.648438h276.6875zm0 0"/><path d="m320 32h-120c-2.125.011719-4.15625.855469-5.664062 2.351562l-96 96c-.746094.746094-1.335938 1.632813-1.734376 2.609376-1.683593 4.078124.253907 8.746093 4.328126 10.4375.972656.402343 2.015624.609374 3.070312.601562h216c4.417969 0 8-3.582031 8-8v-96c0-4.417969-3.582031-8-8-8zm-8 96h-188.6875l80-80h108.6875zm0 0"/><path d="m440 32h-96c-4.417969 0-8 3.582031-8 8v96c0 4.417969 3.582031 8 8 8h96c4.417969 0 8-3.582031 8-8v-96c0-4.417969-3.582031-8-8-8zm-8 96h-80v-80h80zm0 0"/></svg>