<svg height="480pt" viewBox="0 -60 480 479" width="480pt" xmlns="http://www.w3.org/2000/svg"><path d="m128 272.5c-13.253906 0-24 10.746094-24 24s10.746094 24 24 24 24-10.746094 24-24-10.746094-24-24-24zm0 32c-4.417969 0-8-3.582031-8-8s3.582031-8 8-8 8 3.582031 8 8-3.582031 8-8 8zm0 0"/><path d="m344 272.5c-13.253906 0-24 10.746094-24 24s10.746094 24 24 24 24-10.746094 24-24-10.746094-24-24-24zm0 32c-4.417969 0-8-3.582031-8-8s3.582031-8 8-8 8 3.582031 8 8-3.582031 8-8 8zm0 0"/><path d="m472 .5h-200c-.222656 0-.414062.113281-.640625.128906-.222656.015625-.449219-.058594-.679687 0-43.175782 7.640625-77.285157 40.902344-86.015626 83.871094l-91.976562 92h-28.6875c-35.328125.039062-63.9609375 28.671875-64 64v56c0 4.417969 3.582031 8 8 8h56.550781c4.007813 31.992188 31.207031 55.996094 63.449219 55.996094s59.441406-24.003906 63.449219-55.996094h89.101562c4.007813 31.992188 31.207031 55.996094 63.449219 55.996094s59.441406-24.003906 63.449219-55.996094h64.550781c4.417969 0 8-3.582031 8-8v-288c0-4.417969-3.582031-8-8-8zm-48 256v32h-16.550781c-3.402344-27.257812-23.839844-49.289062-50.765625-54.730469-26.921875-5.4375-54.3125 6.933594-68.027344 30.730469h-105.3125c-13.714844-23.796875-41.105469-36.167969-68.027344-30.730469-26.925781 5.441407-47.363281 27.472657-50.765625 54.730469h-8.550781v-32c0-4.417969-3.582031-8-8-8h-32v-8c.015625-2.683594.257812-5.359375.71875-8h47.28125c4.417969 0 8-3.582031 8-8v-32h392v56h-32c-4.417969 0-8 3.582031-8 8zm-234.105469 24h92.210938c-.6875 2.632812-1.207031 5.304688-1.554688 8h-89.101562c-.347657-2.695312-.867188-5.367188-1.554688-8zm90.105469-264h184v160h-184zm-16 2.054688v61.945312h-61.945312c8.679687-29.894531 32.050781-53.265625 61.945312-61.945312zm-68.6875 77.945312h68.6875v80h-148.6875zm-139.3125 96.71875v23.28125h-33.503906c7.15625-12.351562 19.433594-20.882812 33.503906-23.28125zm-40 95.28125v-24h24v24zm112 56c-26.507812 0-48-21.492188-48-48s21.492188-48 48-48 48 21.492188 48 48c-.027344 26.5-21.5 47.972656-48 48zm216 0c-26.507812 0-48-21.492188-48-48s21.492188-48 48-48 48 21.492188 48 48c-.027344 26.5-21.5 47.972656-48 48zm96-56v-24h24v24zm0 0"/></svg>