<svg height="480pt" viewBox="0 -100 480.00369 480" width="480pt" xmlns="http://www.w3.org/2000/svg"><path d="m440.003906.00390625h-256c-20.449218-.04687505-40.664062 4.31640575-59.273437 12.79687475-35.753907 16.390625-62.929688 47.109375-74.839844 84.59375-17.347656 6.179688-31.855469 18.46875-40.800781 34.566407-5.429688 8.390624-8.5625 18.058593-9.08593775 28.042968-.18359425 17.027344 6.49999975 33.414063 18.54296875 45.457032 12.042969 12.042968 28.425781 18.726562 45.457031 18.542968h8.550782c4.007812 31.988282 31.207031 55.992188 63.449218 55.992188 32.242188 0 59.441406-24.003906 63.449219-55.992188h105.101563c4.007812 31.988282 31.207031 55.992188 63.449218 55.992188 32.242188 0 59.441406-24.003906 63.449219-55.992188h40.550781c4.417969 0 8-3.582031 8-8v-176c-.027344-22.082031-17.917968-39.9765622-40-39.99999975zm-64 95.99999975h-40v-80h80v40c-.027344 22.078125-17.917968 39.972656-40 40zm-136 0v-80h80v80zm-108.71875-68.625c16.546875-7.546875 34.53125-11.425781 52.71875-11.375h40v80h-156.617187c11.386719-30.425781 34.363281-55.101562 63.898437-68.625zm-74.480468 84.625h7.199218c0 13.253906-10.746094 24-24 24-4.535156.292969-9.085937-.308594-13.390625-1.769531 7.144531-10.722656 17.832031-18.589844 30.191407-22.230469zm79.199218 152c-26.511718 0-48-21.492187-48-48 0-26.511718 21.488282-48 48-48 26.507813 0 48 21.488282 48 48-.027344 26.496094-21.5 47.972656-48 48zm232 0c-26.511718 0-48-21.492187-48-48 0-26.511718 21.488282-48 48-48 26.507813 0 48 21.488282 48 48-.027344 26.496094-21.5 47.972656-48 48zm96-56h-32.550781c-4.007813-31.992187-31.207031-55.996094-63.449219-55.996094-32.242187 0-59.441406 24.003907-63.449218 55.996094h-105.101563c-4.007813-31.992187-31.207031-55.996094-63.449219-55.996094-32.242187 0-59.441406 24.003907-63.449218 55.996094h-8.550782c-12.773437.132813-25.058594-4.878906-34.089844-13.910156-9.035156-9.03125-14.046874-21.320312-13.910156-34.089844.15625-4.097656 1.125-8.117187 2.855469-11.832031 6.652344 2.90625 13.894531 4.21875 21.144531 3.832031 22.082032-.027344 39.972656-17.921875 40-40h296c30.914063-.035156 55.964844-25.089844 56-56v-40h8c13.253906 0 24 10.742188 24 24zm0 0"/><path d="m136.003906 192.003906c-13.253906 0-24 10.742188-24 24 0 13.253906 10.746094 24 24 24s24-10.746094 24-24c0-13.257812-10.746094-24-24-24zm0 32c-4.417968 0-8-3.582031-8-8 0-4.421875 3.582032-8 8-8 4.417969 0 8 3.578125 8 8 0 4.417969-3.582031 8-8 8zm0 0"/><path d="m368.003906 192.003906c-13.253906 0-24 10.742188-24 24 0 13.253906 10.746094 24 24 24s24-10.746094 24-24c0-13.257812-10.746094-24-24-24zm0 32c-4.417968 0-8-3.582031-8-8 0-4.421875 3.582032-8 8-8 4.417969 0 8 3.578125 8 8 0 4.417969-3.582031 8-8 8zm0 0"/></svg>