<svg height="480pt" viewBox="0 -88 480 479" width="480pt" xmlns="http://www.w3.org/2000/svg"><path d="m240 .5c-2.125.011719-4.15625.855469-5.664062 2.351562l-101.816407 101.816407c-70.851562 1.730469-128.472656 57.625-132.351562 128.390625-.167969 2.425781-.167969 4.9375-.167969 7.441406 0 4.417969 3.582031 8 8 8h32.550781c4.007813 31.992188 31.207031 55.996094 63.449219 55.996094s59.441406-24.003906 63.449219-55.996094h153.101562c4.007813 31.992188 31.207031 55.996094 63.449219 55.996094s59.441406-24.003906 63.449219-55.996094h24.550781c4.417969 0 8-3.582031 8-8-.148438-132.484375-107.515625-239.851562-240-240zm-104 120c2.125-.011719 4.15625-.855469 5.664062-2.351562l101.601563-101.601563c119.246094 1.871094 216.160156 96.769531 220.535156 215.953125h-16.351562c-4.007813-31.992188-31.207031-55.996094-63.449219-55.996094s-59.441406 24.003906-63.449219 55.996094h-153.101562c-4.007813-31.992188-31.207031-55.996094-63.449219-55.996094s-59.441406 24.003906-63.449219 55.996094h-24.246093c4.179687-63.027344 56.527343-112.011719 119.695312-112zm-32 168c-26.507812 0-48-21.492188-48-48s21.492188-48 48-48 48 21.492188 48 48c-.027344 26.5-21.5 47.972656-48 48zm280 0c-26.507812 0-48-21.492188-48-48s21.492188-48 48-48 48 21.492188 48 48c-.027344 26.5-21.5 47.972656-48 48zm0 0"/><path d="m128.617188 163.554688c1.234374 2.992187 4.148437 4.941406 7.382812 4.945312h160c4.417969 0 8-3.582031 8-8v-96c0-4.417969-3.582031-8-8-8h-64c-2.125.011719-4.15625.855469-5.664062 2.351562l-96 96c-.746094.746094-1.335938 1.632813-1.734376 2.609376-.800781 1.953124-.796874 4.144531.015626 6.09375zm159.382812-11.054688h-132.6875l80-80h52.6875zm0 0"/><path d="m328 168.5h96.054688c1.148437-.023438 2.273437-.296875 3.304687-.800781.074219 0 .144531 0 .214844-.046875.320312-.214844.625-.453125.90625-.710938.960937-.515625 1.734375-1.328125 2.207031-2.3125.292969-.417968.539062-.863281.746094-1.328125.171875-.550781.289062-1.117187.34375-1.6875.101562-.367187.175781-.738281.222656-1.113281 0-.089844-.046875-.152344-.046875-.238281-.050781-.542969-.160156-1.082031-.320313-1.601563-.085937-.523437-.222656-1.039062-.410156-1.535156 0-.074219 0-.160156-.0625-.234375-20.148437-41.1875-51.785156-75.667969-91.097656-99.277344-1.230469-.726562-2.632812-1.113281-4.0625-1.113281h-8c-4.417969 0-8 3.582031-8 8v96c0 4.417969 3.582031 8 8 8zm82.574219-16h-74.574219v-78.648438c31.023438 19.589844 56.660156 46.628907 74.574219 78.648438zm0 0"/><path d="m104 216.5c-13.253906 0-24 10.746094-24 24s10.746094 24 24 24 24-10.746094 24-24-10.746094-24-24-24zm0 32c-4.417969 0-8-3.582031-8-8s3.582031-8 8-8 8 3.582031 8 8-3.582031 8-8 8zm0 0"/><path d="m384 216.5c-13.253906 0-24 10.746094-24 24s10.746094 24 24 24 24-10.746094 24-24-10.746094-24-24-24zm0 32c-4.417969 0-8-3.582031-8-8s3.582031-8 8-8 8 3.582031 8 8-3.582031 8-8 8zm0 0"/></svg>