<svg height="480pt" viewBox="0 -84 480 480" width="480pt" xmlns="http://www.w3.org/2000/svg"><path d="m472 0h-320c-22.082031.0273438-39.972656 17.917969-40 40v88h-88c-13.253906 0-24 10.746094-24 24v96c0 4.417969 3.582031 8 8 8h24.550781c4.007813 31.992188 31.207031 55.996094 63.449219 55.996094s59.441406-24.003906 63.449219-55.996094h105.101562c4.007813 31.992188 31.207031 55.996094 63.449219 55.996094s59.441406-24.003906 63.449219-55.996094h24.550781c4.417969 0 8-3.582031 8-8v-64h24c13.964844-.789062 24.679688-12.691406 24-26.664062v-74.671876c.679688-13.972656-10.035156-25.875-24-26.664062h-23.28125c3.921875-23.066406 23.882812-39.957031 47.28125-40 4.417969 0 8-3.582031 8-8s-3.582031-8-8-8zm-456 152c0-4.417969 3.582031-8 8-8h16c0 13.253906-10.746094 24-24 24zm80 144c-26.507812 0-48-21.492188-48-48s21.492188-48 48-48 48 21.492188 48 48c-.027344 26.5-21.5 47.972656-48 48zm232 0c-26.507812 0-48-21.492188-48-48s21.492188-48 48-48 48 21.492188 48 48c-.027344 26.5-21.5 47.972656-48 48zm128-213.335938v74.671876c0 5.785156-3.664062 10.664062-8 10.664062h-24v-96h24c4.335938 0 8 4.878906 8 10.664062zm-48-18.664062v176h-16.550781c-4.007813-31.992188-31.207031-55.996094-63.449219-55.996094s-59.441406 24.003906-63.449219 55.996094h-105.101562c-4.007813-31.992188-31.207031-55.996094-63.449219-55.996094s-59.441406 24.003906-63.449219 55.996094h-16.550781v-56c22.082031-.027344 39.972656-17.917969 40-40h64c4.417969 0 8-3.582031 8-8v-96c0-13.253906 10.746094-24 24-24h277.808594c-13.847656 12.109375-21.796875 29.605469-21.808594 48zm0 0"/><path d="m232 32h-64c-13.253906 0-24 10.746094-24 24v96c0 4.417969 3.582031 8 8 8h80c4.417969 0 8-3.582031 8-8v-112c0-4.417969-3.582031-8-8-8zm-72 24c0-4.417969 3.582031-8 8-8h56v96h-64zm0 0"/><path d="m96 224c-13.253906 0-24 10.746094-24 24s10.746094 24 24 24 24-10.746094 24-24-10.746094-24-24-24zm0 32c-4.417969 0-8-3.582031-8-8s3.582031-8 8-8 8 3.582031 8 8-3.582031 8-8 8zm0 0"/><path d="m328 224c-13.253906 0-24 10.746094-24 24s10.746094 24 24 24 24-10.746094 24-24-10.746094-24-24-24zm0 32c-4.417969 0-8-3.582031-8-8s3.582031-8 8-8 8 3.582031 8 8-3.582031 8-8 8zm0 0"/><path d="m384 32h-112c-4.417969 0-8 3.582031-8 8v112c0 4.417969 3.582031 8 8 8h112c4.417969 0 8-3.582031 8-8v-112c0-4.417969-3.582031-8-8-8zm-8 112h-96v-96h96zm0 0"/></svg>