<svg height="480pt" viewBox="0 -63 480 479" width="480pt" xmlns="http://www.w3.org/2000/svg"><path d="m136 160.5h-64c-4.417969 0-8 3.582031-8 8v48c0 4.417969 3.582031 8 8 8h64c4.417969 0 8-3.582031 8-8v-48c0-4.417969-3.582031-8-8-8zm-8 48h-48v-32h48zm0 0"/><path d="m408 160.5h-64c-4.417969 0-8 3.582031-8 8v48c0 4.417969 3.582031 8 8 8h64c4.417969 0 8-3.582031 8-8v-48c0-4.417969-3.582031-8-8-8zm-8 48h-48v-32h48zm0 0"/><path d="m136 232.5h-64c-4.417969 0-8 3.582031-8 8s3.582031 8 8 8h64c4.417969 0 8-3.582031 8-8s-3.582031-8-8-8zm0 0"/><path d="m408 232.5h-64c-4.417969 0-8 3.582031-8 8s3.582031 8 8 8h64c4.417969 0 8-3.582031 8-8s-3.582031-8-8-8zm0 0"/><path d="m402.792969 42.675781c-2.671875-10.683593-12.273438-18.179687-23.289063-18.175781h-279.007812c-11.015625-.003906-20.617188 7.492188-23.289063 18.175781l-12.96875 51.878907c-.597656 2.390624-.0625 4.925781 1.453125 6.867187 1.519532 1.941406 3.84375 3.078125 6.308594 3.078125h336c2.464844 0 4.789062-1.136719 6.308594-3.078125 1.515625-1.941406 2.050781-4.476563 1.453125-6.867187zm-320.554688 45.824219 10.488281-41.9375c.890626-3.5625 4.09375-6.066406 7.769532-6.0625h279.007812c3.675782-.003906 6.878906 2.5 7.769532 6.0625l10.488281 41.9375zm0 0"/><path d="m472 48.5h-16c-.089844 0-.160156.046875-.238281.046875-2.042969.027344-3.988281.855469-5.425781 2.304687l-17.671876 17.71875-4.800781-33.726562c-2.890625-19.671875-19.734375-34.269531-39.617187-34.34375h-296.492188c-19.871094.085938-36.699218 14.675781-39.59375 34.335938l-4.800781 33.695312-17.679687-17.679688c-.746094-.746093-1.632813-1.335937-2.609376-1.734374-.972656-.40625-2.015624-.613282-3.070312-.617188h-16c-4.417969 0-8 3.582031-8 8v24c.046875 19.390625 13.996094 35.957031 33.097656 39.304688-10.699218 7.449218-17.082031 19.660156-17.097656 32.695312v128c0 4.417969 3.582031 8 8 8h24v24c.027344 22.082031 17.917969 39.972656 40 40h32c22.082031-.027344 39.972656-17.917969 40-40v-24h160v24c.027344 22.082031 17.917969 39.972656 40 40h32c22.082031-.027344 39.972656-17.917969 40-40v-24h24c4.417969 0 8-3.582031 8-8v-128c-.015625-13.035156-6.398438-25.246094-17.097656-32.695312 19.101562-3.347657 33.050781-19.914063 33.097656-39.304688v-24c0-4.417969-3.582031-8-8-8zm-414.71875 63.648438v-.207032l10.71875-74.839844c1.730469-11.800781 11.828125-20.558593 23.753906-20.601562h296.492188c11.929687.042969 22.027344 8.808594 23.753906 20.609375l10.695312 74.832031v.207032l.058594.351562h-365.53125zm-41.28125-31.648438v-16h4.6875l23.824219 23.824219-2.289063 16c-.734375.0625-1.480468.160156-2.222656.160156-13.25 0-23.992188-10.734375-24-23.984375zm128 232c0 13.253906-10.746094 24-24 24h-32c-13.253906 0-24-10.746094-24-24v-24h80zm272 0c0 13.253906-10.746094 24-24 24h-32c-13.253906 0-24-10.746094-24-24v-24h80zm32-160v120h-416v-120c0-13.253906 10.746094-24 24-24h368c13.253906 0 24 10.746094 24 24zm16-72c0 13.253906-10.746094 24-24 24-.742188 0-1.488281-.097656-2.222656-.160156l-2.28125-15.953125 23.824218-23.886719h4.679688zm0 0"/><path d="m304 144.5h-128c-4.417969 0-8 3.582031-8 8v96c0 4.417969 3.582031 8 8 8h128c4.417969 0 8-3.582031 8-8v-96c0-4.417969-3.582031-8-8-8zm-8 96h-112v-80h112zm0 0"/></svg>