<svg height="479pt" viewBox="0 -39 479.99579 479" width="479pt" xmlns="http://www.w3.org/2000/svg"><path d="m462.210938 203.589844c-4.832032-6.320313-10.480469-11.96875-16.800782-16.800782v-.046874l-114.589844-114.648438c-29.628906-60.390625-100.953124-87.527344-163.230468-62.105469s-94.234375 94.722657-73.136719 158.59375h-6.457031c-34.972656.039063-66.605469 20.757813-80.617188 52.800781l-.046875.085938c-9.574219 21.945312-9.78125 46.84375-.566406 68.941406 9.210937 22.097656 27.039063 39.480469 49.367187 48.125 1.105469 33.292969 27.589844 60.15625 60.867188 61.738282 33.273438 1.578124 62.183594-22.652344 66.445312-55.691407h89.101563c4.003906 32.066407 31.300781 56.109375 63.617187 56.027344 32.316407-.085937 59.492188-24.265625 63.328126-56.355469 9.46875-.769531 18.746093-3.09375 27.464843-6.871094.125-.054687.246094-.113281.367188-.175781 26.15625-11.546875 45.125-35.023437 50.910156-63.023437 1.171875-5.796875 1.761719-11.691406 1.761719-17.601563.023437-19.132812-6.222656-37.746093-17.785156-52.992187zm-358.214844-75.007813c-.027344-52.351562 36.21875-97.738281 87.28125-109.292969 51.0625-11.554687 103.3125 13.804688 125.832031 61.070313.234375.378906.5.738281.796875 1.070313.21875.398437.46875.777343.753906 1.128906l87.039063 87.09375c-3.421875-.511719-6.875-.824219-10.335938-.933594l-86.144531-86.226562c-24.902344-50.269532-85.191406-71.726563-136.257812-48.492188-51.0625 23.230469-74.5 82.777344-52.964844 134.582031h-8.480469c-4.9375-12.761719-7.488281-26.320312-7.519531-40zm33.824218 40c-13.449218-25.957031-13.066406-56.914062 1.023438-82.53125 14.089844-25.617187 40.027344-42.519531 69.152344-45.0625v127.59375zm86.175782-127.585937c30.890625 2.953125 58 21.820312 71.503906 49.761718.234375.386719.503906.753907.800781 1.097657.210938.386719.457031.757812.734375 1.101562l75.585938 75.625h-148.625zm-160 147.785156v27.800781h-35.824219c8.652344-12.867187 21.210937-22.613281 35.824219-27.800781zm-48 67.800781c.015625-8.183593 1.4375-16.300781 4.199218-24h51.800782c4.417968 0 8-3.582031 8-8v-39.527343c2.632812-.296876 312-.472657 312-.472657 15.628906-.019531 30.835937 5.082031 43.296875 14.519531 5.421875 4.113282 10.25 8.960938 14.34375 14.398438 9.351562 12.414062 14.394531 27.539062 14.359375 43.082031-.011719 2.671875-.171875 5.34375-.472656 8h-39.527344c-4.417969 0-8 3.582031-8 8v51.871094c-5.371094 1.898437-10.949219 3.144531-16.617188 3.710937-4.195312-31.890624-31.433594-55.695312-63.597656-55.589843-32.167969.105469-59.246094 24.089843-63.234375 56.007812h-89.101563c-3.84375-30.710937-29.128906-54.265625-60.039062-55.914062-30.90625-1.648438-58.558594 19.082031-65.640625 49.210937-25.515625-11.703125-41.839844-37.230468-41.769531-65.296875zm104 128c-26.511719 0-48-21.492187-48-48 0-26.511719 21.488281-48 48-48 26.507812 0 48 21.488281 48 48-.027344 26.5-21.5 47.972657-48 48zm216 0c-26.511719 0-48-21.492187-48-48 0-26.511719 21.488281-48 48-48 26.507812 0 48 21.488281 48 48-.027344 26.5-21.5 47.972657-48 48zm99.105468-70.398437c-1.019531.757812-2.066406 1.4375-3.105468 2.140625v-35.742188h27.808594c-4.753907 13.386719-13.347657 25.070313-24.703126 33.601563zm0 0"/><path d="m335.996094 304.582031c-17.671875 0-32 14.328125-32 32s14.328125 32 32 32 32-14.328125 32-32-14.328125-32-32-32zm0 48c-8.835938 0-16-7.164062-16-16 0-8.835937 7.164062-16 16-16 8.835937 0 16 7.164063 16 16 0 8.835938-7.164063 16-16 16zm0 0"/><path d="m119.996094 304.582031c-17.671875 0-32 14.328125-32 32s14.328125 32 32 32 32-14.328125 32-32-14.328125-32-32-32zm0 48c-8.835938 0-16-7.164062-16-16 0-8.835937 7.164062-16 16-16 8.835937 0 16 7.164063 16 16 0 8.835938-7.164063 16-16 16zm0 0"/></svg>