<svg height="480pt" viewBox="0 -96 480.00049 480" width="480pt" xmlns="http://www.w3.org/2000/svg"><path d="m480 136c.015625-13.75-5.890625-26.84375-16.207031-35.9375-1.144531-2.519531-2.496094-5.15625-4.113281-8-31.191407-55.070312-113.953126-92.0625-171.679688-92.0625-56.59375-.0664062-107.277344 35.011719-127.152344 88h-24.847656c-32.710938.003906-64.316406 11.855469-88.960938 33.367188-.515624.363281-.988281.792968-1.398437 1.273437-29.007813 25.707031-45.6210938 62.601563-45.640625 101.359375 0 4.417969 3.582031 8 8 8h40.550781c4.007813 31.992188 31.207031 55.996094 63.449219 55.996094s59.441406-24.003906 63.449219-55.996094h129.101562c4.007813 31.992188 31.207031 55.996094 63.449219 55.996094s59.441406-24.003906 63.449219-55.996094h8.550781c22.082031-.027344 39.972656-17.917969 40-40v-8c.039062-8.425781-2.171875-16.710938-6.398438-24 4.226563-7.289062 6.4375-15.574219 6.398438-24zm-16 0c-.011719 4.589844-1.019531 9.121094-2.953125 13.28125-6.492187-3.300781-11.121094-9.382812-12.570313-16.519531-1.449218-7.136719.441407-14.542969 5.132813-20.113281 6.578125 5.984374 10.347656 14.457031 10.390625 23.351562zm-131.3125-48h-36.6875v-71.679688c29.203125 2.601563 57.574219 11.09375 83.398438 24.96875zm-52.6875-71.679688v71.679688h-101.945312c17.871093-41.105469 57.21875-68.773438 101.945312-71.679688zm-176 95.679688c-.019531 9.710938-5.886719 18.453125-14.867188 22.148438-8.980468 3.695312-19.300781 1.617187-26.148437-5.269532 12.121094-9.320312 25.914063-16.234375 40.640625-20.359375.210938 1.148438.335938 2.3125.375 3.480469zm8 160c-26.507812 0-48-21.488281-48-48 0-26.507812 21.492188-48 48-48s48 21.492188 48 48c-.027344 26.5-21.5 47.972656-48 48zm256 0c-26.507812 0-48-21.488281-48-48 0-26.507812 21.492188-48 48-48s48 21.492188 48 48c-.027344 26.5-21.5 47.972656-48 48zm96-80c0 13.253906-10.746094 24-24 24h-8.550781c-4.007813-31.992188-31.207031-55.996094-63.449219-55.996094s-59.441406 24.003906-63.449219 55.996094h-129.101562c-4.007813-31.992188-31.207031-55.996094-63.449219-55.996094s-59.441406 24.003906-63.449219 55.996094h-32.285156c1.953125-28.859375 14.300781-56.03125 34.757813-76.480469 12.054687 12.917969 31.179687 16.355469 46.976562 8.441407 15.796875-7.910157 24.5-25.28125 21.375-42.671876 5.503906-.816406 11.058594-1.246093 16.625-1.289062h200c1.050781-.003906 2.085938-.214844 3.054688-.617188.976562-.398437 1.863281-.988281 2.609374-1.734374l52.128907-52.128907c20.6875 12.097657 38.210937 28.933594 51.128906 49.121094-10.226563 9.371094-14.839844 23.386719-12.183594 36.996094 2.660157 13.613281 12.207031 24.863281 25.207031 29.699219 3.957032 5.414062 6.078126 11.957031 6.054688 18.664062zm0 0"/><path d="m368 192c-17.671875 0-32 14.328125-32 32s14.328125 32 32 32 32-14.328125 32-32-14.328125-32-32-32zm0 48c-8.835938 0-16-7.164062-16-16s7.164062-16 16-16 16 7.164062 16 16-7.164062 16-16 16zm0 0"/><path d="m112 192c-17.671875 0-32 14.328125-32 32s14.328125 32 32 32 32-14.328125 32-32-14.328125-32-32-32zm0 48c-8.835938 0-16-7.164062-16-16s7.164062-16 16-16 16 7.164062 16 16-7.164062 16-16 16zm0 0"/></svg>