<svg height="480pt" viewBox="0 -100 480 480" width="480pt" xmlns="http://www.w3.org/2000/svg"><path d="m456 176v-40c-.023438-19-13.386719-35.371094-32-39.199219v-56.800781c-.027344-22.082031-17.917969-39.9726562-40-40h-156c-2.121094 0-4.15625.84375-5.65625 2.34375l-93.65625 93.65625h-15.328125c-31.300781.011719-61.195313 13.011719-82.542969 35.902344-.199218.195312-.382812.402344-.558594.617187-19.4375 20.867188-30.2460932 48.324219-30.257812 76.839844v6.640625c0 4.417969 3.582031 8 8 8h48.550781c4.007813 31.992188 31.207031 55.996094 63.449219 55.996094s59.441406-24.003906 63.449219-55.996094h105.101562c4.007813 31.992188 31.207031 55.996094 63.449219 55.996094s59.441406-24.003906 63.449219-55.996094h40.550781c13.253906 0 24-10.746094 24-24s-10.746094-24-24-24zm-16-40v8c-13.253906 0-24-10.746094-24-24 .050781-2.683594.5625-5.335938 1.511719-7.847656 12.601562.796875 22.433593 11.21875 22.488281 23.847656zm-32-96v56h-56v-80h32c13.253906 0 24 10.746094 24 24zm-136 56v-80h64v80zm-40.6875-80h24.6875v80h-104.6875zm-143.3125 104c.011719 9.527344-5.625 18.15625-14.351562 21.976562-8.730469 3.816407-18.890626 2.097657-25.878907-4.375 11.316407-10.382812 24.933594-17.929687 39.734375-22.027343.304688 1.457031.472656 2.9375.496094 4.425781zm32 144c-26.507812 0-48-21.492188-48-48s21.492188-48 48-48 48 21.492188 48 48c-.027344 26.5-21.5 47.972656-48 48zm232 0c-26.507812 0-48-21.492188-48-48s21.492188-48 48-48 48 21.492188 48 48c-.027344 26.5-21.5 47.972656-48 48zm104-56h-40.550781c-4.007813-31.992188-31.207031-55.996094-63.449219-55.996094s-59.441406 24.003906-63.449219 55.996094h-105.101562c-4.007813-31.992188-31.207031-55.996094-63.449219-55.996094s-59.441406 24.003906-63.449219 55.996094h-40.550781c.304688-21.3125 7.636719-41.929688 20.855469-58.648438 12.621093 11.875 31.472656 14.230469 46.628906 5.832032 15.15625-8.402344 23.148437-25.632813 19.773437-42.632813 3.355469-.355469 6.726563-.539062 10.101563-.550781h287.550781c-.578125 2.628906-.882812 5.308594-.910156 8 .027344 22.082031 17.917969 39.972656 40 40v24c0 4.417969 3.582031 8 8 8h8c4.417969 0 8 3.582031 8 8s-3.582031 8-8 8zm0 0"/><path d="m120 192c-13.253906 0-24 10.746094-24 24s10.746094 24 24 24 24-10.746094 24-24-10.746094-24-24-24zm0 32c-4.417969 0-8-3.582031-8-8s3.582031-8 8-8 8 3.582031 8 8-3.582031 8-8 8zm0 0"/><path d="m352 192c-13.253906 0-24 10.746094-24 24s10.746094 24 24 24 24-10.746094 24-24-10.746094-24-24-24zm0 32c-4.417969 0-8-3.582031-8-8s3.582031-8 8-8 8 3.582031 8 8-3.582031 8-8 8zm0 0"/></svg>