<svg height="480pt" viewBox="0 -110 480.00185 480" width="480pt" xmlns="http://www.w3.org/2000/svg"><path d="m464 67.570312v-59.570312c0-.214844-.101562-.390625-.117188-.597656-.050781-.542969-.15625-1.082032-.320312-1.601563-.136719-.515625-.324219-1.015625-.5625-1.496093-.09375-.183594-.101562-.390626-.214844-.574219-.1875-.222657-.386718-.433594-.597656-.632813-.335938-.429687-.710938-.828125-1.121094-1.183594-.382812-.308593-.796875-.574218-1.234375-.800781-.441406-.25-.90625-.457031-1.390625-.617187-.519531-.160156-1.058594-.265625-1.597656-.320313-.277344-.074219-.558594-.1328122-.84375-.175781-.214844 0-.398438.113281-.613281.128906-.523438.050782-1.035157.152344-1.535157.304688-.523437.136718-1.03125.328125-1.515624.566406-.183594.097656-.390626.105469-.574219.21875-9.988281 6.234375-20.371094 11.8125-31.078125 16.703125-.3125.195313-.609375.410156-.890625.648437-.558594.304688-1.078125.683594-1.542969 1.117188-.308594.390625-.574219.808594-.800781 1.25-.308594.410156-.578125.855469-.800781 1.320312-.195313.59375-.316407 1.207032-.367188 1.832032-.121094.363281-.214844.734375-.28125 1.109375v42.105469c-31.828125 19.226562-67.191406 31.867187-104 37.175781v-53.121094c0-4.417969-3.578125-8-8-8-10.386719.023437-20.765625-.550781-31.085938-1.710937-.160156 0-.304687.046874-.464843 0-.160157-.046876-.289063-.046876-.449219-.046876-.886719.179688-1.777344.359376-2.671875.535157-.464844.191406-.917969.421875-1.34375.695312-.441406.246094-.863281.527344-1.253906.847657-.367188.355468-.699219.746093-.992188 1.160156-.691406.78125-1.152343 1.734375-1.328125 2.761718-.148437.351563-.269531.714844-.359375 1.085938 0 .160156.046875.304688.039063.464844-.007813.160156-.089844.289062-.089844.449218v57.457032c-25.710938-.648438-51.207031-4.835938-75.773438-12.449219-.082031 0-.160156-.054687-.242187-.097656l-.167969-.0625c-.207031-.082031-.40625-.175781-.621094-.25-12.777343-4.007813-25.230468-8.96875-37.265624-14.839844l45.808593-45.804687c.0625-.066407.078125-.152344.136719-.21875.671875-.671876 1.210938-1.460938 1.597656-2.328126v-.046874c.734375-1.90625.757813-4.011719.066406-5.9375l-.105468-.246094c-.390625-.929688-.953125-1.777344-1.65625-2.496094-.378906-.304688-.785156-.570312-1.214844-.800781-.410156-.347657-.855469-.652344-1.328125-.902344-10.023437-4.28125-19.757813-9.199219-29.144531-14.730469-.175782-.101562-.367188-.101562-.542969-.191406-.496094-.234375-1.019531-.410156-1.554687-.535156-.464844-.136719-.945313-.230469-1.429688-.273438-.515625-.023437-1.03125.007813-1.535156.097656-.496094.042969-.988282.136719-1.464844.28125-.46875.171876-.917969.390626-1.34375.644532-.480469.25-.933594.550781-1.34375.898437-.152344.128907-.34375.175781-.488281.320313l-52.335938 52.269531h-30.050781c-3.960938.003906-7.914062.335937-11.820312.984375l-.609376.074219-.367187.0625-.449219.074219c-1.847656.367187-3.6875.75-5.175781 1.207031-1.433594.351562-2.847656.789062-4.230469 1.304687-1.511718.460938-3.042968 1.015625-4.601562 1.65625-.222656.085938-.457032.207032-.679688.300782-1.320312.5625-2.648437 1.152343-4 1.832031-.914062.375-1.789062.828125-2.617187 1.363281-.3125.15625-.582031.316406-.871094.476562-.152344.082032-.304687.160157-.449219.25-.496094.28125-.933594.550782-1.253906.75-1.039062.585938-2.042969 1.226563-3.007812 1.921876-3.898438 2.550781-7.523438 5.5-10.816407 8.800781-1.554687 1.546875-3.019531 3.175781-4.394531 4.886719-.09375.105468-.160156.214843-.253906.328124-.097656.113282-.320313.359376-.496094.585938-.59375.710938-1.152344 1.40625-1.527344 1.949219-4.03125 5.351562-7.277344 11.25-9.648437 17.511719l-.105469.3125c-.0625.152343-.121094.308593-.167969.464843v.089844l-.046875.132813-1.488281 4.371093-.0625.214844-.066406.183594-.054688.230469-.113281.351562c-.542969 2-.992188 4-1.304688 5.832031-.4375 2.152344-.746093 4.332031-.917968 6.523438-.273438 2.3125-.40625025 4.644531-.402344 6.972656-.0117188 1.792969.0664062 3.582031.242188 5.363281v.933594c.175781 2.089844.457031 4.089844.800781 5.792969.269531 1.878906.703125 3.757812 1.175781 5.757812.0625.265625.136719.515625.222656.800781.328125 1.296876.726563 2.601563 1.273438 4.296876l.605468 1.601562c.097657.300781.257813.710938.433594 1.132812.441406 1.203126.953125 2.402344 1.488282 3.65625.519531 1.226563 1.109374 2.421876 1.757812 3.585938.167969.382812.359375.753906.578125 1.113281.304687.640625.644531 1.265625 1.023437 1.871094.640626 1.109375 1.28125 2.160156 1.984376 3.199219.144531.273437.34375.519531.511718.800781l.089844.09375.109375.167969c.113281.152344.199219.328125.320313.472656.90625 1.320312 1.816406 2.625 2.710937 3.730469 1.160156 1.507812 2.394531 2.957031 3.699219 4.34375l.109375.109375.074219.089844.109374.101562c1.238282 1.402344 2.558594 2.722656 3.953126 3.960938 1.335937 1.234374 2.664062 2.402343 4.191406 3.632812 2.523437 1.96875 5.175781 3.765625 7.945312 5.367188 1.367188.800781 2.832032 1.640624 4.296875 2.402343l.246094.125h.074219c2.429687 1.214844 4.929687 2.285157 7.488281 3.203125.695313.269532 1.429687.542969 2.175781.75 1.453125.523438 2.941406.960938 4.445313 1.3125h.152343c3.355469.8125 6.757813 1.394532 10.191407 1.742188 3.78125 32.113281 30.933593 56.355468 63.269531 56.480468 32.332031.121094 59.671875-23.90625 63.699219-55.992187h113.105469c4.007812 31.992187 31.207031 55.996094 63.445312 55.996094 32.242188 0 59.441406-24.003907 63.449219-55.996094h8.550781c22.082031-.023437 39.976562-17.917969 40-40v-64c-.035156-12.523437-5.960938-24.300781-16-31.789063zm-24-8.210937h-8v-29.207031c5.425781-2.589844 10.757812-5.347656 16-8.261719v38.269531c-2.632812-.535156-5.3125-.800781-8-.800781zm-160 47.714844v-48.800781c5.234375.421874 10.566406.703124 16 .847656v47.121094c-5.308594.445312-10.644531.679687-16 .832031zm-118.574219-84.464844c4.976563 2.777344 9.945313 5.359375 14.910157 7.742187l-41.222657 41.226563c-4.707031-2.667969-9.421875-5.503906-14.144531-8.511719zm-132.535156 73.03125c1.085937-1.363281 2.25-2.667969 3.480469-3.902344 2.566406-2.574219 5.394531-4.875 8.429687-6.875.699219-.5 1.421875-.960937 2.167969-1.382812.671875-.433594 1.363281-.832031 2.074219-1.191407.144531-.070312.933593-.550781 1.078125-.625.296875-.117187.585937-.246093.863281-.390624 2.398437-1.238282 4.898437-2.261719 7.472656-3.066407.28125-.101562.570313-.191406.855469-.285156.433594 1.78125.664062 3.605469.6875 5.4375 0 13.257813-10.742188 24-24 24-3.273438-.015625-6.511719-.714844-9.503906-2.054687 1.421875-2.710938 3.046875-5.308594 4.867187-7.769532.382813-.535156.816407-1.078125 1.527344-1.894531zm99.109375 147.71875c-23.734375.007813-43.910156-17.339844-47.464844-40.808594-3.554687-23.472656 10.578125-46.015625 33.25-53.039062 22.675782-7.027344 47.078125 3.578125 57.417969 24.945312 3.214844 6.496094 4.855469 13.65625 4.796875 20.902344-.023438 26.5-21.5 47.976563-48 48zm240 0c-26.507812 0-48-21.488281-48-48 0-26.507813 21.492188-48 48-48 26.511719 0 48 21.492187 48 48-.023438 26.5-21.5 47.976563-48 48zm96-80c0 13.257813-10.742188 24-24 24h-8.550781c-4.007813-31.988281-31.207031-55.992187-63.449219-55.992187-32.238281 0-59.4375 24.003906-63.445312 55.992187h-113.074219c-.824219-6.957031-2.84375-13.722656-5.957031-20-12.316407-25.386719-39.824219-39.699219-67.683594-35.214844s-49.484375 26.707031-53.207032 54.679688c-2.261718-.300781-4.503906-.722657-6.71875-1.269531-1.027343-.238282-2.035156-.542969-3.023437-.90625-.144531-.054688-.800781-.238282-.9375-.289063l-1.269531-.476563c-1.882813-.671874-3.71875-1.453124-5.503906-2.347656l-.167969-.085937-.152344-.082031c-1.097656-.542969-2.195313-1.167969-3.320313-1.839844-2.121093-1.21875-4.15625-2.585938-6.089843-4.085938-1.09375-.878906-2.128907-1.792968-3.304688-2.871094-1.175781-1.082031-2.207031-2.136718-3.261719-3.265624-1.046874-1.101563-2.035156-2.257813-2.960937-3.464844-.800781-1.015625-1.601563-2.117188-2.398437-3.285156-.121094-.210938-.25-.417969-.386719-.609376-.589844-.863281-1.117188-1.71875-1.640625-2.640624-.09375-.160157-.484375-.894532-.582032-1.039063l-.25-.449219c-.128906-.308594-.277343-.613281-.445312-.902344-.484375-.84375-.917969-1.714843-1.296875-2.609374-.40625-.953126-.800781-1.894532-1.160156-2.847657-.09375-.257812-.199219-.511719-.320313-.761719l-.03125-.132812-.601562-1.601562c-.335938-1.070313-.671875-2.136719-.941406-3.273438-.054688-.246094-.121094-.488281-.203126-.726562-.300781-1.265626-.597656-2.542969-.796874-4.070313-.203126-1.53125-.488282-3.035156-.59375-3.929687 0-.238282 0-.726563 0-.96875-.207032-1.519532-.273438-3.03125-.273438-4.632813-.011719-1.78125.085938-3.5625.296875-5.335937.066406-.796876.242187-1.75.359375-2.621094.121094-.875.160156-1.601563.34375-2.496094 0-.183594.089844-.371094.128906-.554688 12.300782 5.082032 26.328125 3.664063 37.359375-3.773437 11.035157-7.441406 17.609375-19.910156 17.511719-33.21875-.019531-2.664063-.300781-5.316406-.847656-7.925781.289062 0 .554687-.074219.847656-.074219h38.488281c7.433594 4.875 14.738281 9.257813 22.195313 13.203125 15.550781 8.367188 31.855468 15.261719 48.695312 20.589844.324219.152344.664063.285156 1.007813.394531 28.984375 9.175781 59.210937 13.835937 89.613281 13.8125 10.53125-.0625 21.050781-.683594 31.515625-1.863281.160156.042968.320313.078125.484375.105468.566406-.050781 1.121094-.164062 1.65625-.335937 42.96875-4.859375 84.335938-19.144531 121.144531-41.832031.886719-.347656 1.699219-.855469 2.402344-1.496094 1.390625-.871094 2.824219-1.671875 4.207031-2.578125h6.589844c13.257812 0 24 10.746094 24 24zm0 0"/><path d="m128 171.359375c-13.253906 0-24 10.746094-24 24 0 13.257813 10.746094 24 24 24 13.257812 0 24-10.742187 24-24 0-13.253906-10.742188-24-24-24zm0 32c-4.417969 0-8-3.582031-8-8s3.582031-8 8-8c4.421875 0 8 3.582031 8 8s-3.578125 8-8 8zm0 0"/><path d="m368 171.359375c-13.253906 0-24 10.746094-24 24 0 13.257813 10.746094 24 24 24 13.257812 0 24-10.742187 24-24 0-13.253906-10.742188-24-24-24zm0 32c-4.417969 0-8-3.582031-8-8s3.582031-8 8-8c4.421875 0 8 3.582031 8 8s-3.578125 8-8 8zm0 0"/></svg>