<svg height="480pt" viewBox="0 -80 480 480" width="480pt" xmlns="http://www.w3.org/2000/svg"><path d="m440 120.007812h-1.246094c-24.011718-71.6875-91.152344-120.007812-166.753906-120.007812s-142.742188 48.320312-166.753906 120.007812h-65.246094c-22.082031.027344-39.9726562 17.917969-40 40v64c.0273438 22.078126 17.917969 39.972657 40 40h8.550781c4.007813 31.992188 31.207031 55.996094 63.449219 55.996094s59.441406-24.003906 63.449219-55.996094h129.101562c4.007813 31.992188 31.207031 55.996094 63.449219 55.996094s59.441406-24.003906 63.449219-55.996094h8.550781c22.082031-.027343 39.972656-17.921874 40-40v-64c-.027344-22.082031-17.917969-39.972656-40-40zm24 40v8h-16v-30.527343c9.554688 3.375 15.957031 12.390625 16 22.527343zm-192-144c68.238281-.292968 129.046875 43.015626 151.078125 107.597657-45.039063 29.023437-97.496094 44.441406-151.078125 44.402343-53.582031.039063-106.039062-15.378906-151.078125-44.402343 22.035156-64.582031 82.839844-107.886719 151.078125-107.597657zm-232 120h8v24h-32c0-13.253906 10.746094-24 24-24zm72 168c-26.507812 0-48-21.492187-48-48 0-26.511718 21.492188-48 48-48s48 21.488282 48 48c-.027344 26.496094-21.5 47.972657-48 48zm256 0c-26.507812 0-48-21.492187-48-48 0-26.511718 21.492188-48 48-48s48 21.488282 48 48c-.027344 26.496094-21.5 47.972657-48 48zm72-56h-8.550781c-4.007813-31.992187-31.207031-55.996093-63.449219-55.996093s-59.441406 24.003906-63.449219 55.996093h-129.101562c-4.007813-31.992187-31.207031-55.996093-63.449219-55.996093s-59.441406 24.003906-63.449219 55.996093h-8.550781c-13.253906 0-24-10.746093-24-24v-48h40c4.417969 0 8-3.582031 8-8v-32h46.558594c47.996094 31.371094 104.101562 48.054688 161.441406 48 56.757812.042969 112.320312-16.316406 160-47.113281v39.113281c0 4.417969 3.582031 8 8 8h24v40c0 13.253907-10.746094 24-24 24zm0 0"/><path d="m112 232.007812c-13.253906 0-24 10.746094-24 24 0 13.253907 10.746094 24 24 24s24-10.746093 24-24c0-13.253906-10.746094-24-24-24zm0 32c-4.417969 0-8-3.582031-8-8 0-4.417968 3.582031-8 8-8s8 3.582032 8 8c0 4.417969-3.582031 8-8 8zm0 0"/><path d="m368 232.007812c-13.253906 0-24 10.746094-24 24 0 13.253907 10.746094 24 24 24s24-10.746093 24-24c0-13.253906-10.746094-24-24-24zm0 32c-4.417969 0-8-3.582031-8-8 0-4.417968 3.582031-8 8-8s8 3.582032 8 8c0 4.417969-3.582031 8-8 8zm0 0"/></svg>