<svg height="479pt" viewBox="0 -92 479.98995 479" width="479pt" xmlns="http://www.w3.org/2000/svg"><path d="m464 209.976562c19.417969-59.035156 2.691406-123.96875-42.832031-166.273437-.0625-.0625-.085938-.160156-.152344-.222656-.0625-.066407-.183594-.097657-.253906-.167969-20.6875-19.164062-46.058594-32.53125-73.5625-38.761719-1.007813-.449219-2.097657-.683593-3.199219-.6875-27.476562-5.792969-56.007812-4.089843-82.597656 4.929688-.203125.070312-.417969.09375-.609375.175781-48.332031 16.398438-85.949219 54.855469-101.28125 103.535156h-87.511719c-29.179688.039063-55.460938 17.664063-66.566406 44.648438-.105469.222656-.167969.445312-.257813.6875-8.902343 22.167968-6.207031 47.3125 7.191407 67.09375 13.394531 19.777344 35.742187 31.609375 59.632812 31.570312h8.160156c.511719-.054687 1.015625-.15625 1.503906-.304687.429688-.054688.855469-.136719 1.273438-.257813.660156-.273437 1.28125-.636718 1.839844-1.085937.253906-.148438.5-.3125.734375-.488281.480469-.476563.894531-1.015626 1.234375-1.601563.226562-.285156.429687-.59375.613281-.910156.21875-.546875.371094-1.117188.464844-1.695313.136719-.386718.242187-.78125.320312-1.183594 2.105469-29.296874 26.484375-51.988281 55.855469-51.988281s53.75 22.691407 55.855469 51.988281c.078125.5.207031.996094.386719 1.472657.070312.445312.183593.882812.335937 1.308593.273437.535157.609375 1.039063 1 1.496094.214844.339844.449219.664063.710937.96875.488282.429688 1.023438.800782 1.597657 1.105469.277343.199219.566406.382813.867187.550781.960938.40625 1.996094.613282 3.039063.617188h88.367187c.496094-.050782.980469-.148438 1.457032-.296875.460937-.050781.921874-.140625 1.367187-.273438 1.542969-.523437 2.84375-1.59375 3.65625-3.007812.28125-.335938.527344-.699219.734375-1.085938.207031-.515625.351562-1.050781.433594-1.601562.144531-.402344.257812-.816407.335937-1.238281 2.105469-29.296876 26.484375-51.988282 55.855469-51.988282s53.75 22.691406 55.855469 51.988282c.078125.5.207031.996093.386719 1.472656.070312.445312.183593.882812.335937 1.308594.273437.539062.609375 1.039062 1 1.496093.214844.339844.449219.664063.710937.96875.488282.429688 1.023438.800781 1.597657 1.105469.277343.199219.566406.382812.867187.550781.960938.40625 1.996094.613281 3.039063.617188h32.207031c11.675781.023437 21.664062-8.378907 23.644531-19.886719 1.976563-11.507812-4.632812-22.761719-15.644531-26.640625zm-24-81.472656h12.328125c1.816406 7.886719 2.953125 15.917969 3.410156 24h-15.738281zm7.71875-16h-84.40625l52.097656-52.097656c14.402344 14.832031 25.425782 32.605469 32.308594 52.097656zm-95.71875-11.3125v-78.886718c18.878906 5.488281 36.4375 14.773437 51.601562 27.285156zm-16-82.664062v93.976562h-64v-90.199218c20.765625-6.132813 42.660156-7.421876 64-3.777344zm-80 9.398437v84.578125h-79.71875c13.523438-38.132812 42.453125-68.824218 79.71875-84.578125zm-192.0625 101.226563c-.351562 12.976562-10.957031 23.320312-23.9375 23.351562h-13.886719c8.84375-12.667968 22.535157-21.121094 37.824219-23.351562zm9.101562 111.351562h-1.039062c-17.683594.007813-34.332031-8.347656-44.890625-22.53125-10.5625-14.1875-13.789063-32.53125-8.707031-49.46875h21.597656c22.082031-.027344 39.972656-17.921875 40-40h80v53.863282c-19.300781-4.492188-39.601562-.789063-56.078125 10.222656-16.476563 11.015625-27.652344 28.359375-30.882813 47.914062zm102.960938-52.449218v-59.550782h80v112h-41.039062c-3.839844-22.714844-18.324219-42.214844-38.960938-52.449218zm113.039062 52.449218h-17.039062v-112h64v56.191406c-24.613281 8.710938-42.582031 30.066407-46.960938 55.808594zm166.960938 0h-25.039062c-5.855469-34.628906-35.839844-59.984375-70.960938-60-2.671875.011719-5.34375.175782-8 .480469v-52.480469h72v32c0 4.417969 3.582031 8 8 8h23.625c-.789062 15.523438-4.113281 30.816406-9.847656 45.261719-.050782.210937-.09375.421875-.121094.632813-.140625.5-.234375 1.011718-.28125 1.527343-.054688.546875-.054688 1.097657 0 1.640625 0 .207032-.046875.410156 0 .617188.089844.273437.191406.539062.3125.800781.449219 1.523437 1.339844 2.878906 2.5625 3.894531.382812.304688.796875.574219 1.230469.800782.253906.191406.519531.367187.800781.519531.230469.097656.480469.0625.710938.136719.429687.125.867187.210937 1.3125.253906.3125.082031.632812.144531.953124.183594.320313-.027344.640626-.074219.957032-.140626.167968 0 .320312.039063.480468 0 .429688-.082031.867188-.125 1.304688-.128906 4.417969 0 8 3.582032 8 8 0 4.417969-3.582031 8-8 8zm0 0"/><path d="m400 160.503906c0 8.835938-7.164062 16-16 16s-16-7.164062-16-16c0-8.835937 7.164062-16 16-16s16 7.164063 16 16zm0 0"/><path d="m144 200.503906c-26.507812 0-48 21.488282-48 48 0 26.507813 21.492188 48 48 48 26.511719 0 48-21.492187 48-48-.027344-26.5-21.5-47.972656-48-48zm0 80c-17.671875 0-32-14.328125-32-32s14.328125-32 32-32 32 14.328125 32 32-14.328125 32-32 32zm0 0"/><path d="m360 200.503906c-26.507812 0-48 21.488282-48 48 0 26.507813 21.492188 48 48 48 26.511719 0 48-21.492187 48-48-.027344-26.5-21.5-47.972656-48-48zm0 80c-17.671875 0-32-14.328125-32-32s14.328125-32 32-32 32 14.328125 32 32-14.328125 32-32 32zm0 0"/><path d="m160 248.503906c0 8.835938-7.164062 16-16 16s-16-7.164062-16-16c0-8.835937 7.164062-16 16-16s16 7.164063 16 16zm0 0"/><path d="m376 248.503906c0 8.835938-7.164062 16-16 16s-16-7.164062-16-16c0-8.835937 7.164062-16 16-16s16 7.164063 16 16zm0 0"/><path d="m232 144.503906c0-4.417968-3.582031-8-8-8h-32c-4.417969 0-8 3.582032-8 8 0 4.417969 3.582031 8 8 8h32c4.417969 0 8-3.582031 8-8zm0 0"/><path d="m320 136.503906h-32c-4.417969 0-8 3.582032-8 8 0 4.417969 3.582031 8 8 8h32c4.417969 0 8-3.582031 8-8 0-4.417968-3.582031-8-8-8zm0 0"/></svg>