<svg height="480pt" viewBox="0 -40 480 480" width="480pt" xmlns="http://www.w3.org/2000/svg"><path d="m456 160h-48v-152c0-4.417969-3.582031-8-8-8h-320c-4.417969 0-8 3.582031-8 8v152h-48c-13.253906 0-24 10.746094-24 24v112c0 13.253906 10.746094 24 24 24h32v56c0 13.253906 10.746094 24 24 24h32c13.253906 0 24-10.746094 24-24v-56h200v56c0 13.253906 10.746094 24 24 24h32c13.253906 0 24-10.746094 24-24v-56h40c13.253906 0 24-10.746094 24-24v-112c0-13.253906-10.746094-24-24-24zm-368-144h304v144h-16v-120c0-4.417969-3.582031-8-8-8h-256c-4.417969 0-8 3.582031-8 8v120h-16zm272 144h-240v-112h240zm-240 216c0 4.417969-3.582031 8-8 8h-32c-4.417969 0-8-3.582031-8-8v-56h48zm280 0c0 4.417969-3.582031 8-8 8h-32c-4.417969 0-8-3.582031-8-8v-56h48zm64-80c0 4.417969-3.582031 8-8 8h-432c-4.417969 0-8-3.582031-8-8v-112c0-4.417969 3.582031-8 8-8h432c4.417969 0 8 3.582031 8 8zm0 0"/><path d="m112 192c-26.507812 0-48 21.492188-48 48s21.492188 48 48 48 48-21.492188 48-48c-.027344-26.5-21.5-47.972656-48-48zm0 80c-17.671875 0-32-14.328125-32-32s14.328125-32 32-32 32 14.328125 32 32-14.328125 32-32 32zm0 0"/><path d="m368 192c-26.507812 0-48 21.492188-48 48s21.492188 48 48 48 48-21.492188 48-48c-.027344-26.5-21.5-47.972656-48-48zm0 80c-17.671875 0-32-14.328125-32-32s14.328125-32 32-32 32 14.328125 32 32-14.328125 32-32 32zm0 0"/></svg>