<svg height="480pt" viewBox="0 -76 480 480" width="480pt" xmlns="http://www.w3.org/2000/svg"><path d="m472 224h-8v-216c0-4.417969-3.582031-8-8-8h-368c-.347656.0429688-.695312.113281-1.03125.207031-.664062.050781-1.316406.179688-1.945312.394531-.464844.21875-.90625.488282-1.320313.796876-.4375.230468-.855469.5-1.246094.800781-.472656.511719-.878906 1.082031-1.199219 1.695312-.210937.253907-.398437.523438-.570312.800781l-.046875.121094-63.953125 143.9375v.046875c-.175781.519531-.296875 1.054688-.359375 1.597657-.160156.5-.269531 1.011718-.328125 1.53125v72.070312h-8c-4.417969 0-8 3.582031-8 8v32c0 4.417969 3.582031 8 8 8h48.550781c4.007813 31.992188 31.207031 55.996094 63.449219 55.996094s59.441406-24.003906 63.449219-55.996094h105.101562c4.007813 31.992188 31.207031 55.996094 63.449219 55.996094s59.441406-24.003906 63.449219-55.996094h56.550781c4.417969 0 8-3.582031 8-8v-32c0-4.417969-3.582031-8-8-8zm-24 0h-46.121094c-12.113281-15.167969-30.46875-24-49.878906-24s-37.765625 8.832031-49.878906 24h-102.121094v-208h248zm-159.449219 32h-105.101562c-.6875-5.492188-2.085938-10.871094-4.160157-16h113.421876c-2.074219 5.128906-3.472657 10.507812-4.160157 16zm-136.550781-163.3125-48 48-45.847656-45.847656 13.710937-30.839844h80.136719zm-120 61.007812 19.199219-43.199218 47.152343 47.152344c3.125 3.121093 8.1875 3.121093 11.3125 0l56-56c.746094-.746094 1.335938-1.632813 1.734376-2.609376.394531-.964843.597656-1.996093.601562-3.039062v-40c0-4.417969-3.582031-8-8-8h-81.023438l14.222657-32h90.800781v208h-14.121094c-12.113281-15.167969-30.46875-24-49.878906-24s-37.765625 8.832031-49.878906 24h-38.121094zm-16 86.304688h44.710938c-2.074219 5.128906-3.472657 10.507812-4.160157 16h-40.550781zm104 72c-26.507812 0-48-21.492188-48-48s21.492188-48 48-48 48 21.492188 48 48c-.027344 26.5-21.5 47.972656-48 48zm232 0c-26.507812 0-48-21.492188-48-48s21.492188-48 48-48 48 21.492188 48 48c-.027344 26.5-21.5 47.972656-48 48zm112-56h-48.550781c-.6875-5.492188-2.085938-10.871094-4.160157-16h52.710938zm0 0"/><path d="m120 240c-13.253906 0-24 10.746094-24 24s10.746094 24 24 24 24-10.746094 24-24-10.746094-24-24-24zm0 32c-4.417969 0-8-3.582031-8-8s3.582031-8 8-8 8 3.582031 8 8-3.582031 8-8 8zm0 0"/><path d="m352 240c-13.253906 0-24 10.746094-24 24s10.746094 24 24 24 24-10.746094 24-24-10.746094-24-24-24zm0 32c-4.417969 0-8-3.582031-8-8s3.582031-8 8-8 8 3.582031 8 8-3.582031 8-8 8zm0 0"/></svg>