<svg height="480pt" viewBox="0 -84 480 480" width="480pt" xmlns="http://www.w3.org/2000/svg"><path d="m472 0c-4.417969 0-8 3.582031-8 8v40h-272v-40c0-4.417969-3.582031-8-8-8s-8 3.582031-8 8v184h-32v-184c0-4.417969-3.582031-8-8-8h-96c-22.082031.0273438-39.9726562 17.917969-40 40v176c.0546875 8.839844 3.042969 17.410156 8.496094 24.367188-.316406 2.53125-.480469 5.082031-.496094 7.632812.199219 33.644531 26.414062 61.386719 59.988281 63.496094 33.578125 2.105468 63.054688-22.140625 67.460938-55.496094h.550781c4.417969 0 8-3.582031 8-8v-8h32v8c0 4.417969 3.582031 8 8 8h16.550781c4.007813 31.992188 31.207031 55.996094 63.449219 55.996094s59.441406-24.003906 63.449219-55.996094h9.101562c4.007813 31.992188 31.207031 55.996094 63.449219 55.996094s59.441406-24.003906 63.449219-55.996094h8.550781c4.417969 0 8-3.582031 8-8v-240c0-4.417969-3.582031-8-8-8zm-8 152h-272v-88h272zm-424-136h88v136h-112v-48h64c4.417969 0 8-3.582031 8-8v-56c0-4.417969-3.582031-8-8-8h-62.527344c3.378906-9.554688 12.394532-15.957031 22.527344-16zm32 32v40h-56v-40zm-56 168v-48h112v49.089844c-11.226562-20.386719-32.640625-33.058594-55.910156-33.089844-23.269532-.03125-44.722656 12.582031-56 32.9375-.011719-.3125-.089844-.617188-.089844-.9375zm56 80c-26.507812 0-48-21.492188-48-48s21.492188-48 48-48 48 21.492188 48 48c-.027344 26.5-21.5 47.972656-48 48zm72-72v-16h32v16zm120 72c-26.507812 0-48-21.492188-48-48s21.492188-48 48-48 48 21.492188 48 48c-.027344 26.5-21.5 47.972656-48 48zm136 0c-26.507812 0-48-21.492188-48-48s21.492188-48 48-48 48 21.492188 48 48c-.027344 26.5-21.5 47.972656-48 48zm64-56h-.550781c-4.007813-31.992188-31.207031-55.996094-63.449219-55.996094s-59.441406 24.003906-63.449219 55.996094h-9.101562c-4.007813-31.992188-31.207031-55.996094-63.449219-55.996094s-59.441406 24.003906-63.449219 55.996094h-8.550781v-72h272zm0 0"/><path d="m72 224c-13.253906 0-24 10.746094-24 24s10.746094 24 24 24 24-10.746094 24-24-10.746094-24-24-24zm0 32c-4.417969 0-8-3.582031-8-8s3.582031-8 8-8 8 3.582031 8 8-3.582031 8-8 8zm0 0"/><path d="m264 224c-13.253906 0-24 10.746094-24 24s10.746094 24 24 24 24-10.746094 24-24-10.746094-24-24-24zm0 32c-4.417969 0-8-3.582031-8-8s3.582031-8 8-8 8 3.582031 8 8-3.582031 8-8 8zm0 0"/><path d="m400 224c-13.253906 0-24 10.746094-24 24s10.746094 24 24 24 24-10.746094 24-24-10.746094-24-24-24zm0 32c-4.417969 0-8-3.582031-8-8s3.582031-8 8-8 8 3.582031 8 8-3.582031 8-8 8zm0 0"/></svg>