<svg height="480pt" viewBox="0 -80 480 480" width="480pt" xmlns="http://www.w3.org/2000/svg"><path d="m80 272c0 8.835938-7.164062 16-16 16s-16-7.164062-16-16 7.164062-16 16-16 16 7.164062 16 16zm0 0"/><path d="m320 272c0 8.835938-7.164062 16-16 16s-16-7.164062-16-16 7.164062-16 16-16 16 7.164062 16 16zm0 0"/><path d="m432 272c0 8.835938-7.164062 16-16 16s-16-7.164062-16-16 7.164062-16 16-16 16 7.164062 16 16zm0 0"/><path d="m472 192h-296v-184c0-4.417969-3.582031-8-8-8h-96c-.300781.0390625-.601562.101562-.894531.183594-.558594.046875-1.109375.160156-1.640625.328125-.457032.164062-.902344.371093-1.320313.617187-.957031.476563-1.78125 1.183594-2.402343 2.054688-.222657.21875-.433594.453125-.628907.695312l-48 80c-.738281 1.25-1.121093 2.671875-1.113281 4.121094v104h-8c-4.417969 0-8 3.582031-8 8v32c0 4.417969 3.582031 8 8 8h20.320312c-17.292968 19.21875-16.261718 48.679688 2.339844 66.640625 18.597656 17.957031 48.082032 17.957031 66.679688 0 18.601562-17.960937 19.632812-47.421875 2.339844-66.640625h28.320312v56c0 4.417969 3.582031 8 8 8h96c4.417969 0 8-3.582031 8-8v-56h28.320312c-17.292968 19.21875-16.261718 48.679688 2.339844 66.640625 18.597656 17.957031 48.082032 17.957031 66.679688 0 18.601562-17.960937 19.632812-47.421875 2.339844-66.640625h40.640624c-17.292968 19.21875-16.261718 48.679688 2.339844 66.640625 18.597656 17.957031 48.082032 17.957031 66.679688 0 18.601562-17.960937 19.632812-47.421875 2.339844-66.640625h20.320312c4.417969 0 8-3.582031 8-8v-32c0-4.417969-3.582031-8-8-8zm-376 80c0 17.671875-14.328125 32-32 32s-32-14.328125-32-32 14.328125-32 32-32 32 14.328125 32 32zm128 16h-80v-48h80zm112-16c0 17.671875-14.328125 32-32 32s-32-14.328125-32-32 14.328125-32 32-32 32 14.328125 32 32zm112 0c0 17.671875-14.328125 32-32 32s-32-14.328125-32-32 14.328125-32 32-32 32 14.328125 32 32zm16-48h-448v-16h8c4.417969 0 8-3.582031 8-8v-109.785156l44.527344-74.214844h83.472656v184c0 4.417969 3.582031 8 8 8h296zm0 0"/><path d="m136 32h-51.199219c-.300781.042969-.597656.101562-.890625.175781-.554687.054688-1.105468.167969-1.636718.335938-.464844.164062-.914063.371093-1.335938.625-.453125.242187-.878906.527343-1.273438.855469-.402343.363281-.769531.765624-1.097656 1.199218-.21875.21875-.425781.449219-.621094.6875l-28.800781 48c-.070312.167969-.132812.339844-.183593.511719-.234376.484375-.414063.992187-.535157 1.511719-.164062.523437-.269531 1.058594-.320312 1.601562 0 .183594-.105469.34375-.105469.535156.042969.308594.101562.613282.183594.914063.050781.542969.160156 1.078125.328125 1.597656.351562.941407.847656 1.824219 1.472656 2.609375.363281.414063.769531.78125 1.214844 1.105469.214843.222656.441406.429687.679687.621094.21875.109375.445313.203125.671875.289062.234375.113281.457031.207031.707031.304688.875.332031 1.804688.507812 2.742188.519531h80c4.417969 0 8-3.582031 8-8v-48c0-4.417969-3.582031-8-8-8zm-65.871094 48 19.199219-32h38.671875v32zm0 0"/></svg>